{"accessors":[{"bufferView":0,"componentType":5126,"count":684,"min":[-0.2800000011920929,0.0,-0.0989999994635582],"max":[0.2800000011920929,0.48399999737739565,0.07999999821186066],"type":"VEC3","name":"HomebaseBriefcase_mesh_vertices#0_POSITION"},{"bufferView":0,"byteOffset":12,"componentType":5120,"count":684,"type":"VEC4","name":"HomebaseBriefcase_mesh_vertices#0_TANGENT"},{"bufferView":0,"byteOffset":16,"componentType":5120,"count":684,"type":"VEC4","name":"HomebaseBriefcase_mesh_vertices#0_NORMAL"},{"bufferView":0,"byteOffset":20,"componentType":5122,"count":684,"type":"VEC2","name":"HomebaseBriefcase_mesh_vertices#0_TEXCOORD_0"},{"bufferView":0,"byteOffset":24,"componentType":5122,"count":684,"type":"VEC2","name":"HomebaseBriefcase_mesh_vertices#0_TEXCOORD_1"},{"bufferView":0,"byteOffset":28,"componentType":5123,"count":684,"type":"VEC4","name":"HomebaseBriefcase_mesh_vertices#0_COLOR_0"},{"bufferView":1,"componentType":5123,"count":684,"type":"SCALAR","name":"HomebaseBriefcase_mesh_indices#3"}],"asset":{"generator":"VFR Multitool procedural asset generator","version":"2.0","extensions":{"ASOBO_asset_optimized":{"BoundingBoxMax":[0.2800000011920929,0.48399999737739565,0.07999999821186066],"BoundingBoxMin":[-0.2800000011920929,0.0,-0.0989999994635582],"MajorVersion":4,"MinorVersion":7,"UseCheckerboardMaterialForMissingTextures":true,"UseOnlyFilenameForImageURI":true}}},"bufferViews":[{"buffer":0,"byteLength":24624,"byteStride":36,"target":34962,"name":"BufferViewVertexND"},{"buffer":0,"byteLength":1368,"byteOffset":24624,"target":34963,"name":"BufferViewIndexU16"}],"materials":[{"name":"Aktenkoffer_Schale_Anthrazit","doubleSided":true,"pbrMetallicRoughness":{"baseColorFactor":[0.045,0.055,0.06,1.0],"metallicFactor":0.32,"roughnessFactor":0.35}},{"name":"Aktenkoffer_Kanten_Metall","doubleSided":true,"pbrMetallicRoughness":{"baseColorFactor":[0.5,0.55,0.56,1.0],"metallicFactor":0.88,"roughnessFactor":0.22}},{"name":"Aktenkoffer_Etikett_Gelb","doubleSided":true,"pbrMetallicRoughness":{"baseColorFactor":[0.88,0.66,0.09,1.0],"metallicFactor":0.08,"roughnessFactor":0.5}},{"name":"Aktenkoffer_Schloss","doubleSided":true,"pbrMetallicRoughness":{"baseColorFactor":[0.68,0.7,0.67,1.0],"metallicFactor":0.82,"roughnessFactor":0.2}}],"meshes":[{"primitives":[{"attributes":{"COLOR_0":5,"NORMAL":2,"POSITION":0,"TANGENT":1,"TEXCOORD_0":3,"TEXCOORD_1":4},"indices":6,"material":1,"mode":4,"extras":{"ASOBO_primitive":{"PrimitiveCount":168,"UV2Length":0.7071067690849304,"UVLength":0.7071067690849304,"VertexCount":504,"VertexType":"VTX","VertexVersion":2}}},{"attributes":{"COLOR_0":5,"NORMAL":2,"POSITION":0,"TANGENT":1,"TEXCOORD_0":3,"TEXCOORD_1":4},"indices":6,"material":0,"mode":4,"extras":{"ASOBO_primitive":{"BaseVertexIndex":504,"PrimitiveCount":24,"StartIndex":504,"UV2Length":0.7071067690849304,"UVLength":0.7071067690849304,"VertexCount":72,"VertexType":"VTX","VertexVersion":2}}},{"attributes":{"COLOR_0":5,"NORMAL":2,"POSITION":0,"TANGENT":1,"TEXCOORD_0":3,"TEXCOORD_1":4},"indices":6,"material":3,"mode":4,"extras":{"ASOBO_primitive":{"BaseVertexIndex":576,"PrimitiveCount":24,"StartIndex":576,"UV2Length":0.7071067690849304,"UVLength":0.7071067690849304,"VertexCount":72,"VertexType":"VTX","VertexVersion":2}}},{"attributes":{"COLOR_0":5,"NORMAL":2,"POSITION":0,"TANGENT":1,"TEXCOORD_0":3,"TEXCOORD_1":4},"indices":6,"material":2,"mode":4,"extras":{"ASOBO_primitive":{"BaseVertexIndex":648,"PrimitiveCount":12,"StartIndex":648,"UV2Length":0.7071067690849304,"UVLength":0.7071067690849304,"VertexCount":36,"VertexType":"VTX","VertexVersion":2}}}],"name":"HomebaseBriefcase_mesh"}],"nodes":[{"mesh":0,"name":"HomebaseBriefcase_node"}],"scene":0,"scenes":[{"nodes":[0]}],"extensionsUsed":["ASOBO_asset_optimized"],"buffers":[{"byteLength":25992,"uri":"HomebaseBriefcase_LOD00.bin"}]}
