{"accessors":[{"bufferView":0,"componentType":5126,"count":864,"min":[-0.35749998688697817,0.0,-0.11999999731779099],"max":[0.35749998688697817,0.492000013589859,0.11999999731779099],"type":"VEC3","name":"HomebaseJerrycanPair_mesh_vertices#0_POSITION"},{"bufferView":0,"byteOffset":12,"componentType":5120,"count":864,"type":"VEC4","name":"HomebaseJerrycanPair_mesh_vertices#0_TANGENT"},{"bufferView":0,"byteOffset":16,"componentType":5120,"count":864,"type":"VEC4","name":"HomebaseJerrycanPair_mesh_vertices#0_NORMAL"},{"bufferView":0,"byteOffset":20,"componentType":5122,"count":864,"type":"VEC2","name":"HomebaseJerrycanPair_mesh_vertices#0_TEXCOORD_0"},{"bufferView":0,"byteOffset":24,"componentType":5122,"count":864,"type":"VEC2","name":"HomebaseJerrycanPair_mesh_vertices#0_TEXCOORD_1"},{"bufferView":0,"byteOffset":28,"componentType":5123,"count":864,"type":"VEC4","name":"HomebaseJerrycanPair_mesh_vertices#0_COLOR_0"},{"bufferView":1,"componentType":5123,"count":864,"type":"SCALAR","name":"HomebaseJerrycanPair_mesh_indices#3"}],"asset":{"generator":"VFR Multitool procedural asset generator","version":"2.0","extensions":{"ASOBO_asset_optimized":{"BoundingBoxMax":[0.35749998688697817,0.492000013589859,0.11999999731779099],"BoundingBoxMin":[-0.35749998688697817,0.0,-0.11999999731779099],"MajorVersion":4,"MinorVersion":7,"UseCheckerboardMaterialForMissingTextures":true,"UseOnlyFilenameForImageURI":true}}},"bufferViews":[{"buffer":0,"byteLength":31104,"byteStride":36,"target":34962,"name":"BufferViewVertexND"},{"buffer":0,"byteLength":1728,"byteOffset":31104,"target":34963,"name":"BufferViewIndexU16"}],"materials":[{"name":"Jerrycan_Gruen","doubleSided":true,"pbrMetallicRoughness":{"baseColorFactor":[0.05,0.22,0.11,1.0],"metallicFactor":0.18,"roughnessFactor":0.46}},{"name":"Jerrycan_Halter_Dunkel","doubleSided":true,"pbrMetallicRoughness":{"baseColorFactor":[0.04,0.05,0.052,1.0],"metallicFactor":0.7,"roughnessFactor":0.28}},{"name":"Jerrycan_Gurt","doubleSided":true,"pbrMetallicRoughness":{"baseColorFactor":[0.18,0.2,0.2,1.0],"metallicFactor":0.28,"roughnessFactor":0.5}},{"name":"Jerrycan_Griff","doubleSided":true,"pbrMetallicRoughness":{"baseColorFactor":[0.075,0.09,0.09,1.0],"metallicFactor":0.72,"roughnessFactor":0.26}}],"meshes":[{"primitives":[{"attributes":{"COLOR_0":5,"NORMAL":2,"POSITION":0,"TANGENT":1,"TEXCOORD_0":3,"TEXCOORD_1":4},"indices":6,"material":1,"mode":4,"extras":{"ASOBO_primitive":{"PrimitiveCount":48,"UV2Length":0.7071067690849304,"UVLength":0.7071067690849304,"VertexCount":144,"VertexType":"VTX","VertexVersion":2}}},{"attributes":{"COLOR_0":5,"NORMAL":2,"POSITION":0,"TANGENT":1,"TEXCOORD_0":3,"TEXCOORD_1":4},"indices":6,"material":3,"mode":4,"extras":{"ASOBO_primitive":{"BaseVertexIndex":144,"PrimitiveCount":192,"StartIndex":144,"UV2Length":0.7071067690849304,"UVLength":0.7071067690849304,"VertexCount":576,"VertexType":"VTX","VertexVersion":2}}},{"attributes":{"COLOR_0":5,"NORMAL":2,"POSITION":0,"TANGENT":1,"TEXCOORD_0":3,"TEXCOORD_1":4},"indices":6,"material":0,"mode":4,"extras":{"ASOBO_primitive":{"BaseVertexIndex":720,"PrimitiveCount":24,"StartIndex":720,"UV2Length":0.7071067690849304,"UVLength":0.7071067690849304,"VertexCount":72,"VertexType":"VTX","VertexVersion":2}}},{"attributes":{"COLOR_0":5,"NORMAL":2,"POSITION":0,"TANGENT":1,"TEXCOORD_0":3,"TEXCOORD_1":4},"indices":6,"material":2,"mode":4,"extras":{"ASOBO_primitive":{"BaseVertexIndex":792,"PrimitiveCount":24,"StartIndex":792,"UV2Length":0.7071067690849304,"UVLength":0.7071067690849304,"VertexCount":72,"VertexType":"VTX","VertexVersion":2}}}],"name":"HomebaseJerrycanPair_mesh"}],"nodes":[{"mesh":0,"name":"HomebaseJerrycanPair_node"}],"scene":0,"scenes":[{"nodes":[0]}],"extensionsUsed":["ASOBO_asset_optimized"],"buffers":[{"byteLength":32832,"uri":"HomebaseJerrycanPair_LOD00.bin"}]}
