{"accessors":[{"bufferView":0,"componentType":5126,"count":720,"min":[-0.35499998927116396,0.0,-0.2029999941587448],"max":[0.35499998927116396,0.5799999833106995,0.19249999523162843],"type":"VEC3","name":"HomebaseToolbox_mesh_vertices#0_POSITION"},{"bufferView":0,"byteOffset":12,"componentType":5120,"count":720,"type":"VEC4","name":"HomebaseToolbox_mesh_vertices#0_TANGENT"},{"bufferView":0,"byteOffset":16,"componentType":5120,"count":720,"type":"VEC4","name":"HomebaseToolbox_mesh_vertices#0_NORMAL"},{"bufferView":0,"byteOffset":20,"componentType":5122,"count":720,"type":"VEC2","name":"HomebaseToolbox_mesh_vertices#0_TEXCOORD_0"},{"bufferView":0,"byteOffset":24,"componentType":5122,"count":720,"type":"VEC2","name":"HomebaseToolbox_mesh_vertices#0_TEXCOORD_1"},{"bufferView":0,"byteOffset":28,"componentType":5123,"count":720,"type":"VEC4","name":"HomebaseToolbox_mesh_vertices#0_COLOR_0"},{"bufferView":1,"componentType":5123,"count":720,"type":"SCALAR","name":"HomebaseToolbox_mesh_indices#4"}],"asset":{"generator":"VFR Multitool procedural asset generator","version":"2.0","extensions":{"ASOBO_asset_optimized":{"BoundingBoxMax":[0.35499998927116396,0.5799999833106995,0.19249999523162843],"BoundingBoxMin":[-0.35499998927116396,0.0,-0.2029999941587448],"MajorVersion":4,"MinorVersion":7,"UseCheckerboardMaterialForMissingTextures":true,"UseOnlyFilenameForImageURI":true}}},"bufferViews":[{"buffer":0,"byteLength":25920,"byteStride":36,"target":34962,"name":"BufferViewVertexND"},{"buffer":0,"byteLength":1440,"byteOffset":25920,"target":34963,"name":"BufferViewIndexU16"}],"materials":[{"name":"Werkzeugkiste_Gruen","doubleSided":true,"pbrMetallicRoughness":{"baseColorFactor":[0.025,0.26,0.13,1.0],"metallicFactor":0.2,"roughnessFactor":0.42}},{"name":"Werkzeugkiste_Dunkel","doubleSided":true,"pbrMetallicRoughness":{"baseColorFactor":[0.025,0.04,0.035,1.0],"metallicFactor":0.5,"roughnessFactor":0.3}},{"name":"Werkzeugkiste_Metall","doubleSided":true,"pbrMetallicRoughness":{"baseColorFactor":[0.54,0.58,0.58,1.0],"metallicFactor":0.9,"roughnessFactor":0.2}},{"name":"Werkzeugkiste_Griff","doubleSided":true,"pbrMetallicRoughness":{"baseColorFactor":[0.04,0.06,0.055,1.0],"metallicFactor":0.7,"roughnessFactor":0.28}},{"name":"Werkzeugkiste_Warnstreifen_Gelb","doubleSided":true,"pbrMetallicRoughness":{"baseColorFactor":[0.9,0.65,0.06,1.0],"metallicFactor":0.08,"roughnessFactor":0.48}}],"meshes":[{"primitives":[{"attributes":{"COLOR_0":5,"NORMAL":2,"POSITION":0,"TANGENT":1,"TEXCOORD_0":3,"TEXCOORD_1":4},"indices":6,"material":2,"mode":4,"extras":{"ASOBO_primitive":{"PrimitiveCount":48,"UV2Length":0.7071067690849304,"UVLength":0.7071067690849304,"VertexCount":144,"VertexType":"VTX","VertexVersion":2}}},{"attributes":{"COLOR_0":5,"NORMAL":2,"POSITION":0,"TANGENT":1,"TEXCOORD_0":3,"TEXCOORD_1":4},"indices":6,"material":3,"mode":4,"extras":{"ASOBO_primitive":{"BaseVertexIndex":144,"PrimitiveCount":96,"StartIndex":144,"UV2Length":0.7071067690849304,"UVLength":0.7071067690849304,"VertexCount":288,"VertexType":"VTX","VertexVersion":2}}},{"attributes":{"COLOR_0":5,"NORMAL":2,"POSITION":0,"TANGENT":1,"TEXCOORD_0":3,"TEXCOORD_1":4},"indices":6,"material":1,"mode":4,"extras":{"ASOBO_primitive":{"BaseVertexIndex":432,"PrimitiveCount":72,"StartIndex":432,"UV2Length":0.7071067690849304,"UVLength":0.7071067690849304,"VertexCount":216,"VertexType":"VTX","VertexVersion":2}}},{"attributes":{"COLOR_0":5,"NORMAL":2,"POSITION":0,"TANGENT":1,"TEXCOORD_0":3,"TEXCOORD_1":4},"indices":6,"material":0,"mode":4,"extras":{"ASOBO_primitive":{"BaseVertexIndex":648,"PrimitiveCount":12,"StartIndex":648,"UV2Length":0.7071067690849304,"UVLength":0.7071067690849304,"VertexCount":36,"VertexType":"VTX","VertexVersion":2}}},{"attributes":{"COLOR_0":5,"NORMAL":2,"POSITION":0,"TANGENT":1,"TEXCOORD_0":3,"TEXCOORD_1":4},"indices":6,"material":4,"mode":4,"extras":{"ASOBO_primitive":{"BaseVertexIndex":684,"PrimitiveCount":12,"StartIndex":684,"UV2Length":0.7071067690849304,"UVLength":0.7071067690849304,"VertexCount":36,"VertexType":"VTX","VertexVersion":2}}}],"name":"HomebaseToolbox_mesh"}],"nodes":[{"mesh":0,"name":"HomebaseToolbox_node"}],"scene":0,"scenes":[{"nodes":[0]}],"extensionsUsed":["ASOBO_asset_optimized"],"buffers":[{"byteLength":27360,"uri":"HomebaseToolbox_LOD00.bin"}]}
