{
  "asset": {
    "generator": "Blender 4.5 glTF exporter; prepared by asset-tools/create-homebase-backpack-from-cgtrader.py",
    "version": "2.0",
    "extras": {
      "homebase_asset_key": "backpack",
      "homebase_asset_version": "1.0.1",
      "homebase_asset_folder": "VFRHomebaseBackpack",
      "homebase_source_model_id": "6149120",
      "homebase_source_license": "CGTrader Royalty Free License (No AI)",
      "homebase_upstream_fbx_sha256": "F69ECD2910BBC52167D2AE5BC5C5B29330F34C27E39BF853888140CAD8D055AD",
      "homebase_upstream_optimized_fbx_sha256": "E73CBAF171CD3C51BBD467AA48DBACEE15DE9D11D1BDB27C0C351851EEB2C28C",
      "homebase_upstream_texture_rar_sha256": "6DB4278468661125656335AC68EFB10401C61CDFADB76475A37251AFA4956886",
      "homebase_texture_sha256": {
        "HomebaseBackpack_BaseColor.png": "B2A8EC0C7A9E30E1A1AD6005B1936143D5C43B4EB0A2697915F55B3A36BC1146"
      },
      "homebase_sdk_build_performed": false,
      "homebase_publisher_import_performed": false
    }
  },
  "scene": 0,
  "scenes": [
    {
      "extras": {
        "homebase_asset_key": "backpack",
        "homebase_asset_version": "1.0.1",
        "homebase_asset_folder": "VFRHomebaseBackpack",
        "homebase_asset_title": "VFR Multitool Homebase Backpack",
        "homebase_visible_label": "Rucksack",
        "homebase_mission_roles": [
          "cargo",
          "scene-prop"
        ],
        "homebase_source_url": "https://www.cgtrader.com/free-3d-models/military/melee/survival-backpack-3539bf1a-c5da-434a-81c7-fa78fea19565",
        "homebase_source_license": "CGTrader Royalty Free License (No AI)",
        "homebase_no_ai_training": true
      },
      "name": "HomebaseBackpack",
      "nodes": [
        0
      ]
    }
  ],
  "nodes": [
    {
      "extras": {
        "homebase_asset_key": "backpack",
        "homebase_asset_version": "1.0.1",
        "homebase_grounded": true
      },
      "mesh": 0,
      "name": "HomebaseBackpack_node"
    }
  ],
  "materials": [
    {
      "doubleSided": true,
      "extras": {
        "homebase_texture_workflow": "sRGB BaseColor plus scalar roughness",
        "homebase_source_license": "CGTrader Royalty Free License (No AI)"
      },
      "name": "HomebaseBackpack_SurvivalFabric_PBR",
      "pbrMetallicRoughness": {
        "baseColorTexture": {
          "index": 0
        },
        "metallicFactor": 0.0,
        "roughnessFactor": 0.76
      }
    }
  ],
  "meshes": [
    {
      "name": "HomebaseBackpack_mesh",
      "primitives": [
        {
          "attributes": {
            "POSITION": 0,
            "NORMAL": 1,
            "TEXCOORD_0": 2,
            "TANGENT": 3
          },
          "indices": 4,
          "material": 0
        }
      ],
      "extras": {
        "homebase_source_creator": "JAN1LAB",
        "homebase_source_model_id": "6149120",
        "homebase_source_license": "CGTrader Royalty Free License (No AI)"
      }
    }
  ],
  "textures": [
    {
      "sampler": 0,
      "source": 0
    }
  ],
  "images": [
    {
      "mimeType": "image/png",
      "name": "HomebaseBackpack_BaseColor",
      "uri": "../texture/HomebaseBackpack_BaseColor.png"
    }
  ],
  "accessors": [
    {
      "bufferView": 0,
      "componentType": 5126,
      "count": 17857,
      "max": [
        0.27000001072883606,
        0.7200000286102295,
        0.1899999976158142
      ],
      "min": [
        -0.27000001072883606,
        0,
        -0.1899999976158142
      ],
      "type": "VEC3"
    },
    {
      "bufferView": 1,
      "componentType": 5126,
      "count": 17857,
      "type": "VEC3"
    },
    {
      "bufferView": 2,
      "componentType": 5126,
      "count": 17857,
      "type": "VEC2"
    },
    {
      "bufferView": 3,
      "componentType": 5126,
      "count": 17857,
      "type": "VEC4"
    },
    {
      "bufferView": 4,
      "componentType": 5123,
      "count": 65475,
      "type": "SCALAR"
    }
  ],
  "bufferViews": [
    {
      "buffer": 0,
      "byteLength": 214284,
      "byteOffset": 0,
      "target": 34962
    },
    {
      "buffer": 0,
      "byteLength": 214284,
      "byteOffset": 214284,
      "target": 34962
    },
    {
      "buffer": 0,
      "byteLength": 142856,
      "byteOffset": 428568,
      "target": 34962
    },
    {
      "buffer": 0,
      "byteLength": 285712,
      "byteOffset": 571424,
      "target": 34962
    },
    {
      "buffer": 0,
      "byteLength": 130950,
      "byteOffset": 857136,
      "target": 34963
    }
  ],
  "samplers": [
    {
      "magFilter": 9729,
      "minFilter": 9987
    }
  ],
  "buffers": [
    {
      "byteLength": 988088,
      "uri": "HomebaseBackpack_LOD00.bin"
    }
  ]
}
