{"accessors":[{"bufferView":0,"componentType":5126,"count":101,"min":[0.0],"max":[5.0],"type":"SCALAR"},{"bufferView":1,"componentType":5126,"count":101,"type":"VEC4"},{"bufferView":2,"componentType":5126,"count":576,"min":[-11.949999809265137,-0.20000000298023225,-11.949999809265137],"max":[11.949999809265137,0.20000000298023225,11.949999809265137],"type":"VEC3","name":"Zylinder_vertices#0_POSITION"},{"bufferView":2,"byteOffset":12,"componentType":5120,"count":576,"type":"VEC4","name":"Zylinder_vertices#0_TANGENT"},{"bufferView":2,"byteOffset":16,"componentType":5120,"count":576,"type":"VEC4","name":"Zylinder_vertices#0_NORMAL"},{"bufferView":2,"byteOffset":20,"componentType":5122,"count":576,"type":"VEC2","name":"Zylinder_vertices#0_TEXCOORD_0"},{"bufferView":2,"byteOffset":24,"componentType":5122,"count":576,"type":"VEC2","name":"Zylinder_vertices#0_TEXCOORD_1"},{"bufferView":2,"byteOffset":28,"componentType":5123,"count":576,"type":"VEC4","name":"Zylinder_vertices#0_COLOR_0"},{"bufferView":3,"componentType":5123,"count":1140,"type":"SCALAR","name":"Zylinder_indices#0"},{"bufferView":2,"byteOffset":20736,"componentType":5126,"count":2018,"min":[-16.799999237060548,-0.4000000059604645,-16.799999237060548],"max":[16.799999237060548,0.0,16.799999237060548],"type":"VEC3","name":"RoundHangarApronRamp_mesh_vertices#0_POSITION"},{"bufferView":2,"byteOffset":20748,"componentType":5120,"count":2018,"type":"VEC4","name":"RoundHangarApronRamp_mesh_vertices#0_TANGENT"},{"bufferView":2,"byteOffset":20752,"componentType":5120,"count":2018,"type":"VEC4","name":"RoundHangarApronRamp_mesh_vertices#0_NORMAL"},{"bufferView":2,"byteOffset":20756,"componentType":5122,"count":2018,"type":"VEC2","name":"RoundHangarApronRamp_mesh_vertices#0_TEXCOORD_0"},{"bufferView":2,"byteOffset":20760,"componentType":5122,"count":2018,"type":"VEC2","name":"RoundHangarApronRamp_mesh_vertices#0_TEXCOORD_1"},{"bufferView":2,"byteOffset":20764,"componentType":5123,"count":2018,"type":"VEC4","name":"RoundHangarApronRamp_mesh_vertices#0_COLOR_0"},{"bufferView":3,"byteOffset":2280,"componentType":5123,"count":3456,"type":"SCALAR","name":"RoundHangarApronRamp_mesh_indices#0"},{"bufferView":2,"byteOffset":93384,"componentType":5126,"count":1732,"min":[-12.033770561218262,0.0,-12.049691200256348],"max":[12.055000305175782,6.650000095367432,6.0],"type":"VEC3","name":"RoundHangarWall_mesh_vertices#0_POSITION"},{"bufferView":2,"byteOffset":93396,"componentType":5120,"count":1732,"type":"VEC4","name":"RoundHangarWall_mesh_vertices#0_TANGENT"},{"bufferView":2,"byteOffset":93400,"componentType":5120,"count":1732,"type":"VEC4","name":"RoundHangarWall_mesh_vertices#0_NORMAL"},{"bufferView":2,"byteOffset":93404,"componentType":5122,"count":1732,"type":"VEC2","name":"RoundHangarWall_mesh_vertices#0_TEXCOORD_0"},{"bufferView":2,"byteOffset":93408,"componentType":5122,"count":1732,"type":"VEC2","name":"RoundHangarWall_mesh_vertices#0_TEXCOORD_1"},{"bufferView":2,"byteOffset":93412,"componentType":5123,"count":1732,"type":"VEC4","name":"RoundHangarWall_mesh_vertices#0_COLOR_0"},{"bufferView":3,"byteOffset":9192,"componentType":5123,"count":3456,"type":"SCALAR","name":"RoundHangarWall_mesh_indices#0"},{"bufferView":2,"byteOffset":155736,"componentType":5126,"count":1540,"min":[-12.34000015258789,6.650000095367432,-12.34000015258789],"max":[12.34000015258789,6.96999979019165,12.34000015258789],"type":"VEC3","name":"RoundHangarRoof_mesh_vertices#0_POSITION"},{"bufferView":2,"byteOffset":155748,"componentType":5120,"count":1540,"type":"VEC4","name":"RoundHangarRoof_mesh_vertices#0_TANGENT"},{"bufferView":2,"byteOffset":155752,"componentType":5120,"count":1540,"type":"VEC4","name":"RoundHangarRoof_mesh_vertices#0_NORMAL"},{"bufferView":2,"byteOffset":155756,"componentType":5122,"count":1540,"type":"VEC2","name":"RoundHangarRoof_mesh_vertices#0_TEXCOORD_0"},{"bufferView":2,"byteOffset":155760,"componentType":5122,"count":1540,"type":"VEC2","name":"RoundHangarRoof_mesh_vertices#0_TEXCOORD_1"},{"bufferView":2,"byteOffset":155764,"componentType":5123,"count":1540,"type":"VEC4","name":"RoundHangarRoof_mesh_vertices#0_COLOR_0"},{"bufferView":3,"byteOffset":16104,"componentType":5123,"count":3072,"type":"SCALAR","name":"RoundHangarRoof_mesh_indices#0"},{"bufferView":2,"byteOffset":211176,"componentType":5126,"count":1540,"min":[-12.5,6.630000114440918,-12.5],"max":[12.5,7.099999904632568,12.5],"type":"VEC3","name":"RoundHangarRoofLip_mesh_vertices#0_POSITION"},{"bufferView":2,"byteOffset":211188,"componentType":5120,"count":1540,"type":"VEC4","name":"RoundHangarRoofLip_mesh_vertices#0_TANGENT"},{"bufferView":2,"byteOffset":211192,"componentType":5120,"count":1540,"type":"VEC4","name":"RoundHangarRoofLip_mesh_vertices#0_NORMAL"},{"bufferView":2,"byteOffset":211196,"componentType":5122,"count":1540,"type":"VEC2","name":"RoundHangarRoofLip_mesh_vertices#0_TEXCOORD_0"},{"bufferView":2,"byteOffset":211200,"componentType":5122,"count":1540,"type":"VEC2","name":"RoundHangarRoofLip_mesh_vertices#0_TEXCOORD_1"},{"bufferView":2,"byteOffset":211204,"componentType":5123,"count":1540,"type":"VEC4","name":"RoundHangarRoofLip_mesh_vertices#0_COLOR_0"},{"bufferView":3,"byteOffset":22248,"componentType":5123,"count":3072,"type":"SCALAR","name":"RoundHangarRoofLip_mesh_indices#0"},{"bufferView":2,"byteOffset":266616,"componentType":5126,"count":1732,"min":[-11.019186019897461,6.409999847412109,-12.479352951049805],"max":[12.479996681213379,6.550000190734863,12.479524612426758],"type":"VEC3","name":"RoundHangarDoorRail_mesh_vertices#0_POSITION"},{"bufferView":2,"byteOffset":266628,"componentType":5120,"count":1732,"type":"VEC4","name":"RoundHangarDoorRail_mesh_vertices#0_TANGENT"},{"bufferView":2,"byteOffset":266632,"componentType":5120,"count":1732,"type":"VEC4","name":"RoundHangarDoorRail_mesh_vertices#0_NORMAL"},{"bufferView":2,"byteOffset":266636,"componentType":5122,"count":1732,"type":"VEC2","name":"RoundHangarDoorRail_mesh_vertices#0_TEXCOORD_0"},{"bufferView":2,"byteOffset":266640,"componentType":5122,"count":1732,"type":"VEC2","name":"RoundHangarDoorRail_mesh_vertices#0_TEXCOORD_1"},{"bufferView":2,"byteOffset":266644,"componentType":5123,"count":1732,"type":"VEC4","name":"RoundHangarDoorRail_mesh_vertices#0_COLOR_0"},{"bufferView":3,"byteOffset":28392,"componentType":5123,"count":3456,"type":"SCALAR","name":"RoundHangarDoorRail_mesh_indices#0"},{"bufferView":2,"byteOffset":328968,"componentType":5126,"count":216,"min":[-0.1599999964237213,-3.325000047683716,-0.1599999964237213],"max":[0.1599999964237213,3.325000047683716,0.1599999964237213],"type":"VEC3","name":"Würfel_vertices#0_POSITION"},{"bufferView":2,"byteOffset":328980,"componentType":5120,"count":216,"type":"VEC4","name":"Würfel_vertices#0_TANGENT"},{"bufferView":2,"byteOffset":328984,"componentType":5120,"count":216,"type":"VEC4","name":"Würfel_vertices#0_NORMAL"},{"bufferView":2,"byteOffset":328988,"componentType":5122,"count":216,"type":"VEC2","name":"Würfel_vertices#0_TEXCOORD_0"},{"bufferView":2,"byteOffset":328992,"componentType":5122,"count":216,"type":"VEC2","name":"Würfel_vertices#0_TEXCOORD_1"},{"bufferView":2,"byteOffset":328996,"componentType":5123,"count":216,"type":"VEC4","name":"Würfel_vertices#0_COLOR_0"},{"bufferView":3,"byteOffset":35304,"componentType":5123,"count":324,"type":"SCALAR","name":"Würfel_indices#0"},{"bufferView":2,"byteOffset":336744,"componentType":5126,"count":216,"min":[-0.1599999964237213,-3.325000047683716,-0.1599999964237213],"max":[0.1599999964237213,3.325000047683716,0.1599999964237213],"type":"VEC3","name":"Würfel.001_vertices#0_POSITION"},{"bufferView":2,"byteOffset":336756,"componentType":5120,"count":216,"type":"VEC4","name":"Würfel.001_vertices#0_TANGENT"},{"bufferView":2,"byteOffset":336760,"componentType":5120,"count":216,"type":"VEC4","name":"Würfel.001_vertices#0_NORMAL"},{"bufferView":2,"byteOffset":336764,"componentType":5122,"count":216,"type":"VEC2","name":"Würfel.001_vertices#0_TEXCOORD_0"},{"bufferView":2,"byteOffset":336768,"componentType":5122,"count":216,"type":"VEC2","name":"Würfel.001_vertices#0_TEXCOORD_1"},{"bufferView":2,"byteOffset":336772,"componentType":5123,"count":216,"type":"VEC4","name":"Würfel.001_vertices#0_COLOR_0"},{"bufferView":3,"byteOffset":35952,"componentType":5123,"count":324,"type":"SCALAR","name":"Würfel.001_indices#0"},{"bufferView":2,"byteOffset":344520,"componentType":5126,"count":216,"min":[-0.1599999964237213,-3.325000047683716,-0.1599999964237213],"max":[0.1599999964237213,3.325000047683716,0.1599999964237213],"type":"VEC3","name":"Würfel.002_vertices#0_POSITION"},{"bufferView":2,"byteOffset":344532,"componentType":5120,"count":216,"type":"VEC4","name":"Würfel.002_vertices#0_TANGENT"},{"bufferView":2,"byteOffset":344536,"componentType":5120,"count":216,"type":"VEC4","name":"Würfel.002_vertices#0_NORMAL"},{"bufferView":2,"byteOffset":344540,"componentType":5122,"count":216,"type":"VEC2","name":"Würfel.002_vertices#0_TEXCOORD_0"},{"bufferView":2,"byteOffset":344544,"componentType":5122,"count":216,"type":"VEC2","name":"Würfel.002_vertices#0_TEXCOORD_1"},{"bufferView":2,"byteOffset":344548,"componentType":5123,"count":216,"type":"VEC4","name":"Würfel.002_vertices#0_COLOR_0"},{"bufferView":3,"byteOffset":36600,"componentType":5123,"count":324,"type":"SCALAR","name":"Würfel.002_indices#0"},{"bufferView":2,"byteOffset":352296,"componentType":5126,"count":216,"min":[-0.1599999964237213,-3.325000047683716,-0.1599999964237213],"max":[0.1599999964237213,3.325000047683716,0.1599999964237213],"type":"VEC3","name":"Würfel.003_vertices#0_POSITION"},{"bufferView":2,"byteOffset":352308,"componentType":5120,"count":216,"type":"VEC4","name":"Würfel.003_vertices#0_TANGENT"},{"bufferView":2,"byteOffset":352312,"componentType":5120,"count":216,"type":"VEC4","name":"Würfel.003_vertices#0_NORMAL"},{"bufferView":2,"byteOffset":352316,"componentType":5122,"count":216,"type":"VEC2","name":"Würfel.003_vertices#0_TEXCOORD_0"},{"bufferView":2,"byteOffset":352320,"componentType":5122,"count":216,"type":"VEC2","name":"Würfel.003_vertices#0_TEXCOORD_1"},{"bufferView":2,"byteOffset":352324,"componentType":5123,"count":216,"type":"VEC4","name":"Würfel.003_vertices#0_COLOR_0"},{"bufferView":3,"byteOffset":37248,"componentType":5123,"count":324,"type":"SCALAR","name":"Würfel.003_indices#0"},{"bufferView":2,"byteOffset":360072,"componentType":5126,"count":216,"min":[-0.1599999964237213,-3.325000047683716,-0.1599999964237213],"max":[0.1599999964237213,3.325000047683716,0.1599999964237213],"type":"VEC3","name":"Würfel.004_vertices#0_POSITION"},{"bufferView":2,"byteOffset":360084,"componentType":5120,"count":216,"type":"VEC4","name":"Würfel.004_vertices#0_TANGENT"},{"bufferView":2,"byteOffset":360088,"componentType":5120,"count":216,"type":"VEC4","name":"Würfel.004_vertices#0_NORMAL"},{"bufferView":2,"byteOffset":360092,"componentType":5122,"count":216,"type":"VEC2","name":"Würfel.004_vertices#0_TEXCOORD_0"},{"bufferView":2,"byteOffset":360096,"componentType":5122,"count":216,"type":"VEC2","name":"Würfel.004_vertices#0_TEXCOORD_1"},{"bufferView":2,"byteOffset":360100,"componentType":5123,"count":216,"type":"VEC4","name":"Würfel.004_vertices#0_COLOR_0"},{"bufferView":3,"byteOffset":37896,"componentType":5123,"count":324,"type":"SCALAR","name":"Würfel.004_indices#0"},{"bufferView":2,"byteOffset":367848,"componentType":5126,"count":216,"min":[-0.1599999964237213,-3.325000047683716,-0.1599999964237213],"max":[0.1599999964237213,3.325000047683716,0.1599999964237213],"type":"VEC3","name":"Würfel.005_vertices#0_POSITION"},{"bufferView":2,"byteOffset":367860,"componentType":5120,"count":216,"type":"VEC4","name":"Würfel.005_vertices#0_TANGENT"},{"bufferView":2,"byteOffset":367864,"componentType":5120,"count":216,"type":"VEC4","name":"Würfel.005_vertices#0_NORMAL"},{"bufferView":2,"byteOffset":367868,"componentType":5122,"count":216,"type":"VEC2","name":"Würfel.005_vertices#0_TEXCOORD_0"},{"bufferView":2,"byteOffset":367872,"componentType":5122,"count":216,"type":"VEC2","name":"Würfel.005_vertices#0_TEXCOORD_1"},{"bufferView":2,"byteOffset":367876,"componentType":5123,"count":216,"type":"VEC4","name":"Würfel.005_vertices#0_COLOR_0"},{"bufferView":3,"byteOffset":38544,"componentType":5123,"count":324,"type":"SCALAR","name":"Würfel.005_indices#0"},{"bufferView":2,"byteOffset":375624,"componentType":5126,"count":216,"min":[-2.25,-0.12999999523162843,-0.12999999523162843],"max":[2.25,0.12999999523162843,0.12999999523162843],"type":"VEC3","name":"Würfel.006_vertices#0_POSITION"},{"bufferView":2,"byteOffset":375636,"componentType":5120,"count":216,"type":"VEC4","name":"Würfel.006_vertices#0_TANGENT"},{"bufferView":2,"byteOffset":375640,"componentType":5120,"count":216,"type":"VEC4","name":"Würfel.006_vertices#0_NORMAL"},{"bufferView":2,"byteOffset":375644,"componentType":5122,"count":216,"type":"VEC2","name":"Würfel.006_vertices#0_TEXCOORD_0"},{"bufferView":2,"byteOffset":375648,"componentType":5122,"count":216,"type":"VEC2","name":"Würfel.006_vertices#0_TEXCOORD_1"},{"bufferView":2,"byteOffset":375652,"componentType":5123,"count":216,"type":"VEC4","name":"Würfel.006_vertices#0_COLOR_0"},{"bufferView":3,"byteOffset":39192,"componentType":5123,"count":324,"type":"SCALAR","name":"Würfel.006_indices#0"},{"bufferView":2,"byteOffset":383400,"componentType":5126,"count":216,"min":[-2.25,-0.12999999523162843,-0.12999999523162843],"max":[2.25,0.12999999523162843,0.12999999523162843],"type":"VEC3","name":"Würfel.007_vertices#0_POSITION"},{"bufferView":2,"byteOffset":383412,"componentType":5120,"count":216,"type":"VEC4","name":"Würfel.007_vertices#0_TANGENT"},{"bufferView":2,"byteOffset":383416,"componentType":5120,"count":216,"type":"VEC4","name":"Würfel.007_vertices#0_NORMAL"},{"bufferView":2,"byteOffset":383420,"componentType":5122,"count":216,"type":"VEC2","name":"Würfel.007_vertices#0_TEXCOORD_0"},{"bufferView":2,"byteOffset":383424,"componentType":5122,"count":216,"type":"VEC2","name":"Würfel.007_vertices#0_TEXCOORD_1"},{"bufferView":2,"byteOffset":383428,"componentType":5123,"count":216,"type":"VEC4","name":"Würfel.007_vertices#0_COLOR_0"},{"bufferView":3,"byteOffset":39840,"componentType":5123,"count":324,"type":"SCALAR","name":"Würfel.007_indices#0"},{"bufferView":2,"byteOffset":391176,"componentType":5126,"count":216,"min":[-2.25,-0.12999999523162843,-0.12999999523162843],"max":[2.25,0.12999999523162843,0.12999999523162843],"type":"VEC3","name":"Würfel.008_vertices#0_POSITION"},{"bufferView":2,"byteOffset":391188,"componentType":5120,"count":216,"type":"VEC4","name":"Würfel.008_vertices#0_TANGENT"},{"bufferView":2,"byteOffset":391192,"componentType":5120,"count":216,"type":"VEC4","name":"Würfel.008_vertices#0_NORMAL"},{"bufferView":2,"byteOffset":391196,"componentType":5122,"count":216,"type":"VEC2","name":"Würfel.008_vertices#0_TEXCOORD_0"},{"bufferView":2,"byteOffset":391200,"componentType":5122,"count":216,"type":"VEC2","name":"Würfel.008_vertices#0_TEXCOORD_1"},{"bufferView":2,"byteOffset":391204,"componentType":5123,"count":216,"type":"VEC4","name":"Würfel.008_vertices#0_COLOR_0"},{"bufferView":3,"byteOffset":40488,"componentType":5123,"count":324,"type":"SCALAR","name":"Würfel.008_indices#0"},{"bufferView":2,"byteOffset":398952,"componentType":5126,"count":216,"min":[-2.25,-0.12999999523162843,-0.12999999523162843],"max":[2.25,0.12999999523162843,0.12999999523162843],"type":"VEC3","name":"Würfel.009_vertices#0_POSITION"},{"bufferView":2,"byteOffset":398964,"componentType":5120,"count":216,"type":"VEC4","name":"Würfel.009_vertices#0_TANGENT"},{"bufferView":2,"byteOffset":398968,"componentType":5120,"count":216,"type":"VEC4","name":"Würfel.009_vertices#0_NORMAL"},{"bufferView":2,"byteOffset":398972,"componentType":5122,"count":216,"type":"VEC2","name":"Würfel.009_vertices#0_TEXCOORD_0"},{"bufferView":2,"byteOffset":398976,"componentType":5122,"count":216,"type":"VEC2","name":"Würfel.009_vertices#0_TEXCOORD_1"},{"bufferView":2,"byteOffset":398980,"componentType":5123,"count":216,"type":"VEC4","name":"Würfel.009_vertices#0_COLOR_0"},{"bufferView":3,"byteOffset":41136,"componentType":5123,"count":324,"type":"SCALAR","name":"Würfel.009_indices#0"},{"bufferView":2,"byteOffset":406728,"componentType":5126,"count":1156,"min":[-10.686753273010254,0.0,6.099999904632568],"max":[10.686753273010254,6.369999885559082,12.391932487487793],"type":"VEC3","name":"RoundHangarDoor_mesh_vertices#0_POSITION"},{"bufferView":2,"byteOffset":406740,"componentType":5120,"count":1156,"type":"VEC4","name":"RoundHangarDoor_mesh_vertices#0_TANGENT"},{"bufferView":2,"byteOffset":406744,"componentType":5120,"count":1156,"type":"VEC4","name":"RoundHangarDoor_mesh_vertices#0_NORMAL"},{"bufferView":2,"byteOffset":406748,"componentType":5122,"count":1156,"type":"VEC2","name":"RoundHangarDoor_mesh_vertices#0_TEXCOORD_0"},{"bufferView":2,"byteOffset":406752,"componentType":5122,"count":1156,"type":"VEC2","name":"RoundHangarDoor_mesh_vertices#0_TEXCOORD_1"},{"bufferView":2,"byteOffset":406756,"componentType":5123,"count":1156,"type":"VEC4","name":"RoundHangarDoor_mesh_vertices#0_COLOR_0"},{"bufferView":3,"byteOffset":41784,"componentType":5123,"count":2304,"type":"SCALAR","name":"RoundHangarDoor_mesh_indices#0"},{"bufferView":2,"byteOffset":448344,"componentType":5126,"count":192,"min":[-0.3100000023841858,-0.07999999821186066,-0.3100000023841858],"max":[0.3100000023841858,0.07999999821186066,0.3100000023841858],"type":"VEC3","name":"Zylinder.001_vertices#0_POSITION"},{"bufferView":2,"byteOffset":448356,"componentType":5120,"count":192,"type":"VEC4","name":"Zylinder.001_vertices#0_TANGENT"},{"bufferView":2,"byteOffset":448360,"componentType":5120,"count":192,"type":"VEC4","name":"Zylinder.001_vertices#0_NORMAL"},{"bufferView":2,"byteOffset":448364,"componentType":5122,"count":192,"type":"VEC2","name":"Zylinder.001_vertices#0_TEXCOORD_0"},{"bufferView":2,"byteOffset":448368,"componentType":5122,"count":192,"type":"VEC2","name":"Zylinder.001_vertices#0_TEXCOORD_1"},{"bufferView":2,"byteOffset":448372,"componentType":5123,"count":192,"type":"VEC4","name":"Zylinder.001_vertices#0_COLOR_0"},{"bufferView":3,"byteOffset":46392,"componentType":5123,"count":372,"type":"SCALAR","name":"Zylinder.001_indices#0"},{"bufferView":2,"byteOffset":455256,"componentType":5126,"count":1984,"min":[-0.23999977111816407,-0.12999999523162843,-0.23999999463558198],"max":[0.239999920129776,0.12999999523162843,0.23999983072280885],"type":"VEC3","name":"Kugel_vertices#0_POSITION"},{"bufferView":2,"byteOffset":455268,"componentType":5120,"count":1984,"type":"VEC4","name":"Kugel_vertices#0_TANGENT"},{"bufferView":2,"byteOffset":455272,"componentType":5120,"count":1984,"type":"VEC4","name":"Kugel_vertices#0_NORMAL"},{"bufferView":2,"byteOffset":455276,"componentType":5122,"count":1984,"type":"VEC2","name":"Kugel_vertices#0_TEXCOORD_0"},{"bufferView":2,"byteOffset":455280,"componentType":5122,"count":1984,"type":"VEC2","name":"Kugel_vertices#0_TEXCOORD_1"},{"bufferView":2,"byteOffset":455284,"componentType":5123,"count":1984,"type":"VEC4","name":"Kugel_vertices#0_COLOR_0"},{"bufferView":3,"byteOffset":47136,"componentType":5123,"count":2880,"type":"SCALAR","name":"Kugel_indices#0"}],"animations":[{"name":"RoundHangarDoor","channels":[{"sampler":0,"target":{"node":16,"path":"rotation"}}],"samplers":[{"input":0,"output":1,"interpolation":"LINEAR"}]}],"asset":{"generator":"Khronos glTF Blender I/O v4.5.48","version":"2.0","extensions":{"ASOBO_asset_optimized":{"BoundingBoxMax":[16.799999237060548,7.099999904632568,16.799999237060548],"BoundingBoxMin":[-16.799999237060548,-0.4000000059604645,-16.799999237060548],"MajorVersion":4,"MinorVersion":7,"UseCheckerboardMaterialForMissingTextures":true,"UseOnlyFilenameForImageURI":true}}},"bufferViews":[{"buffer":0,"byteLength":404},{"buffer":0,"byteLength":1616,"byteOffset":404},{"buffer":0,"byteLength":526680,"byteStride":36,"byteOffset":2020,"target":34962,"name":"BufferViewVertexND"},{"buffer":0,"byteLength":52896,"byteOffset":528700,"target":34963,"name":"BufferViewIndexU16"}],"materials":[{"name":"Concrete","doubleSided":true,"pbrMetallicRoughness":{"baseColorFactor":[0.1899999976158142,0.20000000298023225,0.20000000298023225,1.0],"metallicFactor":0.0,"roughnessFactor":0.8199999928474426}},{"name":"Corrugated_Grey","doubleSided":true,"pbrMetallicRoughness":{"baseColorFactor":[0.3400000035762787,0.3700000047683716,0.4000000059604645,1.0],"metallicFactor":0.7200000286102295,"roughnessFactor":0.4399999976158142}},{"name":"Roof_Smooth_Grey","doubleSided":true,"pbrMetallicRoughness":{"baseColorFactor":[0.30000001192092898,0.33000001311302187,0.36000001430511477,1.0],"metallicFactor":0.6499999761581421,"roughnessFactor":0.3799999952316284}},{"name":"Door_Rail","doubleSided":true,"pbrMetallicRoughness":{"baseColorFactor":[0.10000000149011612,0.10999999940395357,0.119999997317791,1.0],"metallicFactor":0.8600000143051148,"roughnessFactor":0.3199999928474426}},{"name":"Interior_Warm_Grey","doubleSided":true,"pbrMetallicRoughness":{"baseColorFactor":[0.1899999976158142,0.20999999344348908,0.2300000041723251,1.0],"metallicFactor":0.25,"roughnessFactor":0.6800000071525574}},{"name":"Lights","doubleSided":true,"emissiveFactor":[1.0,0.41999998688697817,0.07999999821186066],"pbrMetallicRoughness":{"baseColorFactor":[1.0,0.6299999952316284,0.20000000298023225,1.0],"metallicFactor":0.0,"roughnessFactor":0.25}}],"meshes":[{"primitives":[{"attributes":{"COLOR_0":7,"NORMAL":4,"POSITION":2,"TANGENT":3,"TEXCOORD_0":5,"TEXCOORD_1":6},"indices":8,"material":0,"mode":4,"extras":{"ASOBO_primitive":{"PrimitiveCount":380,"UV2Length":0.703580379486084,"UVLength":0.703580379486084,"VertexCount":576,"VertexType":"VTX","VertexVersion":2}}}],"name":"Zylinder"},{"primitives":[{"attributes":{"COLOR_0":14,"NORMAL":11,"POSITION":9,"TANGENT":10,"TEXCOORD_0":12,"TEXCOORD_1":13},"indices":15,"material":0,"mode":4,"extras":{"ASOBO_primitive":{"PrimitiveCount":1152,"UV2Length":0.0,"UVLength":0.0,"VertexCount":2018,"VertexType":"VTX","VertexVersion":2}}}],"name":"RoundHangarApronRamp_mesh"},{"primitives":[{"attributes":{"COLOR_0":21,"NORMAL":18,"POSITION":16,"TANGENT":17,"TEXCOORD_0":19,"TEXCOORD_1":20},"indices":22,"material":1,"mode":4,"extras":{"ASOBO_primitive":{"PrimitiveCount":1152,"UV2Length":0.0,"UVLength":0.0,"VertexCount":1732,"VertexType":"VTX","VertexVersion":2}}}],"name":"RoundHangarWall_mesh"},{"primitives":[{"attributes":{"COLOR_0":28,"NORMAL":25,"POSITION":23,"TANGENT":24,"TEXCOORD_0":26,"TEXCOORD_1":27},"indices":29,"material":2,"mode":4,"extras":{"ASOBO_primitive":{"PrimitiveCount":1024,"UV2Length":0.0,"UVLength":0.0,"VertexCount":1540,"VertexType":"VTX","VertexVersion":2}}}],"name":"RoundHangarRoof_mesh"},{"primitives":[{"attributes":{"COLOR_0":35,"NORMAL":32,"POSITION":30,"TANGENT":31,"TEXCOORD_0":33,"TEXCOORD_1":34},"indices":36,"material":2,"mode":4,"extras":{"ASOBO_primitive":{"PrimitiveCount":1024,"UV2Length":0.0,"UVLength":0.0,"VertexCount":1540,"VertexType":"VTX","VertexVersion":2}}}],"name":"RoundHangarRoofLip_mesh"},{"primitives":[{"attributes":{"COLOR_0":42,"NORMAL":39,"POSITION":37,"TANGENT":38,"TEXCOORD_0":40,"TEXCOORD_1":41},"indices":43,"material":3,"mode":4,"extras":{"ASOBO_primitive":{"PrimitiveCount":1152,"UV2Length":0.0,"UVLength":0.0,"VertexCount":1732,"VertexType":"VTX","VertexVersion":2}}}],"name":"RoundHangarDoorRail_mesh"},{"primitives":[{"attributes":{"COLOR_0":49,"NORMAL":46,"POSITION":44,"TANGENT":45,"TEXCOORD_0":47,"TEXCOORD_1":48},"indices":50,"material":3,"mode":4,"extras":{"ASOBO_primitive":{"PrimitiveCount":108,"UV2Length":0.625,"UVLength":0.625,"VertexCount":216,"VertexType":"VTX","VertexVersion":2}}}],"name":"Würfel"},{"primitives":[{"attributes":{"COLOR_0":56,"NORMAL":53,"POSITION":51,"TANGENT":52,"TEXCOORD_0":54,"TEXCOORD_1":55},"indices":57,"material":3,"mode":4,"extras":{"ASOBO_primitive":{"PrimitiveCount":108,"UV2Length":0.625,"UVLength":0.625,"VertexCount":216,"VertexType":"VTX","VertexVersion":2}}}],"name":"Würfel.001"},{"primitives":[{"attributes":{"COLOR_0":63,"NORMAL":60,"POSITION":58,"TANGENT":59,"TEXCOORD_0":61,"TEXCOORD_1":62},"indices":64,"material":3,"mode":4,"extras":{"ASOBO_primitive":{"PrimitiveCount":108,"UV2Length":0.625,"UVLength":0.625,"VertexCount":216,"VertexType":"VTX","VertexVersion":2}}}],"name":"Würfel.002"},{"primitives":[{"attributes":{"COLOR_0":70,"NORMAL":67,"POSITION":65,"TANGENT":66,"TEXCOORD_0":68,"TEXCOORD_1":69},"indices":71,"material":3,"mode":4,"extras":{"ASOBO_primitive":{"PrimitiveCount":108,"UV2Length":0.625,"UVLength":0.625,"VertexCount":216,"VertexType":"VTX","VertexVersion":2}}}],"name":"Würfel.003"},{"primitives":[{"attributes":{"COLOR_0":77,"NORMAL":74,"POSITION":72,"TANGENT":73,"TEXCOORD_0":75,"TEXCOORD_1":76},"indices":78,"material":3,"mode":4,"extras":{"ASOBO_primitive":{"PrimitiveCount":108,"UV2Length":0.625,"UVLength":0.625,"VertexCount":216,"VertexType":"VTX","VertexVersion":2}}}],"name":"Würfel.004"},{"primitives":[{"attributes":{"COLOR_0":84,"NORMAL":81,"POSITION":79,"TANGENT":80,"TEXCOORD_0":82,"TEXCOORD_1":83},"indices":85,"material":3,"mode":4,"extras":{"ASOBO_primitive":{"PrimitiveCount":108,"UV2Length":0.625,"UVLength":0.625,"VertexCount":216,"VertexType":"VTX","VertexVersion":2}}}],"name":"Würfel.005"},{"primitives":[{"attributes":{"COLOR_0":91,"NORMAL":88,"POSITION":86,"TANGENT":87,"TEXCOORD_0":89,"TEXCOORD_1":90},"indices":92,"material":4,"mode":4,"extras":{"ASOBO_primitive":{"PrimitiveCount":108,"UV2Length":0.625,"UVLength":0.625,"VertexCount":216,"VertexType":"VTX","VertexVersion":2}}}],"name":"Würfel.006"},{"primitives":[{"attributes":{"COLOR_0":98,"NORMAL":95,"POSITION":93,"TANGENT":94,"TEXCOORD_0":96,"TEXCOORD_1":97},"indices":99,"material":4,"mode":4,"extras":{"ASOBO_primitive":{"PrimitiveCount":108,"UV2Length":0.625,"UVLength":0.625,"VertexCount":216,"VertexType":"VTX","VertexVersion":2}}}],"name":"Würfel.007"},{"primitives":[{"attributes":{"COLOR_0":105,"NORMAL":102,"POSITION":100,"TANGENT":101,"TEXCOORD_0":103,"TEXCOORD_1":104},"indices":106,"material":4,"mode":4,"extras":{"ASOBO_primitive":{"PrimitiveCount":108,"UV2Length":0.625,"UVLength":0.625,"VertexCount":216,"VertexType":"VTX","VertexVersion":2}}}],"name":"Würfel.008"},{"primitives":[{"attributes":{"COLOR_0":112,"NORMAL":109,"POSITION":107,"TANGENT":108,"TEXCOORD_0":110,"TEXCOORD_1":111},"indices":113,"material":4,"mode":4,"extras":{"ASOBO_primitive":{"PrimitiveCount":108,"UV2Length":0.625,"UVLength":0.625,"VertexCount":216,"VertexType":"VTX","VertexVersion":2}}}],"name":"Würfel.009"},{"primitives":[{"attributes":{"COLOR_0":119,"NORMAL":116,"POSITION":114,"TANGENT":115,"TEXCOORD_0":117,"TEXCOORD_1":118},"indices":120,"material":1,"mode":4,"extras":{"ASOBO_primitive":{"PrimitiveCount":768,"UV2Length":0.0,"UVLength":0.0,"VertexCount":1156,"VertexType":"VTX","VertexVersion":2}}}],"name":"RoundHangarDoor_mesh"},{"primitives":[{"attributes":{"COLOR_0":126,"NORMAL":123,"POSITION":121,"TANGENT":122,"TEXCOORD_0":124,"TEXCOORD_1":125},"indices":127,"material":3,"mode":4,"extras":{"ASOBO_primitive":{"PrimitiveCount":124,"UV2Length":0.7035801410675049,"UVLength":0.7035801410675049,"VertexCount":192,"VertexType":"VTX","VertexVersion":2}}}],"name":"Zylinder.001"},{"primitives":[{"attributes":{"COLOR_0":133,"NORMAL":130,"POSITION":128,"TANGENT":129,"TEXCOORD_0":131,"TEXCOORD_1":132},"indices":134,"material":5,"mode":4,"extras":{"ASOBO_primitive":{"PrimitiveCount":960,"UV2Length":0.7071067690849304,"UVLength":0.7071067690849304,"VertexCount":1984,"VertexType":"VTX","VertexVersion":2}}}],"name":"Kugel"}],"nodes":[{"translation":[0.0,-0.20000000298023225,0.0],"mesh":0,"name":"RoundHangarFoundationSlab"},{"mesh":1,"name":"RoundHangarApronRamp"},{"mesh":2,"name":"RoundHangarWall"},{"mesh":3,"name":"RoundHangarRoof"},{"mesh":4,"name":"RoundHangarRoofLip"},{"mesh":5,"name":"RoundHangarDoorRail"},{"translation":[-10.26240062713623,3.325000047683716,5.925000190734863],"rotation":[0.0,0.5,0.0,0.8660253882408142],"mesh":6,"name":"RoundHangarColumn_-60"},{"translation":[10.26240062713623,3.325000047683716,5.925000190734863],"rotation":[0.0,-0.5,0.0,0.8660253882408142],"mesh":7,"name":"RoundHangarColumn_60"},{"translation":[10.26240062713623,3.325000047683716,-5.925000190734863],"rotation":[0.0,-0.8660253882408142,0.0,0.4999999701976776],"mesh":8,"name":"RoundHangarColumn_120"},{"translation":[0.0,3.325000047683716,-11.850000381469729],"rotation":[0.0,1.0,0.0,4.3711388286737938e-8],"mesh":9,"name":"RoundHangarColumn_180"},{"translation":[-10.26240062713623,3.325000047683716,-5.925000190734863],"rotation":[0.0,0.8660253882408142,0.0,0.5],"mesh":10,"name":"RoundHangarColumn_240"},{"translation":[-10.26240062713623,3.325000047683716,5.925000190734863],"rotation":[0.0,0.5,0.0,0.8660253882408142],"mesh":11,"name":"RoundHangarColumn_300"},{"translation":[9.466073036193848,6.199999809265137,-2.536426544189453],"rotation":[0.0,-0.7933533787727356,0.0,0.6087614297866821],"mesh":12,"name":"RoundHangarRoofBeam_105"},{"translation":[4.900000095367432,6.199999809265137,-8.487049102783204],"rotation":[0.0,-0.9659258127212524,0.0,0.2588190734386444],"mesh":13,"name":"RoundHangarRoofBeam_150"},{"translation":[-4.900000095367432,6.199999809265137,-8.487049102783204],"rotation":[0.0,0.965925931930542,0.0,0.258819043636322],"mesh":14,"name":"RoundHangarRoofBeam_210"},{"translation":[-9.466073036193848,6.199999809265137,-2.536426544189453],"rotation":[0.0,0.7933533191680908,0.0,0.6087614297866821],"mesh":15,"name":"RoundHangarRoofBeam_255"},{"rotation":[0.0,0.8660253882408142,0.0,0.4999999701976776],"mesh":16,"name":"RoundHangarDoor"},{"translation":[0.0,6.239999771118164,-1.0],"rotation":[0.7071068286895752,0.0,0.0,0.7071068286895752],"mesh":17,"name":"RoundHangarLampHousing"},{"translation":[0.0,6.099999904632568,-1.0],"mesh":18,"name":"RoundHangarLamp"},{"translation":[0.0,5.95,-1.0],"rotation":[-0.7071068,0.0,0.0,0.7071068],"extensions":{"ASOBO_advanced_light":{"channel_exterior":false,"channel_interior":true,"color":[1.0,0.695,0.431],"flare_enabled":false,"inner_cone_angle":75.0,"intensity":2400.0,"outer_cone_angle":125.0,"shape_type":3,"source_radius":120.0}},"name":"RoundHangarLampLight"}],"scene":0,"scenes":[{"nodes":[0,1,2,3,4,5,6,7,8,9,10,11,12,13,14,15,16,17,18,19],"name":"Scene"}],"extensionsUsed":["ASOBO_advanced_light","ASOBO_asset_optimized"],"buffers":[{"byteLength":581596,"uri":"HomebaseRoundHangar_LOD00.bin"}]}
