{"accessors":[{"bufferView":0,"componentType":5126,"count":101,"min":[0.0],"max":[5.0],"type":"SCALAR"},{"bufferView":1,"componentType":5126,"count":101,"type":"VEC4"},{"bufferView":2,"componentType":5126,"count":113,"min":[-12.5,-1.5,-12.5],"max":[12.5,7.099999904632568,12.5],"type":"VEC3","name":"RoundHangarFarShell_LOD01_Source_mesh.001_vertices#0_POSITION"},{"bufferView":2,"byteOffset":12,"componentType":5120,"count":113,"type":"VEC4","name":"RoundHangarFarShell_LOD01_Source_mesh.001_vertices#0_TANGENT"},{"bufferView":2,"byteOffset":16,"componentType":5120,"count":113,"type":"VEC4","name":"RoundHangarFarShell_LOD01_Source_mesh.001_vertices#0_NORMAL"},{"bufferView":2,"byteOffset":20,"componentType":5122,"count":113,"type":"VEC2","name":"RoundHangarFarShell_LOD01_Source_mesh.001_vertices#0_TEXCOORD_0"},{"bufferView":2,"byteOffset":24,"componentType":5122,"count":113,"type":"VEC2","name":"RoundHangarFarShell_LOD01_Source_mesh.001_vertices#0_TEXCOORD_1"},{"bufferView":2,"byteOffset":28,"componentType":5123,"count":113,"type":"VEC4","name":"RoundHangarFarShell_LOD01_Source_mesh.001_vertices#0_COLOR_0"},{"bufferView":3,"componentType":5123,"count":192,"type":"SCALAR","name":"RoundHangarFarShell_LOD01_Source_mesh.001_indices#0"},{"bufferView":2,"byteOffset":4068,"componentType":5126,"count":24,"min":[-10.686753273010254,-1.5,6.170000076293945],"max":[10.686753273010254,6.369999885559082,12.34000015258789],"type":"VEC3","name":"RoundHangarDoor_LOD01_Source_mesh.001_vertices#0_POSITION"},{"bufferView":2,"byteOffset":4080,"componentType":5120,"count":24,"type":"VEC4","name":"RoundHangarDoor_LOD01_Source_mesh.001_vertices#0_TANGENT"},{"bufferView":2,"byteOffset":4084,"componentType":5120,"count":24,"type":"VEC4","name":"RoundHangarDoor_LOD01_Source_mesh.001_vertices#0_NORMAL"},{"bufferView":2,"byteOffset":4088,"componentType":5122,"count":24,"type":"VEC2","name":"RoundHangarDoor_LOD01_Source_mesh.001_vertices#0_TEXCOORD_0"},{"bufferView":2,"byteOffset":4092,"componentType":5122,"count":24,"type":"VEC2","name":"RoundHangarDoor_LOD01_Source_mesh.001_vertices#0_TEXCOORD_1"},{"bufferView":2,"byteOffset":4096,"componentType":5123,"count":24,"type":"VEC4","name":"RoundHangarDoor_LOD01_Source_mesh.001_vertices#0_COLOR_0"},{"bufferView":3,"byteOffset":384,"componentType":5123,"count":36,"type":"SCALAR","name":"RoundHangarDoor_LOD01_Source_mesh.001_indices#0"},{"bufferView":2,"byteOffset":4932,"componentType":5126,"count":4,"min":[-0.3499999940395355,6.380000114440918,-1.350000023841858],"max":[0.3499999940395355,6.380000114440918,-0.6499999761581421],"type":"VEC3","name":"RoundHangarLamp_LOD01_Source_mesh.001_vertices#0_POSITION"},{"bufferView":2,"byteOffset":4944,"componentType":5120,"count":4,"type":"VEC4","name":"RoundHangarLamp_LOD01_Source_mesh.001_vertices#0_TANGENT"},{"bufferView":2,"byteOffset":4948,"componentType":5120,"count":4,"type":"VEC4","name":"RoundHangarLamp_LOD01_Source_mesh.001_vertices#0_NORMAL"},{"bufferView":2,"byteOffset":4952,"componentType":5122,"count":4,"type":"VEC2","name":"RoundHangarLamp_LOD01_Source_mesh.001_vertices#0_TEXCOORD_0"},{"bufferView":2,"byteOffset":4956,"componentType":5122,"count":4,"type":"VEC2","name":"RoundHangarLamp_LOD01_Source_mesh.001_vertices#0_TEXCOORD_1"},{"bufferView":2,"byteOffset":4960,"componentType":5123,"count":4,"type":"VEC4","name":"RoundHangarLamp_LOD01_Source_mesh.001_vertices#0_COLOR_0"},{"bufferView":3,"byteOffset":456,"componentType":5123,"count":6,"type":"SCALAR","name":"RoundHangarLamp_LOD01_Source_mesh.001_indices#0"}],"animations":[{"name":"RoundHangarDoor","channels":[{"sampler":0,"target":{"node":1,"path":"rotation"}}],"samplers":[{"input":0,"output":1,"interpolation":"LINEAR"}]}],"asset":{"generator":"Khronos glTF Blender I/O v4.5.48","version":"2.0","extensions":{"ASOBO_asset_optimized":{"BoundingBoxMax":[12.5,7.099999904632568,12.5],"BoundingBoxMin":[-12.5,-1.5,-12.5],"MajorVersion":4,"MinorVersion":7,"UseCheckerboardMaterialForMissingTextures":true,"UseOnlyFilenameForImageURI":true}}},"bufferViews":[{"buffer":0,"byteLength":404},{"buffer":0,"byteLength":1616,"byteOffset":404},{"buffer":0,"byteLength":5076,"byteStride":36,"byteOffset":2020,"target":34962,"name":"BufferViewVertexND"},{"buffer":0,"byteLength":468,"byteOffset":7096,"target":34963,"name":"BufferViewIndexU16"}],"materials":[{"name":"RoundHangarFar_Grey","doubleSided":true,"pbrMetallicRoughness":{"baseColorFactor":[0.3400000035762787,0.3700000047683716,0.4000000059604645,1.0],"metallicFactor":0.6499999761581421,"roughnessFactor":0.4600000083446502}},{"name":"RoundHangarFar_Lights","doubleSided":true,"emissiveFactor":[1.0,0.41999998688697817,0.07999999821186066],"pbrMetallicRoughness":{"baseColorFactor":[1.0,0.6299999952316284,0.20000000298023225,1.0],"metallicFactor":0.0,"roughnessFactor":0.25}}],"meshes":[{"primitives":[{"attributes":{"COLOR_0":7,"NORMAL":4,"POSITION":2,"TANGENT":3,"TEXCOORD_0":5,"TEXCOORD_1":6},"indices":8,"material":0,"mode":4,"extras":{"ASOBO_primitive":{"PrimitiveCount":64,"UV2Length":0.0,"UVLength":0.0,"VertexCount":113,"VertexType":"VTX","VertexVersion":2}}}],"name":"RoundHangarFarShell_LOD01_Source_mesh.001"},{"primitives":[{"attributes":{"COLOR_0":14,"NORMAL":11,"POSITION":9,"TANGENT":10,"TEXCOORD_0":12,"TEXCOORD_1":13},"indices":15,"material":0,"mode":4,"extras":{"ASOBO_primitive":{"PrimitiveCount":12,"UV2Length":0.0,"UVLength":0.0,"VertexCount":24,"VertexType":"VTX","VertexVersion":2}}}],"name":"RoundHangarDoor_LOD01_Source_mesh.001"},{"primitives":[{"attributes":{"COLOR_0":21,"NORMAL":18,"POSITION":16,"TANGENT":17,"TEXCOORD_0":19,"TEXCOORD_1":20},"indices":22,"material":1,"mode":4,"extras":{"ASOBO_primitive":{"PrimitiveCount":2,"UV2Length":0.0,"UVLength":0.0,"VertexCount":4,"VertexType":"VTX","VertexVersion":2}}}],"name":"RoundHangarLamp_LOD01_Source_mesh.001"}],"nodes":[{"mesh":0,"name":"RoundHangarFarShell_LOD01_Source"},{"rotation":[0.0,0.8660253882408142,0.0,0.4999999701976776],"mesh":1,"name":"RoundHangarDoor"},{"mesh":2,"name":"RoundHangarLamp"},{"translation":[0.0,6.17,-1.0],"extensions":{"ASOBO_advanced_light":{"channel_exterior":true,"channel_interior":true,"color":[1.0,0.72,0.48],"flare_enabled":false,"inner_cone_angle":360.0,"intensity":9000.0,"outer_cone_angle":360.0,"shape_type":1,"source_radius":1.5}},"name":"RoundHangarLampLight"}],"scene":0,"scenes":[{"nodes":[0,1,2,3],"name":"Scene"}],"extensionsUsed":["ASOBO_advanced_light","ASOBO_asset_optimized"],"buffers":[{"byteLength":7564,"uri":"HomebaseRoundHangar_LOD01.bin"}]}
