{"accessors":[{"bufferView":0,"componentType":5126,"count":414,"min":[-0.28999999165534975,0.0,-0.28999999165534975],"max":[0.28999999165534975,0.75,0.28999999165534975],"type":"VEC3","name":"HomebaseTrafficCone_mesh_vertices#0_POSITION"},{"bufferView":0,"byteOffset":12,"componentType":5120,"count":414,"type":"VEC4","name":"HomebaseTrafficCone_mesh_vertices#0_TANGENT"},{"bufferView":0,"byteOffset":16,"componentType":5120,"count":414,"type":"VEC4","name":"HomebaseTrafficCone_mesh_vertices#0_NORMAL"},{"bufferView":0,"byteOffset":20,"componentType":5122,"count":414,"type":"VEC2","name":"HomebaseTrafficCone_mesh_vertices#0_TEXCOORD_0"},{"bufferView":0,"byteOffset":24,"componentType":5122,"count":414,"type":"VEC2","name":"HomebaseTrafficCone_mesh_vertices#0_TEXCOORD_1"},{"bufferView":0,"byteOffset":28,"componentType":5123,"count":414,"type":"VEC4","name":"HomebaseTrafficCone_mesh_vertices#0_COLOR_0"},{"bufferView":1,"componentType":5123,"count":414,"type":"SCALAR","name":"HomebaseTrafficCone_mesh_indices#2"}],"asset":{"generator":"VFR Multitool procedural asset generator","version":"2.0","extensions":{"ASOBO_asset_optimized":{"BoundingBoxMax":[0.28999999165534975,0.75,0.28999999165534975],"BoundingBoxMin":[-0.28999999165534975,0.0,-0.28999999165534975],"MajorVersion":4,"MinorVersion":7,"UseCheckerboardMaterialForMissingTextures":true,"UseOnlyFilenameForImageURI":true}}},"bufferViews":[{"buffer":0,"byteLength":14904,"byteStride":36,"target":34962,"name":"BufferViewVertexND"},{"buffer":0,"byteLength":828,"byteOffset":14904,"target":34963,"name":"BufferViewIndexU16"}],"materials":[{"name":"Leitkegel_Orange","doubleSided":true,"pbrMetallicRoughness":{"baseColorFactor":[0.92,0.18,0.015,1.0],"metallicFactor":0.0,"roughnessFactor":0.62}},{"name":"Leitkegel_Reflektor","doubleSided":true,"pbrMetallicRoughness":{"baseColorFactor":[0.88,0.88,0.82,1.0],"metallicFactor":0.05,"roughnessFactor":0.42}},{"name":"Leitkegel_Fuss","doubleSided":true,"pbrMetallicRoughness":{"baseColorFactor":[0.035,0.04,0.04,1.0],"metallicFactor":0.05,"roughnessFactor":0.82}}],"meshes":[{"primitives":[{"attributes":{"COLOR_0":5,"NORMAL":2,"POSITION":0,"TANGENT":1,"TEXCOORD_0":3,"TEXCOORD_1":4},"indices":6,"material":0,"mode":4,"extras":{"ASOBO_primitive":{"PrimitiveCount":90,"UV2Length":0.7071067690849304,"UVLength":0.7071067690849304,"VertexCount":270,"VertexType":"VTX","VertexVersion":2}}},{"attributes":{"COLOR_0":5,"NORMAL":2,"POSITION":0,"TANGENT":1,"TEXCOORD_0":3,"TEXCOORD_1":4},"indices":6,"material":1,"mode":4,"extras":{"ASOBO_primitive":{"BaseVertexIndex":270,"PrimitiveCount":36,"StartIndex":270,"UV2Length":0.7071067690849304,"UVLength":0.7071067690849304,"VertexCount":108,"VertexType":"VTX","VertexVersion":2}}},{"attributes":{"COLOR_0":5,"NORMAL":2,"POSITION":0,"TANGENT":1,"TEXCOORD_0":3,"TEXCOORD_1":4},"indices":6,"material":2,"mode":4,"extras":{"ASOBO_primitive":{"BaseVertexIndex":378,"PrimitiveCount":12,"StartIndex":378,"UV2Length":0.7071067690849304,"UVLength":0.7071067690849304,"VertexCount":36,"VertexType":"VTX","VertexVersion":2}}}],"name":"HomebaseTrafficCone_mesh"}],"nodes":[{"mesh":0,"name":"HomebaseTrafficCone_node"}],"scene":0,"scenes":[{"nodes":[0]}],"extensionsUsed":["ASOBO_asset_optimized"],"buffers":[{"byteLength":15732,"uri":"HomebaseTrafficCone_LOD00.bin"}]}
