{
  "asset": {
    "version": "2.0",
    "generator": "VFR Multitool procedural asset generator"
  },
  "buffers": [
    {
      "byteLength": 64056,
      "uri": "HomebaseMXPavilion_LOD00.bin"
    }
  ],
  "bufferViews": [
    {
      "buffer": 0,
      "byteOffset": 0,
      "byteLength": 144,
      "target": 34962
    },
    {
      "buffer": 0,
      "byteOffset": 144,
      "byteLength": 144,
      "target": 34962
    },
    {
      "buffer": 0,
      "byteOffset": 288,
      "byteLength": 96,
      "target": 34962
    },
    {
      "buffer": 0,
      "byteOffset": 384,
      "byteLength": 24,
      "target": 34963
    },
    {
      "buffer": 0,
      "byteOffset": 408,
      "byteLength": 20448,
      "target": 34962
    },
    {
      "buffer": 0,
      "byteOffset": 20856,
      "byteLength": 20448,
      "target": 34962
    },
    {
      "buffer": 0,
      "byteOffset": 41304,
      "byteLength": 13632,
      "target": 34962
    },
    {
      "buffer": 0,
      "byteOffset": 54936,
      "byteLength": 3408,
      "target": 34963
    },
    {
      "buffer": 0,
      "byteOffset": 58344,
      "byteLength": 1728,
      "target": 34962
    },
    {
      "buffer": 0,
      "byteOffset": 60072,
      "byteLength": 1728,
      "target": 34962
    },
    {
      "buffer": 0,
      "byteOffset": 61800,
      "byteLength": 1152,
      "target": 34962
    },
    {
      "buffer": 0,
      "byteOffset": 62952,
      "byteLength": 288,
      "target": 34963
    },
    {
      "buffer": 0,
      "byteOffset": 63240,
      "byteLength": 288,
      "target": 34962
    },
    {
      "buffer": 0,
      "byteOffset": 63528,
      "byteLength": 288,
      "target": 34962
    },
    {
      "buffer": 0,
      "byteOffset": 63816,
      "byteLength": 192,
      "target": 34962
    },
    {
      "buffer": 0,
      "byteOffset": 64008,
      "byteLength": 48,
      "target": 34963
    }
  ],
  "accessors": [
    {
      "bufferView": 0,
      "componentType": 5126,
      "count": 12,
      "min": [
        -1.5,
        2.16,
        -1.5
      ],
      "max": [
        1.5,
        2.42,
        1.5
      ],
      "type": "VEC3"
    },
    {
      "bufferView": 1,
      "componentType": 5126,
      "count": 12,
      "type": "VEC3"
    },
    {
      "bufferView": 2,
      "componentType": 5126,
      "count": 12,
      "type": "VEC2"
    },
    {
      "bufferView": 3,
      "componentType": 5123,
      "count": 12,
      "type": "SCALAR"
    },
    {
      "bufferView": 4,
      "componentType": 5126,
      "count": 1704,
      "min": [
        -1.527,
        0.045,
        -1.527
      ],
      "max": [
        1.527,
        2.441836594305491,
        1.527
      ],
      "type": "VEC3"
    },
    {
      "bufferView": 5,
      "componentType": 5126,
      "count": 1704,
      "type": "VEC3"
    },
    {
      "bufferView": 6,
      "componentType": 5126,
      "count": 1704,
      "type": "VEC2"
    },
    {
      "bufferView": 7,
      "componentType": 5123,
      "count": 1704,
      "type": "SCALAR"
    },
    {
      "bufferView": 8,
      "componentType": 5126,
      "count": 144,
      "min": [
        -1.5,
        0,
        -1.5
      ],
      "max": [
        1.5,
        0.05,
        1.5
      ],
      "type": "VEC3"
    },
    {
      "bufferView": 9,
      "componentType": 5126,
      "count": 144,
      "type": "VEC3"
    },
    {
      "bufferView": 10,
      "componentType": 5126,
      "count": 144,
      "type": "VEC2"
    },
    {
      "bufferView": 11,
      "componentType": 5123,
      "count": 144,
      "type": "SCALAR"
    },
    {
      "bufferView": 12,
      "componentType": 5126,
      "count": 24,
      "min": [
        -1.5,
        2.055,
        -1.5
      ],
      "max": [
        1.5,
        2.16,
        1.5
      ],
      "type": "VEC3"
    },
    {
      "bufferView": 13,
      "componentType": 5126,
      "count": 24,
      "type": "VEC3"
    },
    {
      "bufferView": 14,
      "componentType": 5126,
      "count": 24,
      "type": "VEC2"
    },
    {
      "bufferView": 15,
      "componentType": 5123,
      "count": 24,
      "type": "SCALAR"
    }
  ],
  "materials": [
    {
      "doubleSided": true,
      "name": "Pavillon_Stoff_Schwarz",
      "pbrMetallicRoughness": {
        "baseColorFactor": [
          0.004,
          0.005,
          0.006,
          1
        ],
        "metallicFactor": 0,
        "roughnessFactor": 0.96
      }
    },
    {
      "doubleSided": true,
      "name": "Pavillon_Rahmen_Dunkel",
      "pbrMetallicRoughness": {
        "baseColorFactor": [
          0.055,
          0.065,
          0.07,
          1
        ],
        "metallicFactor": 0.82,
        "roughnessFactor": 0.3
      }
    },
    {
      "doubleSided": true,
      "name": "Pavillon_Fussplatten",
      "pbrMetallicRoughness": {
        "baseColorFactor": [
          0.25,
          0.27,
          0.28,
          1
        ],
        "metallicFactor": 0.86,
        "roughnessFactor": 0.24
      }
    },
    {
      "doubleSided": true,
      "name": "Pavillon_Kantenstoff",
      "pbrMetallicRoughness": {
        "baseColorFactor": [
          0.012,
          0.014,
          0.016,
          1
        ],
        "metallicFactor": 0,
        "roughnessFactor": 0.98
      }
    }
  ],
  "meshes": [
    {
      "name": "HomebaseMXPavilion_mesh",
      "primitives": [
        {
          "attributes": {
            "POSITION": 0,
            "NORMAL": 1,
            "TEXCOORD_0": 2
          },
          "indices": 3,
          "material": 0,
          "mode": 4
        },
        {
          "attributes": {
            "POSITION": 4,
            "NORMAL": 5,
            "TEXCOORD_0": 6
          },
          "indices": 7,
          "material": 1,
          "mode": 4
        },
        {
          "attributes": {
            "POSITION": 8,
            "NORMAL": 9,
            "TEXCOORD_0": 10
          },
          "indices": 11,
          "material": 2,
          "mode": 4
        },
        {
          "attributes": {
            "POSITION": 12,
            "NORMAL": 13,
            "TEXCOORD_0": 14
          },
          "indices": 15,
          "material": 3,
          "mode": 4
        }
      ]
    }
  ],
  "nodes": [
    {
      "mesh": 0,
      "name": "HomebaseMXPavilion_node"
    }
  ],
  "scenes": [
    {
      "nodes": [
        0
      ]
    }
  ],
  "scene": 0
}
