{"accessors":[{"bufferView":0,"componentType":5126,"count":1176,"min":[-0.33000001311302187,0.0,-0.23250000178813935],"max":[0.33000001311302187,1.2020000219345093,0.25],"type":"VEC3","name":"HomebaseTravelSuitcase_mesh_vertices#0_POSITION"},{"bufferView":0,"byteOffset":12,"componentType":5120,"count":1176,"type":"VEC4","name":"HomebaseTravelSuitcase_mesh_vertices#0_TANGENT"},{"bufferView":0,"byteOffset":16,"componentType":5120,"count":1176,"type":"VEC4","name":"HomebaseTravelSuitcase_mesh_vertices#0_NORMAL"},{"bufferView":0,"byteOffset":20,"componentType":5122,"count":1176,"type":"VEC2","name":"HomebaseTravelSuitcase_mesh_vertices#0_TEXCOORD_0"},{"bufferView":0,"byteOffset":24,"componentType":5122,"count":1176,"type":"VEC2","name":"HomebaseTravelSuitcase_mesh_vertices#0_TEXCOORD_1"},{"bufferView":0,"byteOffset":28,"componentType":5123,"count":1176,"type":"VEC4","name":"HomebaseTravelSuitcase_mesh_vertices#0_COLOR_0"},{"bufferView":1,"componentType":5123,"count":1176,"type":"SCALAR","name":"HomebaseTravelSuitcase_mesh_indices#5"}],"asset":{"generator":"VFR Multitool procedural asset generator","version":"2.0","extensions":{"ASOBO_asset_optimized":{"BoundingBoxMax":[0.33000001311302187,1.2020000219345093,0.25],"BoundingBoxMin":[-0.33000001311302187,0.0,-0.23250000178813935],"MajorVersion":4,"MinorVersion":7,"UseCheckerboardMaterialForMissingTextures":true,"UseOnlyFilenameForImageURI":true}}},"bufferViews":[{"buffer":0,"byteLength":42336,"byteStride":36,"target":34962,"name":"BufferViewVertexND"},{"buffer":0,"byteLength":2352,"byteOffset":42336,"target":34963,"name":"BufferViewIndexU16"}],"materials":[{"name":"Reisekoffer_Schale_Bordeaux","doubleSided":true,"pbrMetallicRoughness":{"baseColorFactor":[0.34,0.018,0.025,1.0],"metallicFactor":0.17,"roughnessFactor":0.36}},{"name":"Reisekoffer_Zipper_Schwarz","doubleSided":true,"pbrMetallicRoughness":{"baseColorFactor":[0.025,0.03,0.032,1.0],"metallicFactor":0.35,"roughnessFactor":0.3}},{"name":"Reisekoffer_Griff_Metall","doubleSided":true,"pbrMetallicRoughness":{"baseColorFactor":[0.55,0.59,0.59,1.0],"metallicFactor":0.9,"roughnessFactor":0.2}},{"name":"Reisekoffer_Rollen","doubleSided":true,"pbrMetallicRoughness":{"baseColorFactor":[0.018,0.02,0.022,1.0],"metallicFactor":0.05,"roughnessFactor":0.78}},{"name":"Reisekoffer_Gepaeckband","doubleSided":true,"pbrMetallicRoughness":{"baseColorFactor":[0.82,0.55,0.07,1.0],"metallicFactor":0.06,"roughnessFactor":0.48}},{"name":"Reisekoffer_Ecken","doubleSided":true,"pbrMetallicRoughness":{"baseColorFactor":[0.12,0.14,0.14,1.0],"metallicFactor":0.82,"roughnessFactor":0.24}}],"meshes":[{"primitives":[{"attributes":{"COLOR_0":5,"NORMAL":2,"POSITION":0,"TANGENT":1,"TEXCOORD_0":3,"TEXCOORD_1":4},"indices":6,"material":2,"mode":4,"extras":{"ASOBO_primitive":{"PrimitiveCount":192,"UV2Length":0.7071067690849304,"UVLength":0.7071067690849304,"VertexCount":576,"VertexType":"VTX","VertexVersion":2}}},{"attributes":{"COLOR_0":5,"NORMAL":2,"POSITION":0,"TANGENT":1,"TEXCOORD_0":3,"TEXCOORD_1":4},"indices":6,"material":5,"mode":4,"extras":{"ASOBO_primitive":{"BaseVertexIndex":576,"PrimitiveCount":72,"StartIndex":576,"UV2Length":0.7071067690849304,"UVLength":0.7071067690849304,"VertexCount":216,"VertexType":"VTX","VertexVersion":2}}},{"attributes":{"COLOR_0":5,"NORMAL":2,"POSITION":0,"TANGENT":1,"TEXCOORD_0":3,"TEXCOORD_1":4},"indices":6,"material":1,"mode":4,"extras":{"ASOBO_primitive":{"BaseVertexIndex":792,"PrimitiveCount":24,"StartIndex":792,"UV2Length":0.7071067690849304,"UVLength":0.7071067690849304,"VertexCount":72,"VertexType":"VTX","VertexVersion":2}}},{"attributes":{"COLOR_0":5,"NORMAL":2,"POSITION":0,"TANGENT":1,"TEXCOORD_0":3,"TEXCOORD_1":4},"indices":6,"material":0,"mode":4,"extras":{"ASOBO_primitive":{"BaseVertexIndex":864,"PrimitiveCount":12,"StartIndex":864,"UV2Length":0.7071067690849304,"UVLength":0.7071067690849304,"VertexCount":36,"VertexType":"VTX","VertexVersion":2}}},{"attributes":{"COLOR_0":5,"NORMAL":2,"POSITION":0,"TANGENT":1,"TEXCOORD_0":3,"TEXCOORD_1":4},"indices":6,"material":4,"mode":4,"extras":{"ASOBO_primitive":{"BaseVertexIndex":900,"PrimitiveCount":12,"StartIndex":900,"UV2Length":0.7071067690849304,"UVLength":0.7071067690849304,"VertexCount":36,"VertexType":"VTX","VertexVersion":2}}},{"attributes":{"COLOR_0":5,"NORMAL":2,"POSITION":0,"TANGENT":1,"TEXCOORD_0":3,"TEXCOORD_1":4},"indices":6,"material":3,"mode":4,"extras":{"ASOBO_primitive":{"BaseVertexIndex":936,"PrimitiveCount":80,"StartIndex":936,"UV2Length":0.7071067690849304,"UVLength":0.7071067690849304,"VertexCount":240,"VertexType":"VTX","VertexVersion":2}}}],"name":"HomebaseTravelSuitcase_mesh"}],"nodes":[{"mesh":0,"name":"HomebaseTravelSuitcase_node"}],"scene":0,"scenes":[{"nodes":[0]}],"extensionsUsed":["ASOBO_asset_optimized"],"buffers":[{"byteLength":44688,"uri":"HomebaseTravelSuitcase_LOD00.bin"}]}
