{
  "asset": {
    "version": "2.0",
    "generator": "VFR Multitool procedural asset generator"
  },
  "buffers": [
    {
      "byteLength": 93840,
      "uri": "HomebaseOpenParking_LOD00.bin"
    }
  ],
  "bufferViews": [
    {
      "buffer": 0,
      "byteOffset": 0,
      "byteLength": 9216,
      "target": 34962
    },
    {
      "buffer": 0,
      "byteOffset": 9216,
      "byteLength": 9216,
      "target": 34962
    },
    {
      "buffer": 0,
      "byteOffset": 18432,
      "byteLength": 6144,
      "target": 34962
    },
    {
      "buffer": 0,
      "byteOffset": 24576,
      "byteLength": 1536,
      "target": 34963
    },
    {
      "buffer": 0,
      "byteOffset": 26112,
      "byteLength": 4608,
      "target": 34962
    },
    {
      "buffer": 0,
      "byteOffset": 30720,
      "byteLength": 4608,
      "target": 34962
    },
    {
      "buffer": 0,
      "byteOffset": 35328,
      "byteLength": 3072,
      "target": 34962
    },
    {
      "buffer": 0,
      "byteOffset": 38400,
      "byteLength": 768,
      "target": 34963
    },
    {
      "buffer": 0,
      "byteOffset": 39168,
      "byteLength": 1728,
      "target": 34962
    },
    {
      "buffer": 0,
      "byteOffset": 40896,
      "byteLength": 1728,
      "target": 34962
    },
    {
      "buffer": 0,
      "byteOffset": 42624,
      "byteLength": 1152,
      "target": 34962
    },
    {
      "buffer": 0,
      "byteOffset": 43776,
      "byteLength": 288,
      "target": 34963
    },
    {
      "buffer": 0,
      "byteOffset": 44064,
      "byteLength": 2232,
      "target": 34962
    },
    {
      "buffer": 0,
      "byteOffset": 46296,
      "byteLength": 2232,
      "target": 34962
    },
    {
      "buffer": 0,
      "byteOffset": 48528,
      "byteLength": 1488,
      "target": 34962
    },
    {
      "buffer": 0,
      "byteOffset": 50016,
      "byteLength": 372,
      "target": 34963
    },
    {
      "buffer": 0,
      "byteOffset": 50388,
      "byteLength": 2232,
      "target": 34962
    },
    {
      "buffer": 0,
      "byteOffset": 52620,
      "byteLength": 2232,
      "target": 34962
    },
    {
      "buffer": 0,
      "byteOffset": 54852,
      "byteLength": 1488,
      "target": 34962
    },
    {
      "buffer": 0,
      "byteOffset": 56340,
      "byteLength": 372,
      "target": 34963
    },
    {
      "buffer": 0,
      "byteOffset": 56712,
      "byteLength": 3456,
      "target": 34962
    },
    {
      "buffer": 0,
      "byteOffset": 60168,
      "byteLength": 3456,
      "target": 34962
    },
    {
      "buffer": 0,
      "byteOffset": 63624,
      "byteLength": 2304,
      "target": 34962
    },
    {
      "buffer": 0,
      "byteOffset": 65928,
      "byteLength": 576,
      "target": 34963
    },
    {
      "buffer": 0,
      "byteOffset": 66504,
      "byteLength": 432,
      "target": 34962
    },
    {
      "buffer": 0,
      "byteOffset": 66936,
      "byteLength": 432,
      "target": 34962
    },
    {
      "buffer": 0,
      "byteOffset": 67368,
      "byteLength": 288,
      "target": 34962
    },
    {
      "buffer": 0,
      "byteOffset": 67656,
      "byteLength": 72,
      "target": 34963
    },
    {
      "buffer": 0,
      "byteOffset": 67728,
      "byteLength": 7776,
      "target": 34962
    },
    {
      "buffer": 0,
      "byteOffset": 75504,
      "byteLength": 7776,
      "target": 34962
    },
    {
      "buffer": 0,
      "byteOffset": 83280,
      "byteLength": 5184,
      "target": 34962
    },
    {
      "buffer": 0,
      "byteOffset": 88464,
      "byteLength": 1296,
      "target": 34963
    },
    {
      "buffer": 0,
      "byteOffset": 89760,
      "byteLength": 144,
      "target": 34962
    },
    {
      "buffer": 0,
      "byteOffset": 89904,
      "byteLength": 144,
      "target": 34962
    },
    {
      "buffer": 0,
      "byteOffset": 90048,
      "byteLength": 96,
      "target": 34962
    },
    {
      "buffer": 0,
      "byteOffset": 90144,
      "byteLength": 24,
      "target": 34963
    },
    {
      "buffer": 0,
      "byteOffset": 90168,
      "byteLength": 432,
      "target": 34962
    },
    {
      "buffer": 0,
      "byteOffset": 90600,
      "byteLength": 432,
      "target": 34962
    },
    {
      "buffer": 0,
      "byteOffset": 91032,
      "byteLength": 288,
      "target": 34962
    },
    {
      "buffer": 0,
      "byteOffset": 91320,
      "byteLength": 72,
      "target": 34963
    },
    {
      "buffer": 0,
      "byteOffset": 91392,
      "byteLength": 432,
      "target": 34962
    },
    {
      "buffer": 0,
      "byteOffset": 91824,
      "byteLength": 432,
      "target": 34962
    },
    {
      "buffer": 0,
      "byteOffset": 92256,
      "byteLength": 288,
      "target": 34962
    },
    {
      "buffer": 0,
      "byteOffset": 92544,
      "byteLength": 72,
      "target": 34963
    },
    {
      "buffer": 0,
      "byteOffset": 92616,
      "byteLength": 432,
      "target": 34962
    },
    {
      "buffer": 0,
      "byteOffset": 93048,
      "byteLength": 432,
      "target": 34962
    },
    {
      "buffer": 0,
      "byteOffset": 93480,
      "byteLength": 288,
      "target": 34962
    },
    {
      "buffer": 0,
      "byteOffset": 93768,
      "byteLength": 72,
      "target": 34963
    }
  ],
  "accessors": [
    {
      "bufferView": 0,
      "componentType": 5126,
      "count": 768,
      "min": [
        -8.834999999999999,
        0.07,
        -10.834999999999999
      ],
      "max": [
        8.834999999999999,
        0.75,
        10.834999999999999
      ],
      "type": "VEC3"
    },
    {
      "bufferView": 1,
      "componentType": 5126,
      "count": 768,
      "type": "VEC3"
    },
    {
      "bufferView": 2,
      "componentType": 5126,
      "count": 768,
      "type": "VEC2"
    },
    {
      "bufferView": 3,
      "componentType": 5123,
      "count": 768,
      "type": "SCALAR"
    },
    {
      "bufferView": 4,
      "componentType": 5126,
      "count": 384,
      "min": [
        -8.759558823529412,
        0.34,
        -10.759558823529412
      ],
      "max": [
        8.759558823529412,
        0.47,
        10.759558823529412
      ],
      "type": "VEC3"
    },
    {
      "bufferView": 5,
      "componentType": 5126,
      "count": 384,
      "type": "VEC3"
    },
    {
      "bufferView": 6,
      "componentType": 5126,
      "count": 384,
      "type": "VEC2"
    },
    {
      "bufferView": 7,
      "componentType": 5123,
      "count": 384,
      "type": "SCALAR"
    },
    {
      "bufferView": 8,
      "componentType": 5126,
      "count": 144,
      "min": [
        -8.889999999999999,
        0,
        -10.889999999999999
      ],
      "max": [
        8.889999999999999,
        0.07,
        10.889999999999999
      ],
      "type": "VEC3"
    },
    {
      "bufferView": 9,
      "componentType": 5126,
      "count": 144,
      "type": "VEC3"
    },
    {
      "bufferView": 10,
      "componentType": 5126,
      "count": 144,
      "type": "VEC2"
    },
    {
      "bufferView": 11,
      "componentType": 5123,
      "count": 144,
      "type": "SCALAR"
    },
    {
      "bufferView": 12,
      "componentType": 5126,
      "count": 186,
      "min": [
        -8.6,
        0.535,
        -10.6
      ],
      "max": [
        8.6,
        0.7250000000000001,
        10.6
      ],
      "type": "VEC3"
    },
    {
      "bufferView": 13,
      "componentType": 5126,
      "count": 186,
      "type": "VEC3"
    },
    {
      "bufferView": 14,
      "componentType": 5126,
      "count": 186,
      "type": "VEC2"
    },
    {
      "bufferView": 15,
      "componentType": 5123,
      "count": 186,
      "type": "SCALAR"
    },
    {
      "bufferView": 16,
      "componentType": 5126,
      "count": 186,
      "min": [
        -8.6,
        0.535,
        -9.636363636363637
      ],
      "max": [
        8.6,
        0.7250000000000001,
        10.6
      ],
      "type": "VEC3"
    },
    {
      "bufferView": 17,
      "componentType": 5126,
      "count": 186,
      "type": "VEC3"
    },
    {
      "bufferView": 18,
      "componentType": 5126,
      "count": 186,
      "type": "VEC2"
    },
    {
      "bufferView": 19,
      "componentType": 5123,
      "count": 186,
      "type": "SCALAR"
    },
    {
      "bufferView": 20,
      "componentType": 5126,
      "count": 288,
      "min": [
        -8.23,
        0.03999999999999998,
        4.27
      ],
      "max": [
        -5.5600000000000005,
        2.59,
        10.39
      ],
      "type": "VEC3"
    },
    {
      "bufferView": 21,
      "componentType": 5126,
      "count": 288,
      "type": "VEC3"
    },
    {
      "bufferView": 22,
      "componentType": 5126,
      "count": 288,
      "type": "VEC2"
    },
    {
      "bufferView": 23,
      "componentType": 5123,
      "count": 288,
      "type": "SCALAR"
    },
    {
      "bufferView": 24,
      "componentType": 5126,
      "count": 36,
      "min": [
        -8.149999999999999,
        2.4250000000000003,
        4.35
      ],
      "max": [
        -5.81,
        2.475,
        10.31
      ],
      "type": "VEC3"
    },
    {
      "bufferView": 25,
      "componentType": 5126,
      "count": 36,
      "type": "VEC3"
    },
    {
      "bufferView": 26,
      "componentType": 5126,
      "count": 36,
      "type": "VEC2"
    },
    {
      "bufferView": 27,
      "componentType": 5123,
      "count": 36,
      "type": "SCALAR"
    },
    {
      "bufferView": 28,
      "componentType": 5126,
      "count": 648,
      "min": [
        -9,
        0,
        -11
      ],
      "max": [
        9,
        2.43,
        11
      ],
      "type": "VEC3"
    },
    {
      "bufferView": 29,
      "componentType": 5126,
      "count": 648,
      "type": "VEC3"
    },
    {
      "bufferView": 30,
      "componentType": 5126,
      "count": 648,
      "type": "VEC2"
    },
    {
      "bufferView": 31,
      "componentType": 5123,
      "count": 648,
      "type": "SCALAR"
    },
    {
      "bufferView": 32,
      "componentType": 5126,
      "count": 12,
      "min": [
        -5.748,
        0.83,
        5.57
      ],
      "max": [
        -5.748,
        2.02,
        9.07
      ],
      "type": "VEC3"
    },
    {
      "bufferView": 33,
      "componentType": 5126,
      "count": 12,
      "type": "VEC3"
    },
    {
      "bufferView": 34,
      "componentType": 5126,
      "count": 12,
      "type": "VEC2"
    },
    {
      "bufferView": 35,
      "componentType": 5123,
      "count": 12,
      "type": "SCALAR"
    },
    {
      "bufferView": 36,
      "componentType": 5126,
      "count": 36,
      "min": [
        -8.149999999999999,
        0.05,
        4.35
      ],
      "max": [
        -5.81,
        0.16999999999999998,
        10.31
      ],
      "type": "VEC3"
    },
    {
      "bufferView": 37,
      "componentType": 5126,
      "count": 36,
      "type": "VEC3"
    },
    {
      "bufferView": 38,
      "componentType": 5126,
      "count": 36,
      "type": "VEC2"
    },
    {
      "bufferView": 39,
      "componentType": 5123,
      "count": 36,
      "type": "SCALAR"
    },
    {
      "bufferView": 40,
      "componentType": 5126,
      "count": 36,
      "min": [
        -7.8549999999999995,
        0.725,
        9.329999999999998
      ],
      "max": [
        -6.1049999999999995,
        0.8150000000000001,
        9.95
      ],
      "type": "VEC3"
    },
    {
      "bufferView": 41,
      "componentType": 5126,
      "count": 36,
      "type": "VEC3"
    },
    {
      "bufferView": 42,
      "componentType": 5126,
      "count": 36,
      "type": "VEC2"
    },
    {
      "bufferView": 43,
      "componentType": 5123,
      "count": 36,
      "type": "SCALAR"
    },
    {
      "bufferView": 44,
      "componentType": 5126,
      "count": 36,
      "min": [
        -7.755,
        2.2824999999999998,
        7.36
      ],
      "max": [
        -6.204999999999999,
        2.3175,
        7.54
      ],
      "type": "VEC3"
    },
    {
      "bufferView": 45,
      "componentType": 5126,
      "count": 36,
      "type": "VEC3"
    },
    {
      "bufferView": 46,
      "componentType": 5126,
      "count": 36,
      "type": "VEC2"
    },
    {
      "bufferView": 47,
      "componentType": 5123,
      "count": 36,
      "type": "SCALAR"
    }
  ],
  "materials": [
    {
      "doubleSided": true,
      "name": "Parkplatz_Leitkegel_Orange",
      "pbrMetallicRoughness": {
        "baseColorFactor": [
          0.92,
          0.18,
          0.015,
          1
        ],
        "metallicFactor": 0,
        "roughnessFactor": 0.62
      }
    },
    {
      "doubleSided": true,
      "name": "Parkplatz_Leitkegel_Weiss",
      "pbrMetallicRoughness": {
        "baseColorFactor": [
          0.9,
          0.9,
          0.84,
          1
        ],
        "metallicFactor": 0.05,
        "roughnessFactor": 0.42
      }
    },
    {
      "doubleSided": true,
      "name": "Parkplatz_Leitkegel_Fuss",
      "pbrMetallicRoughness": {
        "baseColorFactor": [
          0.035,
          0.04,
          0.04,
          1
        ],
        "metallicFactor": 0.05,
        "roughnessFactor": 0.82
      }
    },
    {
      "doubleSided": true,
      "name": "Absperrband_Rot",
      "pbrMetallicRoughness": {
        "baseColorFactor": [
          0.78,
          0.025,
          0.018,
          1
        ],
        "metallicFactor": 0,
        "roughnessFactor": 0.58
      }
    },
    {
      "doubleSided": true,
      "name": "Absperrband_Weiss",
      "pbrMetallicRoughness": {
        "baseColorFactor": [
          0.94,
          0.92,
          0.82,
          1
        ],
        "metallicFactor": 0,
        "roughnessFactor": 0.58
      }
    },
    {
      "doubleSided": true,
      "name": "Buerocontainer_Aussen_Blau",
      "pbrMetallicRoughness": {
        "baseColorFactor": [
          0.055,
          0.19,
          0.29,
          1
        ],
        "metallicFactor": 0.55,
        "roughnessFactor": 0.42
      }
    },
    {
      "doubleSided": true,
      "name": "Buerocontainer_Innen_Hellgrau",
      "pbrMetallicRoughness": {
        "baseColorFactor": [
          0.68,
          0.7,
          0.69,
          1
        ],
        "metallicFactor": 0.05,
        "roughnessFactor": 0.76
      }
    },
    {
      "doubleSided": true,
      "name": "Buerocontainer_Rahmen_Dunkel",
      "pbrMetallicRoughness": {
        "baseColorFactor": [
          0.08,
          0.095,
          0.105,
          1
        ],
        "metallicFactor": 0.72,
        "roughnessFactor": 0.3
      }
    },
    {
      "doubleSided": true,
      "name": "Buerocontainer_Fenster",
      "pbrMetallicRoughness": {
        "baseColorFactor": [
          0.16,
          0.39,
          0.5,
          1
        ],
        "metallicFactor": 0.08,
        "roughnessFactor": 0.16
      }
    },
    {
      "doubleSided": true,
      "name": "Buerocontainer_Boden",
      "pbrMetallicRoughness": {
        "baseColorFactor": [
          0.19,
          0.16,
          0.12,
          1
        ],
        "metallicFactor": 0,
        "roughnessFactor": 0.68
      }
    },
    {
      "doubleSided": true,
      "name": "Buerocontainer_Mobiliar",
      "pbrMetallicRoughness": {
        "baseColorFactor": [
          0.33,
          0.2,
          0.09,
          1
        ],
        "metallicFactor": 0.05,
        "roughnessFactor": 0.7
      }
    },
    {
      "doubleSided": true,
      "name": "LIGHTS_Buerocontainer_Deckenlampe",
      "pbrMetallicRoughness": {
        "baseColorFactor": [
          0.96,
          0.93,
          0.78,
          1
        ],
        "metallicFactor": 0,
        "roughnessFactor": 0.18
      },
      "emissiveFactor": [
        1,
        0.94,
        0.72
      ]
    }
  ],
  "meshes": [
    {
      "name": "HomebaseOpenParking_mesh",
      "primitives": [
        {
          "attributes": {
            "POSITION": 0,
            "NORMAL": 1,
            "TEXCOORD_0": 2
          },
          "indices": 3,
          "material": 0,
          "mode": 4
        },
        {
          "attributes": {
            "POSITION": 4,
            "NORMAL": 5,
            "TEXCOORD_0": 6
          },
          "indices": 7,
          "material": 1,
          "mode": 4
        },
        {
          "attributes": {
            "POSITION": 8,
            "NORMAL": 9,
            "TEXCOORD_0": 10
          },
          "indices": 11,
          "material": 2,
          "mode": 4
        },
        {
          "attributes": {
            "POSITION": 12,
            "NORMAL": 13,
            "TEXCOORD_0": 14
          },
          "indices": 15,
          "material": 3,
          "mode": 4
        },
        {
          "attributes": {
            "POSITION": 16,
            "NORMAL": 17,
            "TEXCOORD_0": 18
          },
          "indices": 19,
          "material": 4,
          "mode": 4
        },
        {
          "attributes": {
            "POSITION": 20,
            "NORMAL": 21,
            "TEXCOORD_0": 22
          },
          "indices": 23,
          "material": 5,
          "mode": 4
        },
        {
          "attributes": {
            "POSITION": 24,
            "NORMAL": 25,
            "TEXCOORD_0": 26
          },
          "indices": 27,
          "material": 6,
          "mode": 4
        },
        {
          "attributes": {
            "POSITION": 28,
            "NORMAL": 29,
            "TEXCOORD_0": 30
          },
          "indices": 31,
          "material": 7,
          "mode": 4
        },
        {
          "attributes": {
            "POSITION": 32,
            "NORMAL": 33,
            "TEXCOORD_0": 34
          },
          "indices": 35,
          "material": 8,
          "mode": 4
        },
        {
          "attributes": {
            "POSITION": 36,
            "NORMAL": 37,
            "TEXCOORD_0": 38
          },
          "indices": 39,
          "material": 9,
          "mode": 4
        },
        {
          "attributes": {
            "POSITION": 40,
            "NORMAL": 41,
            "TEXCOORD_0": 42
          },
          "indices": 43,
          "material": 10,
          "mode": 4
        },
        {
          "attributes": {
            "POSITION": 44,
            "NORMAL": 45,
            "TEXCOORD_0": 46
          },
          "indices": 47,
          "material": 11,
          "mode": 4
        }
      ]
    }
  ],
  "nodes": [
    {
      "mesh": 0,
      "name": "HomebaseOpenParking_node"
    }
  ],
  "scenes": [
    {
      "nodes": [
        0
      ]
    }
  ],
  "scene": 0
}
