{"accessors":[{"bufferView":0,"componentType":5126,"count":960,"min":[-0.17499999701976777,0.0,-0.1379999965429306],"max":[0.17499999701976777,0.5,0.12299000471830368],"type":"VEC3","name":"HomebaseDaypack_mesh_vertices#0_POSITION"},{"bufferView":0,"byteOffset":12,"componentType":5120,"count":960,"type":"VEC4","name":"HomebaseDaypack_mesh_vertices#0_TANGENT"},{"bufferView":0,"byteOffset":16,"componentType":5120,"count":960,"type":"VEC4","name":"HomebaseDaypack_mesh_vertices#0_NORMAL"},{"bufferView":0,"byteOffset":20,"componentType":5122,"count":960,"type":"VEC2","name":"HomebaseDaypack_mesh_vertices#0_TEXCOORD_0"},{"bufferView":0,"byteOffset":24,"componentType":5122,"count":960,"type":"VEC2","name":"HomebaseDaypack_mesh_vertices#0_TEXCOORD_1"},{"bufferView":0,"byteOffset":28,"componentType":5123,"count":960,"type":"VEC4","name":"HomebaseDaypack_mesh_vertices#0_COLOR_0"},{"bufferView":1,"componentType":5123,"count":960,"type":"SCALAR","name":"HomebaseDaypack_mesh_indices#4"}],"asset":{"generator":"VFR Multitool procedural asset generator","version":"2.0","extensions":{"ASOBO_asset_optimized":{"BoundingBoxMax":[0.17499999701976777,0.5,0.12299000471830368],"BoundingBoxMin":[-0.17499999701976777,0.0,-0.1379999965429306],"MajorVersion":4,"MinorVersion":7,"UseCheckerboardMaterialForMissingTextures":true,"UseOnlyFilenameForImageURI":true}}},"bufferViews":[{"buffer":0,"byteLength":34560,"byteStride":36,"target":34962,"name":"BufferViewVertexND"},{"buffer":0,"byteLength":1920,"byteOffset":34560,"target":34963,"name":"BufferViewIndexU16"}],"materials":[{"name":"Daypack_Stoff_Grau","doubleSided":true,"pbrMetallicRoughness":{"baseColorFactor":[0.13,0.16,0.17,1.0],"metallicFactor":0.0,"roughnessFactor":0.82}},{"name":"Daypack_Boden_Dunkel","doubleSided":true,"pbrMetallicRoughness":{"baseColorFactor":[0.025,0.03,0.032,1.0],"metallicFactor":0.02,"roughnessFactor":0.86}},{"name":"Daypack_Akzent_Tuerkis","doubleSided":true,"pbrMetallicRoughness":{"baseColorFactor":[0.025,0.47,0.43,1.0],"metallicFactor":0.08,"roughnessFactor":0.46}},{"name":"Daypack_Gurte","doubleSided":true,"pbrMetallicRoughness":{"baseColorFactor":[0.08,0.1,0.1,1.0],"metallicFactor":0.18,"roughnessFactor":0.64}},{"name":"Daypack_Zipper","doubleSided":true,"pbrMetallicRoughness":{"baseColorFactor":[0.5,0.54,0.54,1.0],"metallicFactor":0.86,"roughnessFactor":0.22}}],"meshes":[{"primitives":[{"attributes":{"COLOR_0":5,"NORMAL":2,"POSITION":0,"TANGENT":1,"TEXCOORD_0":3,"TEXCOORD_1":4},"indices":6,"material":3,"mode":4,"extras":{"ASOBO_primitive":{"PrimitiveCount":160,"UV2Length":0.7071067690849304,"UVLength":0.7071067690849304,"VertexCount":480,"VertexType":"VTX","VertexVersion":2}}},{"attributes":{"COLOR_0":5,"NORMAL":2,"POSITION":0,"TANGENT":1,"TEXCOORD_0":3,"TEXCOORD_1":4},"indices":6,"material":0,"mode":4,"extras":{"ASOBO_primitive":{"BaseVertexIndex":480,"PrimitiveCount":96,"StartIndex":480,"UV2Length":0.7071067690849304,"UVLength":0.7071067690849304,"VertexCount":288,"VertexType":"VTX","VertexVersion":2}}},{"attributes":{"COLOR_0":5,"NORMAL":2,"POSITION":0,"TANGENT":1,"TEXCOORD_0":3,"TEXCOORD_1":4},"indices":6,"material":4,"mode":4,"extras":{"ASOBO_primitive":{"BaseVertexIndex":768,"PrimitiveCount":28,"StartIndex":768,"UV2Length":0.7071067690849304,"UVLength":0.7071067690849304,"VertexCount":84,"VertexType":"VTX","VertexVersion":2}}},{"attributes":{"COLOR_0":5,"NORMAL":2,"POSITION":0,"TANGENT":1,"TEXCOORD_0":3,"TEXCOORD_1":4},"indices":6,"material":2,"mode":4,"extras":{"ASOBO_primitive":{"BaseVertexIndex":852,"PrimitiveCount":12,"StartIndex":852,"UV2Length":0.7071067690849304,"UVLength":0.7071067690849304,"VertexCount":36,"VertexType":"VTX","VertexVersion":2}}},{"attributes":{"COLOR_0":5,"NORMAL":2,"POSITION":0,"TANGENT":1,"TEXCOORD_0":3,"TEXCOORD_1":4},"indices":6,"material":1,"mode":4,"extras":{"ASOBO_primitive":{"BaseVertexIndex":888,"PrimitiveCount":24,"StartIndex":888,"UV2Length":0.7071067690849304,"UVLength":0.7071067690849304,"VertexCount":72,"VertexType":"VTX","VertexVersion":2}}}],"name":"HomebaseDaypack_mesh"}],"nodes":[{"mesh":0,"name":"HomebaseDaypack_node"}],"scene":0,"scenes":[{"nodes":[0]}],"extensionsUsed":["ASOBO_asset_optimized"],"buffers":[{"byteLength":36480,"uri":"HomebaseDaypack_LOD00.bin"}]}
