{
  "asset": {
    "generator": "VFR campingEquipmentCargo raw glTF exporter; source asset-tools/create-camping-equipment-cargo-scene.py",
    "version": "2.0"
  },
  "scene": 0,
  "scenes": [
    {
      "name": "Scene",
      "nodes": [
        0,
        1,
        2,
        3
      ]
    }
  ],
  "nodes": [
    {
      "mesh": 0,
      "name": "CampingEquipmentBackpack"
    },
    {
      "mesh": 1,
      "name": "CampingEquipmentBoots"
    },
    {
      "mesh": 2,
      "name": "CampingEquipmentRolls"
    },
    {
      "mesh": 3,
      "name": "CampingEquipmentTentPack"
    }
  ],
  "materials": [
    {
      "doubleSided": true,
      "name": "MissionCampingEquipmentCargoOliveGraphicFabric",
      "normalTexture": {
        "index": 0,
        "scale": 0.3799999952316284
      },
      "pbrMetallicRoughness": {
        "baseColorTexture": {
          "index": 1
        },
        "metallicFactor": 0,
        "roughnessFactor": 0.6800000071525574
      }
    },
    {
      "doubleSided": true,
      "name": "MissionCampingEquipmentCargoDarkWovenFabric",
      "normalTexture": {
        "index": 2,
        "scale": 0.41999998688697815
      },
      "pbrMetallicRoughness": {
        "baseColorTexture": {
          "index": 3
        },
        "metallicFactor": 0,
        "roughnessFactor": 0.7599999904632568
      }
    },
    {
      "doubleSided": true,
      "name": "MissionCampingEquipmentCargoWebbing",
      "pbrMetallicRoughness": {
        "baseColorFactor": [
          0.03500000014901161,
          0.03999999910593033,
          0.03700000047683716,
          1
        ],
        "metallicFactor": 0,
        "roughnessFactor": 0.8199999928474426
      }
    },
    {
      "doubleSided": true,
      "name": "MissionCampingEquipmentCargoBuckles",
      "pbrMetallicRoughness": {
        "baseColorFactor": [
          0.054999999701976776,
          0.05999999865889549,
          0.057999998331069946,
          1
        ],
        "metallicFactor": 0,
        "roughnessFactor": 0.5600000023841858
      }
    },
    {
      "doubleSided": true,
      "name": "MissionCampingEquipmentCargoBootSoleRubber",
      "pbrMetallicRoughness": {
        "baseColorFactor": [
          0.017999999225139618,
          0.020999999716877937,
          0.019999999552965164,
          1
        ],
        "metallicFactor": 0,
        "roughnessFactor": 0.8399999737739563
      }
    },
    {
      "doubleSided": true,
      "name": "MissionCampingEquipmentCargoBrownLeather",
      "normalTexture": {
        "index": 4,
        "scale": 0.46000000834465027
      },
      "pbrMetallicRoughness": {
        "baseColorTexture": {
          "index": 5
        },
        "metallicFactor": 0,
        "roughnessFactor": 0.5699999928474426
      }
    },
    {
      "doubleSided": true,
      "name": "MissionCampingEquipmentCargoMetalHardware",
      "pbrMetallicRoughness": {
        "baseColorFactor": [
          0.2800000011920929,
          0.30000001192092896,
          0.30000001192092896,
          1
        ],
        "metallicFactor": 0.75,
        "roughnessFactor": 0.2800000011920929
      }
    },
    {
      "doubleSided": true,
      "name": "MissionCampingEquipmentCargoBootLaces",
      "pbrMetallicRoughness": {
        "baseColorFactor": [
          0.07999999821186066,
          0.04500000178813934,
          0.02500000037252903,
          1
        ],
        "metallicFactor": 0,
        "roughnessFactor": 0.7799999713897705
      }
    },
    {
      "doubleSided": true,
      "name": "MissionCampingEquipmentCargoBlueSleepingBagFabric",
      "normalTexture": {
        "index": 6,
        "scale": 0.4000000059604645
      },
      "pbrMetallicRoughness": {
        "baseColorTexture": {
          "index": 7
        },
        "metallicFactor": 0,
        "roughnessFactor": 0.6600000262260437
      }
    },
    {
      "doubleSided": true,
      "name": "MissionCampingEquipmentCargoOrangeDiamondMatFabric",
      "normalTexture": {
        "index": 8,
        "scale": 0.3400000035762787
      },
      "pbrMetallicRoughness": {
        "baseColorTexture": {
          "index": 9
        },
        "metallicFactor": 0,
        "roughnessFactor": 0.5799999833106995
      }
    },
    {
      "doubleSided": true,
      "name": "MissionCampingEquipmentCargoGreyTentPackFabric",
      "normalTexture": {
        "index": 10,
        "scale": 0.3799999952316284
      },
      "pbrMetallicRoughness": {
        "baseColorTexture": {
          "index": 11
        },
        "metallicFactor": 0,
        "roughnessFactor": 0.699999988079071
      }
    },
    {
      "doubleSided": true,
      "name": "MissionCampingEquipmentCargoOrangeTentPoles",
      "pbrMetallicRoughness": {
        "baseColorFactor": [
          0.6800000071525574,
          0.10000000149011612,
          0.014999999664723873,
          1
        ],
        "metallicFactor": 0.550000011920929,
        "roughnessFactor": 0.30000001192092896
      }
    }
  ],
  "meshes": [
    {
      "name": "CampingBackpackMainBodyMesh",
      "primitives": [
        {
          "attributes": {
            "POSITION": 0,
            "NORMAL": 1,
            "TEXCOORD_0": 2,
            "TEXCOORD_1": 3
          },
          "indices": 4,
          "material": 0
        },
        {
          "attributes": {
            "POSITION": 5,
            "NORMAL": 6,
            "TEXCOORD_0": 7,
            "TEXCOORD_1": 8
          },
          "indices": 9,
          "material": 1
        },
        {
          "attributes": {
            "POSITION": 10,
            "NORMAL": 11,
            "TEXCOORD_0": 12,
            "TEXCOORD_1": 13
          },
          "indices": 14,
          "material": 2
        },
        {
          "attributes": {
            "POSITION": 15,
            "NORMAL": 16,
            "TEXCOORD_0": 17,
            "TEXCOORD_1": 18
          },
          "indices": 19,
          "material": 3
        }
      ]
    },
    {
      "name": "CampingLeftBootSoleMesh",
      "primitives": [
        {
          "attributes": {
            "POSITION": 20,
            "NORMAL": 21,
            "TEXCOORD_0": 22,
            "TEXCOORD_1": 23
          },
          "indices": 24,
          "material": 4
        },
        {
          "attributes": {
            "POSITION": 25,
            "NORMAL": 26,
            "TEXCOORD_0": 27,
            "TEXCOORD_1": 28
          },
          "indices": 29,
          "material": 5
        },
        {
          "attributes": {
            "POSITION": 30,
            "NORMAL": 31,
            "TEXCOORD_0": 32,
            "TEXCOORD_1": 33
          },
          "indices": 34,
          "material": 1
        },
        {
          "attributes": {
            "POSITION": 35,
            "NORMAL": 36,
            "TEXCOORD_0": 37,
            "TEXCOORD_1": 38
          },
          "indices": 39,
          "material": 6
        },
        {
          "attributes": {
            "POSITION": 40,
            "NORMAL": 41,
            "TEXCOORD_0": 42,
            "TEXCOORD_1": 43
          },
          "indices": 44,
          "material": 7
        }
      ]
    },
    {
      "name": "CampingPackedSleepingBagMesh",
      "primitives": [
        {
          "attributes": {
            "POSITION": 45,
            "NORMAL": 46,
            "TEXCOORD_0": 47,
            "TEXCOORD_1": 48
          },
          "indices": 49,
          "material": 8
        },
        {
          "attributes": {
            "POSITION": 50,
            "NORMAL": 51,
            "TEXCOORD_0": 52,
            "TEXCOORD_1": 53
          },
          "indices": 54,
          "material": 2
        },
        {
          "attributes": {
            "POSITION": 55,
            "NORMAL": 56,
            "TEXCOORD_0": 57,
            "TEXCOORD_1": 58
          },
          "indices": 59,
          "material": 3
        },
        {
          "attributes": {
            "POSITION": 60,
            "NORMAL": 61,
            "TEXCOORD_0": 62,
            "TEXCOORD_1": 63
          },
          "indices": 49,
          "material": 9
        },
        {
          "attributes": {
            "POSITION": 64,
            "NORMAL": 65,
            "TEXCOORD_0": 66,
            "TEXCOORD_1": 67
          },
          "indices": 68,
          "material": 1
        }
      ]
    },
    {
      "name": "CampingPackedTentBagMesh",
      "primitives": [
        {
          "attributes": {
            "POSITION": 69,
            "NORMAL": 70,
            "TEXCOORD_0": 71,
            "TEXCOORD_1": 72
          },
          "indices": 49,
          "material": 10
        },
        {
          "attributes": {
            "POSITION": 73,
            "NORMAL": 74,
            "TEXCOORD_0": 75,
            "TEXCOORD_1": 76
          },
          "indices": 77,
          "material": 2
        },
        {
          "attributes": {
            "POSITION": 78,
            "NORMAL": 79,
            "TEXCOORD_0": 80,
            "TEXCOORD_1": 81
          },
          "indices": 82,
          "material": 11
        },
        {
          "attributes": {
            "POSITION": 83,
            "NORMAL": 84,
            "TEXCOORD_0": 85,
            "TEXCOORD_1": 86
          },
          "indices": 87,
          "material": 4
        }
      ]
    }
  ],
  "textures": [
    {
      "sampler": 0,
      "source": 0
    },
    {
      "sampler": 0,
      "source": 1
    },
    {
      "sampler": 0,
      "source": 0
    },
    {
      "sampler": 0,
      "source": 2
    },
    {
      "sampler": 0,
      "source": 3
    },
    {
      "sampler": 0,
      "source": 4
    },
    {
      "sampler": 0,
      "source": 0
    },
    {
      "sampler": 0,
      "source": 5
    },
    {
      "sampler": 0,
      "source": 0
    },
    {
      "sampler": 0,
      "source": 6
    },
    {
      "sampler": 0,
      "source": 0
    },
    {
      "sampler": 0,
      "source": 7
    }
  ],
  "images": [
    {
      "mimeType": "image/png",
      "name": "MissionCampingEquipmentCargo_Woven_Normal",
      "uri": "../texture/MissionCampingEquipmentCargo_Woven_Normal.png"
    },
    {
      "mimeType": "image/png",
      "name": "MissionCampingEquipmentCargo_OliveGraphicFabric_BaseColor",
      "uri": "../texture/MissionCampingEquipmentCargo_OliveGraphicFabric_BaseColor.png"
    },
    {
      "mimeType": "image/png",
      "name": "MissionCampingEquipmentCargo_DarkFabric_BaseColor",
      "uri": "../texture/MissionCampingEquipmentCargo_DarkFabric_BaseColor.png"
    },
    {
      "mimeType": "image/png",
      "name": "MissionCampingEquipmentCargo_Leather_Normal",
      "uri": "../texture/MissionCampingEquipmentCargo_Leather_Normal.png"
    },
    {
      "mimeType": "image/png",
      "name": "MissionCampingEquipmentCargo_BrownLeather_BaseColor",
      "uri": "../texture/MissionCampingEquipmentCargo_BrownLeather_BaseColor.png"
    },
    {
      "mimeType": "image/png",
      "name": "MissionCampingEquipmentCargo_BlueSleepingBag_BaseColor",
      "uri": "../texture/MissionCampingEquipmentCargo_BlueSleepingBag_BaseColor.png"
    },
    {
      "mimeType": "image/png",
      "name": "MissionCampingEquipmentCargo_OrangeMat_BaseColor",
      "uri": "../texture/MissionCampingEquipmentCargo_OrangeMat_BaseColor.png"
    },
    {
      "mimeType": "image/png",
      "name": "MissionCampingEquipmentCargo_GreyTentPack_BaseColor",
      "uri": "../texture/MissionCampingEquipmentCargo_GreyTentPack_BaseColor.png"
    }
  ],
  "accessors": [
    {
      "bufferView": 0,
      "componentType": 5126,
      "count": 3219,
      "max": [
        0.2601679861545563,
        1.0575000047683716,
        0.18152356147766113
      ],
      "min": [
        -0.26416799426078796,
        0,
        -0.2915194630622864
      ],
      "type": "VEC3"
    },
    {
      "bufferView": 1,
      "componentType": 5126,
      "count": 3219,
      "type": "VEC3"
    },
    {
      "bufferView": 2,
      "componentType": 5126,
      "count": 3219,
      "type": "VEC2"
    },
    {
      "bufferView": 3,
      "componentType": 5126,
      "count": 3219,
      "type": "VEC2"
    },
    {
      "bufferView": 4,
      "componentType": 5123,
      "count": 16560,
      "type": "SCALAR"
    },
    {
      "bufferView": 5,
      "componentType": 5126,
      "count": 3478,
      "max": [
        0.3254163861274719,
        1.1248244047164917,
        0.053064920008182526
      ],
      "min": [
        -0.3261844217777252,
        0.004999995231628418,
        -0.33822378516197205
      ],
      "type": "VEC3"
    },
    {
      "bufferView": 6,
      "componentType": 5126,
      "count": 3478,
      "type": "VEC3"
    },
    {
      "bufferView": 7,
      "componentType": 5126,
      "count": 3478,
      "type": "VEC2"
    },
    {
      "bufferView": 8,
      "componentType": 5126,
      "count": 3478,
      "type": "VEC2"
    },
    {
      "bufferView": 9,
      "componentType": 5123,
      "count": 17760,
      "type": "SCALAR"
    },
    {
      "bufferView": 10,
      "componentType": 5126,
      "count": 400,
      "max": [
        0.1392868012189865,
        0.5406515598297119,
        0.18316736817359924
      ],
      "min": [
        -0.13942351937294006,
        0.13934838771820068,
        0.1352391541004181
      ],
      "type": "VEC3"
    },
    {
      "bufferView": 11,
      "componentType": 5126,
      "count": 400,
      "type": "VEC3"
    },
    {
      "bufferView": 12,
      "componentType": 5126,
      "count": 400,
      "type": "VEC2"
    },
    {
      "bufferView": 13,
      "componentType": 5126,
      "count": 400,
      "type": "VEC2"
    },
    {
      "bufferView": 14,
      "componentType": 5123,
      "count": 600,
      "type": "SCALAR"
    },
    {
      "bufferView": 15,
      "componentType": 5126,
      "count": 768,
      "max": [
        0.15000000596046448,
        0.5,
        0.184376060962677
      ],
      "min": [
        -0.15000000596046448,
        0.4400000274181366,
        0.16567164659500122
      ],
      "type": "VEC3"
    },
    {
      "bufferView": 16,
      "componentType": 5126,
      "count": 768,
      "type": "VEC3"
    },
    {
      "bufferView": 17,
      "componentType": 5126,
      "count": 768,
      "type": "VEC2"
    },
    {
      "bufferView": 18,
      "componentType": 5126,
      "count": 768,
      "type": "VEC2"
    },
    {
      "bufferView": 19,
      "componentType": 5123,
      "count": 1128,
      "type": "SCALAR"
    },
    {
      "bufferView": 20,
      "componentType": 5126,
      "count": 1330,
      "max": [
        0.5097460150718689,
        0.04563039168715477,
        0.5569123029708862
      ],
      "min": [
        0.13815686106681824,
        0,
        0.16857761144638062
      ],
      "type": "VEC3"
    },
    {
      "bufferView": 21,
      "componentType": 5126,
      "count": 1330,
      "type": "VEC3"
    },
    {
      "bufferView": 22,
      "componentType": 5126,
      "count": 1330,
      "type": "VEC2"
    },
    {
      "bufferView": 23,
      "componentType": 5126,
      "count": 1330,
      "type": "VEC2"
    },
    {
      "bufferView": 24,
      "componentType": 5123,
      "count": 6120,
      "type": "SCALAR"
    },
    {
      "bufferView": 25,
      "componentType": 5126,
      "count": 5676,
      "max": [
        0.5080156922340393,
        0.31703153252601624,
        0.5641986727714539
      ],
      "min": [
        0.13909369707107544,
        0.042031530290842056,
        0.16274218261241913
      ],
      "type": "VEC3"
    },
    {
      "bufferView": 26,
      "componentType": 5126,
      "count": 5676,
      "type": "VEC3"
    },
    {
      "bufferView": 27,
      "componentType": 5126,
      "count": 5676,
      "type": "VEC2"
    },
    {
      "bufferView": 28,
      "componentType": 5126,
      "count": 5676,
      "type": "VEC2"
    },
    {
      "bufferView": 29,
      "componentType": 5123,
      "count": 28068,
      "type": "SCALAR"
    },
    {
      "bufferView": 30,
      "componentType": 5126,
      "count": 416,
      "max": [
        0.49106040596961975,
        0.31703153252601624,
        0.37134772539138794
      ],
      "min": [
        0.15445861220359802,
        0.23503153026103973,
        0.16274218261241913
      ],
      "type": "VEC3"
    },
    {
      "bufferView": 31,
      "componentType": 5126,
      "count": 416,
      "type": "VEC3"
    },
    {
      "bufferView": 32,
      "componentType": 5126,
      "count": 416,
      "type": "VEC2"
    },
    {
      "bufferView": 33,
      "componentType": 5126,
      "count": 416,
      "type": "VEC2"
    },
    {
      "bufferView": 34,
      "componentType": 5123,
      "count": 1188,
      "type": "SCALAR"
    },
    {
      "bufferView": 35,
      "componentType": 5126,
      "count": 15360,
      "max": [
        0.4940201938152313,
        0.2793315351009369,
        0.5013195276260376
      ],
      "min": [
        0.15316781401634216,
        0.1447315365076065,
        0.31634658575057983
      ],
      "type": "VEC3"
    },
    {
      "bufferView": 36,
      "componentType": 5126,
      "count": 15360,
      "type": "VEC3"
    },
    {
      "bufferView": 37,
      "componentType": 5126,
      "count": 15360,
      "type": "VEC2"
    },
    {
      "bufferView": 38,
      "componentType": 5126,
      "count": 15360,
      "type": "VEC2"
    },
    {
      "bufferView": 39,
      "componentType": 5123,
      "count": 23040,
      "type": "SCALAR"
    },
    {
      "bufferView": 40,
      "componentType": 5126,
      "count": 3432,
      "max": [
        0.4867593050003052,
        0.27480098605155945,
        0.5142616629600525
      ],
      "min": [
        0.16045024991035461,
        0.15175145864486694,
        0.31733185052871704
      ],
      "type": "VEC3"
    },
    {
      "bufferView": 41,
      "componentType": 5126,
      "count": 3432,
      "type": "VEC3"
    },
    {
      "bufferView": 42,
      "componentType": 5126,
      "count": 3432,
      "type": "VEC2"
    },
    {
      "bufferView": 43,
      "componentType": 5126,
      "count": 3432,
      "type": "VEC2"
    },
    {
      "bufferView": 44,
      "componentType": 5123,
      "count": 17160,
      "type": "SCALAR"
    },
    {
      "bufferView": 45,
      "componentType": 5126,
      "count": 482,
      "max": [
        -0.16912952065467834,
        0.355987012386322,
        0.4906594753265381
      ],
      "min": [
        -0.6108412742614746,
        1.4901161193847656e-08,
        0.13352233171463013
      ],
      "type": "VEC3"
    },
    {
      "bufferView": 46,
      "componentType": 5126,
      "count": 482,
      "type": "VEC3"
    },
    {
      "bufferView": 47,
      "componentType": 5126,
      "count": 482,
      "type": "VEC2"
    },
    {
      "bufferView": 48,
      "componentType": 5126,
      "count": 482,
      "type": "VEC2"
    },
    {
      "bufferView": 49,
      "componentType": 5123,
      "count": 2880,
      "type": "SCALAR"
    },
    {
      "bufferView": 50,
      "componentType": 5126,
      "count": 3072,
      "max": [
        0.8410000205039978,
        0.5559999942779541,
        0.48500001430511475
      ],
      "min": [
        -0.49900001287460327,
        0,
        -0.3410000205039978
      ],
      "type": "VEC3"
    },
    {
      "bufferView": 51,
      "componentType": 5126,
      "count": 3072,
      "type": "VEC3"
    },
    {
      "bufferView": 52,
      "componentType": 5126,
      "count": 3072,
      "type": "VEC2"
    },
    {
      "bufferView": 53,
      "componentType": 5126,
      "count": 3072,
      "type": "VEC2"
    },
    {
      "bufferView": 54,
      "componentType": 5123,
      "count": 4608,
      "type": "SCALAR"
    },
    {
      "bufferView": 55,
      "componentType": 5126,
      "count": 1536,
      "max": [
        0.7049999833106995,
        0.5674999952316284,
        0.48499998450279236
      ],
      "min": [
        -0.512499988079071,
        0.15399999916553497,
        -0.0429999977350235
      ],
      "type": "VEC3"
    },
    {
      "bufferView": 56,
      "componentType": 5126,
      "count": 1536,
      "type": "VEC3"
    },
    {
      "bufferView": 57,
      "componentType": 5126,
      "count": 1536,
      "type": "VEC2"
    },
    {
      "bufferView": 58,
      "componentType": 5126,
      "count": 1536,
      "type": "VEC2"
    },
    {
      "bufferView": 59,
      "componentType": 5123,
      "count": 2256,
      "type": "SCALAR"
    },
    {
      "bufferView": 60,
      "componentType": 5126,
      "count": 482,
      "max": [
        0.8315367698669434,
        0.7830930948257446,
        -0.024578973650932312
      ],
      "min": [
        0.5275561809539795,
        0,
        -0.327930748462677
      ],
      "type": "VEC3"
    },
    {
      "bufferView": 61,
      "componentType": 5126,
      "count": 482,
      "type": "VEC3"
    },
    {
      "bufferView": 62,
      "componentType": 5126,
      "count": 482,
      "type": "VEC2"
    },
    {
      "bufferView": 63,
      "componentType": 5126,
      "count": 482,
      "type": "VEC2"
    },
    {
      "bufferView": 64,
      "componentType": 5126,
      "count": 3072,
      "max": [
        0.8259999752044678,
        0.7860000133514404,
        -0.034000009298324585
      ],
      "min": [
        0.534000039100647,
        0.777999997138977,
        -0.32600000500679016
      ],
      "type": "VEC3"
    },
    {
      "bufferView": 65,
      "componentType": 5126,
      "count": 3072,
      "type": "VEC3"
    },
    {
      "bufferView": 66,
      "componentType": 5126,
      "count": 3072,
      "type": "VEC2"
    },
    {
      "bufferView": 67,
      "componentType": 5126,
      "count": 3072,
      "type": "VEC2"
    },
    {
      "bufferView": 68,
      "componentType": 5123,
      "count": 4608,
      "type": "SCALAR"
    },
    {
      "bufferView": 69,
      "componentType": 5126,
      "count": 482,
      "max": [
        -0.5247072577476501,
        0.8533903360366821,
        -0.04477605223655701
      ],
      "min": [
        -0.792392373085022,
        0,
        -0.31059473752975464
      ],
      "type": "VEC3"
    },
    {
      "bufferView": 70,
      "componentType": 5126,
      "count": 482,
      "type": "VEC3"
    },
    {
      "bufferView": 71,
      "componentType": 5126,
      "count": 482,
      "type": "VEC2"
    },
    {
      "bufferView": 72,
      "componentType": 5126,
      "count": 482,
      "type": "VEC2"
    },
    {
      "bufferView": 73,
      "componentType": 5126,
      "count": 1635,
      "max": [
        -0.5180000066757202,
        0.8739258646965027,
        -0.03800000250339508
      ],
      "min": [
        -0.8020000457763672,
        0.2499999850988388,
        -0.32200002670288086
      ],
      "type": "VEC3"
    },
    {
      "bufferView": 74,
      "componentType": 5126,
      "count": 1635,
      "type": "VEC3"
    },
    {
      "bufferView": 75,
      "componentType": 5126,
      "count": 1635,
      "type": "VEC2"
    },
    {
      "bufferView": 76,
      "componentType": 5126,
      "count": 1635,
      "type": "VEC2"
    },
    {
      "bufferView": 77,
      "componentType": 5123,
      "count": 2784,
      "type": "SCALAR"
    },
    {
      "bufferView": 78,
      "componentType": 5126,
      "count": 432,
      "max": [
        -0.5940008163452148,
        0.7150975465774536,
        -0.0359959751367569
      ],
      "min": [
        -0.7259992361068726,
        0.09990248084068298,
        -0.04800402373075485
      ],
      "type": "VEC3"
    },
    {
      "bufferView": 79,
      "componentType": 5126,
      "count": 432,
      "type": "VEC3"
    },
    {
      "bufferView": 80,
      "componentType": 5126,
      "count": 432,
      "type": "VEC2"
    },
    {
      "bufferView": 81,
      "componentType": 5126,
      "count": 432,
      "type": "VEC2"
    },
    {
      "bufferView": 82,
      "componentType": 5123,
      "count": 792,
      "type": "SCALAR"
    },
    {
      "bufferView": 83,
      "componentType": 5126,
      "count": 432,
      "max": [
        -0.6029999852180481,
        0.10400000214576721,
        -0.03500000014901161
      ],
      "min": [
        -0.7170000076293945,
        0.09200000762939453,
        -0.04899999871850014
      ],
      "type": "VEC3"
    },
    {
      "bufferView": 84,
      "componentType": 5126,
      "count": 432,
      "type": "VEC3"
    },
    {
      "bufferView": 85,
      "componentType": 5126,
      "count": 432,
      "type": "VEC2"
    },
    {
      "bufferView": 86,
      "componentType": 5126,
      "count": 432,
      "type": "VEC2"
    },
    {
      "bufferView": 87,
      "componentType": 5123,
      "count": 792,
      "type": "SCALAR"
    }
  ],
  "bufferViews": [
    {
      "buffer": 0,
      "byteLength": 38628,
      "byteOffset": 0,
      "target": 34962
    },
    {
      "buffer": 0,
      "byteLength": 38628,
      "byteOffset": 38628,
      "target": 34962
    },
    {
      "buffer": 0,
      "byteLength": 25752,
      "byteOffset": 77256,
      "target": 34962
    },
    {
      "buffer": 0,
      "byteLength": 25752,
      "byteOffset": 103008,
      "target": 34962
    },
    {
      "buffer": 0,
      "byteLength": 33120,
      "byteOffset": 128760,
      "target": 34963
    },
    {
      "buffer": 0,
      "byteLength": 41736,
      "byteOffset": 161880,
      "target": 34962
    },
    {
      "buffer": 0,
      "byteLength": 41736,
      "byteOffset": 203616,
      "target": 34962
    },
    {
      "buffer": 0,
      "byteLength": 27824,
      "byteOffset": 245352,
      "target": 34962
    },
    {
      "buffer": 0,
      "byteLength": 27824,
      "byteOffset": 273176,
      "target": 34962
    },
    {
      "buffer": 0,
      "byteLength": 35520,
      "byteOffset": 301000,
      "target": 34963
    },
    {
      "buffer": 0,
      "byteLength": 4800,
      "byteOffset": 336520,
      "target": 34962
    },
    {
      "buffer": 0,
      "byteLength": 4800,
      "byteOffset": 341320,
      "target": 34962
    },
    {
      "buffer": 0,
      "byteLength": 3200,
      "byteOffset": 346120,
      "target": 34962
    },
    {
      "buffer": 0,
      "byteLength": 3200,
      "byteOffset": 349320,
      "target": 34962
    },
    {
      "buffer": 0,
      "byteLength": 1200,
      "byteOffset": 352520,
      "target": 34963
    },
    {
      "buffer": 0,
      "byteLength": 9216,
      "byteOffset": 353720,
      "target": 34962
    },
    {
      "buffer": 0,
      "byteLength": 9216,
      "byteOffset": 362936,
      "target": 34962
    },
    {
      "buffer": 0,
      "byteLength": 6144,
      "byteOffset": 372152,
      "target": 34962
    },
    {
      "buffer": 0,
      "byteLength": 6144,
      "byteOffset": 378296,
      "target": 34962
    },
    {
      "buffer": 0,
      "byteLength": 2256,
      "byteOffset": 384440,
      "target": 34963
    },
    {
      "buffer": 0,
      "byteLength": 15960,
      "byteOffset": 386696,
      "target": 34962
    },
    {
      "buffer": 0,
      "byteLength": 15960,
      "byteOffset": 402656,
      "target": 34962
    },
    {
      "buffer": 0,
      "byteLength": 10640,
      "byteOffset": 418616,
      "target": 34962
    },
    {
      "buffer": 0,
      "byteLength": 10640,
      "byteOffset": 429256,
      "target": 34962
    },
    {
      "buffer": 0,
      "byteLength": 12240,
      "byteOffset": 439896,
      "target": 34963
    },
    {
      "buffer": 0,
      "byteLength": 68112,
      "byteOffset": 452136,
      "target": 34962
    },
    {
      "buffer": 0,
      "byteLength": 68112,
      "byteOffset": 520248,
      "target": 34962
    },
    {
      "buffer": 0,
      "byteLength": 45408,
      "byteOffset": 588360,
      "target": 34962
    },
    {
      "buffer": 0,
      "byteLength": 45408,
      "byteOffset": 633768,
      "target": 34962
    },
    {
      "buffer": 0,
      "byteLength": 56136,
      "byteOffset": 679176,
      "target": 34963
    },
    {
      "buffer": 0,
      "byteLength": 4992,
      "byteOffset": 735312,
      "target": 34962
    },
    {
      "buffer": 0,
      "byteLength": 4992,
      "byteOffset": 740304,
      "target": 34962
    },
    {
      "buffer": 0,
      "byteLength": 3328,
      "byteOffset": 745296,
      "target": 34962
    },
    {
      "buffer": 0,
      "byteLength": 3328,
      "byteOffset": 748624,
      "target": 34962
    },
    {
      "buffer": 0,
      "byteLength": 2376,
      "byteOffset": 751952,
      "target": 34963
    },
    {
      "buffer": 0,
      "byteLength": 184320,
      "byteOffset": 754328,
      "target": 34962
    },
    {
      "buffer": 0,
      "byteLength": 184320,
      "byteOffset": 938648,
      "target": 34962
    },
    {
      "buffer": 0,
      "byteLength": 122880,
      "byteOffset": 1122968,
      "target": 34962
    },
    {
      "buffer": 0,
      "byteLength": 122880,
      "byteOffset": 1245848,
      "target": 34962
    },
    {
      "buffer": 0,
      "byteLength": 46080,
      "byteOffset": 1368728,
      "target": 34963
    },
    {
      "buffer": 0,
      "byteLength": 41184,
      "byteOffset": 1414808,
      "target": 34962
    },
    {
      "buffer": 0,
      "byteLength": 41184,
      "byteOffset": 1455992,
      "target": 34962
    },
    {
      "buffer": 0,
      "byteLength": 27456,
      "byteOffset": 1497176,
      "target": 34962
    },
    {
      "buffer": 0,
      "byteLength": 27456,
      "byteOffset": 1524632,
      "target": 34962
    },
    {
      "buffer": 0,
      "byteLength": 34320,
      "byteOffset": 1552088,
      "target": 34963
    },
    {
      "buffer": 0,
      "byteLength": 5784,
      "byteOffset": 1586408,
      "target": 34962
    },
    {
      "buffer": 0,
      "byteLength": 5784,
      "byteOffset": 1592192,
      "target": 34962
    },
    {
      "buffer": 0,
      "byteLength": 3856,
      "byteOffset": 1597976,
      "target": 34962
    },
    {
      "buffer": 0,
      "byteLength": 3856,
      "byteOffset": 1601832,
      "target": 34962
    },
    {
      "buffer": 0,
      "byteLength": 5760,
      "byteOffset": 1605688,
      "target": 34963
    },
    {
      "buffer": 0,
      "byteLength": 36864,
      "byteOffset": 1611448,
      "target": 34962
    },
    {
      "buffer": 0,
      "byteLength": 36864,
      "byteOffset": 1648312,
      "target": 34962
    },
    {
      "buffer": 0,
      "byteLength": 24576,
      "byteOffset": 1685176,
      "target": 34962
    },
    {
      "buffer": 0,
      "byteLength": 24576,
      "byteOffset": 1709752,
      "target": 34962
    },
    {
      "buffer": 0,
      "byteLength": 9216,
      "byteOffset": 1734328,
      "target": 34963
    },
    {
      "buffer": 0,
      "byteLength": 18432,
      "byteOffset": 1743544,
      "target": 34962
    },
    {
      "buffer": 0,
      "byteLength": 18432,
      "byteOffset": 1761976,
      "target": 34962
    },
    {
      "buffer": 0,
      "byteLength": 12288,
      "byteOffset": 1780408,
      "target": 34962
    },
    {
      "buffer": 0,
      "byteLength": 12288,
      "byteOffset": 1792696,
      "target": 34962
    },
    {
      "buffer": 0,
      "byteLength": 4512,
      "byteOffset": 1804984,
      "target": 34963
    },
    {
      "buffer": 0,
      "byteLength": 5784,
      "byteOffset": 1809496,
      "target": 34962
    },
    {
      "buffer": 0,
      "byteLength": 5784,
      "byteOffset": 1815280,
      "target": 34962
    },
    {
      "buffer": 0,
      "byteLength": 3856,
      "byteOffset": 1821064,
      "target": 34962
    },
    {
      "buffer": 0,
      "byteLength": 3856,
      "byteOffset": 1824920,
      "target": 34962
    },
    {
      "buffer": 0,
      "byteLength": 36864,
      "byteOffset": 1828776,
      "target": 34962
    },
    {
      "buffer": 0,
      "byteLength": 36864,
      "byteOffset": 1865640,
      "target": 34962
    },
    {
      "buffer": 0,
      "byteLength": 24576,
      "byteOffset": 1902504,
      "target": 34962
    },
    {
      "buffer": 0,
      "byteLength": 24576,
      "byteOffset": 1927080,
      "target": 34962
    },
    {
      "buffer": 0,
      "byteLength": 9216,
      "byteOffset": 1951656,
      "target": 34963
    },
    {
      "buffer": 0,
      "byteLength": 5784,
      "byteOffset": 1960872,
      "target": 34962
    },
    {
      "buffer": 0,
      "byteLength": 5784,
      "byteOffset": 1966656,
      "target": 34962
    },
    {
      "buffer": 0,
      "byteLength": 3856,
      "byteOffset": 1972440,
      "target": 34962
    },
    {
      "buffer": 0,
      "byteLength": 3856,
      "byteOffset": 1976296,
      "target": 34962
    },
    {
      "buffer": 0,
      "byteLength": 19620,
      "byteOffset": 1980152,
      "target": 34962
    },
    {
      "buffer": 0,
      "byteLength": 19620,
      "byteOffset": 1999772,
      "target": 34962
    },
    {
      "buffer": 0,
      "byteLength": 13080,
      "byteOffset": 2019392,
      "target": 34962
    },
    {
      "buffer": 0,
      "byteLength": 13080,
      "byteOffset": 2032472,
      "target": 34962
    },
    {
      "buffer": 0,
      "byteLength": 5568,
      "byteOffset": 2045552,
      "target": 34963
    },
    {
      "buffer": 0,
      "byteLength": 5184,
      "byteOffset": 2051120,
      "target": 34962
    },
    {
      "buffer": 0,
      "byteLength": 5184,
      "byteOffset": 2056304,
      "target": 34962
    },
    {
      "buffer": 0,
      "byteLength": 3456,
      "byteOffset": 2061488,
      "target": 34962
    },
    {
      "buffer": 0,
      "byteLength": 3456,
      "byteOffset": 2064944,
      "target": 34962
    },
    {
      "buffer": 0,
      "byteLength": 1584,
      "byteOffset": 2068400,
      "target": 34963
    },
    {
      "buffer": 0,
      "byteLength": 5184,
      "byteOffset": 2069984,
      "target": 34962
    },
    {
      "buffer": 0,
      "byteLength": 5184,
      "byteOffset": 2075168,
      "target": 34962
    },
    {
      "buffer": 0,
      "byteLength": 3456,
      "byteOffset": 2080352,
      "target": 34962
    },
    {
      "buffer": 0,
      "byteLength": 3456,
      "byteOffset": 2083808,
      "target": 34962
    },
    {
      "buffer": 0,
      "byteLength": 1584,
      "byteOffset": 2087264,
      "target": 34963
    }
  ],
  "samplers": [
    {
      "magFilter": 9729,
      "minFilter": 9987
    }
  ],
  "buffers": [
    {
      "byteLength": 2088848,
      "uri": "MissionCampingEquipmentCargo_LOD00.bin"
    }
  ]
}
