{"accessors":[{"bufferView":0,"componentType":5126,"count":1272,"min":[-0.4399999976158142,0.0,-0.3070000112056732],"max":[0.5950000286102295,0.9700000286102295,0.2800000011920929],"type":"VEC3","name":"HomebaseToolCart_mesh_vertices#0_POSITION"},{"bufferView":0,"byteOffset":12,"componentType":5120,"count":1272,"type":"VEC4","name":"HomebaseToolCart_mesh_vertices#0_TANGENT"},{"bufferView":0,"byteOffset":16,"componentType":5120,"count":1272,"type":"VEC4","name":"HomebaseToolCart_mesh_vertices#0_NORMAL"},{"bufferView":0,"byteOffset":20,"componentType":5122,"count":1272,"type":"VEC2","name":"HomebaseToolCart_mesh_vertices#0_TEXCOORD_0"},{"bufferView":0,"byteOffset":24,"componentType":5122,"count":1272,"type":"VEC2","name":"HomebaseToolCart_mesh_vertices#0_TEXCOORD_1"},{"bufferView":0,"byteOffset":28,"componentType":5123,"count":1272,"type":"VEC4","name":"HomebaseToolCart_mesh_vertices#0_COLOR_0"},{"bufferView":1,"componentType":5123,"count":1272,"type":"SCALAR","name":"HomebaseToolCart_mesh_indices#3"}],"asset":{"generator":"VFR Multitool procedural asset generator","version":"2.0","extensions":{"ASOBO_asset_optimized":{"BoundingBoxMax":[0.5950000286102295,0.9700000286102295,0.2800000011920929],"BoundingBoxMin":[-0.4399999976158142,0.0,-0.3070000112056732],"MajorVersion":4,"MinorVersion":7,"UseCheckerboardMaterialForMissingTextures":true,"UseOnlyFilenameForImageURI":true}}},"bufferViews":[{"buffer":0,"byteLength":45792,"byteStride":36,"target":34962,"name":"BufferViewVertexND"},{"buffer":0,"byteLength":2544,"byteOffset":45792,"target":34963,"name":"BufferViewIndexU16"}],"materials":[{"name":"Werkzeugwagen_Rot","doubleSided":true,"pbrMetallicRoughness":{"baseColorFactor":[0.5,0.035,0.025,1.0],"metallicFactor":0.45,"roughnessFactor":0.4}},{"name":"Werkzeugwagen_Dunkel","doubleSided":true,"pbrMetallicRoughness":{"baseColorFactor":[0.055,0.065,0.07,1.0],"metallicFactor":0.58,"roughnessFactor":0.38}},{"name":"Werkzeugwagen_Metall","doubleSided":true,"pbrMetallicRoughness":{"baseColorFactor":[0.52,0.55,0.56,1.0],"metallicFactor":0.9,"roughnessFactor":0.23}},{"name":"Werkzeugwagen_Reifen","doubleSided":true,"pbrMetallicRoughness":{"baseColorFactor":[0.018,0.02,0.02,1.0],"metallicFactor":0.0,"roughnessFactor":0.8}}],"meshes":[{"primitives":[{"attributes":{"COLOR_0":5,"NORMAL":2,"POSITION":0,"TANGENT":1,"TEXCOORD_0":3,"TEXCOORD_1":4},"indices":6,"material":2,"mode":4,"extras":{"ASOBO_primitive":{"PrimitiveCount":192,"UV2Length":0.7071067690849304,"UVLength":0.7071067690849304,"VertexCount":576,"VertexType":"VTX","VertexVersion":2}}},{"attributes":{"COLOR_0":5,"NORMAL":2,"POSITION":0,"TANGENT":1,"TEXCOORD_0":3,"TEXCOORD_1":4},"indices":6,"material":1,"mode":4,"extras":{"ASOBO_primitive":{"BaseVertexIndex":576,"PrimitiveCount":24,"StartIndex":576,"UV2Length":0.7071067690849304,"UVLength":0.7071067690849304,"VertexCount":72,"VertexType":"VTX","VertexVersion":2}}},{"attributes":{"COLOR_0":5,"NORMAL":2,"POSITION":0,"TANGENT":1,"TEXCOORD_0":3,"TEXCOORD_1":4},"indices":6,"material":0,"mode":4,"extras":{"ASOBO_primitive":{"BaseVertexIndex":648,"PrimitiveCount":48,"StartIndex":648,"UV2Length":0.7071067690849304,"UVLength":0.7071067690849304,"VertexCount":144,"VertexType":"VTX","VertexVersion":2}}},{"attributes":{"COLOR_0":5,"NORMAL":2,"POSITION":0,"TANGENT":1,"TEXCOORD_0":3,"TEXCOORD_1":4},"indices":6,"material":3,"mode":4,"extras":{"ASOBO_primitive":{"BaseVertexIndex":792,"PrimitiveCount":160,"StartIndex":792,"UV2Length":0.7071067690849304,"UVLength":0.7071067690849304,"VertexCount":480,"VertexType":"VTX","VertexVersion":2}}}],"name":"HomebaseToolCart_mesh"}],"nodes":[{"mesh":0,"name":"HomebaseToolCart_node"}],"scene":0,"scenes":[{"nodes":[0]}],"extensionsUsed":["ASOBO_asset_optimized"],"buffers":[{"byteLength":48336,"uri":"HomebaseToolCart_LOD00.bin"}]}
