{"accessors":[{"bufferView":0,"componentType":5126,"count":648,"min":[-0.800000011920929,0.0,-0.375],"max":[0.800000011920929,0.8149999976158142,0.375],"type":"VEC3","name":"HomebaseDesk_mesh_vertices#0_POSITION"},{"bufferView":0,"byteOffset":12,"componentType":5120,"count":648,"type":"VEC4","name":"HomebaseDesk_mesh_vertices#0_TANGENT"},{"bufferView":0,"byteOffset":16,"componentType":5120,"count":648,"type":"VEC4","name":"HomebaseDesk_mesh_vertices#0_NORMAL"},{"bufferView":0,"byteOffset":20,"componentType":5122,"count":648,"type":"VEC2","name":"HomebaseDesk_mesh_vertices#0_TEXCOORD_0"},{"bufferView":0,"byteOffset":24,"componentType":5122,"count":648,"type":"VEC2","name":"HomebaseDesk_mesh_vertices#0_TEXCOORD_1"},{"bufferView":0,"byteOffset":28,"componentType":5123,"count":648,"type":"VEC4","name":"HomebaseDesk_mesh_vertices#0_COLOR_0"},{"bufferView":1,"componentType":5123,"count":648,"type":"SCALAR","name":"HomebaseDesk_mesh_indices#3"}],"asset":{"generator":"VFR Multitool procedural asset generator","version":"2.0","extensions":{"ASOBO_asset_optimized":{"BoundingBoxMax":[0.800000011920929,0.8149999976158142,0.375],"BoundingBoxMin":[-0.800000011920929,0.0,-0.375],"MajorVersion":4,"MinorVersion":7,"UseCheckerboardMaterialForMissingTextures":true,"UseOnlyFilenameForImageURI":true}}},"bufferViews":[{"buffer":0,"byteLength":23328,"byteStride":36,"target":34962,"name":"BufferViewVertexND"},{"buffer":0,"byteLength":1296,"byteOffset":23328,"target":34963,"name":"BufferViewIndexU16"}],"materials":[{"name":"Schreibtisch_Platte","doubleSided":true,"pbrMetallicRoughness":{"baseColorFactor":[0.34,0.19,0.085,1.0],"metallicFactor":0.0,"roughnessFactor":0.72}},{"name":"Schreibtisch_Rahmen","doubleSided":true,"pbrMetallicRoughness":{"baseColorFactor":[0.11,0.13,0.14,1.0],"metallicFactor":0.7,"roughnessFactor":0.34}},{"name":"Schreibtisch_Schubladen","doubleSided":true,"pbrMetallicRoughness":{"baseColorFactor":[0.27,0.29,0.3,1.0],"metallicFactor":0.45,"roughnessFactor":0.42}},{"name":"Schreibtisch_Griffe","doubleSided":true,"pbrMetallicRoughness":{"baseColorFactor":[0.58,0.61,0.62,1.0],"metallicFactor":0.9,"roughnessFactor":0.24}}],"meshes":[{"primitives":[{"attributes":{"COLOR_0":5,"NORMAL":2,"POSITION":0,"TANGENT":1,"TEXCOORD_0":3,"TEXCOORD_1":4},"indices":6,"material":1,"mode":4,"extras":{"ASOBO_primitive":{"PrimitiveCount":60,"UV2Length":0.7071067690849304,"UVLength":0.7071067690849304,"VertexCount":180,"VertexType":"VTX","VertexVersion":2}}},{"attributes":{"COLOR_0":5,"NORMAL":2,"POSITION":0,"TANGENT":1,"TEXCOORD_0":3,"TEXCOORD_1":4},"indices":6,"material":2,"mode":4,"extras":{"ASOBO_primitive":{"BaseVertexIndex":180,"PrimitiveCount":48,"StartIndex":180,"UV2Length":0.7071067690849304,"UVLength":0.7071067690849304,"VertexCount":144,"VertexType":"VTX","VertexVersion":2}}},{"attributes":{"COLOR_0":5,"NORMAL":2,"POSITION":0,"TANGENT":1,"TEXCOORD_0":3,"TEXCOORD_1":4},"indices":6,"material":0,"mode":4,"extras":{"ASOBO_primitive":{"BaseVertexIndex":324,"PrimitiveCount":12,"StartIndex":324,"UV2Length":0.7071067690849304,"UVLength":0.7071067690849304,"VertexCount":36,"VertexType":"VTX","VertexVersion":2}}},{"attributes":{"COLOR_0":5,"NORMAL":2,"POSITION":0,"TANGENT":1,"TEXCOORD_0":3,"TEXCOORD_1":4},"indices":6,"material":3,"mode":4,"extras":{"ASOBO_primitive":{"BaseVertexIndex":360,"PrimitiveCount":96,"StartIndex":360,"UV2Length":0.7071067690849304,"UVLength":0.7071067690849304,"VertexCount":288,"VertexType":"VTX","VertexVersion":2}}}],"name":"HomebaseDesk_mesh"}],"nodes":[{"mesh":0,"name":"HomebaseDesk_node"}],"scene":0,"scenes":[{"nodes":[0]}],"extensionsUsed":["ASOBO_asset_optimized"],"buffers":[{"byteLength":24624,"uri":"HomebaseDesk_LOD00.bin"}]}
