{"accessors":[{"bufferView":0,"componentType":5126,"count":504,"min":[-0.25999999046325686,0.0,-0.1574999988079071],"max":[0.25999999046325686,0.35600000619888308,0.13500000536441804],"type":"VEC3","name":"HomebasePortableToolbox_mesh_vertices#0_POSITION"},{"bufferView":0,"byteOffset":12,"componentType":5120,"count":504,"type":"VEC4","name":"HomebasePortableToolbox_mesh_vertices#0_TANGENT"},{"bufferView":0,"byteOffset":16,"componentType":5120,"count":504,"type":"VEC4","name":"HomebasePortableToolbox_mesh_vertices#0_NORMAL"},{"bufferView":0,"byteOffset":20,"componentType":5122,"count":504,"type":"VEC2","name":"HomebasePortableToolbox_mesh_vertices#0_TEXCOORD_0"},{"bufferView":0,"byteOffset":24,"componentType":5122,"count":504,"type":"VEC2","name":"HomebasePortableToolbox_mesh_vertices#0_TEXCOORD_1"},{"bufferView":0,"byteOffset":28,"componentType":5123,"count":504,"type":"VEC4","name":"HomebasePortableToolbox_mesh_vertices#0_COLOR_0"},{"bufferView":1,"componentType":5123,"count":504,"type":"SCALAR","name":"HomebasePortableToolbox_mesh_indices#4"}],"asset":{"generator":"VFR Multitool procedural asset generator","version":"2.0","extensions":{"ASOBO_asset_optimized":{"BoundingBoxMax":[0.25999999046325686,0.35600000619888308,0.13500000536441804],"BoundingBoxMin":[-0.25999999046325686,0.0,-0.1574999988079071],"MajorVersion":4,"MinorVersion":7,"UseCheckerboardMaterialForMissingTextures":true,"UseOnlyFilenameForImageURI":true}}},"bufferViews":[{"buffer":0,"byteLength":18144,"byteStride":36,"target":34962,"name":"BufferViewVertexND"},{"buffer":0,"byteLength":1008,"byteOffset":18144,"target":34963,"name":"BufferViewIndexU16"}],"materials":[{"name":"PortableToolbox_Rot","doubleSided":true,"pbrMetallicRoughness":{"baseColorFactor":[0.5,0.025,0.018,1.0],"metallicFactor":0.24,"roughnessFactor":0.4}},{"name":"PortableToolbox_Dunkel","doubleSided":true,"pbrMetallicRoughness":{"baseColorFactor":[0.025,0.03,0.032,1.0],"metallicFactor":0.5,"roughnessFactor":0.3}},{"name":"PortableToolbox_Metall","doubleSided":true,"pbrMetallicRoughness":{"baseColorFactor":[0.54,0.58,0.58,1.0],"metallicFactor":0.9,"roughnessFactor":0.2}},{"name":"PortableToolbox_Griff","doubleSided":true,"pbrMetallicRoughness":{"baseColorFactor":[0.05,0.06,0.06,1.0],"metallicFactor":0.74,"roughnessFactor":0.26}},{"name":"PortableToolbox_Akzent","doubleSided":true,"pbrMetallicRoughness":{"baseColorFactor":[0.88,0.65,0.06,1.0],"metallicFactor":0.08,"roughnessFactor":0.48}}],"meshes":[{"primitives":[{"attributes":{"COLOR_0":5,"NORMAL":2,"POSITION":0,"TANGENT":1,"TEXCOORD_0":3,"TEXCOORD_1":4},"indices":6,"material":3,"mode":4,"extras":{"ASOBO_primitive":{"PrimitiveCount":96,"UV2Length":0.7071067690849304,"UVLength":0.7071067690849304,"VertexCount":288,"VertexType":"VTX","VertexVersion":2}}},{"attributes":{"COLOR_0":5,"NORMAL":2,"POSITION":0,"TANGENT":1,"TEXCOORD_0":3,"TEXCOORD_1":4},"indices":6,"material":0,"mode":4,"extras":{"ASOBO_primitive":{"BaseVertexIndex":288,"PrimitiveCount":12,"StartIndex":288,"UV2Length":0.7071067690849304,"UVLength":0.7071067690849304,"VertexCount":36,"VertexType":"VTX","VertexVersion":2}}},{"attributes":{"COLOR_0":5,"NORMAL":2,"POSITION":0,"TANGENT":1,"TEXCOORD_0":3,"TEXCOORD_1":4},"indices":6,"material":1,"mode":4,"extras":{"ASOBO_primitive":{"BaseVertexIndex":324,"PrimitiveCount":24,"StartIndex":324,"UV2Length":0.7071067690849304,"UVLength":0.7071067690849304,"VertexCount":72,"VertexType":"VTX","VertexVersion":2}}},{"attributes":{"COLOR_0":5,"NORMAL":2,"POSITION":0,"TANGENT":1,"TEXCOORD_0":3,"TEXCOORD_1":4},"indices":6,"material":2,"mode":4,"extras":{"ASOBO_primitive":{"BaseVertexIndex":396,"PrimitiveCount":24,"StartIndex":396,"UV2Length":0.7071067690849304,"UVLength":0.7071067690849304,"VertexCount":72,"VertexType":"VTX","VertexVersion":2}}},{"attributes":{"COLOR_0":5,"NORMAL":2,"POSITION":0,"TANGENT":1,"TEXCOORD_0":3,"TEXCOORD_1":4},"indices":6,"material":4,"mode":4,"extras":{"ASOBO_primitive":{"BaseVertexIndex":468,"PrimitiveCount":12,"StartIndex":468,"UV2Length":0.7071067690849304,"UVLength":0.7071067690849304,"VertexCount":36,"VertexType":"VTX","VertexVersion":2}}}],"name":"HomebasePortableToolbox_mesh"}],"nodes":[{"mesh":0,"name":"HomebasePortableToolbox_node"}],"scene":0,"scenes":[{"nodes":[0]}],"extensionsUsed":["ASOBO_asset_optimized"],"buffers":[{"byteLength":19152,"uri":"HomebasePortableToolbox_LOD00.bin"}]}
