<svg xmlns="http://www.w3.org/2000/svg" viewBox="0 0 645.49 194.57"><defs><style>.cls-1{fill:#231f20;}</style></defs><title>Asset 2</title><g id="Layer_2" data-name="Layer 2"><g id="Layer_1-2" data-name="Layer 1"><path class="cls-1" d="M642.28,76.36A33.28,33.28,0,0,0,637,74.57,87.78,87.78,0,0,0,622,72a93.33,93.33,0,0,0-13.56-.28h0L518.64,90a36.12,36.12,0,0,0-.61-5.21,20.55,20.55,0,0,0-5.36-10.51c-4-4-9.35-5.39-14.59-6.33a116.31,116.31,0,0,0-16.31-1.61c-1.28,0-2.52-.08-3.72-.1-3.47-3.73-8.08-8.52-12.73-12.87-8.11-7.58-19.27-16.05-22.5-18.47a1.1,1.1,0,0,0-1.6.33l-1.66,2.89a1.09,1.09,0,0,0,0,1.15,71,71,0,0,0,5.91,7.56c3.14,3.46,15.49,15.4,18.19,18l-11.17-.92-1.6-1.26,0,0c-3.68-2.91-7.37-5.78-11-8.55-.94-.73-1.9-1.47-2.82-2.2a120.8,120.8,0,0,0-12-8.61l-.47-.28a70.16,70.16,0,0,0-22-8.14l1.36-5.65a.44.44,0,0,0-.32-.52.43.43,0,0,0-.52.32l-1.37,5.68A100.83,100.83,0,0,0,389,33.08a138.23,138.23,0,0,0-36.56,3c-7.29,1.54-20.23,5.88-30.61,9.48A9,9,0,0,1,317.73,42L304.07,19.84a.8.8,0,0,0-1.05-.3.81.81,0,0,0-.42.49.84.84,0,0,0,.08.64L316,43.16a9,9,0,0,1,1.24,4l-2.63.93c-2.5.87-4.66,1.63-6.1,2.12-7.05,2.39-48.9,20.79-52.42,22.34l-30.8-65.3a1.75,1.75,0,0,1-.17-.79v0a2.26,2.26,0,0,0-1.66-2.23V1.94a1.9,1.9,0,0,0-.57-1.37A1.9,1.9,0,0,0,221.52,0a1.94,1.94,0,0,0-1.94,1.94V4.75a2.24,2.24,0,0,0-.84,1.76v.08a1.75,1.75,0,0,1-.82,1.55l-8.22,5.08a1.69,1.69,0,0,0-.43,2.48l.74.93a2.55,2.55,0,0,1,.53,1.17l12.32,69a8.65,8.65,0,0,0-1.57,7.12l-62.52,1.78c-10,0-14.29,1.33-16,2.12a5.24,5.24,0,0,1-2.77.46c-15.34-1.61-92.38-9.71-103.32-11a72.46,72.46,0,0,0-22.06,1.23C8.62,89.85,1.23,92.59.24,98c-.56,3.09-.13,5.4,1.28,6.87a6.74,6.74,0,0,0,5.34,1.68,24.76,24.76,0,0,0,6.94,3.13c4.45,1.4,12.17,3,23.69,2.61L152,122.07l.36,3.48a1.17,1.17,0,0,0,.62.91,1.13,1.13,0,0,0,.54.13,1.07,1.07,0,0,0,.55-.14l6.75-3.63h0L195,125.74v2.89a1.11,1.11,0,0,0,.47.91,1.13,1.13,0,0,0,.64.2,1,1,0,0,0,.38-.07,1.13,1.13,0,0,0,.65-.62l1.23-3,60.43,5.16.32,3.51a1.38,1.38,0,0,0,1.38,1.26,1.37,1.37,0,0,0,.59-.13l7.88-3.75h0l.36,0v18a9.59,9.59,0,0,0-5-1.46c-6.91,0-12.5,7.75-12.5,17.3s5.59,17.3,12.5,17.3,12.5-7.74,12.5-17.3a22.88,22.88,0,0,0-.18-2.89l.62-6.74,1.59-.36,2.46-22.86,6,.53,0,8.95a.7.7,0,0,1-.48.66l-4.22,1.35a1.47,1.47,0,0,0-1,1.71,1.49,1.49,0,0,0,.66,1,1.56,1.56,0,0,0,.78.22,1.5,1.5,0,0,0,.37,0l6.53-1.65a1.19,1.19,0,0,0,.91-1.2L290.48,134,302,135v2.8a1.79,1.79,0,0,0,1.78,1.78,1.9,1.9,0,0,0,.63-.11,28.82,28.82,0,0,0,6.16-3.58l.13.1.45.46a1.49,1.49,0,0,0,1.05.44H318a1,1,0,0,1,.56.19l1.61,1.17a1.49,1.49,0,0,0,.91.28l15.61-.45a.93.93,0,0,1,.89.55,1.46,1.46,0,0,0,1.33.83h0l73.94-.43v2a1.41,1.41,0,0,0,1.42,1.42h.69a1.42,1.42,0,0,0,1.42-1.42v-2H417l1.22-1.55,3.76-.08,1.63.41,5.84-.08V143a1.56,1.56,0,0,0,.22.78l2.28,3.62a1.46,1.46,0,0,0,2.7-.78v-9l3.63-.05a10.73,10.73,0,0,0,7.87,17.79,15.77,15.77,0,0,0,5.36,8.77A23.67,23.67,0,0,0,449,175c0,10.79,6.75,19.58,15.05,19.58s15-8.79,15-19.58c0-8-3.67-14.83-8.93-17.88a18.73,18.73,0,0,0,1-6.16c0-7-3.72-12.87-8.84-14.91l.38-.43a1.62,1.62,0,0,1,1-.53l7.17-.62a3.28,3.28,0,0,1,1.9.41,8.62,8.62,0,0,0,5.6.89,14.73,14.73,0,0,0,7-3.18,4.92,4.92,0,0,1,1.73-.57c.35-.08.67-.15.91-.23,1.06-.36,2-.71,2.94-1.07a37.94,37.94,0,0,0,5.6-2.76,34,34,0,0,0,9.26-9l.5-.67.71-.93a20.15,20.15,0,0,0,2.91-4.86,7.37,7.37,0,0,0,3.09.15c1,.89,10.87,9.23,19,15.38a130.45,130.45,0,0,0,17,10.78l.2.1,3.8-4.94-.14-.16c-.17-.21-17.23-20.24-24.69-26.14L636.68,85.22l1-.19a22.25,22.25,0,0,0,4.55-1.24c2-.85,3.19-2.26,3.3-3.77C645.64,77.9,643.61,77,642.28,76.36ZM189.53,102.47l30.59-1.42a6.49,6.49,0,0,0,2.23,4.8Zm246.81,42.16a10,10,0,0,1,.64-3.52l1,2.42a.18.18,0,0,0-.07.05.65.65,0,0,0-.16.6l.83,3.72a.58.58,0,0,0,.39.44.61.61,0,0,0,.58-.1l.76-.63,5.41,5.47q.09.81.24,1.59A10.05,10.05,0,0,1,436.34,144.63Zm9.46,3.91-3.54-2.82.57-.6a.58.58,0,0,0,.14-.6.59.59,0,0,0-.38-.39l.26-.65a2.35,2.35,0,0,0,1.56.6h2.53A18.24,18.24,0,0,0,445.8,148.54ZM451.3,138v-.55H452C451.78,137.57,451.54,137.75,451.3,138Zm0-1.07v-1a10.21,10.21,0,0,1,1.44,1Z"/></g></g></svg>