{"accessors":[{"bufferView":0,"componentType":5126,"count":1584,"min":[-0.25835588574409487,0.0,-0.28200000524520876],"max":[0.25835588574409487,0.7481722235679627,0.2687987983226776],"type":"VEC3","name":"HomebaseMailSack_mesh_vertices#0_POSITION"},{"bufferView":0,"byteOffset":12,"componentType":5120,"count":1584,"type":"VEC4","name":"HomebaseMailSack_mesh_vertices#0_TANGENT"},{"bufferView":0,"byteOffset":16,"componentType":5120,"count":1584,"type":"VEC4","name":"HomebaseMailSack_mesh_vertices#0_NORMAL"},{"bufferView":0,"byteOffset":20,"componentType":5122,"count":1584,"type":"VEC2","name":"HomebaseMailSack_mesh_vertices#0_TEXCOORD_0"},{"bufferView":0,"byteOffset":24,"componentType":5122,"count":1584,"type":"VEC2","name":"HomebaseMailSack_mesh_vertices#0_TEXCOORD_1"},{"bufferView":0,"byteOffset":28,"componentType":5123,"count":1584,"type":"VEC4","name":"HomebaseMailSack_mesh_vertices#0_COLOR_0"},{"bufferView":1,"componentType":5123,"count":1584,"type":"SCALAR","name":"HomebaseMailSack_mesh_indices#4"}],"asset":{"generator":"VFR Multitool procedural asset generator","version":"2.0","extensions":{"ASOBO_asset_optimized":{"BoundingBoxMax":[0.25835588574409487,0.7481722235679627,0.2687987983226776],"BoundingBoxMin":[-0.25835588574409487,0.0,-0.28200000524520876],"MajorVersion":4,"MinorVersion":7,"UseCheckerboardMaterialForMissingTextures":true,"UseOnlyFilenameForImageURI":true}}},"bufferViews":[{"buffer":0,"byteLength":57024,"byteStride":36,"target":34962,"name":"BufferViewVertexND"},{"buffer":0,"byteLength":3168,"byteOffset":57024,"target":34963,"name":"BufferViewIndexU16"}],"materials":[{"name":"Postsack_Jute","doubleSided":true,"pbrMetallicRoughness":{"baseColorFactor":[0.42,0.26,0.11,1.0],"metallicFactor":0.0,"roughnessFactor":0.92}},{"name":"Postsack_Naht_Dunkel","doubleSided":true,"pbrMetallicRoughness":{"baseColorFactor":[0.15,0.085,0.028,1.0],"metallicFactor":0.0,"roughnessFactor":0.84}},{"name":"Postsack_Kordel","doubleSided":true,"pbrMetallicRoughness":{"baseColorFactor":[0.62,0.48,0.25,1.0],"metallicFactor":0.03,"roughnessFactor":0.72}},{"name":"Postsack_Postetikett_Rot","doubleSided":true,"pbrMetallicRoughness":{"baseColorFactor":[0.63,0.028,0.018,1.0],"metallicFactor":0.08,"roughnessFactor":0.48}},{"name":"Postsack_Wachssiegel","doubleSided":true,"pbrMetallicRoughness":{"baseColorFactor":[0.46,0.012,0.008,1.0],"metallicFactor":0.12,"roughnessFactor":0.42}}],"meshes":[{"primitives":[{"attributes":{"COLOR_0":5,"NORMAL":2,"POSITION":0,"TANGENT":1,"TEXCOORD_0":3,"TEXCOORD_1":4},"indices":6,"material":2,"mode":4,"extras":{"ASOBO_primitive":{"PrimitiveCount":184,"UV2Length":0.7071067690849304,"UVLength":0.7071067690849304,"VertexCount":552,"VertexType":"VTX","VertexVersion":2}}},{"attributes":{"COLOR_0":5,"NORMAL":2,"POSITION":0,"TANGENT":1,"TEXCOORD_0":3,"TEXCOORD_1":4},"indices":6,"material":0,"mode":4,"extras":{"ASOBO_primitive":{"BaseVertexIndex":552,"PrimitiveCount":228,"StartIndex":552,"UV2Length":0.7071067690849304,"UVLength":0.7071067690849304,"VertexCount":684,"VertexType":"VTX","VertexVersion":2}}},{"attributes":{"COLOR_0":5,"NORMAL":2,"POSITION":0,"TANGENT":1,"TEXCOORD_0":3,"TEXCOORD_1":4},"indices":6,"material":1,"mode":4,"extras":{"ASOBO_primitive":{"BaseVertexIndex":1236,"PrimitiveCount":56,"StartIndex":1236,"UV2Length":0.7071067690849304,"UVLength":0.7071067690849304,"VertexCount":168,"VertexType":"VTX","VertexVersion":2}}},{"attributes":{"COLOR_0":5,"NORMAL":2,"POSITION":0,"TANGENT":1,"TEXCOORD_0":3,"TEXCOORD_1":4},"indices":6,"material":3,"mode":4,"extras":{"ASOBO_primitive":{"BaseVertexIndex":1404,"PrimitiveCount":12,"StartIndex":1404,"UV2Length":0.7071067690849304,"UVLength":0.7071067690849304,"VertexCount":36,"VertexType":"VTX","VertexVersion":2}}},{"attributes":{"COLOR_0":5,"NORMAL":2,"POSITION":0,"TANGENT":1,"TEXCOORD_0":3,"TEXCOORD_1":4},"indices":6,"material":4,"mode":4,"extras":{"ASOBO_primitive":{"BaseVertexIndex":1440,"PrimitiveCount":48,"StartIndex":1440,"UV2Length":0.7071067690849304,"UVLength":0.7071067690849304,"VertexCount":144,"VertexType":"VTX","VertexVersion":2}}}],"name":"HomebaseMailSack_mesh"}],"nodes":[{"mesh":0,"name":"HomebaseMailSack_node"}],"scene":0,"scenes":[{"nodes":[0]}],"extensionsUsed":["ASOBO_asset_optimized"],"buffers":[{"byteLength":60192,"uri":"HomebaseMailSack_LOD00.bin"}]}
