<svg xmlns="http://www.w3.org/2000/svg" viewBox="0 0 204 204">
<polygon points="100.691,27.011 100.220,0.016 103.780,0.016 103.309,27.011" fill="#f6f0dc" fill-opacity="0.984"/>
<polygon points="109.188,27.345 111.776,0.470 113.547,0.656 110.490,27.482" fill="#f6f0dc" fill-opacity="0.8"/>
<polygon points="116.953,28.506 122.336,2.048 124.077,2.418 118.233,28.778" fill="#f6f0dc" fill-opacity="0.8"/>
<polygon points="124.553,30.471 132.672,4.721 134.365,5.271 125.798,30.876" fill="#f6f0dc" fill-opacity="0.8"/>
<polygon points="131.906,33.220 142.672,8.460 144.299,9.184 133.102,33.753" fill="#f6f0dc" fill-opacity="0.8"/>
<polygon points="138.361,36.404 151.451,12.789 154.534,14.569 140.628,37.712" fill="#f6f0dc" fill-opacity="0.984"/>
<polygon points="145.553,40.941 161.232,18.960 162.672,20.007 146.612,41.711" fill="#f6f0dc" fill-opacity="0.8"/>
<polygon points="151.697,45.828 169.587,25.607 170.910,26.798 152.669,46.704" fill="#f6f0dc" fill-opacity="0.8"/>
<polygon points="157.296,51.331 177.202,33.090 178.393,34.413 158.172,52.303" fill="#f6f0dc" fill-opacity="0.8"/>
<polygon points="162.289,57.388 183.993,41.328 185.040,42.768 163.059,58.447" fill="#f6f0dc" fill-opacity="0.8"/>
<polygon points="166.288,63.372 189.431,49.466 191.211,52.549 167.596,65.639" fill="#f6f0dc" fill-opacity="0.984"/>
<polygon points="170.247,70.898 194.816,59.701 195.540,61.328 170.780,72.094" fill="#f6f0dc" fill-opacity="0.8"/>
<polygon points="173.124,78.202 198.729,69.635 199.279,71.328 173.529,79.447" fill="#f6f0dc" fill-opacity="0.8"/>
<polygon points="175.222,85.767 201.582,79.923 201.952,81.664 175.494,87.047" fill="#f6f0dc" fill-opacity="0.8"/>
<polygon points="176.518,93.510 203.344,90.453 203.530,92.224 176.655,94.812" fill="#f6f0dc" fill-opacity="0.8"/>
<polygon points="176.989,100.691 203.984,100.220 203.984,103.780 176.989,103.309" fill="#f6f0dc" fill-opacity="0.984"/>
<polygon points="176.655,109.188 203.530,111.776 203.344,113.547 176.518,110.490" fill="#f6f0dc" fill-opacity="0.8"/>
<polygon points="175.494,116.953 201.952,122.336 201.582,124.077 175.222,118.233" fill="#f6f0dc" fill-opacity="0.8"/>
<polygon points="173.529,124.553 199.279,132.672 198.729,134.365 173.124,125.798" fill="#f6f0dc" fill-opacity="0.8"/>
<polygon points="170.780,131.906 195.540,142.672 194.816,144.299 170.247,133.102" fill="#f6f0dc" fill-opacity="0.8"/>
<polygon points="167.596,138.361 191.211,151.451 189.431,154.534 166.288,140.628" fill="#f6f0dc" fill-opacity="0.984"/>
<polygon points="163.059,145.553 185.040,161.232 183.993,162.672 162.289,146.612" fill="#f6f0dc" fill-opacity="0.8"/>
<polygon points="158.172,151.697 178.393,169.587 177.202,170.910 157.296,152.669" fill="#f6f0dc" fill-opacity="0.8"/>
<polygon points="152.669,157.296 170.910,177.202 169.587,178.393 151.697,158.172" fill="#f6f0dc" fill-opacity="0.8"/>
<polygon points="146.612,162.289 162.672,183.993 161.232,185.040 145.553,163.059" fill="#f6f0dc" fill-opacity="0.8"/>
<polygon points="140.628,166.288 154.534,189.431 151.451,191.211 138.361,167.596" fill="#f6f0dc" fill-opacity="0.984"/>
<polygon points="133.102,170.247 144.299,194.816 142.672,195.540 131.906,170.780" fill="#f6f0dc" fill-opacity="0.8"/>
<polygon points="125.798,173.124 134.365,198.729 132.672,199.279 124.553,173.529" fill="#f6f0dc" fill-opacity="0.8"/>
<polygon points="118.233,175.222 124.077,201.582 122.336,201.952 116.953,175.494" fill="#f6f0dc" fill-opacity="0.8"/>
<polygon points="110.490,176.518 113.547,203.344 111.776,203.530 109.188,176.655" fill="#f6f0dc" fill-opacity="0.8"/>
<polygon points="103.309,176.989 103.780,203.984 100.220,203.984 100.691,176.989" fill="#f6f0dc" fill-opacity="0.984"/>
<polygon points="94.812,176.655 92.224,203.530 90.453,203.344 93.510,176.518" fill="#f6f0dc" fill-opacity="0.8"/>
<polygon points="87.047,175.494 81.664,201.952 79.923,201.582 85.767,175.222" fill="#f6f0dc" fill-opacity="0.8"/>
<polygon points="79.447,173.529 71.328,199.279 69.635,198.729 78.202,173.124" fill="#f6f0dc" fill-opacity="0.8"/>
<polygon points="72.094,170.780 61.328,195.540 59.701,194.816 70.898,170.247" fill="#f6f0dc" fill-opacity="0.8"/>
<polygon points="65.639,167.596 52.549,191.211 49.466,189.431 63.372,166.288" fill="#f6f0dc" fill-opacity="0.984"/>
<polygon points="58.447,163.059 42.768,185.040 41.328,183.993 57.388,162.289" fill="#f6f0dc" fill-opacity="0.8"/>
<polygon points="52.303,158.172 34.413,178.393 33.090,177.202 51.331,157.296" fill="#f6f0dc" fill-opacity="0.8"/>
<polygon points="46.704,152.669 26.798,170.910 25.607,169.587 45.828,151.697" fill="#f6f0dc" fill-opacity="0.8"/>
<polygon points="41.711,146.612 20.007,162.672 18.960,161.232 40.941,145.553" fill="#f6f0dc" fill-opacity="0.8"/>
<polygon points="37.712,140.628 14.569,154.534 12.789,151.451 36.404,138.361" fill="#f6f0dc" fill-opacity="0.984"/>
<polygon points="33.753,133.102 9.184,144.299 8.460,142.672 33.220,131.906" fill="#f6f0dc" fill-opacity="0.8"/>
<polygon points="30.876,125.798 5.271,134.365 4.721,132.672 30.471,124.553" fill="#f6f0dc" fill-opacity="0.8"/>
<polygon points="28.778,118.233 2.418,124.077 2.048,122.336 28.506,116.953" fill="#f6f0dc" fill-opacity="0.8"/>
<polygon points="27.482,110.490 0.656,113.547 0.470,111.776 27.345,109.188" fill="#f6f0dc" fill-opacity="0.8"/>
<polygon points="27.011,103.309 0.016,103.780 0.016,100.220 27.011,100.691" fill="#f6f0dc" fill-opacity="0.984"/>
<polygon points="27.345,94.812 0.470,92.224 0.656,90.453 27.482,93.510" fill="#f6f0dc" fill-opacity="0.8"/>
<polygon points="28.506,87.047 2.048,81.664 2.418,79.923 28.778,85.767" fill="#f6f0dc" fill-opacity="0.8"/>
<polygon points="30.471,79.447 4.721,71.328 5.271,69.635 30.876,78.202" fill="#f6f0dc" fill-opacity="0.8"/>
<polygon points="33.220,72.094 8.460,61.328 9.184,59.701 33.753,70.898" fill="#f6f0dc" fill-opacity="0.8"/>
<polygon points="36.404,65.639 12.789,52.549 14.569,49.466 37.712,63.372" fill="#f6f0dc" fill-opacity="0.984"/>
<polygon points="40.941,58.447 18.960,42.768 20.007,41.328 41.711,57.388" fill="#f6f0dc" fill-opacity="0.8"/>
<polygon points="45.828,52.303 25.607,34.413 26.798,33.090 46.704,51.331" fill="#f6f0dc" fill-opacity="0.8"/>
<polygon points="51.331,46.704 33.090,26.798 34.413,25.607 52.303,45.828" fill="#f6f0dc" fill-opacity="0.8"/>
<polygon points="57.388,41.711 41.328,20.007 42.768,18.960 58.447,40.941" fill="#f6f0dc" fill-opacity="0.8"/>
<polygon points="63.372,37.712 49.466,14.569 52.549,12.789 65.639,36.404" fill="#f6f0dc" fill-opacity="0.984"/>
<polygon points="70.898,33.753 59.701,9.184 61.328,8.460 72.094,33.220" fill="#f6f0dc" fill-opacity="0.8"/>
<polygon points="78.202,30.876 69.635,5.271 71.328,4.721 79.447,30.471" fill="#f6f0dc" fill-opacity="0.8"/>
<polygon points="85.767,28.778 79.923,2.418 81.664,2.048 87.047,28.506" fill="#f6f0dc" fill-opacity="0.8"/>
<polygon points="93.510,27.482 90.453,0.656 92.224,0.470 94.812,27.345" fill="#f6f0dc" fill-opacity="0.8"/>
</svg>
