{"accessors":[{"bufferView":0,"componentType":5126,"count":600,"min":[-0.2849999964237213,0.0,-0.20649999380111695],"max":[0.2849999964237213,0.3799999952316284,0.1899999976158142],"type":"VEC3","name":"HomebaseInsulatedCooler_mesh_vertices#0_POSITION"},{"bufferView":0,"byteOffset":12,"componentType":5120,"count":600,"type":"VEC4","name":"HomebaseInsulatedCooler_mesh_vertices#0_TANGENT"},{"bufferView":0,"byteOffset":16,"componentType":5120,"count":600,"type":"VEC4","name":"HomebaseInsulatedCooler_mesh_vertices#0_NORMAL"},{"bufferView":0,"byteOffset":20,"componentType":5122,"count":600,"type":"VEC2","name":"HomebaseInsulatedCooler_mesh_vertices#0_TEXCOORD_0"},{"bufferView":0,"byteOffset":24,"componentType":5122,"count":600,"type":"VEC2","name":"HomebaseInsulatedCooler_mesh_vertices#0_TEXCOORD_1"},{"bufferView":0,"byteOffset":28,"componentType":5123,"count":600,"type":"VEC4","name":"HomebaseInsulatedCooler_mesh_vertices#0_COLOR_0"},{"bufferView":1,"componentType":5123,"count":600,"type":"SCALAR","name":"HomebaseInsulatedCooler_mesh_indices#4"}],"asset":{"generator":"VFR Multitool procedural asset generator","version":"2.0","extensions":{"ASOBO_asset_optimized":{"BoundingBoxMax":[0.2849999964237213,0.3799999952316284,0.1899999976158142],"BoundingBoxMin":[-0.2849999964237213,0.0,-0.20649999380111695],"MajorVersion":4,"MinorVersion":7,"UseCheckerboardMaterialForMissingTextures":true,"UseOnlyFilenameForImageURI":true}}},"bufferViews":[{"buffer":0,"byteLength":21600,"byteStride":36,"target":34962,"name":"BufferViewVertexND"},{"buffer":0,"byteLength":1200,"byteOffset":21600,"target":34963,"name":"BufferViewIndexU16"}],"materials":[{"name":"Cooler_Koerper_Hellgrau","doubleSided":true,"pbrMetallicRoughness":{"baseColorFactor":[0.68,0.72,0.71,1.0],"metallicFactor":0.08,"roughnessFactor":0.52}},{"name":"Cooler_Deckel_Dunkelgrau","doubleSided":true,"pbrMetallicRoughness":{"baseColorFactor":[0.14,0.17,0.17,1.0],"metallicFactor":0.24,"roughnessFactor":0.42}},{"name":"Cooler_Griffe","doubleSided":true,"pbrMetallicRoughness":{"baseColorFactor":[0.06,0.075,0.075,1.0],"metallicFactor":0.62,"roughnessFactor":0.3}},{"name":"Cooler_Verschluss","doubleSided":true,"pbrMetallicRoughness":{"baseColorFactor":[0.5,0.54,0.54,1.0],"metallicFactor":0.84,"roughnessFactor":0.22}},{"name":"Cooler_Akzent_Blau","doubleSided":true,"pbrMetallicRoughness":{"baseColorFactor":[0.03,0.28,0.52,1.0],"metallicFactor":0.12,"roughnessFactor":0.44}}],"meshes":[{"primitives":[{"attributes":{"COLOR_0":5,"NORMAL":2,"POSITION":0,"TANGENT":1,"TEXCOORD_0":3,"TEXCOORD_1":4},"indices":6,"material":2,"mode":4,"extras":{"ASOBO_primitive":{"PrimitiveCount":128,"UV2Length":0.7071067690849304,"UVLength":0.7071067690849304,"VertexCount":384,"VertexType":"VTX","VertexVersion":2}}},{"attributes":{"COLOR_0":5,"NORMAL":2,"POSITION":0,"TANGENT":1,"TEXCOORD_0":3,"TEXCOORD_1":4},"indices":6,"material":1,"mode":4,"extras":{"ASOBO_primitive":{"BaseVertexIndex":384,"PrimitiveCount":24,"StartIndex":384,"UV2Length":0.7071067690849304,"UVLength":0.7071067690849304,"VertexCount":72,"VertexType":"VTX","VertexVersion":2}}},{"attributes":{"COLOR_0":5,"NORMAL":2,"POSITION":0,"TANGENT":1,"TEXCOORD_0":3,"TEXCOORD_1":4},"indices":6,"material":0,"mode":4,"extras":{"ASOBO_primitive":{"BaseVertexIndex":456,"PrimitiveCount":12,"StartIndex":456,"UV2Length":0.7071067690849304,"UVLength":0.7071067690849304,"VertexCount":36,"VertexType":"VTX","VertexVersion":2}}},{"attributes":{"COLOR_0":5,"NORMAL":2,"POSITION":0,"TANGENT":1,"TEXCOORD_0":3,"TEXCOORD_1":4},"indices":6,"material":3,"mode":4,"extras":{"ASOBO_primitive":{"BaseVertexIndex":492,"PrimitiveCount":24,"StartIndex":492,"UV2Length":0.7071067690849304,"UVLength":0.7071067690849304,"VertexCount":72,"VertexType":"VTX","VertexVersion":2}}},{"attributes":{"COLOR_0":5,"NORMAL":2,"POSITION":0,"TANGENT":1,"TEXCOORD_0":3,"TEXCOORD_1":4},"indices":6,"material":4,"mode":4,"extras":{"ASOBO_primitive":{"BaseVertexIndex":564,"PrimitiveCount":12,"StartIndex":564,"UV2Length":0.7071067690849304,"UVLength":0.7071067690849304,"VertexCount":36,"VertexType":"VTX","VertexVersion":2}}}],"name":"HomebaseInsulatedCooler_mesh"}],"nodes":[{"mesh":0,"name":"HomebaseInsulatedCooler_node"}],"scene":0,"scenes":[{"nodes":[0]}],"extensionsUsed":["ASOBO_asset_optimized"],"buffers":[{"byteLength":22800,"uri":"HomebaseInsulatedCooler_LOD00.bin"}]}
