{
  "asset": {
    "version": "2.0",
    "generator": "VFR Multitool procedural asset generator"
  },
  "buffers": [
    {
      "byteLength": 88944,
      "uri": "HomebaseFuelDrum_LOD00.bin"
    }
  ],
  "bufferViews": [
    {
      "buffer": 0,
      "byteOffset": 0,
      "byteLength": 2592,
      "target": 34962
    },
    {
      "buffer": 0,
      "byteOffset": 2592,
      "byteLength": 2592,
      "target": 34962
    },
    {
      "buffer": 0,
      "byteOffset": 5184,
      "byteLength": 1728,
      "target": 34962
    },
    {
      "buffer": 0,
      "byteOffset": 6912,
      "byteLength": 432,
      "target": 34963
    },
    {
      "buffer": 0,
      "byteOffset": 7344,
      "byteLength": 3024,
      "target": 34962
    },
    {
      "buffer": 0,
      "byteOffset": 10368,
      "byteLength": 3024,
      "target": 34962
    },
    {
      "buffer": 0,
      "byteOffset": 13392,
      "byteLength": 2016,
      "target": 34962
    },
    {
      "buffer": 0,
      "byteOffset": 15408,
      "byteLength": 504,
      "target": 34963
    },
    {
      "buffer": 0,
      "byteOffset": 15912,
      "byteLength": 6912,
      "target": 34962
    },
    {
      "buffer": 0,
      "byteOffset": 22824,
      "byteLength": 6912,
      "target": 34962
    },
    {
      "buffer": 0,
      "byteOffset": 29736,
      "byteLength": 4608,
      "target": 34962
    },
    {
      "buffer": 0,
      "byteOffset": 34344,
      "byteLength": 1152,
      "target": 34963
    },
    {
      "buffer": 0,
      "byteOffset": 35496,
      "byteLength": 8064,
      "target": 34962
    },
    {
      "buffer": 0,
      "byteOffset": 43560,
      "byteLength": 8064,
      "target": 34962
    },
    {
      "buffer": 0,
      "byteOffset": 51624,
      "byteLength": 5376,
      "target": 34962
    },
    {
      "buffer": 0,
      "byteOffset": 57000,
      "byteLength": 1344,
      "target": 34963
    },
    {
      "buffer": 0,
      "byteOffset": 58344,
      "byteLength": 9072,
      "target": 34962
    },
    {
      "buffer": 0,
      "byteOffset": 67416,
      "byteLength": 9072,
      "target": 34962
    },
    {
      "buffer": 0,
      "byteOffset": 76488,
      "byteLength": 6048,
      "target": 34962
    },
    {
      "buffer": 0,
      "byteOffset": 82536,
      "byteLength": 1512,
      "target": 34963
    },
    {
      "buffer": 0,
      "byteOffset": 84048,
      "byteLength": 864,
      "target": 34962
    },
    {
      "buffer": 0,
      "byteOffset": 84912,
      "byteLength": 864,
      "target": 34962
    },
    {
      "buffer": 0,
      "byteOffset": 85776,
      "byteLength": 576,
      "target": 34962
    },
    {
      "buffer": 0,
      "byteOffset": 86352,
      "byteLength": 144,
      "target": 34963
    },
    {
      "buffer": 0,
      "byteOffset": 86496,
      "byteLength": 864,
      "target": 34962
    },
    {
      "buffer": 0,
      "byteOffset": 87360,
      "byteLength": 864,
      "target": 34962
    },
    {
      "buffer": 0,
      "byteOffset": 88224,
      "byteLength": 576,
      "target": 34962
    },
    {
      "buffer": 0,
      "byteOffset": 88800,
      "byteLength": 144,
      "target": 34963
    }
  ],
  "accessors": [
    {
      "bufferView": 0,
      "componentType": 5126,
      "count": 216,
      "min": [
        -0.3052904034337845,
        0.08,
        -0.31
      ],
      "max": [
        0.3052904034337845,
        0.88,
        0.31
      ],
      "type": "VEC3"
    },
    {
      "bufferView": 1,
      "componentType": 5126,
      "count": 216,
      "type": "VEC3"
    },
    {
      "bufferView": 2,
      "componentType": 5126,
      "count": 216,
      "type": "VEC2"
    },
    {
      "bufferView": 3,
      "componentType": 5123,
      "count": 216,
      "type": "SCALAR"
    },
    {
      "bufferView": 4,
      "componentType": 5126,
      "count": 252,
      "min": [
        -0.295,
        0,
        -0.323
      ],
      "max": [
        0.295,
        0.759,
        0.323
      ],
      "type": "VEC3"
    },
    {
      "bufferView": 5,
      "componentType": 5126,
      "count": 252,
      "type": "VEC3"
    },
    {
      "bufferView": 6,
      "componentType": 5126,
      "count": 252,
      "type": "VEC2"
    },
    {
      "bufferView": 7,
      "componentType": 5123,
      "count": 252,
      "type": "SCALAR"
    },
    {
      "bufferView": 8,
      "componentType": 5126,
      "count": 576,
      "min": [
        -0.317108096469931,
        0.08,
        -0.322
      ],
      "max": [
        0.31710809646993104,
        0.94,
        0.322
      ],
      "type": "VEC3"
    },
    {
      "bufferView": 9,
      "componentType": 5126,
      "count": 576,
      "type": "VEC3"
    },
    {
      "bufferView": 10,
      "componentType": 5126,
      "count": 576,
      "type": "VEC2"
    },
    {
      "bufferView": 11,
      "componentType": 5123,
      "count": 576,
      "type": "SCALAR"
    },
    {
      "bufferView": 12,
      "componentType": 5126,
      "count": 672,
      "min": [
        -0.2,
        0.21556492548493905,
        -0.41
      ],
      "max": [
        0.3093476312345141,
        1.3266295824562644,
        0.055
      ],
      "type": "VEC3"
    },
    {
      "bufferView": 13,
      "componentType": 5126,
      "count": 672,
      "type": "VEC3"
    },
    {
      "bufferView": 14,
      "componentType": 5126,
      "count": 672,
      "type": "VEC2"
    },
    {
      "bufferView": 15,
      "componentType": 5123,
      "count": 672,
      "type": "SCALAR"
    },
    {
      "bufferView": 16,
      "componentType": 5126,
      "count": 756,
      "min": [
        -0.08793107519578848,
        0.1739252963040459,
        -0.397
      ],
      "max": [
        0.49658980933132957,
        1.0245235666025023,
        -0.0754850966184878
      ],
      "type": "VEC3"
    },
    {
      "bufferView": 17,
      "componentType": 5126,
      "count": 756,
      "type": "VEC3"
    },
    {
      "bufferView": 18,
      "componentType": 5126,
      "count": 756,
      "type": "VEC2"
    },
    {
      "bufferView": 19,
      "componentType": 5123,
      "count": 756,
      "type": "SCALAR"
    },
    {
      "bufferView": 20,
      "componentType": 5126,
      "count": 72,
      "min": [
        -0.135,
        0.265,
        -0.41400000000000003
      ],
      "max": [
        0.135,
        0.63,
        -0.316
      ],
      "type": "VEC3"
    },
    {
      "bufferView": 21,
      "componentType": 5126,
      "count": 72,
      "type": "VEC3"
    },
    {
      "bufferView": 22,
      "componentType": 5126,
      "count": 72,
      "type": "VEC2"
    },
    {
      "bufferView": 23,
      "componentType": 5123,
      "count": 72,
      "type": "SCALAR"
    },
    {
      "bufferView": 24,
      "componentType": 5126,
      "count": 72,
      "min": [
        -0.11,
        0.311,
        -0.424
      ],
      "max": [
        0.11,
        0.5425,
        -0.332
      ],
      "type": "VEC3"
    },
    {
      "bufferView": 25,
      "componentType": 5126,
      "count": 72,
      "type": "VEC3"
    },
    {
      "bufferView": 26,
      "componentType": 5126,
      "count": 72,
      "type": "VEC2"
    },
    {
      "bufferView": 27,
      "componentType": 5123,
      "count": 72,
      "type": "SCALAR"
    }
  ],
  "materials": [
    {
      "doubleSided": true,
      "name": "Treibstofffass_Blau",
      "pbrMetallicRoughness": {
        "baseColorFactor": [
          0.035,
          0.15,
          0.2,
          1
        ],
        "metallicFactor": 0.38,
        "roughnessFactor": 0.48
      }
    },
    {
      "doubleSided": true,
      "name": "Treibstofffass_Baender",
      "pbrMetallicRoughness": {
        "baseColorFactor": [
          0.11,
          0.13,
          0.13,
          1
        ],
        "metallicFactor": 0.86,
        "roughnessFactor": 0.26
      }
    },
    {
      "doubleSided": true,
      "name": "Treibstofffass_Kanten",
      "pbrMetallicRoughness": {
        "baseColorFactor": [
          0.42,
          0.47,
          0.46,
          1
        ],
        "metallicFactor": 0.9,
        "roughnessFactor": 0.24
      }
    },
    {
      "doubleSided": true,
      "name": "Handpumpe_Metall",
      "pbrMetallicRoughness": {
        "baseColorFactor": [
          0.08,
          0.095,
          0.095,
          1
        ],
        "metallicFactor": 0.9,
        "roughnessFactor": 0.22
      }
    },
    {
      "doubleSided": true,
      "name": "Tankschlauch_Gummi",
      "pbrMetallicRoughness": {
        "baseColorFactor": [
          0.012,
          0.016,
          0.017,
          1
        ],
        "metallicFactor": 0.02,
        "roughnessFactor": 0.82
      }
    },
    {
      "doubleSided": true,
      "name": "Warnetikett_Gelb",
      "pbrMetallicRoughness": {
        "baseColorFactor": [
          0.9,
          0.64,
          0.08,
          1
        ],
        "metallicFactor": 0.05,
        "roughnessFactor": 0.56
      }
    },
    {
      "doubleSided": true,
      "name": "Warnetikett_Rot",
      "pbrMetallicRoughness": {
        "baseColorFactor": [
          0.7,
          0.035,
          0.02,
          1
        ],
        "metallicFactor": 0.08,
        "roughnessFactor": 0.54
      }
    }
  ],
  "meshes": [
    {
      "name": "HomebaseFuelDrum_mesh",
      "primitives": [
        {
          "attributes": {
            "POSITION": 0,
            "NORMAL": 1,
            "TEXCOORD_0": 2
          },
          "indices": 3,
          "material": 0,
          "mode": 4
        },
        {
          "attributes": {
            "POSITION": 4,
            "NORMAL": 5,
            "TEXCOORD_0": 6
          },
          "indices": 7,
          "material": 1,
          "mode": 4
        },
        {
          "attributes": {
            "POSITION": 8,
            "NORMAL": 9,
            "TEXCOORD_0": 10
          },
          "indices": 11,
          "material": 2,
          "mode": 4
        },
        {
          "attributes": {
            "POSITION": 12,
            "NORMAL": 13,
            "TEXCOORD_0": 14
          },
          "indices": 15,
          "material": 3,
          "mode": 4
        },
        {
          "attributes": {
            "POSITION": 16,
            "NORMAL": 17,
            "TEXCOORD_0": 18
          },
          "indices": 19,
          "material": 4,
          "mode": 4
        },
        {
          "attributes": {
            "POSITION": 20,
            "NORMAL": 21,
            "TEXCOORD_0": 22
          },
          "indices": 23,
          "material": 5,
          "mode": 4
        },
        {
          "attributes": {
            "POSITION": 24,
            "NORMAL": 25,
            "TEXCOORD_0": 26
          },
          "indices": 27,
          "material": 6,
          "mode": 4
        }
      ]
    }
  ],
  "nodes": [
    {
      "mesh": 0,
      "name": "HomebaseFuelDrum_node"
    }
  ],
  "scenes": [
    {
      "nodes": [
        0
      ]
    }
  ],
  "scene": 0
}
