{
  "asset": {
    "version": "2.0",
    "generator": "VFR Multitool procedural asset generator"
  },
  "buffers": [
    {
      "byteLength": 31008,
      "uri": "HomebaseCabinTrolley_LOD00.bin"
    }
  ],
  "bufferViews": [
    {
      "buffer": 0,
      "byteOffset": 0,
      "byteLength": 432,
      "target": 34962
    },
    {
      "buffer": 0,
      "byteOffset": 432,
      "byteLength": 432,
      "target": 34962
    },
    {
      "buffer": 0,
      "byteOffset": 864,
      "byteLength": 288,
      "target": 34962
    },
    {
      "buffer": 0,
      "byteOffset": 1152,
      "byteLength": 72,
      "target": 34963
    },
    {
      "buffer": 0,
      "byteOffset": 1224,
      "byteLength": 2592,
      "target": 34962
    },
    {
      "buffer": 0,
      "byteOffset": 3816,
      "byteLength": 2592,
      "target": 34962
    },
    {
      "buffer": 0,
      "byteOffset": 6408,
      "byteLength": 1728,
      "target": 34962
    },
    {
      "buffer": 0,
      "byteOffset": 8136,
      "byteLength": 432,
      "target": 34963
    },
    {
      "buffer": 0,
      "byteOffset": 8568,
      "byteLength": 4608,
      "target": 34962
    },
    {
      "buffer": 0,
      "byteOffset": 13176,
      "byteLength": 4608,
      "target": 34962
    },
    {
      "buffer": 0,
      "byteOffset": 17784,
      "byteLength": 3072,
      "target": 34962
    },
    {
      "buffer": 0,
      "byteOffset": 20856,
      "byteLength": 768,
      "target": 34963
    },
    {
      "buffer": 0,
      "byteOffset": 21624,
      "byteLength": 2880,
      "target": 34962
    },
    {
      "buffer": 0,
      "byteOffset": 24504,
      "byteLength": 2880,
      "target": 34962
    },
    {
      "buffer": 0,
      "byteOffset": 27384,
      "byteLength": 1920,
      "target": 34962
    },
    {
      "buffer": 0,
      "byteOffset": 29304,
      "byteLength": 480,
      "target": 34963
    },
    {
      "buffer": 0,
      "byteOffset": 29784,
      "byteLength": 432,
      "target": 34962
    },
    {
      "buffer": 0,
      "byteOffset": 30216,
      "byteLength": 432,
      "target": 34962
    },
    {
      "buffer": 0,
      "byteOffset": 30648,
      "byteLength": 288,
      "target": 34962
    },
    {
      "buffer": 0,
      "byteOffset": 30936,
      "byteLength": 72,
      "target": 34963
    }
  ],
  "accessors": [
    {
      "bufferView": 0,
      "componentType": 5126,
      "count": 36,
      "min": [
        -0.21,
        0.06,
        -0.14
      ],
      "max": [
        0.21,
        0.6399999999999999,
        0.14
      ],
      "type": "VEC3"
    },
    {
      "bufferView": 1,
      "componentType": 5126,
      "count": 36,
      "type": "VEC3"
    },
    {
      "bufferView": 2,
      "componentType": 5126,
      "count": 36,
      "type": "VEC2"
    },
    {
      "bufferView": 3,
      "componentType": 5123,
      "count": 36,
      "type": "SCALAR"
    },
    {
      "bufferView": 4,
      "componentType": 5126,
      "count": 216,
      "min": [
        -0.175,
        0,
        -0.169
      ],
      "max": [
        0.23700000000000002,
        0.59,
        0.05
      ],
      "type": "VEC3"
    },
    {
      "bufferView": 5,
      "componentType": 5126,
      "count": 216,
      "type": "VEC3"
    },
    {
      "bufferView": 6,
      "componentType": 5126,
      "count": 216,
      "type": "VEC2"
    },
    {
      "bufferView": 7,
      "componentType": 5123,
      "count": 216,
      "type": "SCALAR"
    },
    {
      "bufferView": 8,
      "componentType": 5126,
      "count": 384,
      "min": [
        -0.1064,
        0.232,
        -0.045
      ],
      "max": [
        0.243,
        0.922,
        0.142
      ],
      "type": "VEC3"
    },
    {
      "bufferView": 9,
      "componentType": 5126,
      "count": 384,
      "type": "VEC3"
    },
    {
      "bufferView": 10,
      "componentType": 5126,
      "count": 384,
      "type": "VEC2"
    },
    {
      "bufferView": 11,
      "componentType": 5123,
      "count": 384,
      "type": "SCALAR"
    },
    {
      "bufferView": 12,
      "componentType": 5126,
      "count": 240,
      "min": [
        -0.1654,
        0.0025450611526520103,
        0.12000000000000001
      ],
      "max": [
        0.1654,
        0.10145493884734799,
        0.2
      ],
      "type": "VEC3"
    },
    {
      "bufferView": 13,
      "componentType": 5126,
      "count": 240,
      "type": "VEC3"
    },
    {
      "bufferView": 14,
      "componentType": 5126,
      "count": 240,
      "type": "VEC2"
    },
    {
      "bufferView": 15,
      "componentType": 5123,
      "count": 240,
      "type": "SCALAR"
    },
    {
      "bufferView": 16,
      "componentType": 5126,
      "count": 36,
      "min": [
        -0.08,
        0.305,
        -0.17
      ],
      "max": [
        0.08,
        0.455,
        -0.158
      ],
      "type": "VEC3"
    },
    {
      "bufferView": 17,
      "componentType": 5126,
      "count": 36,
      "type": "VEC3"
    },
    {
      "bufferView": 18,
      "componentType": 5126,
      "count": 36,
      "type": "VEC2"
    },
    {
      "bufferView": 19,
      "componentType": 5123,
      "count": 36,
      "type": "SCALAR"
    }
  ],
  "materials": [
    {
      "doubleSided": true,
      "name": "Trolley_Schale_Blau",
      "pbrMetallicRoughness": {
        "baseColorFactor": [
          0.025,
          0.11,
          0.27,
          1
        ],
        "metallicFactor": 0.18,
        "roughnessFactor": 0.38
      }
    },
    {
      "doubleSided": true,
      "name": "Trolley_Kanten_Dunkel",
      "pbrMetallicRoughness": {
        "baseColorFactor": [
          0.035,
          0.045,
          0.052,
          1
        ],
        "metallicFactor": 0.5,
        "roughnessFactor": 0.3
      }
    },
    {
      "doubleSided": true,
      "name": "Trolley_Griff_Metall",
      "pbrMetallicRoughness": {
        "baseColorFactor": [
          0.55,
          0.59,
          0.59,
          1
        ],
        "metallicFactor": 0.9,
        "roughnessFactor": 0.2
      }
    },
    {
      "doubleSided": true,
      "name": "Trolley_Rollen",
      "pbrMetallicRoughness": {
        "baseColorFactor": [
          0.018,
          0.02,
          0.022,
          1
        ],
        "metallicFactor": 0.05,
        "roughnessFactor": 0.78
      }
    },
    {
      "doubleSided": true,
      "name": "Trolley_Etikett_Tuerkis",
      "pbrMetallicRoughness": {
        "baseColorFactor": [
          0.03,
          0.68,
          0.61,
          1
        ],
        "metallicFactor": 0.08,
        "roughnessFactor": 0.42
      }
    }
  ],
  "meshes": [
    {
      "name": "HomebaseCabinTrolley_mesh",
      "primitives": [
        {
          "attributes": {
            "POSITION": 0,
            "NORMAL": 1,
            "TEXCOORD_0": 2
          },
          "indices": 3,
          "material": 0,
          "mode": 4
        },
        {
          "attributes": {
            "POSITION": 4,
            "NORMAL": 5,
            "TEXCOORD_0": 6
          },
          "indices": 7,
          "material": 1,
          "mode": 4
        },
        {
          "attributes": {
            "POSITION": 8,
            "NORMAL": 9,
            "TEXCOORD_0": 10
          },
          "indices": 11,
          "material": 2,
          "mode": 4
        },
        {
          "attributes": {
            "POSITION": 12,
            "NORMAL": 13,
            "TEXCOORD_0": 14
          },
          "indices": 15,
          "material": 3,
          "mode": 4
        },
        {
          "attributes": {
            "POSITION": 16,
            "NORMAL": 17,
            "TEXCOORD_0": 18
          },
          "indices": 19,
          "material": 4,
          "mode": 4
        }
      ]
    }
  ],
  "nodes": [
    {
      "mesh": 0,
      "name": "HomebaseCabinTrolley_node"
    }
  ],
  "scenes": [
    {
      "nodes": [
        0
      ]
    }
  ],
  "scene": 0
}
