{
  "asset": {
    "version": "2.0",
    "generator": "VFR Multitool procedural asset generator"
  },
  "buffers": [
    {
      "byteLength": 24480,
      "uri": "HomebaseToolbox_LOD00.bin"
    }
  ],
  "bufferViews": [
    {
      "buffer": 0,
      "byteOffset": 0,
      "byteLength": 432,
      "target": 34962
    },
    {
      "buffer": 0,
      "byteOffset": 432,
      "byteLength": 432,
      "target": 34962
    },
    {
      "buffer": 0,
      "byteOffset": 864,
      "byteLength": 288,
      "target": 34962
    },
    {
      "buffer": 0,
      "byteOffset": 1152,
      "byteLength": 72,
      "target": 34963
    },
    {
      "buffer": 0,
      "byteOffset": 1224,
      "byteLength": 2592,
      "target": 34962
    },
    {
      "buffer": 0,
      "byteOffset": 3816,
      "byteLength": 2592,
      "target": 34962
    },
    {
      "buffer": 0,
      "byteOffset": 6408,
      "byteLength": 1728,
      "target": 34962
    },
    {
      "buffer": 0,
      "byteOffset": 8136,
      "byteLength": 432,
      "target": 34963
    },
    {
      "buffer": 0,
      "byteOffset": 8568,
      "byteLength": 1728,
      "target": 34962
    },
    {
      "buffer": 0,
      "byteOffset": 10296,
      "byteLength": 1728,
      "target": 34962
    },
    {
      "buffer": 0,
      "byteOffset": 12024,
      "byteLength": 1152,
      "target": 34962
    },
    {
      "buffer": 0,
      "byteOffset": 13176,
      "byteLength": 288,
      "target": 34963
    },
    {
      "buffer": 0,
      "byteOffset": 13464,
      "byteLength": 3456,
      "target": 34962
    },
    {
      "buffer": 0,
      "byteOffset": 16920,
      "byteLength": 3456,
      "target": 34962
    },
    {
      "buffer": 0,
      "byteOffset": 20376,
      "byteLength": 2304,
      "target": 34962
    },
    {
      "buffer": 0,
      "byteOffset": 22680,
      "byteLength": 576,
      "target": 34963
    },
    {
      "buffer": 0,
      "byteOffset": 23256,
      "byteLength": 432,
      "target": 34962
    },
    {
      "buffer": 0,
      "byteOffset": 23688,
      "byteLength": 432,
      "target": 34962
    },
    {
      "buffer": 0,
      "byteOffset": 24120,
      "byteLength": 288,
      "target": 34962
    },
    {
      "buffer": 0,
      "byteOffset": 24408,
      "byteLength": 72,
      "target": 34963
    }
  ],
  "accessors": [
    {
      "bufferView": 0,
      "componentType": 5126,
      "count": 36,
      "min": [
        -0.34,
        0.03,
        -0.17
      ],
      "max": [
        0.34,
        0.37,
        0.17
      ],
      "type": "VEC3"
    },
    {
      "bufferView": 1,
      "componentType": 5126,
      "count": 36,
      "type": "VEC3"
    },
    {
      "bufferView": 2,
      "componentType": 5126,
      "count": 36,
      "type": "VEC2"
    },
    {
      "bufferView": 3,
      "componentType": 5123,
      "count": 36,
      "type": "SCALAR"
    },
    {
      "bufferView": 4,
      "componentType": 5126,
      "count": 216,
      "min": [
        -0.355,
        0,
        -0.185
      ],
      "max": [
        0.355,
        0.42000000000000004,
        0.185
      ],
      "type": "VEC3"
    },
    {
      "bufferView": 5,
      "componentType": 5126,
      "count": 216,
      "type": "VEC3"
    },
    {
      "bufferView": 6,
      "componentType": 5126,
      "count": 216,
      "type": "VEC2"
    },
    {
      "bufferView": 7,
      "componentType": 5123,
      "count": 216,
      "type": "SCALAR"
    },
    {
      "bufferView": 8,
      "componentType": 5126,
      "count": 144,
      "min": [
        -0.27749999999999997,
        0.14500000000000002,
        -0.203
      ],
      "max": [
        0.27749999999999997,
        0.4,
        0.1925
      ],
      "type": "VEC3"
    },
    {
      "bufferView": 9,
      "componentType": 5126,
      "count": 144,
      "type": "VEC3"
    },
    {
      "bufferView": 10,
      "componentType": 5126,
      "count": 144,
      "type": "VEC2"
    },
    {
      "bufferView": 11,
      "componentType": 5123,
      "count": 144,
      "type": "SCALAR"
    },
    {
      "bufferView": 12,
      "componentType": 5126,
      "count": 288,
      "min": [
        -0.205,
        0.41,
        -0.03
      ],
      "max": [
        0.205,
        0.5800000000000001,
        0.03
      ],
      "type": "VEC3"
    },
    {
      "bufferView": 13,
      "componentType": 5126,
      "count": 288,
      "type": "VEC3"
    },
    {
      "bufferView": 14,
      "componentType": 5126,
      "count": 288,
      "type": "VEC2"
    },
    {
      "bufferView": 15,
      "componentType": 5123,
      "count": 288,
      "type": "SCALAR"
    },
    {
      "bufferView": 16,
      "componentType": 5126,
      "count": 36,
      "min": [
        -0.08,
        0.09500000000000001,
        -0.189
      ],
      "max": [
        0.08,
        0.305,
        -0.175
      ],
      "type": "VEC3"
    },
    {
      "bufferView": 17,
      "componentType": 5126,
      "count": 36,
      "type": "VEC3"
    },
    {
      "bufferView": 18,
      "componentType": 5126,
      "count": 36,
      "type": "VEC2"
    },
    {
      "bufferView": 19,
      "componentType": 5123,
      "count": 36,
      "type": "SCALAR"
    }
  ],
  "materials": [
    {
      "doubleSided": true,
      "name": "Werkzeugkiste_Gruen",
      "pbrMetallicRoughness": {
        "baseColorFactor": [
          0.025,
          0.26,
          0.13,
          1
        ],
        "metallicFactor": 0.2,
        "roughnessFactor": 0.42
      }
    },
    {
      "doubleSided": true,
      "name": "Werkzeugkiste_Dunkel",
      "pbrMetallicRoughness": {
        "baseColorFactor": [
          0.025,
          0.04,
          0.035,
          1
        ],
        "metallicFactor": 0.5,
        "roughnessFactor": 0.3
      }
    },
    {
      "doubleSided": true,
      "name": "Werkzeugkiste_Metall",
      "pbrMetallicRoughness": {
        "baseColorFactor": [
          0.54,
          0.58,
          0.58,
          1
        ],
        "metallicFactor": 0.9,
        "roughnessFactor": 0.2
      }
    },
    {
      "doubleSided": true,
      "name": "Werkzeugkiste_Griff",
      "pbrMetallicRoughness": {
        "baseColorFactor": [
          0.04,
          0.06,
          0.055,
          1
        ],
        "metallicFactor": 0.7,
        "roughnessFactor": 0.28
      }
    },
    {
      "doubleSided": true,
      "name": "Werkzeugkiste_Warnstreifen_Gelb",
      "pbrMetallicRoughness": {
        "baseColorFactor": [
          0.9,
          0.65,
          0.06,
          1
        ],
        "metallicFactor": 0.08,
        "roughnessFactor": 0.48
      }
    }
  ],
  "meshes": [
    {
      "name": "HomebaseToolbox_mesh",
      "primitives": [
        {
          "attributes": {
            "POSITION": 0,
            "NORMAL": 1,
            "TEXCOORD_0": 2
          },
          "indices": 3,
          "material": 0,
          "mode": 4
        },
        {
          "attributes": {
            "POSITION": 4,
            "NORMAL": 5,
            "TEXCOORD_0": 6
          },
          "indices": 7,
          "material": 1,
          "mode": 4
        },
        {
          "attributes": {
            "POSITION": 8,
            "NORMAL": 9,
            "TEXCOORD_0": 10
          },
          "indices": 11,
          "material": 2,
          "mode": 4
        },
        {
          "attributes": {
            "POSITION": 12,
            "NORMAL": 13,
            "TEXCOORD_0": 14
          },
          "indices": 15,
          "material": 3,
          "mode": 4
        },
        {
          "attributes": {
            "POSITION": 16,
            "NORMAL": 17,
            "TEXCOORD_0": 18
          },
          "indices": 19,
          "material": 4,
          "mode": 4
        }
      ]
    }
  ],
  "nodes": [
    {
      "mesh": 0,
      "name": "HomebaseToolbox_node"
    }
  ],
  "scenes": [
    {
      "nodes": [
        0
      ]
    }
  ],
  "scene": 0
}
