{"accessors":[{"bufferView":0,"componentType":5126,"count":1248,"min":[-0.675000011920929,0.0058732181787490849,-0.44999998807907107],"max":[0.675000011920929,1.0800000429153443,0.44999998807907107],"type":"VEC3","name":"HomebaseGenerator_mesh_vertices#0_POSITION"},{"bufferView":0,"byteOffset":12,"componentType":5120,"count":1248,"type":"VEC4","name":"HomebaseGenerator_mesh_vertices#0_TANGENT"},{"bufferView":0,"byteOffset":16,"componentType":5120,"count":1248,"type":"VEC4","name":"HomebaseGenerator_mesh_vertices#0_NORMAL"},{"bufferView":0,"byteOffset":20,"componentType":5122,"count":1248,"type":"VEC2","name":"HomebaseGenerator_mesh_vertices#0_TEXCOORD_0"},{"bufferView":0,"byteOffset":24,"componentType":5122,"count":1248,"type":"VEC2","name":"HomebaseGenerator_mesh_vertices#0_TEXCOORD_1"},{"bufferView":0,"byteOffset":28,"componentType":5123,"count":1248,"type":"VEC4","name":"HomebaseGenerator_mesh_vertices#0_COLOR_0"},{"bufferView":1,"componentType":5123,"count":1248,"type":"SCALAR","name":"HomebaseGenerator_mesh_indices#2"}],"asset":{"generator":"VFR Multitool procedural asset generator","version":"2.0","extensions":{"ASOBO_asset_optimized":{"BoundingBoxMax":[0.675000011920929,1.0800000429153443,0.44999998807907107],"BoundingBoxMin":[-0.675000011920929,0.0058732181787490849,-0.44999998807907107],"MajorVersion":4,"MinorVersion":7,"UseCheckerboardMaterialForMissingTextures":true,"UseOnlyFilenameForImageURI":true}}},"bufferViews":[{"buffer":0,"byteLength":44928,"byteStride":36,"target":34962,"name":"BufferViewVertexND"},{"buffer":0,"byteLength":2496,"byteOffset":44928,"target":34963,"name":"BufferViewIndexU16"}],"materials":[{"name":"Aggregat_Olivgruen","doubleSided":true,"pbrMetallicRoughness":{"baseColorFactor":[0.13,0.24,0.095,1.0],"metallicFactor":0.1,"roughnessFactor":0.72}},{"name":"Aggregat_Rahmen","doubleSided":true,"pbrMetallicRoughness":{"baseColorFactor":[0.035,0.045,0.04,1.0],"metallicFactor":0.4,"roughnessFactor":0.48}},{"name":"Aggregat_Bedienfeld","doubleSided":true,"pbrMetallicRoughness":{"baseColorFactor":[0.82,0.58,0.09,1.0],"metallicFactor":0.15,"roughnessFactor":0.55}}],"meshes":[{"primitives":[{"attributes":{"COLOR_0":5,"NORMAL":2,"POSITION":0,"TANGENT":1,"TEXCOORD_0":3,"TEXCOORD_1":4},"indices":6,"material":1,"mode":4,"extras":{"ASOBO_primitive":{"PrimitiveCount":352,"UV2Length":0.7071067690849304,"UVLength":0.7071067690849304,"VertexCount":1056,"VertexType":"VTX","VertexVersion":2}}},{"attributes":{"COLOR_0":5,"NORMAL":2,"POSITION":0,"TANGENT":1,"TEXCOORD_0":3,"TEXCOORD_1":4},"indices":6,"material":0,"mode":4,"extras":{"ASOBO_primitive":{"BaseVertexIndex":1056,"PrimitiveCount":12,"StartIndex":1056,"UV2Length":0.7071067690849304,"UVLength":0.7071067690849304,"VertexCount":36,"VertexType":"VTX","VertexVersion":2}}},{"attributes":{"COLOR_0":5,"NORMAL":2,"POSITION":0,"TANGENT":1,"TEXCOORD_0":3,"TEXCOORD_1":4},"indices":6,"material":2,"mode":4,"extras":{"ASOBO_primitive":{"BaseVertexIndex":1092,"PrimitiveCount":52,"StartIndex":1092,"UV2Length":0.7071067690849304,"UVLength":0.7071067690849304,"VertexCount":156,"VertexType":"VTX","VertexVersion":2}}}],"name":"HomebaseGenerator_mesh"}],"nodes":[{"mesh":0,"name":"HomebaseGenerator_node"}],"scene":0,"scenes":[{"nodes":[0]}],"extensionsUsed":["ASOBO_asset_optimized"],"buffers":[{"byteLength":47424,"uri":"HomebaseGenerator_LOD00.bin"}]}
