{"accessors":[{"bufferView":0,"componentType":5126,"count":164,"min":[-0.017999999225139619,-0.20309144258499146,-0.017999999225139619],"max":[0.017999999225139619,0.20309144258499146,0.017999999225139619],"type":"VEC3","name":"ConstructionFloodlightLeg01Mesh_vertices#0_POSITION"},{"bufferView":0,"byteOffset":12,"componentType":5120,"count":164,"type":"VEC4","name":"ConstructionFloodlightLeg01Mesh_vertices#0_TANGENT"},{"bufferView":0,"byteOffset":16,"componentType":5120,"count":164,"type":"VEC4","name":"ConstructionFloodlightLeg01Mesh_vertices#0_NORMAL"},{"bufferView":0,"byteOffset":20,"componentType":5122,"count":164,"type":"VEC2","name":"ConstructionFloodlightLeg01Mesh_vertices#0_TEXCOORD_0"},{"bufferView":0,"byteOffset":24,"componentType":5122,"count":164,"type":"VEC2","name":"ConstructionFloodlightLeg01Mesh_vertices#0_TEXCOORD_1"},{"bufferView":0,"byteOffset":28,"componentType":5123,"count":164,"type":"VEC4","name":"ConstructionFloodlightLeg01Mesh_vertices#0_COLOR_0"},{"bufferView":1,"componentType":5123,"count":708,"type":"SCALAR","name":"ConstructionFloodlightLeg01Mesh_indices#0"},{"bufferView":0,"byteOffset":5904,"componentType":5126,"count":82,"min":[-0.02500000037252903,-0.02250000089406967,-0.02500000037252903],"max":[0.02500000037252903,0.02250000089406967,0.02500000037252903],"type":"VEC3","name":"ConstructionFloodlightFoot01Mesh_vertices#0_POSITION"},{"bufferView":0,"byteOffset":5916,"componentType":5120,"count":82,"type":"VEC4","name":"ConstructionFloodlightFoot01Mesh_vertices#0_TANGENT"},{"bufferView":0,"byteOffset":5920,"componentType":5120,"count":82,"type":"VEC4","name":"ConstructionFloodlightFoot01Mesh_vertices#0_NORMAL"},{"bufferView":0,"byteOffset":5924,"componentType":5122,"count":82,"type":"VEC2","name":"ConstructionFloodlightFoot01Mesh_vertices#0_TEXCOORD_0"},{"bufferView":0,"byteOffset":5928,"componentType":5122,"count":82,"type":"VEC2","name":"ConstructionFloodlightFoot01Mesh_vertices#0_TEXCOORD_1"},{"bufferView":0,"byteOffset":5932,"componentType":5123,"count":82,"type":"VEC4","name":"ConstructionFloodlightFoot01Mesh_vertices#0_COLOR_0"},{"bufferView":1,"byteOffset":1416,"componentType":5123,"count":228,"type":"SCALAR","name":"ConstructionFloodlightFoot01Mesh_indices#0"},{"bufferView":0,"byteOffset":8856,"componentType":5126,"count":66,"min":[-0.00800000037997961,-0.17808888852596284,-0.00800000037997961],"max":[0.00800000037997961,0.17808888852596284,0.00800000037997961],"type":"VEC3","name":"ConstructionFloodlightBrace01Mesh_vertices#0_POSITION"},{"bufferView":0,"byteOffset":8868,"componentType":5120,"count":66,"type":"VEC4","name":"ConstructionFloodlightBrace01Mesh_vertices#0_TANGENT"},{"bufferView":0,"byteOffset":8872,"componentType":5120,"count":66,"type":"VEC4","name":"ConstructionFloodlightBrace01Mesh_vertices#0_NORMAL"},{"bufferView":0,"byteOffset":8876,"componentType":5122,"count":66,"type":"VEC2","name":"ConstructionFloodlightBrace01Mesh_vertices#0_TEXCOORD_0"},{"bufferView":0,"byteOffset":8880,"componentType":5122,"count":66,"type":"VEC2","name":"ConstructionFloodlightBrace01Mesh_vertices#0_TEXCOORD_1"},{"bufferView":0,"byteOffset":8884,"componentType":5123,"count":66,"type":"VEC4","name":"ConstructionFloodlightBrace01Mesh_vertices#0_COLOR_0"},{"bufferView":1,"byteOffset":1872,"componentType":5123,"count":180,"type":"SCALAR","name":"ConstructionFloodlightBrace01Mesh_indices#0"},{"bufferView":0,"byteOffset":11232,"componentType":5126,"count":66,"min":[-0.009999999776482582,-0.025000005960464479,-0.009999999776482582],"max":[0.009999999776482582,0.025000005960464479,0.009999999776482582],"type":"VEC3","name":"ConstructionFloodlightBraceJoint01Mesh_vertices#0_POSITION"},{"bufferView":0,"byteOffset":11244,"componentType":5120,"count":66,"type":"VEC4","name":"ConstructionFloodlightBraceJoint01Mesh_vertices#0_TANGENT"},{"bufferView":0,"byteOffset":11248,"componentType":5120,"count":66,"type":"VEC4","name":"ConstructionFloodlightBraceJoint01Mesh_vertices#0_NORMAL"},{"bufferView":0,"byteOffset":11252,"componentType":5122,"count":66,"type":"VEC2","name":"ConstructionFloodlightBraceJoint01Mesh_vertices#0_TEXCOORD_0"},{"bufferView":0,"byteOffset":11256,"componentType":5122,"count":66,"type":"VEC2","name":"ConstructionFloodlightBraceJoint01Mesh_vertices#0_TEXCOORD_1"},{"bufferView":0,"byteOffset":11260,"componentType":5123,"count":66,"type":"VEC4","name":"ConstructionFloodlightBraceJoint01Mesh_vertices#0_COLOR_0"},{"bufferView":1,"byteOffset":2232,"componentType":5123,"count":180,"type":"SCALAR","name":"ConstructionFloodlightBraceJoint01Mesh_indices#0"},{"bufferView":0,"byteOffset":13608,"componentType":5126,"count":164,"min":[-0.017999999225139619,-0.20309144258499146,-0.017999999225139619],"max":[0.017999999225139619,0.20309144258499146,0.017999999225139619],"type":"VEC3","name":"ConstructionFloodlightLeg02Mesh_vertices#0_POSITION"},{"bufferView":0,"byteOffset":13620,"componentType":5120,"count":164,"type":"VEC4","name":"ConstructionFloodlightLeg02Mesh_vertices#0_TANGENT"},{"bufferView":0,"byteOffset":13624,"componentType":5120,"count":164,"type":"VEC4","name":"ConstructionFloodlightLeg02Mesh_vertices#0_NORMAL"},{"bufferView":0,"byteOffset":13628,"componentType":5122,"count":164,"type":"VEC2","name":"ConstructionFloodlightLeg02Mesh_vertices#0_TEXCOORD_0"},{"bufferView":0,"byteOffset":13632,"componentType":5122,"count":164,"type":"VEC2","name":"ConstructionFloodlightLeg02Mesh_vertices#0_TEXCOORD_1"},{"bufferView":0,"byteOffset":13636,"componentType":5123,"count":164,"type":"VEC4","name":"ConstructionFloodlightLeg02Mesh_vertices#0_COLOR_0"},{"bufferView":1,"byteOffset":2592,"componentType":5123,"count":708,"type":"SCALAR","name":"ConstructionFloodlightLeg02Mesh_indices#0"},{"bufferView":0,"byteOffset":19512,"componentType":5126,"count":82,"min":[-0.02500000037252903,-0.02250000089406967,-0.02500000037252903],"max":[0.02500000037252903,0.02250000089406967,0.02500000037252903],"type":"VEC3","name":"ConstructionFloodlightFoot02Mesh_vertices#0_POSITION"},{"bufferView":0,"byteOffset":19524,"componentType":5120,"count":82,"type":"VEC4","name":"ConstructionFloodlightFoot02Mesh_vertices#0_TANGENT"},{"bufferView":0,"byteOffset":19528,"componentType":5120,"count":82,"type":"VEC4","name":"ConstructionFloodlightFoot02Mesh_vertices#0_NORMAL"},{"bufferView":0,"byteOffset":19532,"componentType":5122,"count":82,"type":"VEC2","name":"ConstructionFloodlightFoot02Mesh_vertices#0_TEXCOORD_0"},{"bufferView":0,"byteOffset":19536,"componentType":5122,"count":82,"type":"VEC2","name":"ConstructionFloodlightFoot02Mesh_vertices#0_TEXCOORD_1"},{"bufferView":0,"byteOffset":19540,"componentType":5123,"count":82,"type":"VEC4","name":"ConstructionFloodlightFoot02Mesh_vertices#0_COLOR_0"},{"bufferView":1,"byteOffset":4008,"componentType":5123,"count":228,"type":"SCALAR","name":"ConstructionFloodlightFoot02Mesh_indices#0"},{"bufferView":0,"byteOffset":22464,"componentType":5126,"count":66,"min":[-0.00800000037997961,-0.17808888852596284,-0.00800000037997961],"max":[0.00800000037997961,0.17808888852596284,0.00800000037997961],"type":"VEC3","name":"ConstructionFloodlightBrace02Mesh_vertices#0_POSITION"},{"bufferView":0,"byteOffset":22476,"componentType":5120,"count":66,"type":"VEC4","name":"ConstructionFloodlightBrace02Mesh_vertices#0_TANGENT"},{"bufferView":0,"byteOffset":22480,"componentType":5120,"count":66,"type":"VEC4","name":"ConstructionFloodlightBrace02Mesh_vertices#0_NORMAL"},{"bufferView":0,"byteOffset":22484,"componentType":5122,"count":66,"type":"VEC2","name":"ConstructionFloodlightBrace02Mesh_vertices#0_TEXCOORD_0"},{"bufferView":0,"byteOffset":22488,"componentType":5122,"count":66,"type":"VEC2","name":"ConstructionFloodlightBrace02Mesh_vertices#0_TEXCOORD_1"},{"bufferView":0,"byteOffset":22492,"componentType":5123,"count":66,"type":"VEC4","name":"ConstructionFloodlightBrace02Mesh_vertices#0_COLOR_0"},{"bufferView":1,"byteOffset":4464,"componentType":5123,"count":180,"type":"SCALAR","name":"ConstructionFloodlightBrace02Mesh_indices#0"},{"bufferView":0,"byteOffset":24840,"componentType":5126,"count":66,"min":[-0.009999999776482582,-0.025000005960464479,-0.009999999776482582],"max":[0.009999999776482582,0.025000005960464479,0.009999999776482582],"type":"VEC3","name":"ConstructionFloodlightBraceJoint02Mesh_vertices#0_POSITION"},{"bufferView":0,"byteOffset":24852,"componentType":5120,"count":66,"type":"VEC4","name":"ConstructionFloodlightBraceJoint02Mesh_vertices#0_TANGENT"},{"bufferView":0,"byteOffset":24856,"componentType":5120,"count":66,"type":"VEC4","name":"ConstructionFloodlightBraceJoint02Mesh_vertices#0_NORMAL"},{"bufferView":0,"byteOffset":24860,"componentType":5122,"count":66,"type":"VEC2","name":"ConstructionFloodlightBraceJoint02Mesh_vertices#0_TEXCOORD_0"},{"bufferView":0,"byteOffset":24864,"componentType":5122,"count":66,"type":"VEC2","name":"ConstructionFloodlightBraceJoint02Mesh_vertices#0_TEXCOORD_1"},{"bufferView":0,"byteOffset":24868,"componentType":5123,"count":66,"type":"VEC4","name":"ConstructionFloodlightBraceJoint02Mesh_vertices#0_COLOR_0"},{"bufferView":1,"byteOffset":4824,"componentType":5123,"count":180,"type":"SCALAR","name":"ConstructionFloodlightBraceJoint02Mesh_indices#0"},{"bufferView":0,"byteOffset":27216,"componentType":5126,"count":164,"min":[-0.017999999225139619,-0.18738090991973878,-0.017999999225139619],"max":[0.017999999225139619,0.18738090991973878,0.017999999225139619],"type":"VEC3","name":"ConstructionFloodlightLeg03Mesh_vertices#0_POSITION"},{"bufferView":0,"byteOffset":27228,"componentType":5120,"count":164,"type":"VEC4","name":"ConstructionFloodlightLeg03Mesh_vertices#0_TANGENT"},{"bufferView":0,"byteOffset":27232,"componentType":5120,"count":164,"type":"VEC4","name":"ConstructionFloodlightLeg03Mesh_vertices#0_NORMAL"},{"bufferView":0,"byteOffset":27236,"componentType":5122,"count":164,"type":"VEC2","name":"ConstructionFloodlightLeg03Mesh_vertices#0_TEXCOORD_0"},{"bufferView":0,"byteOffset":27240,"componentType":5122,"count":164,"type":"VEC2","name":"ConstructionFloodlightLeg03Mesh_vertices#0_TEXCOORD_1"},{"bufferView":0,"byteOffset":27244,"componentType":5123,"count":164,"type":"VEC4","name":"ConstructionFloodlightLeg03Mesh_vertices#0_COLOR_0"},{"bufferView":1,"byteOffset":5184,"componentType":5123,"count":708,"type":"SCALAR","name":"ConstructionFloodlightLeg03Mesh_indices#0"},{"bufferView":0,"byteOffset":33120,"componentType":5126,"count":82,"min":[-0.02500000037252903,-0.02250000648200512,-0.02500000037252903],"max":[0.02500000037252903,0.02250000648200512,0.02500000037252903],"type":"VEC3","name":"ConstructionFloodlightFoot03Mesh_vertices#0_POSITION"},{"bufferView":0,"byteOffset":33132,"componentType":5120,"count":82,"type":"VEC4","name":"ConstructionFloodlightFoot03Mesh_vertices#0_TANGENT"},{"bufferView":0,"byteOffset":33136,"componentType":5120,"count":82,"type":"VEC4","name":"ConstructionFloodlightFoot03Mesh_vertices#0_NORMAL"},{"bufferView":0,"byteOffset":33140,"componentType":5122,"count":82,"type":"VEC2","name":"ConstructionFloodlightFoot03Mesh_vertices#0_TEXCOORD_0"},{"bufferView":0,"byteOffset":33144,"componentType":5122,"count":82,"type":"VEC2","name":"ConstructionFloodlightFoot03Mesh_vertices#0_TEXCOORD_1"},{"bufferView":0,"byteOffset":33148,"componentType":5123,"count":82,"type":"VEC4","name":"ConstructionFloodlightFoot03Mesh_vertices#0_COLOR_0"},{"bufferView":1,"byteOffset":6600,"componentType":5123,"count":228,"type":"SCALAR","name":"ConstructionFloodlightFoot03Mesh_indices#0"},{"bufferView":0,"byteOffset":36072,"componentType":5126,"count":66,"min":[-0.00800000037997961,-0.17150560021400453,-0.00800000037997961],"max":[0.00800000037997961,0.17150560021400453,0.00800000037997961],"type":"VEC3","name":"ConstructionFloodlightBrace03Mesh_vertices#0_POSITION"},{"bufferView":0,"byteOffset":36084,"componentType":5120,"count":66,"type":"VEC4","name":"ConstructionFloodlightBrace03Mesh_vertices#0_TANGENT"},{"bufferView":0,"byteOffset":36088,"componentType":5120,"count":66,"type":"VEC4","name":"ConstructionFloodlightBrace03Mesh_vertices#0_NORMAL"},{"bufferView":0,"byteOffset":36092,"componentType":5122,"count":66,"type":"VEC2","name":"ConstructionFloodlightBrace03Mesh_vertices#0_TEXCOORD_0"},{"bufferView":0,"byteOffset":36096,"componentType":5122,"count":66,"type":"VEC2","name":"ConstructionFloodlightBrace03Mesh_vertices#0_TEXCOORD_1"},{"bufferView":0,"byteOffset":36100,"componentType":5123,"count":66,"type":"VEC4","name":"ConstructionFloodlightBrace03Mesh_vertices#0_COLOR_0"},{"bufferView":1,"byteOffset":7056,"componentType":5123,"count":180,"type":"SCALAR","name":"ConstructionFloodlightBrace03Mesh_indices#0"},{"bufferView":0,"byteOffset":38448,"componentType":5126,"count":66,"min":[-0.009999999776482582,-0.02500000037252903,-0.009999999776482582],"max":[0.009999999776482582,0.02500000037252903,0.009999999776482582],"type":"VEC3","name":"ConstructionFloodlightBraceJoint03Mesh_vertices#0_POSITION"},{"bufferView":0,"byteOffset":38460,"componentType":5120,"count":66,"type":"VEC4","name":"ConstructionFloodlightBraceJoint03Mesh_vertices#0_TANGENT"},{"bufferView":0,"byteOffset":38464,"componentType":5120,"count":66,"type":"VEC4","name":"ConstructionFloodlightBraceJoint03Mesh_vertices#0_NORMAL"},{"bufferView":0,"byteOffset":38468,"componentType":5122,"count":66,"type":"VEC2","name":"ConstructionFloodlightBraceJoint03Mesh_vertices#0_TEXCOORD_0"},{"bufferView":0,"byteOffset":38472,"componentType":5122,"count":66,"type":"VEC2","name":"ConstructionFloodlightBraceJoint03Mesh_vertices#0_TEXCOORD_1"},{"bufferView":0,"byteOffset":38476,"componentType":5123,"count":66,"type":"VEC4","name":"ConstructionFloodlightBraceJoint03Mesh_vertices#0_COLOR_0"},{"bufferView":1,"byteOffset":7416,"componentType":5123,"count":180,"type":"SCALAR","name":"ConstructionFloodlightBraceJoint03Mesh_indices#0"},{"bufferView":0,"byteOffset":40824,"componentType":5126,"count":98,"min":[-0.020999999716877939,-0.4300000071525574,-0.020999999716877939],"max":[0.020999999716877939,0.4300000071525574,0.020999999716877939],"type":"VEC3","name":"ConstructionFloodlightLowerPoleMesh_vertices#0_POSITION"},{"bufferView":0,"byteOffset":40836,"componentType":5120,"count":98,"type":"VEC4","name":"ConstructionFloodlightLowerPoleMesh_vertices#0_TANGENT"},{"bufferView":0,"byteOffset":40840,"componentType":5120,"count":98,"type":"VEC4","name":"ConstructionFloodlightLowerPoleMesh_vertices#0_NORMAL"},{"bufferView":0,"byteOffset":40844,"componentType":5122,"count":98,"type":"VEC2","name":"ConstructionFloodlightLowerPoleMesh_vertices#0_TEXCOORD_0"},{"bufferView":0,"byteOffset":40848,"componentType":5122,"count":98,"type":"VEC2","name":"ConstructionFloodlightLowerPoleMesh_vertices#0_TEXCOORD_1"},{"bufferView":0,"byteOffset":40852,"componentType":5123,"count":98,"type":"VEC4","name":"ConstructionFloodlightLowerPoleMesh_vertices#0_COLOR_0"},{"bufferView":1,"byteOffset":7776,"componentType":5123,"count":276,"type":"SCALAR","name":"ConstructionFloodlightLowerPoleMesh_indices#0"},{"bufferView":0,"byteOffset":44352,"componentType":5126,"count":98,"min":[-0.017000000923871995,-0.21999996900558473,-0.017000000923871995],"max":[0.017000000923871995,0.21999996900558473,0.017000000923871995],"type":"VEC3","name":"ConstructionFloodlightMiddlePoleMesh_vertices#0_POSITION"},{"bufferView":0,"byteOffset":44364,"componentType":5120,"count":98,"type":"VEC4","name":"ConstructionFloodlightMiddlePoleMesh_vertices#0_TANGENT"},{"bufferView":0,"byteOffset":44368,"componentType":5120,"count":98,"type":"VEC4","name":"ConstructionFloodlightMiddlePoleMesh_vertices#0_NORMAL"},{"bufferView":0,"byteOffset":44372,"componentType":5122,"count":98,"type":"VEC2","name":"ConstructionFloodlightMiddlePoleMesh_vertices#0_TEXCOORD_0"},{"bufferView":0,"byteOffset":44376,"componentType":5122,"count":98,"type":"VEC2","name":"ConstructionFloodlightMiddlePoleMesh_vertices#0_TEXCOORD_1"},{"bufferView":0,"byteOffset":44380,"componentType":5123,"count":98,"type":"VEC4","name":"ConstructionFloodlightMiddlePoleMesh_vertices#0_COLOR_0"},{"bufferView":1,"byteOffset":8328,"componentType":5123,"count":276,"type":"SCALAR","name":"ConstructionFloodlightMiddlePoleMesh_indices#0"},{"bufferView":0,"byteOffset":47880,"componentType":5126,"count":98,"min":[-0.013000000268220902,-0.125,-0.013000000268220902],"max":[0.013000000268220902,0.125,0.013000000268220902],"type":"VEC3","name":"ConstructionFloodlightUpperPoleMesh_vertices#0_POSITION"},{"bufferView":0,"byteOffset":47892,"componentType":5120,"count":98,"type":"VEC4","name":"ConstructionFloodlightUpperPoleMesh_vertices#0_TANGENT"},{"bufferView":0,"byteOffset":47896,"componentType":5120,"count":98,"type":"VEC4","name":"ConstructionFloodlightUpperPoleMesh_vertices#0_NORMAL"},{"bufferView":0,"byteOffset":47900,"componentType":5122,"count":98,"type":"VEC2","name":"ConstructionFloodlightUpperPoleMesh_vertices#0_TEXCOORD_0"},{"bufferView":0,"byteOffset":47904,"componentType":5122,"count":98,"type":"VEC2","name":"ConstructionFloodlightUpperPoleMesh_vertices#0_TEXCOORD_1"},{"bufferView":0,"byteOffset":47908,"componentType":5123,"count":98,"type":"VEC4","name":"ConstructionFloodlightUpperPoleMesh_vertices#0_COLOR_0"},{"bufferView":1,"byteOffset":8880,"componentType":5123,"count":276,"type":"SCALAR","name":"ConstructionFloodlightUpperPoleMesh_indices#0"},{"bufferView":0,"byteOffset":51408,"componentType":5126,"count":98,"min":[-0.03099999949336052,-0.03999999910593033,-0.03099999949336052],"max":[0.03099999949336052,0.03999999910593033,0.03099999949336052],"type":"VEC3","name":"ConstructionFloodlightBaseCollarMesh_vertices#0_POSITION"},{"bufferView":0,"byteOffset":51420,"componentType":5120,"count":98,"type":"VEC4","name":"ConstructionFloodlightBaseCollarMesh_vertices#0_TANGENT"},{"bufferView":0,"byteOffset":51424,"componentType":5120,"count":98,"type":"VEC4","name":"ConstructionFloodlightBaseCollarMesh_vertices#0_NORMAL"},{"bufferView":0,"byteOffset":51428,"componentType":5122,"count":98,"type":"VEC2","name":"ConstructionFloodlightBaseCollarMesh_vertices#0_TEXCOORD_0"},{"bufferView":0,"byteOffset":51432,"componentType":5122,"count":98,"type":"VEC2","name":"ConstructionFloodlightBaseCollarMesh_vertices#0_TEXCOORD_1"},{"bufferView":0,"byteOffset":51436,"componentType":5123,"count":98,"type":"VEC4","name":"ConstructionFloodlightBaseCollarMesh_vertices#0_COLOR_0"},{"bufferView":1,"byteOffset":9432,"componentType":5123,"count":276,"type":"SCALAR","name":"ConstructionFloodlightBaseCollarMesh_indices#0"},{"bufferView":0,"byteOffset":54936,"componentType":5126,"count":98,"min":[-0.029999999329447748,-0.03999999165534973,-0.029999999329447748],"max":[0.029999999329447748,0.03999999165534973,0.029999999329447748],"type":"VEC3","name":"ConstructionFloodlightLowerClampMesh_vertices#0_POSITION"},{"bufferView":0,"byteOffset":54948,"componentType":5120,"count":98,"type":"VEC4","name":"ConstructionFloodlightLowerClampMesh_vertices#0_TANGENT"},{"bufferView":0,"byteOffset":54952,"componentType":5120,"count":98,"type":"VEC4","name":"ConstructionFloodlightLowerClampMesh_vertices#0_NORMAL"},{"bufferView":0,"byteOffset":54956,"componentType":5122,"count":98,"type":"VEC2","name":"ConstructionFloodlightLowerClampMesh_vertices#0_TEXCOORD_0"},{"bufferView":0,"byteOffset":54960,"componentType":5122,"count":98,"type":"VEC2","name":"ConstructionFloodlightLowerClampMesh_vertices#0_TEXCOORD_1"},{"bufferView":0,"byteOffset":54964,"componentType":5123,"count":98,"type":"VEC4","name":"ConstructionFloodlightLowerClampMesh_vertices#0_COLOR_0"},{"bufferView":1,"byteOffset":9984,"componentType":5123,"count":276,"type":"SCALAR","name":"ConstructionFloodlightLowerClampMesh_indices#0"},{"bufferView":0,"byteOffset":58464,"componentType":5126,"count":98,"min":[-0.026000000536441804,-0.039999961853027347,-0.026000000536441804],"max":[0.026000000536441804,0.039999961853027347,0.026000000536441804],"type":"VEC3","name":"ConstructionFloodlightUpperClampMesh_vertices#0_POSITION"},{"bufferView":0,"byteOffset":58476,"componentType":5120,"count":98,"type":"VEC4","name":"ConstructionFloodlightUpperClampMesh_vertices#0_TANGENT"},{"bufferView":0,"byteOffset":58480,"componentType":5120,"count":98,"type":"VEC4","name":"ConstructionFloodlightUpperClampMesh_vertices#0_NORMAL"},{"bufferView":0,"byteOffset":58484,"componentType":5122,"count":98,"type":"VEC2","name":"ConstructionFloodlightUpperClampMesh_vertices#0_TEXCOORD_0"},{"bufferView":0,"byteOffset":58488,"componentType":5122,"count":98,"type":"VEC2","name":"ConstructionFloodlightUpperClampMesh_vertices#0_TEXCOORD_1"},{"bufferView":0,"byteOffset":58492,"componentType":5123,"count":98,"type":"VEC4","name":"ConstructionFloodlightUpperClampMesh_vertices#0_COLOR_0"},{"bufferView":1,"byteOffset":10536,"componentType":5123,"count":276,"type":"SCALAR","name":"ConstructionFloodlightUpperClampMesh_indices#0"},{"bufferView":0,"byteOffset":61992,"componentType":5126,"count":98,"min":[-0.014999999664723874,-0.4300000071525574,-0.014999999664723874],"max":[0.014999999664723874,0.4300000071525574,0.014999999664723874],"type":"VEC3","name":"ConstructionFloodlightCrossbarMesh_vertices#0_POSITION"},{"bufferView":0,"byteOffset":62004,"componentType":5120,"count":98,"type":"VEC4","name":"ConstructionFloodlightCrossbarMesh_vertices#0_TANGENT"},{"bufferView":0,"byteOffset":62008,"componentType":5120,"count":98,"type":"VEC4","name":"ConstructionFloodlightCrossbarMesh_vertices#0_NORMAL"},{"bufferView":0,"byteOffset":62012,"componentType":5122,"count":98,"type":"VEC2","name":"ConstructionFloodlightCrossbarMesh_vertices#0_TEXCOORD_0"},{"bufferView":0,"byteOffset":62016,"componentType":5122,"count":98,"type":"VEC2","name":"ConstructionFloodlightCrossbarMesh_vertices#0_TEXCOORD_1"},{"bufferView":0,"byteOffset":62020,"componentType":5123,"count":98,"type":"VEC4","name":"ConstructionFloodlightCrossbarMesh_vertices#0_COLOR_0"},{"bufferView":1,"byteOffset":11088,"componentType":5123,"count":276,"type":"SCALAR","name":"ConstructionFloodlightCrossbarMesh_indices#0"},{"bufferView":0,"byteOffset":65520,"componentType":5126,"count":98,"min":[-0.02800000086426735,-0.0350000262260437,-0.02800000086426735],"max":[0.02800000086426735,0.0350000262260437,0.02800000086426735],"type":"VEC3","name":"ConstructionFloodlightCrossbarMountMesh_vertices#0_POSITION"},{"bufferView":0,"byteOffset":65532,"componentType":5120,"count":98,"type":"VEC4","name":"ConstructionFloodlightCrossbarMountMesh_vertices#0_TANGENT"},{"bufferView":0,"byteOffset":65536,"componentType":5120,"count":98,"type":"VEC4","name":"ConstructionFloodlightCrossbarMountMesh_vertices#0_NORMAL"},{"bufferView":0,"byteOffset":65540,"componentType":5122,"count":98,"type":"VEC2","name":"ConstructionFloodlightCrossbarMountMesh_vertices#0_TEXCOORD_0"},{"bufferView":0,"byteOffset":65544,"componentType":5122,"count":98,"type":"VEC2","name":"ConstructionFloodlightCrossbarMountMesh_vertices#0_TEXCOORD_1"},{"bufferView":0,"byteOffset":65548,"componentType":5123,"count":98,"type":"VEC4","name":"ConstructionFloodlightCrossbarMountMesh_vertices#0_COLOR_0"},{"bufferView":1,"byteOffset":11640,"componentType":5123,"count":276,"type":"SCALAR","name":"ConstructionFloodlightCrossbarMountMesh_indices#0"},{"bufferView":0,"byteOffset":69048,"componentType":5126,"count":216,"min":[-0.1340000033378601,-0.0949999988079071,-0.03999999910593033],"max":[0.1340000033378601,0.0949999988079071,0.03999999910593033],"type":"VEC3","name":"ConstructionFloodlightHousingLeftMesh_vertices#0_POSITION"},{"bufferView":0,"byteOffset":69060,"componentType":5120,"count":216,"type":"VEC4","name":"ConstructionFloodlightHousingLeftMesh_vertices#0_TANGENT"},{"bufferView":0,"byteOffset":69064,"componentType":5120,"count":216,"type":"VEC4","name":"ConstructionFloodlightHousingLeftMesh_vertices#0_NORMAL"},{"bufferView":0,"byteOffset":69068,"componentType":5122,"count":216,"type":"VEC2","name":"ConstructionFloodlightHousingLeftMesh_vertices#0_TEXCOORD_0"},{"bufferView":0,"byteOffset":69072,"componentType":5122,"count":216,"type":"VEC2","name":"ConstructionFloodlightHousingLeftMesh_vertices#0_TEXCOORD_1"},{"bufferView":0,"byteOffset":69076,"componentType":5123,"count":216,"type":"VEC4","name":"ConstructionFloodlightHousingLeftMesh_vertices#0_COLOR_0"},{"bufferView":1,"byteOffset":12192,"componentType":5123,"count":324,"type":"SCALAR","name":"ConstructionFloodlightHousingLeftMesh_indices#0"},{"bufferView":0,"byteOffset":76824,"componentType":5126,"count":224,"min":[-0.11100000143051148,-0.07100000232458115,-0.004000000189989805],"max":[0.11100000143051148,0.07100000232458115,0.004000000189989805],"type":"VEC3","name":"ConstructionFloodlightReflectorLeftMesh_vertices#0_POSITION"},{"bufferView":0,"byteOffset":76836,"componentType":5120,"count":224,"type":"VEC4","name":"ConstructionFloodlightReflectorLeftMesh_vertices#0_TANGENT"},{"bufferView":0,"byteOffset":76840,"componentType":5120,"count":224,"type":"VEC4","name":"ConstructionFloodlightReflectorLeftMesh_vertices#0_NORMAL"},{"bufferView":0,"byteOffset":76844,"componentType":5122,"count":224,"type":"VEC2","name":"ConstructionFloodlightReflectorLeftMesh_vertices#0_TEXCOORD_0"},{"bufferView":0,"byteOffset":76848,"componentType":5122,"count":224,"type":"VEC2","name":"ConstructionFloodlightReflectorLeftMesh_vertices#0_TEXCOORD_1"},{"bufferView":0,"byteOffset":76852,"componentType":5123,"count":224,"type":"VEC4","name":"ConstructionFloodlightReflectorLeftMesh_vertices#0_COLOR_0"},{"bufferView":1,"byteOffset":12840,"componentType":5123,"count":324,"type":"SCALAR","name":"ConstructionFloodlightReflectorLeftMesh_indices#0"},{"bufferView":0,"byteOffset":84888,"componentType":5126,"count":230,"min":[-0.11599999666213989,-0.07599999755620957,-0.0020000000949949028],"max":[0.11599999666213989,0.07599999755620957,0.0020000000949949028],"type":"VEC3","name":"ConstructionFloodlightGlassLeftMesh_vertices#0_POSITION"},{"bufferView":0,"byteOffset":84900,"componentType":5120,"count":230,"type":"VEC4","name":"ConstructionFloodlightGlassLeftMesh_vertices#0_TANGENT"},{"bufferView":0,"byteOffset":84904,"componentType":5120,"count":230,"type":"VEC4","name":"ConstructionFloodlightGlassLeftMesh_vertices#0_NORMAL"},{"bufferView":0,"byteOffset":84908,"componentType":5122,"count":230,"type":"VEC2","name":"ConstructionFloodlightGlassLeftMesh_vertices#0_TEXCOORD_0"},{"bufferView":0,"byteOffset":84912,"componentType":5122,"count":230,"type":"VEC2","name":"ConstructionFloodlightGlassLeftMesh_vertices#0_TEXCOORD_1"},{"bufferView":0,"byteOffset":84916,"componentType":5123,"count":230,"type":"VEC4","name":"ConstructionFloodlightGlassLeftMesh_vertices#0_COLOR_0"},{"bufferView":1,"byteOffset":13488,"componentType":5123,"count":324,"type":"SCALAR","name":"ConstructionFloodlightGlassLeftMesh_indices#0"},{"bufferView":0,"byteOffset":93168,"componentType":5126,"count":3888,"min":[-0.00800000037997961,-0.055000189691782,-0.001500000013038516],"max":[0.14800000190734864,0.004999999888241291,0.00150003912858665],"type":"VEC3","name":"ConstructionFloodlightEmissiveLeftMesh_vertices#0_POSITION"},{"bufferView":0,"byteOffset":93180,"componentType":5120,"count":3888,"type":"VEC4","name":"ConstructionFloodlightEmissiveLeftMesh_vertices#0_TANGENT"},{"bufferView":0,"byteOffset":93184,"componentType":5120,"count":3888,"type":"VEC4","name":"ConstructionFloodlightEmissiveLeftMesh_vertices#0_NORMAL"},{"bufferView":0,"byteOffset":93188,"componentType":5122,"count":3888,"type":"VEC2","name":"ConstructionFloodlightEmissiveLeftMesh_vertices#0_TEXCOORD_0"},{"bufferView":0,"byteOffset":93192,"componentType":5122,"count":3888,"type":"VEC2","name":"ConstructionFloodlightEmissiveLeftMesh_vertices#0_TEXCOORD_1"},{"bufferView":0,"byteOffset":93196,"componentType":5123,"count":3888,"type":"VEC4","name":"ConstructionFloodlightEmissiveLeftMesh_vertices#0_COLOR_0"},{"bufferView":1,"byteOffset":14136,"componentType":5123,"count":5832,"type":"SCALAR","name":"ConstructionFloodlightEmissiveLeftMesh_indices#0"},{"bufferView":0,"byteOffset":233136,"componentType":5126,"count":66,"min":[-0.00800000037997961,-0.04818892851471901,-0.00800000037997961],"max":[0.00800000037997961,0.04818892851471901,0.00800000037997961],"type":"VEC3","name":"ConstructionFloodlightBracketLeftLeftMesh_vertices#0_POSITION"},{"bufferView":0,"byteOffset":233148,"componentType":5120,"count":66,"type":"VEC4","name":"ConstructionFloodlightBracketLeftLeftMesh_vertices#0_TANGENT"},{"bufferView":0,"byteOffset":233152,"componentType":5120,"count":66,"type":"VEC4","name":"ConstructionFloodlightBracketLeftLeftMesh_vertices#0_NORMAL"},{"bufferView":0,"byteOffset":233156,"componentType":5122,"count":66,"type":"VEC2","name":"ConstructionFloodlightBracketLeftLeftMesh_vertices#0_TEXCOORD_0"},{"bufferView":0,"byteOffset":233160,"componentType":5122,"count":66,"type":"VEC2","name":"ConstructionFloodlightBracketLeftLeftMesh_vertices#0_TEXCOORD_1"},{"bufferView":0,"byteOffset":233164,"componentType":5123,"count":66,"type":"VEC4","name":"ConstructionFloodlightBracketLeftLeftMesh_vertices#0_COLOR_0"},{"bufferView":1,"byteOffset":25800,"componentType":5123,"count":180,"type":"SCALAR","name":"ConstructionFloodlightBracketLeftLeftMesh_indices#0"},{"bufferView":0,"byteOffset":235512,"componentType":5126,"count":66,"min":[-0.00800000037997961,-0.04818892851471901,-0.00800000037997961],"max":[0.00800000037997961,0.04818892851471901,0.00800000037997961],"type":"VEC3","name":"ConstructionFloodlightBracketRightLeftMesh_vertices#0_POSITION"},{"bufferView":0,"byteOffset":235524,"componentType":5120,"count":66,"type":"VEC4","name":"ConstructionFloodlightBracketRightLeftMesh_vertices#0_TANGENT"},{"bufferView":0,"byteOffset":235528,"componentType":5120,"count":66,"type":"VEC4","name":"ConstructionFloodlightBracketRightLeftMesh_vertices#0_NORMAL"},{"bufferView":0,"byteOffset":235532,"componentType":5122,"count":66,"type":"VEC2","name":"ConstructionFloodlightBracketRightLeftMesh_vertices#0_TEXCOORD_0"},{"bufferView":0,"byteOffset":235536,"componentType":5122,"count":66,"type":"VEC2","name":"ConstructionFloodlightBracketRightLeftMesh_vertices#0_TEXCOORD_1"},{"bufferView":0,"byteOffset":235540,"componentType":5123,"count":66,"type":"VEC4","name":"ConstructionFloodlightBracketRightLeftMesh_vertices#0_COLOR_0"},{"bufferView":1,"byteOffset":26160,"componentType":5123,"count":180,"type":"SCALAR","name":"ConstructionFloodlightBracketRightLeftMesh_indices#0"},{"bufferView":0,"byteOffset":237888,"componentType":5126,"count":66,"min":[-0.00800000037997961,-0.15399999916553498,-0.00800000037997961],"max":[0.00800000037997961,0.15399999916553498,0.00800000037997961],"type":"VEC3","name":"ConstructionFloodlightBracketBaseLeftMesh_vertices#0_POSITION"},{"bufferView":0,"byteOffset":237900,"componentType":5120,"count":66,"type":"VEC4","name":"ConstructionFloodlightBracketBaseLeftMesh_vertices#0_TANGENT"},{"bufferView":0,"byteOffset":237904,"componentType":5120,"count":66,"type":"VEC4","name":"ConstructionFloodlightBracketBaseLeftMesh_vertices#0_NORMAL"},{"bufferView":0,"byteOffset":237908,"componentType":5122,"count":66,"type":"VEC2","name":"ConstructionFloodlightBracketBaseLeftMesh_vertices#0_TEXCOORD_0"},{"bufferView":0,"byteOffset":237912,"componentType":5122,"count":66,"type":"VEC2","name":"ConstructionFloodlightBracketBaseLeftMesh_vertices#0_TEXCOORD_1"},{"bufferView":0,"byteOffset":237916,"componentType":5123,"count":66,"type":"VEC4","name":"ConstructionFloodlightBracketBaseLeftMesh_vertices#0_COLOR_0"},{"bufferView":1,"byteOffset":26520,"componentType":5123,"count":180,"type":"SCALAR","name":"ConstructionFloodlightBracketBaseLeftMesh_indices#0"},{"bufferView":0,"byteOffset":240264,"componentType":5126,"count":82,"min":[-0.012000000104308129,-0.04500000178813934,-0.012000000104308129],"max":[0.012000000104308129,0.04500000178813934,0.012000000104308129],"type":"VEC3","name":"ConstructionFloodlightTiltBoltLeftLeftMesh_vertices#0_POSITION"},{"bufferView":0,"byteOffset":240276,"componentType":5120,"count":82,"type":"VEC4","name":"ConstructionFloodlightTiltBoltLeftLeftMesh_vertices#0_TANGENT"},{"bufferView":0,"byteOffset":240280,"componentType":5120,"count":82,"type":"VEC4","name":"ConstructionFloodlightTiltBoltLeftLeftMesh_vertices#0_NORMAL"},{"bufferView":0,"byteOffset":240284,"componentType":5122,"count":82,"type":"VEC2","name":"ConstructionFloodlightTiltBoltLeftLeftMesh_vertices#0_TEXCOORD_0"},{"bufferView":0,"byteOffset":240288,"componentType":5122,"count":82,"type":"VEC2","name":"ConstructionFloodlightTiltBoltLeftLeftMesh_vertices#0_TEXCOORD_1"},{"bufferView":0,"byteOffset":240292,"componentType":5123,"count":82,"type":"VEC4","name":"ConstructionFloodlightTiltBoltLeftLeftMesh_vertices#0_COLOR_0"},{"bufferView":1,"byteOffset":26880,"componentType":5123,"count":228,"type":"SCALAR","name":"ConstructionFloodlightTiltBoltLeftLeftMesh_indices#0"},{"bufferView":0,"byteOffset":243216,"componentType":5126,"count":82,"min":[-0.012000000104308129,-0.04500000178813934,-0.012000000104308129],"max":[0.012000000104308129,0.04500000178813934,0.012000000104308129],"type":"VEC3","name":"ConstructionFloodlightTiltBoltRightLeftMesh_vertices#0_POSITION"},{"bufferView":0,"byteOffset":243228,"componentType":5120,"count":82,"type":"VEC4","name":"ConstructionFloodlightTiltBoltRightLeftMesh_vertices#0_TANGENT"},{"bufferView":0,"byteOffset":243232,"componentType":5120,"count":82,"type":"VEC4","name":"ConstructionFloodlightTiltBoltRightLeftMesh_vertices#0_NORMAL"},{"bufferView":0,"byteOffset":243236,"componentType":5122,"count":82,"type":"VEC2","name":"ConstructionFloodlightTiltBoltRightLeftMesh_vertices#0_TEXCOORD_0"},{"bufferView":0,"byteOffset":243240,"componentType":5122,"count":82,"type":"VEC2","name":"ConstructionFloodlightTiltBoltRightLeftMesh_vertices#0_TEXCOORD_1"},{"bufferView":0,"byteOffset":243244,"componentType":5123,"count":82,"type":"VEC4","name":"ConstructionFloodlightTiltBoltRightLeftMesh_vertices#0_COLOR_0"},{"bufferView":1,"byteOffset":27336,"componentType":5123,"count":228,"type":"SCALAR","name":"ConstructionFloodlightTiltBoltRightLeftMesh_indices#0"},{"bufferView":0,"byteOffset":246168,"componentType":5126,"count":216,"min":[-0.1340000033378601,-0.0949999988079071,-0.03999999910593033],"max":[0.1340000033378601,0.0949999988079071,0.03999999910593033],"type":"VEC3","name":"ConstructionFloodlightHousingRightMesh_vertices#0_POSITION"},{"bufferView":0,"byteOffset":246180,"componentType":5120,"count":216,"type":"VEC4","name":"ConstructionFloodlightHousingRightMesh_vertices#0_TANGENT"},{"bufferView":0,"byteOffset":246184,"componentType":5120,"count":216,"type":"VEC4","name":"ConstructionFloodlightHousingRightMesh_vertices#0_NORMAL"},{"bufferView":0,"byteOffset":246188,"componentType":5122,"count":216,"type":"VEC2","name":"ConstructionFloodlightHousingRightMesh_vertices#0_TEXCOORD_0"},{"bufferView":0,"byteOffset":246192,"componentType":5122,"count":216,"type":"VEC2","name":"ConstructionFloodlightHousingRightMesh_vertices#0_TEXCOORD_1"},{"bufferView":0,"byteOffset":246196,"componentType":5123,"count":216,"type":"VEC4","name":"ConstructionFloodlightHousingRightMesh_vertices#0_COLOR_0"},{"bufferView":1,"byteOffset":27792,"componentType":5123,"count":324,"type":"SCALAR","name":"ConstructionFloodlightHousingRightMesh_indices#0"},{"bufferView":0,"byteOffset":253944,"componentType":5126,"count":224,"min":[-0.11100000143051148,-0.07100000232458115,-0.004000000189989805],"max":[0.11100000143051148,0.07100000232458115,0.004000000189989805],"type":"VEC3","name":"ConstructionFloodlightReflectorRightMesh_vertices#0_POSITION"},{"bufferView":0,"byteOffset":253956,"componentType":5120,"count":224,"type":"VEC4","name":"ConstructionFloodlightReflectorRightMesh_vertices#0_TANGENT"},{"bufferView":0,"byteOffset":253960,"componentType":5120,"count":224,"type":"VEC4","name":"ConstructionFloodlightReflectorRightMesh_vertices#0_NORMAL"},{"bufferView":0,"byteOffset":253964,"componentType":5122,"count":224,"type":"VEC2","name":"ConstructionFloodlightReflectorRightMesh_vertices#0_TEXCOORD_0"},{"bufferView":0,"byteOffset":253968,"componentType":5122,"count":224,"type":"VEC2","name":"ConstructionFloodlightReflectorRightMesh_vertices#0_TEXCOORD_1"},{"bufferView":0,"byteOffset":253972,"componentType":5123,"count":224,"type":"VEC4","name":"ConstructionFloodlightReflectorRightMesh_vertices#0_COLOR_0"},{"bufferView":1,"byteOffset":28440,"componentType":5123,"count":324,"type":"SCALAR","name":"ConstructionFloodlightReflectorRightMesh_indices#0"},{"bufferView":0,"byteOffset":262008,"componentType":5126,"count":230,"min":[-0.11599999666213989,-0.07599999755620957,-0.0020000000949949028],"max":[0.11599999666213989,0.07599999755620957,0.0020000000949949028],"type":"VEC3","name":"ConstructionFloodlightGlassRightMesh_vertices#0_POSITION"},{"bufferView":0,"byteOffset":262020,"componentType":5120,"count":230,"type":"VEC4","name":"ConstructionFloodlightGlassRightMesh_vertices#0_TANGENT"},{"bufferView":0,"byteOffset":262024,"componentType":5120,"count":230,"type":"VEC4","name":"ConstructionFloodlightGlassRightMesh_vertices#0_NORMAL"},{"bufferView":0,"byteOffset":262028,"componentType":5122,"count":230,"type":"VEC2","name":"ConstructionFloodlightGlassRightMesh_vertices#0_TEXCOORD_0"},{"bufferView":0,"byteOffset":262032,"componentType":5122,"count":230,"type":"VEC2","name":"ConstructionFloodlightGlassRightMesh_vertices#0_TEXCOORD_1"},{"bufferView":0,"byteOffset":262036,"componentType":5123,"count":230,"type":"VEC4","name":"ConstructionFloodlightGlassRightMesh_vertices#0_COLOR_0"},{"bufferView":1,"byteOffset":29088,"componentType":5123,"count":324,"type":"SCALAR","name":"ConstructionFloodlightGlassRightMesh_indices#0"},{"bufferView":0,"byteOffset":270288,"componentType":5126,"count":3888,"min":[-0.00800000037997961,-0.055000189691782,-0.001500000013038516],"max":[0.14800000190734864,0.004999999888241291,0.00150003912858665],"type":"VEC3","name":"ConstructionFloodlightEmissiveRightMesh_vertices#0_POSITION"},{"bufferView":0,"byteOffset":270300,"componentType":5120,"count":3888,"type":"VEC4","name":"ConstructionFloodlightEmissiveRightMesh_vertices#0_TANGENT"},{"bufferView":0,"byteOffset":270304,"componentType":5120,"count":3888,"type":"VEC4","name":"ConstructionFloodlightEmissiveRightMesh_vertices#0_NORMAL"},{"bufferView":0,"byteOffset":270308,"componentType":5122,"count":3888,"type":"VEC2","name":"ConstructionFloodlightEmissiveRightMesh_vertices#0_TEXCOORD_0"},{"bufferView":0,"byteOffset":270312,"componentType":5122,"count":3888,"type":"VEC2","name":"ConstructionFloodlightEmissiveRightMesh_vertices#0_TEXCOORD_1"},{"bufferView":0,"byteOffset":270316,"componentType":5123,"count":3888,"type":"VEC4","name":"ConstructionFloodlightEmissiveRightMesh_vertices#0_COLOR_0"},{"bufferView":1,"byteOffset":29736,"componentType":5123,"count":5832,"type":"SCALAR","name":"ConstructionFloodlightEmissiveRightMesh_indices#0"},{"bufferView":0,"byteOffset":410256,"componentType":5126,"count":66,"min":[-0.00800000037997961,-0.04818892851471901,-0.00800000037997961],"max":[0.00800000037997961,0.04818892851471901,0.00800000037997961],"type":"VEC3","name":"ConstructionFloodlightBracketLeftRightMesh_vertices#0_POSITION"},{"bufferView":0,"byteOffset":410268,"componentType":5120,"count":66,"type":"VEC4","name":"ConstructionFloodlightBracketLeftRightMesh_vertices#0_TANGENT"},{"bufferView":0,"byteOffset":410272,"componentType":5120,"count":66,"type":"VEC4","name":"ConstructionFloodlightBracketLeftRightMesh_vertices#0_NORMAL"},{"bufferView":0,"byteOffset":410276,"componentType":5122,"count":66,"type":"VEC2","name":"ConstructionFloodlightBracketLeftRightMesh_vertices#0_TEXCOORD_0"},{"bufferView":0,"byteOffset":410280,"componentType":5122,"count":66,"type":"VEC2","name":"ConstructionFloodlightBracketLeftRightMesh_vertices#0_TEXCOORD_1"},{"bufferView":0,"byteOffset":410284,"componentType":5123,"count":66,"type":"VEC4","name":"ConstructionFloodlightBracketLeftRightMesh_vertices#0_COLOR_0"},{"bufferView":1,"byteOffset":41400,"componentType":5123,"count":180,"type":"SCALAR","name":"ConstructionFloodlightBracketLeftRightMesh_indices#0"},{"bufferView":0,"byteOffset":412632,"componentType":5126,"count":66,"min":[-0.00800000037997961,-0.04818892851471901,-0.00800000037997961],"max":[0.00800000037997961,0.04818892851471901,0.00800000037997961],"type":"VEC3","name":"ConstructionFloodlightBracketRightRightMesh_vertices#0_POSITION"},{"bufferView":0,"byteOffset":412644,"componentType":5120,"count":66,"type":"VEC4","name":"ConstructionFloodlightBracketRightRightMesh_vertices#0_TANGENT"},{"bufferView":0,"byteOffset":412648,"componentType":5120,"count":66,"type":"VEC4","name":"ConstructionFloodlightBracketRightRightMesh_vertices#0_NORMAL"},{"bufferView":0,"byteOffset":412652,"componentType":5122,"count":66,"type":"VEC2","name":"ConstructionFloodlightBracketRightRightMesh_vertices#0_TEXCOORD_0"},{"bufferView":0,"byteOffset":412656,"componentType":5122,"count":66,"type":"VEC2","name":"ConstructionFloodlightBracketRightRightMesh_vertices#0_TEXCOORD_1"},{"bufferView":0,"byteOffset":412660,"componentType":5123,"count":66,"type":"VEC4","name":"ConstructionFloodlightBracketRightRightMesh_vertices#0_COLOR_0"},{"bufferView":1,"byteOffset":41760,"componentType":5123,"count":180,"type":"SCALAR","name":"ConstructionFloodlightBracketRightRightMesh_indices#0"},{"bufferView":0,"byteOffset":415008,"componentType":5126,"count":66,"min":[-0.00800000037997961,-0.15399999916553498,-0.00800000037997961],"max":[0.00800000037997961,0.15399999916553498,0.00800000037997961],"type":"VEC3","name":"ConstructionFloodlightBracketBaseRightMesh_vertices#0_POSITION"},{"bufferView":0,"byteOffset":415020,"componentType":5120,"count":66,"type":"VEC4","name":"ConstructionFloodlightBracketBaseRightMesh_vertices#0_TANGENT"},{"bufferView":0,"byteOffset":415024,"componentType":5120,"count":66,"type":"VEC4","name":"ConstructionFloodlightBracketBaseRightMesh_vertices#0_NORMAL"},{"bufferView":0,"byteOffset":415028,"componentType":5122,"count":66,"type":"VEC2","name":"ConstructionFloodlightBracketBaseRightMesh_vertices#0_TEXCOORD_0"},{"bufferView":0,"byteOffset":415032,"componentType":5122,"count":66,"type":"VEC2","name":"ConstructionFloodlightBracketBaseRightMesh_vertices#0_TEXCOORD_1"},{"bufferView":0,"byteOffset":415036,"componentType":5123,"count":66,"type":"VEC4","name":"ConstructionFloodlightBracketBaseRightMesh_vertices#0_COLOR_0"},{"bufferView":1,"byteOffset":42120,"componentType":5123,"count":180,"type":"SCALAR","name":"ConstructionFloodlightBracketBaseRightMesh_indices#0"},{"bufferView":0,"byteOffset":417384,"componentType":5126,"count":82,"min":[-0.012000000104308129,-0.04500000178813934,-0.012000000104308129],"max":[0.012000000104308129,0.04500000178813934,0.012000000104308129],"type":"VEC3","name":"ConstructionFloodlightTiltBoltLeftRightMesh_vertices#0_POSITION"},{"bufferView":0,"byteOffset":417396,"componentType":5120,"count":82,"type":"VEC4","name":"ConstructionFloodlightTiltBoltLeftRightMesh_vertices#0_TANGENT"},{"bufferView":0,"byteOffset":417400,"componentType":5120,"count":82,"type":"VEC4","name":"ConstructionFloodlightTiltBoltLeftRightMesh_vertices#0_NORMAL"},{"bufferView":0,"byteOffset":417404,"componentType":5122,"count":82,"type":"VEC2","name":"ConstructionFloodlightTiltBoltLeftRightMesh_vertices#0_TEXCOORD_0"},{"bufferView":0,"byteOffset":417408,"componentType":5122,"count":82,"type":"VEC2","name":"ConstructionFloodlightTiltBoltLeftRightMesh_vertices#0_TEXCOORD_1"},{"bufferView":0,"byteOffset":417412,"componentType":5123,"count":82,"type":"VEC4","name":"ConstructionFloodlightTiltBoltLeftRightMesh_vertices#0_COLOR_0"},{"bufferView":1,"byteOffset":42480,"componentType":5123,"count":228,"type":"SCALAR","name":"ConstructionFloodlightTiltBoltLeftRightMesh_indices#0"},{"bufferView":0,"byteOffset":420336,"componentType":5126,"count":82,"min":[-0.012000000104308129,-0.04500000178813934,-0.012000000104308129],"max":[0.012000000104308129,0.04500000178813934,0.012000000104308129],"type":"VEC3","name":"ConstructionFloodlightTiltBoltRightRightMesh_vertices#0_POSITION"},{"bufferView":0,"byteOffset":420348,"componentType":5120,"count":82,"type":"VEC4","name":"ConstructionFloodlightTiltBoltRightRightMesh_vertices#0_TANGENT"},{"bufferView":0,"byteOffset":420352,"componentType":5120,"count":82,"type":"VEC4","name":"ConstructionFloodlightTiltBoltRightRightMesh_vertices#0_NORMAL"},{"bufferView":0,"byteOffset":420356,"componentType":5122,"count":82,"type":"VEC2","name":"ConstructionFloodlightTiltBoltRightRightMesh_vertices#0_TEXCOORD_0"},{"bufferView":0,"byteOffset":420360,"componentType":5122,"count":82,"type":"VEC2","name":"ConstructionFloodlightTiltBoltRightRightMesh_vertices#0_TEXCOORD_1"},{"bufferView":0,"byteOffset":420364,"componentType":5123,"count":82,"type":"VEC4","name":"ConstructionFloodlightTiltBoltRightRightMesh_vertices#0_COLOR_0"},{"bufferView":1,"byteOffset":42936,"componentType":5123,"count":228,"type":"SCALAR","name":"ConstructionFloodlightTiltBoltRightRightMesh_indices#0"},{"bufferView":0,"byteOffset":423288,"componentType":5126,"count":63,"min":[-0.20982688665390016,1.3857274055480958,-0.08495534956455231],"max":[0.0026679132133722307,1.551828145980835,-0.035175666213035586],"type":"VEC3","name":"ConstructionFloodlightPowerCableLeftCurve_vertices#0_POSITION"},{"bufferView":0,"byteOffset":423300,"componentType":5120,"count":63,"type":"VEC4","name":"ConstructionFloodlightPowerCableLeftCurve_vertices#0_TANGENT"},{"bufferView":0,"byteOffset":423304,"componentType":5120,"count":63,"type":"VEC4","name":"ConstructionFloodlightPowerCableLeftCurve_vertices#0_NORMAL"},{"bufferView":0,"byteOffset":423308,"componentType":5122,"count":63,"type":"VEC2","name":"ConstructionFloodlightPowerCableLeftCurve_vertices#0_TEXCOORD_0"},{"bufferView":0,"byteOffset":423312,"componentType":5122,"count":63,"type":"VEC2","name":"ConstructionFloodlightPowerCableLeftCurve_vertices#0_TEXCOORD_1"},{"bufferView":0,"byteOffset":423316,"componentType":5123,"count":63,"type":"VEC4","name":"ConstructionFloodlightPowerCableLeftCurve_vertices#0_COLOR_0"},{"bufferView":1,"byteOffset":43392,"componentType":5123,"count":288,"type":"SCALAR","name":"ConstructionFloodlightPowerCableLeftCurve_indices#0"},{"bufferView":0,"byteOffset":425556,"componentType":5126,"count":63,"min":[-0.002667913679033518,1.3857274055480958,-0.08495534956455231],"max":[0.20982688665390016,1.551828145980835,-0.035175666213035586],"type":"VEC3","name":"ConstructionFloodlightPowerCableRightCurve_vertices#0_POSITION"},{"bufferView":0,"byteOffset":425568,"componentType":5120,"count":63,"type":"VEC4","name":"ConstructionFloodlightPowerCableRightCurve_vertices#0_TANGENT"},{"bufferView":0,"byteOffset":425572,"componentType":5120,"count":63,"type":"VEC4","name":"ConstructionFloodlightPowerCableRightCurve_vertices#0_NORMAL"},{"bufferView":0,"byteOffset":425576,"componentType":5122,"count":63,"type":"VEC2","name":"ConstructionFloodlightPowerCableRightCurve_vertices#0_TEXCOORD_0"},{"bufferView":0,"byteOffset":425580,"componentType":5122,"count":63,"type":"VEC2","name":"ConstructionFloodlightPowerCableRightCurve_vertices#0_TEXCOORD_1"},{"bufferView":0,"byteOffset":425584,"componentType":5123,"count":63,"type":"VEC4","name":"ConstructionFloodlightPowerCableRightCurve_vertices#0_COLOR_0"},{"bufferView":1,"byteOffset":43968,"componentType":5123,"count":288,"type":"SCALAR","name":"ConstructionFloodlightPowerCableRightCurve_indices#0"},{"bufferView":0,"byteOffset":427824,"componentType":5126,"count":81,"min":[-0.005950666964054108,0.049828317016363147,-0.04660356417298317],"max":[0.3041715621948242,1.3907678127288819,0.14478600025177003],"type":"VEC3","name":"ConstructionFloodlightSupplyCableCurve_vertices#0_POSITION"},{"bufferView":0,"byteOffset":427836,"componentType":5120,"count":81,"type":"VEC4","name":"ConstructionFloodlightSupplyCableCurve_vertices#0_TANGENT"},{"bufferView":0,"byteOffset":427840,"componentType":5120,"count":81,"type":"VEC4","name":"ConstructionFloodlightSupplyCableCurve_vertices#0_NORMAL"},{"bufferView":0,"byteOffset":427844,"componentType":5122,"count":81,"type":"VEC2","name":"ConstructionFloodlightSupplyCableCurve_vertices#0_TEXCOORD_0"},{"bufferView":0,"byteOffset":427848,"componentType":5122,"count":81,"type":"VEC2","name":"ConstructionFloodlightSupplyCableCurve_vertices#0_TEXCOORD_1"},{"bufferView":0,"byteOffset":427852,"componentType":5123,"count":81,"type":"VEC4","name":"ConstructionFloodlightSupplyCableCurve_vertices#0_COLOR_0"},{"bufferView":1,"byteOffset":44544,"componentType":5123,"count":384,"type":"SCALAR","name":"ConstructionFloodlightSupplyCableCurve_indices#0"},{"bufferView":0,"byteOffset":430740,"componentType":5126,"count":216,"min":[-0.032499998807907107,-0.01600000075995922,-0.017500000074505807],"max":[0.032499998807907107,0.01600000075995922,0.017500000074505807],"type":"VEC3","name":"ConstructionFloodlightPlugMesh_vertices#0_POSITION"},{"bufferView":0,"byteOffset":430752,"componentType":5120,"count":216,"type":"VEC4","name":"ConstructionFloodlightPlugMesh_vertices#0_TANGENT"},{"bufferView":0,"byteOffset":430756,"componentType":5120,"count":216,"type":"VEC4","name":"ConstructionFloodlightPlugMesh_vertices#0_NORMAL"},{"bufferView":0,"byteOffset":430760,"componentType":5122,"count":216,"type":"VEC2","name":"ConstructionFloodlightPlugMesh_vertices#0_TEXCOORD_0"},{"bufferView":0,"byteOffset":430764,"componentType":5122,"count":216,"type":"VEC2","name":"ConstructionFloodlightPlugMesh_vertices#0_TEXCOORD_1"},{"bufferView":0,"byteOffset":430768,"componentType":5123,"count":216,"type":"VEC4","name":"ConstructionFloodlightPlugMesh_vertices#0_COLOR_0"},{"bufferView":1,"byteOffset":45312,"componentType":5123,"count":324,"type":"SCALAR","name":"ConstructionFloodlightPlugMesh_indices#0"}],"asset":{"generator":"VFR Multitool construction-floodlight raw glTF exporter","version":"2.0","extensions":{"ASOBO_asset_optimized":{"BoundingBoxMax":[0.4300000071525574,1.6726715564727784,0.4153601825237274],"BoundingBoxMin":[-0.4300000071525574,0.0005024198908358812,-0.15880602598190309],"MajorVersion":4,"MinorVersion":7,"UseCheckerboardMaterialForMissingTextures":true,"UseOnlyFilenameForImageURI":true}}},"bufferViews":[{"buffer":0,"byteLength":438516,"byteStride":36,"target":34962,"name":"BufferViewVertexND"},{"buffer":0,"byteLength":45960,"byteOffset":438516,"target":34963,"name":"BufferViewIndexU16"}],"materials":[{"name":"ConstructionFloodlightYellowMetal","doubleSided":true,"pbrMetallicRoughness":{"baseColorFactor":[0.959999978542328,0.550000011920929,0.014999999664723872,1.0],"metallicFactor":0.7200000286102295,"roughnessFactor":0.2199999988079071}},{"name":"ConstructionFloodlightRubber","doubleSided":true,"pbrMetallicRoughness":{"baseColorFactor":[0.012000000104308129,0.014000000432133677,0.014999999664723872,1.0],"metallicFactor":0.0,"roughnessFactor":0.7200000286102295}},{"name":"ConstructionFloodlightBlackHousing","doubleSided":true,"pbrMetallicRoughness":{"baseColorFactor":[0.017999999225139619,0.02199999988079071,0.02500000037252903,1.0],"metallicFactor":0.5799999833106995,"roughnessFactor":0.23999999463558198}},{"name":"ConstructionFloodlightReflector","doubleSided":true,"pbrMetallicRoughness":{"baseColorFactor":[0.7799999713897705,0.8199999928474426,0.8399999737739563,1.0],"metallicFactor":0.699999988079071,"roughnessFactor":0.15000000596046449}},{"name":"ConstructionFloodlightClearGlass","alphaMode":"BLEND","doubleSided":true,"pbrMetallicRoughness":{"baseColorFactor":[0.8199999928474426,0.9200000166893004,1.0,0.24],"metallicFactor":0.0,"roughnessFactor":0.05000000074505806}},{"name":"ConstructionFloodlightLED","doubleSided":true,"emissiveFactor":[0.8199999928474426,0.9100000262260437,1.0],"pbrMetallicRoughness":{"baseColorFactor":[0.8500000238418579,0.7300000190734863,0.2800000011920929,1.0],"metallicFactor":0.05000000074505806,"roughnessFactor":0.25999999046325686}}],"meshes":[{"primitives":[{"attributes":{"COLOR_0":5,"NORMAL":2,"POSITION":0,"TANGENT":1,"TEXCOORD_0":3,"TEXCOORD_1":4},"indices":6,"material":0,"mode":4,"extras":{"ASOBO_primitive":{"PrimitiveCount":236,"UV2Length":0.7035461068153381,"UVLength":0.7035461068153381,"VertexCount":164,"VertexType":"VTX","VertexVersion":2}}}],"name":"ConstructionFloodlightLeg01Mesh"},{"primitives":[{"attributes":{"COLOR_0":12,"NORMAL":9,"POSITION":7,"TANGENT":8,"TEXCOORD_0":10,"TEXCOORD_1":11},"indices":13,"material":1,"mode":4,"extras":{"ASOBO_primitive":{"PrimitiveCount":76,"UV2Length":0.7035802006721497,"UVLength":0.7035802006721497,"VertexCount":82,"VertexType":"VTX","VertexVersion":2}}}],"name":"ConstructionFloodlightFoot01Mesh"},{"primitives":[{"attributes":{"COLOR_0":19,"NORMAL":16,"POSITION":14,"TANGENT":15,"TEXCOORD_0":17,"TEXCOORD_1":18},"indices":20,"material":0,"mode":4,"extras":{"ASOBO_primitive":{"PrimitiveCount":60,"UV2Length":0.7035801410675049,"UVLength":0.7035801410675049,"VertexCount":66,"VertexType":"VTX","VertexVersion":2}}}],"name":"ConstructionFloodlightBrace01Mesh"},{"primitives":[{"attributes":{"COLOR_0":26,"NORMAL":23,"POSITION":21,"TANGENT":22,"TEXCOORD_0":24,"TEXCOORD_1":25},"indices":27,"material":2,"mode":4,"extras":{"ASOBO_primitive":{"PrimitiveCount":60,"UV2Length":0.7035801410675049,"UVLength":0.7035801410675049,"VertexCount":66,"VertexType":"VTX","VertexVersion":2}}}],"name":"ConstructionFloodlightBraceJoint01Mesh"},{"primitives":[{"attributes":{"COLOR_0":33,"NORMAL":30,"POSITION":28,"TANGENT":29,"TEXCOORD_0":31,"TEXCOORD_1":32},"indices":34,"material":0,"mode":4,"extras":{"ASOBO_primitive":{"PrimitiveCount":236,"UV2Length":0.7035461068153381,"UVLength":0.7035461068153381,"VertexCount":164,"VertexType":"VTX","VertexVersion":2}}}],"name":"ConstructionFloodlightLeg02Mesh"},{"primitives":[{"attributes":{"COLOR_0":40,"NORMAL":37,"POSITION":35,"TANGENT":36,"TEXCOORD_0":38,"TEXCOORD_1":39},"indices":41,"material":1,"mode":4,"extras":{"ASOBO_primitive":{"PrimitiveCount":76,"UV2Length":0.7035802006721497,"UVLength":0.7035802006721497,"VertexCount":82,"VertexType":"VTX","VertexVersion":2}}}],"name":"ConstructionFloodlightFoot02Mesh"},{"primitives":[{"attributes":{"COLOR_0":47,"NORMAL":44,"POSITION":42,"TANGENT":43,"TEXCOORD_0":45,"TEXCOORD_1":46},"indices":48,"material":0,"mode":4,"extras":{"ASOBO_primitive":{"PrimitiveCount":60,"UV2Length":0.7035801410675049,"UVLength":0.7035801410675049,"VertexCount":66,"VertexType":"VTX","VertexVersion":2}}}],"name":"ConstructionFloodlightBrace02Mesh"},{"primitives":[{"attributes":{"COLOR_0":54,"NORMAL":51,"POSITION":49,"TANGENT":50,"TEXCOORD_0":52,"TEXCOORD_1":53},"indices":55,"material":2,"mode":4,"extras":{"ASOBO_primitive":{"PrimitiveCount":60,"UV2Length":0.7035801410675049,"UVLength":0.7035801410675049,"VertexCount":66,"VertexType":"VTX","VertexVersion":2}}}],"name":"ConstructionFloodlightBraceJoint02Mesh"},{"primitives":[{"attributes":{"COLOR_0":61,"NORMAL":58,"POSITION":56,"TANGENT":57,"TEXCOORD_0":59,"TEXCOORD_1":60},"indices":62,"material":0,"mode":4,"extras":{"ASOBO_primitive":{"PrimitiveCount":236,"UV2Length":0.7035461068153381,"UVLength":0.7035461068153381,"VertexCount":164,"VertexType":"VTX","VertexVersion":2}}}],"name":"ConstructionFloodlightLeg03Mesh"},{"primitives":[{"attributes":{"COLOR_0":68,"NORMAL":65,"POSITION":63,"TANGENT":64,"TEXCOORD_0":66,"TEXCOORD_1":67},"indices":69,"material":1,"mode":4,"extras":{"ASOBO_primitive":{"PrimitiveCount":76,"UV2Length":0.7035802006721497,"UVLength":0.7035802006721497,"VertexCount":82,"VertexType":"VTX","VertexVersion":2}}}],"name":"ConstructionFloodlightFoot03Mesh"},{"primitives":[{"attributes":{"COLOR_0":75,"NORMAL":72,"POSITION":70,"TANGENT":71,"TEXCOORD_0":73,"TEXCOORD_1":74},"indices":76,"material":0,"mode":4,"extras":{"ASOBO_primitive":{"PrimitiveCount":60,"UV2Length":0.7035801410675049,"UVLength":0.7035801410675049,"VertexCount":66,"VertexType":"VTX","VertexVersion":2}}}],"name":"ConstructionFloodlightBrace03Mesh"},{"primitives":[{"attributes":{"COLOR_0":82,"NORMAL":79,"POSITION":77,"TANGENT":78,"TEXCOORD_0":80,"TEXCOORD_1":81},"indices":83,"material":2,"mode":4,"extras":{"ASOBO_primitive":{"PrimitiveCount":60,"UV2Length":0.7035801410675049,"UVLength":0.7035801410675049,"VertexCount":66,"VertexType":"VTX","VertexVersion":2}}}],"name":"ConstructionFloodlightBraceJoint03Mesh"},{"primitives":[{"attributes":{"COLOR_0":89,"NORMAL":86,"POSITION":84,"TANGENT":85,"TEXCOORD_0":87,"TEXCOORD_1":88},"indices":90,"material":0,"mode":4,"extras":{"ASOBO_primitive":{"PrimitiveCount":92,"UV2Length":0.7035802006721497,"UVLength":0.7035802006721497,"VertexCount":98,"VertexType":"VTX","VertexVersion":2}}}],"name":"ConstructionFloodlightLowerPoleMesh"},{"primitives":[{"attributes":{"COLOR_0":96,"NORMAL":93,"POSITION":91,"TANGENT":92,"TEXCOORD_0":94,"TEXCOORD_1":95},"indices":97,"material":0,"mode":4,"extras":{"ASOBO_primitive":{"PrimitiveCount":92,"UV2Length":0.7035802006721497,"UVLength":0.7035802006721497,"VertexCount":98,"VertexType":"VTX","VertexVersion":2}}}],"name":"ConstructionFloodlightMiddlePoleMesh"},{"primitives":[{"attributes":{"COLOR_0":103,"NORMAL":100,"POSITION":98,"TANGENT":99,"TEXCOORD_0":101,"TEXCOORD_1":102},"indices":104,"material":0,"mode":4,"extras":{"ASOBO_primitive":{"PrimitiveCount":92,"UV2Length":0.7035802006721497,"UVLength":0.7035802006721497,"VertexCount":98,"VertexType":"VTX","VertexVersion":2}}}],"name":"ConstructionFloodlightUpperPoleMesh"},{"primitives":[{"attributes":{"COLOR_0":110,"NORMAL":107,"POSITION":105,"TANGENT":106,"TEXCOORD_0":108,"TEXCOORD_1":109},"indices":111,"material":2,"mode":4,"extras":{"ASOBO_primitive":{"PrimitiveCount":92,"UV2Length":0.7035802006721497,"UVLength":0.7035802006721497,"VertexCount":98,"VertexType":"VTX","VertexVersion":2}}}],"name":"ConstructionFloodlightBaseCollarMesh"},{"primitives":[{"attributes":{"COLOR_0":117,"NORMAL":114,"POSITION":112,"TANGENT":113,"TEXCOORD_0":115,"TEXCOORD_1":116},"indices":118,"material":2,"mode":4,"extras":{"ASOBO_primitive":{"PrimitiveCount":92,"UV2Length":0.7035802006721497,"UVLength":0.7035802006721497,"VertexCount":98,"VertexType":"VTX","VertexVersion":2}}}],"name":"ConstructionFloodlightLowerClampMesh"},{"primitives":[{"attributes":{"COLOR_0":124,"NORMAL":121,"POSITION":119,"TANGENT":120,"TEXCOORD_0":122,"TEXCOORD_1":123},"indices":125,"material":2,"mode":4,"extras":{"ASOBO_primitive":{"PrimitiveCount":92,"UV2Length":0.7035802006721497,"UVLength":0.7035802006721497,"VertexCount":98,"VertexType":"VTX","VertexVersion":2}}}],"name":"ConstructionFloodlightUpperClampMesh"},{"primitives":[{"attributes":{"COLOR_0":131,"NORMAL":128,"POSITION":126,"TANGENT":127,"TEXCOORD_0":129,"TEXCOORD_1":130},"indices":132,"material":0,"mode":4,"extras":{"ASOBO_primitive":{"PrimitiveCount":92,"UV2Length":0.7035802006721497,"UVLength":0.7035802006721497,"VertexCount":98,"VertexType":"VTX","VertexVersion":2}}}],"name":"ConstructionFloodlightCrossbarMesh"},{"primitives":[{"attributes":{"COLOR_0":138,"NORMAL":135,"POSITION":133,"TANGENT":134,"TEXCOORD_0":136,"TEXCOORD_1":137},"indices":139,"material":2,"mode":4,"extras":{"ASOBO_primitive":{"PrimitiveCount":92,"UV2Length":0.7035802006721497,"UVLength":0.7035802006721497,"VertexCount":98,"VertexType":"VTX","VertexVersion":2}}}],"name":"ConstructionFloodlightCrossbarMountMesh"},{"primitives":[{"attributes":{"COLOR_0":145,"NORMAL":142,"POSITION":140,"TANGENT":141,"TEXCOORD_0":143,"TEXCOORD_1":144},"indices":146,"material":2,"mode":4,"extras":{"ASOBO_primitive":{"PrimitiveCount":108,"UV2Length":0.625,"UVLength":0.625,"VertexCount":216,"VertexType":"VTX","VertexVersion":2}}}],"name":"ConstructionFloodlightHousingLeftMesh"},{"primitives":[{"attributes":{"COLOR_0":152,"NORMAL":149,"POSITION":147,"TANGENT":148,"TEXCOORD_0":150,"TEXCOORD_1":151},"indices":153,"material":3,"mode":4,"extras":{"ASOBO_primitive":{"PrimitiveCount":108,"UV2Length":0.625,"UVLength":0.625,"VertexCount":224,"VertexType":"VTX","VertexVersion":2}}}],"name":"ConstructionFloodlightReflectorLeftMesh"},{"primitives":[{"attributes":{"COLOR_0":159,"NORMAL":156,"POSITION":154,"TANGENT":155,"TEXCOORD_0":157,"TEXCOORD_1":158},"indices":160,"material":4,"mode":4,"extras":{"ASOBO_primitive":{"PrimitiveCount":108,"UV2Length":0.625,"UVLength":0.625,"VertexCount":230,"VertexType":"VTX","VertexVersion":2}}}],"name":"ConstructionFloodlightGlassLeftMesh"},{"primitives":[{"attributes":{"COLOR_0":166,"NORMAL":163,"POSITION":161,"TANGENT":162,"TEXCOORD_0":164,"TEXCOORD_1":165},"indices":167,"material":5,"mode":4,"extras":{"ASOBO_primitive":{"PrimitiveCount":1944,"UV2Length":0.625,"UVLength":0.625,"VertexCount":3888,"VertexType":"VTX","VertexVersion":2}}}],"name":"ConstructionFloodlightEmissiveLeftMesh"},{"primitives":[{"attributes":{"COLOR_0":173,"NORMAL":170,"POSITION":168,"TANGENT":169,"TEXCOORD_0":171,"TEXCOORD_1":172},"indices":174,"material":2,"mode":4,"extras":{"ASOBO_primitive":{"PrimitiveCount":60,"UV2Length":0.7035801410675049,"UVLength":0.7035801410675049,"VertexCount":66,"VertexType":"VTX","VertexVersion":2}}}],"name":"ConstructionFloodlightBracketLeftLeftMesh"},{"primitives":[{"attributes":{"COLOR_0":180,"NORMAL":177,"POSITION":175,"TANGENT":176,"TEXCOORD_0":178,"TEXCOORD_1":179},"indices":181,"material":2,"mode":4,"extras":{"ASOBO_primitive":{"PrimitiveCount":60,"UV2Length":0.7035801410675049,"UVLength":0.7035801410675049,"VertexCount":66,"VertexType":"VTX","VertexVersion":2}}}],"name":"ConstructionFloodlightBracketRightLeftMesh"},{"primitives":[{"attributes":{"COLOR_0":187,"NORMAL":184,"POSITION":182,"TANGENT":183,"TEXCOORD_0":185,"TEXCOORD_1":186},"indices":188,"material":2,"mode":4,"extras":{"ASOBO_primitive":{"PrimitiveCount":60,"UV2Length":0.7035801410675049,"UVLength":0.7035801410675049,"VertexCount":66,"VertexType":"VTX","VertexVersion":2}}}],"name":"ConstructionFloodlightBracketBaseLeftMesh"},{"primitives":[{"attributes":{"COLOR_0":194,"NORMAL":191,"POSITION":189,"TANGENT":190,"TEXCOORD_0":192,"TEXCOORD_1":193},"indices":195,"material":1,"mode":4,"extras":{"ASOBO_primitive":{"PrimitiveCount":76,"UV2Length":0.7035802006721497,"UVLength":0.7035802006721497,"VertexCount":82,"VertexType":"VTX","VertexVersion":2}}}],"name":"ConstructionFloodlightTiltBoltLeftLeftMesh"},{"primitives":[{"attributes":{"COLOR_0":201,"NORMAL":198,"POSITION":196,"TANGENT":197,"TEXCOORD_0":199,"TEXCOORD_1":200},"indices":202,"material":1,"mode":4,"extras":{"ASOBO_primitive":{"PrimitiveCount":76,"UV2Length":0.7035802006721497,"UVLength":0.7035802006721497,"VertexCount":82,"VertexType":"VTX","VertexVersion":2}}}],"name":"ConstructionFloodlightTiltBoltRightLeftMesh"},{"primitives":[{"attributes":{"COLOR_0":208,"NORMAL":205,"POSITION":203,"TANGENT":204,"TEXCOORD_0":206,"TEXCOORD_1":207},"indices":209,"material":2,"mode":4,"extras":{"ASOBO_primitive":{"PrimitiveCount":108,"UV2Length":0.625,"UVLength":0.625,"VertexCount":216,"VertexType":"VTX","VertexVersion":2}}}],"name":"ConstructionFloodlightHousingRightMesh"},{"primitives":[{"attributes":{"COLOR_0":215,"NORMAL":212,"POSITION":210,"TANGENT":211,"TEXCOORD_0":213,"TEXCOORD_1":214},"indices":216,"material":3,"mode":4,"extras":{"ASOBO_primitive":{"PrimitiveCount":108,"UV2Length":0.625,"UVLength":0.625,"VertexCount":224,"VertexType":"VTX","VertexVersion":2}}}],"name":"ConstructionFloodlightReflectorRightMesh"},{"primitives":[{"attributes":{"COLOR_0":222,"NORMAL":219,"POSITION":217,"TANGENT":218,"TEXCOORD_0":220,"TEXCOORD_1":221},"indices":223,"material":4,"mode":4,"extras":{"ASOBO_primitive":{"PrimitiveCount":108,"UV2Length":0.625,"UVLength":0.625,"VertexCount":230,"VertexType":"VTX","VertexVersion":2}}}],"name":"ConstructionFloodlightGlassRightMesh"},{"primitives":[{"attributes":{"COLOR_0":229,"NORMAL":226,"POSITION":224,"TANGENT":225,"TEXCOORD_0":227,"TEXCOORD_1":228},"indices":230,"material":5,"mode":4,"extras":{"ASOBO_primitive":{"PrimitiveCount":1944,"UV2Length":0.6250000596046448,"UVLength":0.6250000596046448,"VertexCount":3888,"VertexType":"VTX","VertexVersion":2}}}],"name":"ConstructionFloodlightEmissiveRightMesh"},{"primitives":[{"attributes":{"COLOR_0":236,"NORMAL":233,"POSITION":231,"TANGENT":232,"TEXCOORD_0":234,"TEXCOORD_1":235},"indices":237,"material":2,"mode":4,"extras":{"ASOBO_primitive":{"PrimitiveCount":60,"UV2Length":0.7035801410675049,"UVLength":0.7035801410675049,"VertexCount":66,"VertexType":"VTX","VertexVersion":2}}}],"name":"ConstructionFloodlightBracketLeftRightMesh"},{"primitives":[{"attributes":{"COLOR_0":243,"NORMAL":240,"POSITION":238,"TANGENT":239,"TEXCOORD_0":241,"TEXCOORD_1":242},"indices":244,"material":2,"mode":4,"extras":{"ASOBO_primitive":{"PrimitiveCount":60,"UV2Length":0.7035801410675049,"UVLength":0.7035801410675049,"VertexCount":66,"VertexType":"VTX","VertexVersion":2}}}],"name":"ConstructionFloodlightBracketRightRightMesh"},{"primitives":[{"attributes":{"COLOR_0":250,"NORMAL":247,"POSITION":245,"TANGENT":246,"TEXCOORD_0":248,"TEXCOORD_1":249},"indices":251,"material":2,"mode":4,"extras":{"ASOBO_primitive":{"PrimitiveCount":60,"UV2Length":0.7035801410675049,"UVLength":0.7035801410675049,"VertexCount":66,"VertexType":"VTX","VertexVersion":2}}}],"name":"ConstructionFloodlightBracketBaseRightMesh"},{"primitives":[{"attributes":{"COLOR_0":257,"NORMAL":254,"POSITION":252,"TANGENT":253,"TEXCOORD_0":255,"TEXCOORD_1":256},"indices":258,"material":1,"mode":4,"extras":{"ASOBO_primitive":{"PrimitiveCount":76,"UV2Length":0.7035802006721497,"UVLength":0.7035802006721497,"VertexCount":82,"VertexType":"VTX","VertexVersion":2}}}],"name":"ConstructionFloodlightTiltBoltLeftRightMesh"},{"primitives":[{"attributes":{"COLOR_0":264,"NORMAL":261,"POSITION":259,"TANGENT":260,"TEXCOORD_0":262,"TEXCOORD_1":263},"indices":265,"material":1,"mode":4,"extras":{"ASOBO_primitive":{"PrimitiveCount":76,"UV2Length":0.7035802006721497,"UVLength":0.7035802006721497,"VertexCount":82,"VertexType":"VTX","VertexVersion":2}}}],"name":"ConstructionFloodlightTiltBoltRightRightMesh"},{"primitives":[{"attributes":{"COLOR_0":271,"NORMAL":268,"POSITION":266,"TANGENT":267,"TEXCOORD_0":269,"TEXCOORD_1":270},"indices":272,"material":1,"mode":4,"extras":{"ASOBO_primitive":{"PrimitiveCount":96,"UV2Length":0.7071067690849304,"UVLength":0.7071067690849304,"VertexCount":63,"VertexType":"VTX","VertexVersion":2}}}],"name":"ConstructionFloodlightPowerCableLeftCurve"},{"primitives":[{"attributes":{"COLOR_0":278,"NORMAL":275,"POSITION":273,"TANGENT":274,"TEXCOORD_0":276,"TEXCOORD_1":277},"indices":279,"material":1,"mode":4,"extras":{"ASOBO_primitive":{"PrimitiveCount":96,"UV2Length":0.7071067690849304,"UVLength":0.7071067690849304,"VertexCount":63,"VertexType":"VTX","VertexVersion":2}}}],"name":"ConstructionFloodlightPowerCableRightCurve"},{"primitives":[{"attributes":{"COLOR_0":285,"NORMAL":282,"POSITION":280,"TANGENT":281,"TEXCOORD_0":283,"TEXCOORD_1":284},"indices":286,"material":1,"mode":4,"extras":{"ASOBO_primitive":{"PrimitiveCount":128,"UV2Length":0.7071067690849304,"UVLength":0.7071067690849304,"VertexCount":81,"VertexType":"VTX","VertexVersion":2}}}],"name":"ConstructionFloodlightSupplyCableCurve"},{"primitives":[{"attributes":{"COLOR_0":292,"NORMAL":289,"POSITION":287,"TANGENT":288,"TEXCOORD_0":290,"TEXCOORD_1":291},"indices":293,"material":1,"mode":4,"extras":{"ASOBO_primitive":{"PrimitiveCount":108,"UV2Length":0.625,"UVLength":0.625,"VertexCount":216,"VertexType":"VTX","VertexVersion":2}}}],"name":"ConstructionFloodlightPlugMesh"}],"nodes":[{"translation":[-0.1895051896572113,0.07448820769786835,-0.06076769903302193],"rotation":[0.4564031958580017,-0.5111175775527954,0.6256468296051025,0.3728552758693695],"mesh":0,"name":"ConstructionFloodlightLeg01"},{"translation":[-0.40000519156455996,0.029488202184438707,-0.12826770544052125],"rotation":[0.4564031660556793,-0.5111175179481506,0.6256468892097473,0.37285515666008],"mesh":1,"name":"ConstructionFloodlightFoot01"},{"translation":[-0.12208999693393709,0.18639999628067017,-0.03914999961853027],"rotation":[0.542393147945404,-0.31598684191703799,0.7435236573219299,0.23050937056541444],"mesh":2,"name":"ConstructionFloodlightBrace01"},{"translation":[-0.24417999386787418,0.06280000507831574,-0.07829999923706055],"rotation":[0.5,0.5,-0.5,0.5],"mesh":3,"name":"ConstructionFloodlightBraceJoint01"},{"translation":[0.1895051896572113,0.07448820769786835,-0.06076769903302193],"rotation":[0.4564031958580017,0.5111175775527954,-0.6256468296051025,0.3728552758693695],"mesh":4,"name":"ConstructionFloodlightLeg02"},{"translation":[0.40000519156455996,0.029488202184438707,-0.12826770544052125],"rotation":[0.4564031660556793,0.5111175179481506,-0.6256468892097473,0.37285515666008],"mesh":5,"name":"ConstructionFloodlightFoot02"},{"translation":[0.12208999693393709,0.18639999628067017,-0.03914999961853027],"rotation":[0.542393147945404,0.31598684191703799,-0.7435236573219299,0.23050937056541444],"mesh":6,"name":"ConstructionFloodlightBrace02"},{"translation":[0.24417999386787418,0.06280000507831574,-0.07829999923706055],"rotation":[0.5,0.5,-0.5,0.5],"mesh":7,"name":"ConstructionFloodlightBraceJoint02"},{"translation":[0.0,0.07482416927814484,0.18302324414253236],"rotation":[0.7792328000068665,0.0,0.0,0.6267346143722534],"mesh":8,"name":"ConstructionFloodlightLeg03"},{"translation":[0.0,0.029824163764715196,0.3880232572555542],"rotation":[0.7792326807975769,0.0,0.0,0.626734733581543],"mesh":9,"name":"ConstructionFloodlightFoot03"},{"translation":[0.0,0.18639999628067017,0.11889999359846117],"rotation":[0.927544116973877,0.0,0.0,0.373713731765747],"mesh":10,"name":"ConstructionFloodlightBrace03"},{"translation":[0.0,0.06280000507831574,0.2377999871969223],"rotation":[0.5,0.5,-0.5,0.5],"mesh":11,"name":"ConstructionFloodlightBraceJoint03"},{"translation":[0.0,0.4900000095367432,0.0],"rotation":[0.0,-1.0,0.0,7.549790126404332e-8],"mesh":12,"name":"ConstructionFloodlightLowerPole"},{"translation":[0.0,1.079999923706055,0.0],"rotation":[0.0,-1.0,0.0,7.549790126404332e-8],"mesh":13,"name":"ConstructionFloodlightMiddlePole"},{"translation":[0.0,1.3650000095367432,0.0],"rotation":[0.0,-1.0,0.0,7.549790126404332e-8],"mesh":14,"name":"ConstructionFloodlightUpperPole"},{"translation":[0.0,0.11500000208616256,0.0],"rotation":[0.0,-1.0,0.0,7.549790126404332e-8],"mesh":15,"name":"ConstructionFloodlightBaseCollar"},{"translation":[0.0,0.8600000143051148,0.0],"rotation":[0.0,-1.0,0.0,7.549790126404332e-8],"mesh":16,"name":"ConstructionFloodlightLowerClamp"},{"translation":[0.0,1.2599999904632569,0.0],"rotation":[0.0,-1.0,0.0,7.549790126404332e-8],"mesh":17,"name":"ConstructionFloodlightUpperClamp"},{"translation":[0.0,1.4700000286102296,-0.019999999552965165],"rotation":[0.5,0.5,-0.5,0.5],"mesh":18,"name":"ConstructionFloodlightCrossbar"},{"translation":[0.0,1.4649999141693116,-0.019999999552965165],"rotation":[0.0,-1.0,0.0,7.549790126404332e-8],"mesh":19,"name":"ConstructionFloodlightCrossbarMount"},{"translation":[-0.20499999821186064,1.5740000009536744,0.0],"rotation":[0.2588190734386444,0.0,0.0,0.965925931930542],"mesh":20,"name":"ConstructionFloodlightHousingLeft"},{"translation":[-0.20499999821186064,1.5525000095367432,0.03723909333348274],"rotation":[0.2588190734386444,0.0,0.0,0.965925931930542],"mesh":21,"name":"ConstructionFloodlightReflectorLeft"},{"translation":[-0.20499999821186064,1.5490000247955323,0.04330126941204071],"rotation":[0.2588190734386444,0.0,0.0,0.965925931930542],"mesh":22,"name":"ConstructionFloodlightGlassLeft"},{"translation":[-0.2750000059604645,1.569150686264038,0.058399345725774768],"rotation":[0.2588190734386444,0.0,0.0,0.965925931930542],"mesh":23,"name":"ConstructionFloodlightEmissiveLeft"},{"translation":[-0.35899999737739565,1.5163445472717284,-0.03720448166131973],"rotation":[0.9903851747512816,0.0,0.0,0.13833749294281007],"mesh":24,"name":"ConstructionFloodlightBracketLeftLeft"},{"translation":[-0.05099999904632568,1.5163445472717284,-0.03720448166131973],"rotation":[0.9903851747512816,0.0,0.0,0.13833749294281007],"mesh":25,"name":"ConstructionFloodlightBracketRightLeft"},{"translation":[-0.20499999821186064,1.4700000286102296,-0.024000000208616258],"rotation":[0.5,0.5,-0.5,0.5],"mesh":26,"name":"ConstructionFloodlightBracketBaseLeft"},{"translation":[-0.3479999899864197,1.5740000009536744,0.0],"rotation":[0.0,-0.7071068286895752,0.7071068286895752,5.3385090126312216e-8],"mesh":27,"name":"ConstructionFloodlightTiltBoltLeftLeft"},{"translation":[-0.06199999898672104,1.5740000009536744,0.0],"rotation":[0.0,-0.7071068286895752,0.7071068286895752,5.3385090126312216e-8],"mesh":28,"name":"ConstructionFloodlightTiltBoltRightLeft"},{"translation":[0.20499999821186064,1.5740000009536744,0.0],"rotation":[0.2588190734386444,0.0,0.0,0.965925931930542],"mesh":29,"name":"ConstructionFloodlightHousingRight"},{"translation":[0.20499999821186064,1.5525000095367432,0.03723909333348274],"rotation":[0.2588190734386444,0.0,0.0,0.965925931930542],"mesh":30,"name":"ConstructionFloodlightReflectorRight"},{"translation":[0.20499999821186064,1.5490000247955323,0.04330126941204071],"rotation":[0.2588190734386444,0.0,0.0,0.965925931930542],"mesh":31,"name":"ConstructionFloodlightGlassRight"},{"translation":[0.13500000536441804,1.569150686264038,0.058399345725774768],"rotation":[0.2588190734386444,0.0,0.0,0.965925931930542],"mesh":32,"name":"ConstructionFloodlightEmissiveRight"},{"translation":[0.05099999904632568,1.5163445472717284,-0.03720448166131973],"rotation":[0.9903851747512816,0.0,0.0,0.13833749294281007],"mesh":33,"name":"ConstructionFloodlightBracketLeftRight"},{"translation":[0.35899999737739565,1.5163445472717284,-0.03720448166131973],"rotation":[0.9903851747512816,0.0,0.0,0.13833749294281007],"mesh":34,"name":"ConstructionFloodlightBracketRightRight"},{"translation":[0.20499999821186064,1.4700000286102296,-0.024000000208616258],"rotation":[0.5,0.5,-0.5,0.5],"mesh":35,"name":"ConstructionFloodlightBracketBaseRight"},{"translation":[0.06199999898672104,1.5740000009536744,0.0],"rotation":[0.0,-0.7071068286895752,0.7071068286895752,5.3385090126312216e-8],"mesh":36,"name":"ConstructionFloodlightTiltBoltLeftRight"},{"translation":[0.3479999899864197,1.5740000009536744,0.0],"rotation":[0.0,-0.7071068286895752,0.7071068286895752,5.3385090126312216e-8],"mesh":37,"name":"ConstructionFloodlightTiltBoltRightRight"},{"mesh":38,"name":"ConstructionFloodlightPowerCableLeft"},{"mesh":39,"name":"ConstructionFloodlightPowerCableRight"},{"mesh":40,"name":"ConstructionFloodlightSupplyCable"},{"translation":[0.3199999928474426,0.054999999701976779,0.15000000596046449],"rotation":[0.0,-0.2164396345615387,0.0,0.976296067237854],"mesh":41,"name":"ConstructionFloodlightPlug"},{"translation":[-0.20499999821186064,1.5440000295639039,0.05196152254939079],"rotation":[0.25881904510252076,0.0,0.0,0.9659258262890684],"extensions":{"ASOBO_advanced_light":{"channel_exterior":true,"channel_interior":true,"color":[0.82,0.91,1.0],"flare_enabled":false,"inner_cone_angle":50.0,"intensity":2200.0,"outer_cone_angle":70.0,"shape_type":3,"source_radius":0.11}},"name":"ConstructionFloodlightLightLeft"},{"translation":[0.20499999821186064,1.5440000295639039,0.05196152254939079],"rotation":[0.25881904510252076,0.0,0.0,0.9659258262890684],"extensions":{"ASOBO_advanced_light":{"channel_exterior":true,"channel_interior":true,"color":[0.82,0.91,1.0],"flare_enabled":false,"inner_cone_angle":50.0,"intensity":2200.0,"outer_cone_angle":70.0,"shape_type":3,"source_radius":0.11}},"name":"ConstructionFloodlightLightRight"}],"scene":0,"scenes":[{"nodes":[0,1,2,3,4,5,6,7,8,9,10,11,12,13,14,15,16,17,18,19,20,21,22,23,24,25,26,27,28,29,30,31,32,33,34,35,36,37,38,39,40,41,42,43],"name":"Scene"}],"extensionsUsed":["ASOBO_advanced_light","ASOBO_asset_optimized"],"buffers":[{"byteLength":484476,"uri":"HomebaseConstructionFloodlightTripod_LOD00.bin"}]}
