{
  "asset": {
    "version": "2.0",
    "generator": "GA-Dispatcher EDTW Smoke Marker visible baseline"
  },
  "scene": 0,
  "scenes": [
    {
      "name": "Scene",
      "nodes": [
        0
      ]
    }
  ],
  "nodes": [
    {
      "name": "EDTW_SMOKE_MARKER_VISIBLE_BASELINE",
      "mesh": 0
    }
  ],
  "meshes": [
    {
      "name": "EDTW_Smoke_Marker_Big_Orange_Cross",
      "primitives": [
        {
          "attributes": {
            "POSITION": 0,
            "NORMAL": 1
          },
          "indices": 2,
          "material": 0,
          "mode": 4
        }
      ]
    }
  ],
  "materials": [
    {
      "name": "SmokeMarker_Emissive_Orange",
      "doubleSided": true,
      "emissiveFactor": [
        1,
        0.25,
        0
      ],
      "pbrMetallicRoughness": {
        "baseColorFactor": [
          1,
          0.28,
          0.02,
          1
        ],
        "metallicFactor": 0,
        "roughnessFactor": 0.35
      }
    }
  ],
  "buffers": [
    {
      "byteLength": 1944,
      "uri": "EDTWSmokeMarker.bin"
    }
  ],
  "bufferViews": [
    {
      "buffer": 0,
      "byteOffset": 0,
      "byteLength": 864,
      "target": 34962
    },
    {
      "buffer": 0,
      "byteOffset": 864,
      "byteLength": 864,
      "target": 34962
    },
    {
      "buffer": 0,
      "byteOffset": 1728,
      "byteLength": 216,
      "target": 34963
    }
  ],
  "accessors": [
    {
      "bufferView": 0,
      "componentType": 5126,
      "count": 72,
      "type": "VEC3",
      "min": [
        -4,
        -1.1,
        -1.1
      ],
      "max": [
        4,
        12,
        12
      ]
    },
    {
      "bufferView": 1,
      "componentType": 5126,
      "count": 72,
      "type": "VEC3"
    },
    {
      "bufferView": 2,
      "componentType": 5123,
      "count": 108,
      "type": "SCALAR"
    }
  ]
}
