{
  "asset": {
    "version": "2.0",
    "generator": "VFR Multitool procedural asset generator"
  },
  "buffers": [
    {
      "byteLength": 24480,
      "uri": "HomebaseWoodCrateSmall_LOD00.bin"
    }
  ],
  "bufferViews": [
    {
      "buffer": 0,
      "byteOffset": 0,
      "byteLength": 6912,
      "target": 34962
    },
    {
      "buffer": 0,
      "byteOffset": 6912,
      "byteLength": 6912,
      "target": 34962
    },
    {
      "buffer": 0,
      "byteOffset": 13824,
      "byteLength": 4608,
      "target": 34962
    },
    {
      "buffer": 0,
      "byteOffset": 18432,
      "byteLength": 1152,
      "target": 34963
    },
    {
      "buffer": 0,
      "byteOffset": 19584,
      "byteLength": 864,
      "target": 34962
    },
    {
      "buffer": 0,
      "byteOffset": 20448,
      "byteLength": 864,
      "target": 34962
    },
    {
      "buffer": 0,
      "byteOffset": 21312,
      "byteLength": 576,
      "target": 34962
    },
    {
      "buffer": 0,
      "byteOffset": 21888,
      "byteLength": 144,
      "target": 34963
    },
    {
      "buffer": 0,
      "byteOffset": 22032,
      "byteLength": 432,
      "target": 34962
    },
    {
      "buffer": 0,
      "byteOffset": 22464,
      "byteLength": 432,
      "target": 34962
    },
    {
      "buffer": 0,
      "byteOffset": 22896,
      "byteLength": 288,
      "target": 34962
    },
    {
      "buffer": 0,
      "byteOffset": 23184,
      "byteLength": 72,
      "target": 34963
    },
    {
      "buffer": 0,
      "byteOffset": 23256,
      "byteLength": 432,
      "target": 34962
    },
    {
      "buffer": 0,
      "byteOffset": 23688,
      "byteLength": 432,
      "target": 34962
    },
    {
      "buffer": 0,
      "byteOffset": 24120,
      "byteLength": 288,
      "target": 34962
    },
    {
      "buffer": 0,
      "byteOffset": 24408,
      "byteLength": 72,
      "target": 34963
    }
  ],
  "accessors": [
    {
      "bufferView": 0,
      "componentType": 5126,
      "count": 576,
      "min": [
        -0.31999999999999995,
        0,
        -0.26
      ],
      "max": [
        0.31999999999999995,
        0.42,
        0.26
      ],
      "type": "VEC3"
    },
    {
      "bufferView": 1,
      "componentType": 5126,
      "count": 576,
      "type": "VEC3"
    },
    {
      "bufferView": 2,
      "componentType": 5126,
      "count": 576,
      "type": "VEC2"
    },
    {
      "bufferView": 3,
      "componentType": 5123,
      "count": 576,
      "type": "SCALAR"
    },
    {
      "bufferView": 4,
      "componentType": 5126,
      "count": 72,
      "min": [
        -0.29,
        0,
        -0.23
      ],
      "max": [
        0.29,
        0.075,
        0.23
      ],
      "type": "VEC3"
    },
    {
      "bufferView": 5,
      "componentType": 5126,
      "count": 72,
      "type": "VEC3"
    },
    {
      "bufferView": 6,
      "componentType": 5126,
      "count": 72,
      "type": "VEC2"
    },
    {
      "bufferView": 7,
      "componentType": 5123,
      "count": 72,
      "type": "SCALAR"
    },
    {
      "bufferView": 8,
      "componentType": 5126,
      "count": 36,
      "min": [
        -0.09860000000000001,
        0.189,
        -0.271
      ],
      "max": [
        0.09860000000000001,
        0.2646,
        -0.253
      ],
      "type": "VEC3"
    },
    {
      "bufferView": 9,
      "componentType": 5126,
      "count": 36,
      "type": "VEC3"
    },
    {
      "bufferView": 10,
      "componentType": 5126,
      "count": 36,
      "type": "VEC2"
    },
    {
      "bufferView": 11,
      "componentType": 5123,
      "count": 36,
      "type": "SCALAR"
    },
    {
      "bufferView": 12,
      "componentType": 5126,
      "count": 36,
      "min": [
        -0.0638,
        0.2178,
        -0.28
      ],
      "max": [
        0.0638,
        0.2358,
        -0.268
      ],
      "type": "VEC3"
    },
    {
      "bufferView": 13,
      "componentType": 5126,
      "count": 36,
      "type": "VEC3"
    },
    {
      "bufferView": 14,
      "componentType": 5126,
      "count": 36,
      "type": "VEC2"
    },
    {
      "bufferView": 15,
      "componentType": 5123,
      "count": 36,
      "type": "SCALAR"
    }
  ],
  "materials": [
    {
      "doubleSided": true,
      "name": "Holzkiste_Bretter",
      "pbrMetallicRoughness": {
        "baseColorFactor": [
          0.38,
          0.18,
          0.06,
          1
        ],
        "metallicFactor": 0.02,
        "roughnessFactor": 0.86
      }
    },
    {
      "doubleSided": true,
      "name": "Holzkiste_Boden_Dunkel",
      "pbrMetallicRoughness": {
        "baseColorFactor": [
          0.19,
          0.08,
          0.025,
          1
        ],
        "metallicFactor": 0.02,
        "roughnessFactor": 0.9
      }
    },
    {
      "doubleSided": true,
      "name": "Holzkiste_Markierung",
      "pbrMetallicRoughness": {
        "baseColorFactor": [
          0.78,
          0.52,
          0.08,
          1
        ],
        "metallicFactor": 0.05,
        "roughnessFactor": 0.58
      }
    },
    {
      "doubleSided": true,
      "name": "Holzkiste_Markierung_Dunkel",
      "pbrMetallicRoughness": {
        "baseColorFactor": [
          0.07,
          0.045,
          0.018,
          1
        ],
        "metallicFactor": 0.05,
        "roughnessFactor": 0.72
      }
    }
  ],
  "meshes": [
    {
      "name": "HomebaseWoodCrateSmall_mesh",
      "primitives": [
        {
          "attributes": {
            "POSITION": 0,
            "NORMAL": 1,
            "TEXCOORD_0": 2
          },
          "indices": 3,
          "material": 0,
          "mode": 4
        },
        {
          "attributes": {
            "POSITION": 4,
            "NORMAL": 5,
            "TEXCOORD_0": 6
          },
          "indices": 7,
          "material": 1,
          "mode": 4
        },
        {
          "attributes": {
            "POSITION": 8,
            "NORMAL": 9,
            "TEXCOORD_0": 10
          },
          "indices": 11,
          "material": 2,
          "mode": 4
        },
        {
          "attributes": {
            "POSITION": 12,
            "NORMAL": 13,
            "TEXCOORD_0": 14
          },
          "indices": 15,
          "material": 3,
          "mode": 4
        }
      ]
    }
  ],
  "nodes": [
    {
      "mesh": 0,
      "name": "HomebaseWoodCrateSmall_node"
    }
  ],
  "scenes": [
    {
      "nodes": [
        0
      ]
    }
  ],
  "scene": 0
}
