{
  "asset": {
    "generator": "VFR Multitool construction-floodlight raw glTF exporter",
    "version": "2.0"
  },
  "extensionsUsed": [
    "ASOBO_advanced_light",
    "KHR_materials_emissive_strength"
  ],
  "scene": 0,
  "scenes": [
    {
      "name": "Scene",
      "nodes": [
        0,
        1,
        2,
        3,
        4,
        5,
        6,
        7,
        8,
        9,
        10,
        11,
        12,
        13,
        14,
        15,
        16,
        17,
        18,
        19,
        20,
        21,
        22,
        23,
        24,
        25,
        26,
        27,
        28,
        29,
        30,
        31,
        32,
        33,
        34,
        35,
        36,
        37,
        38,
        39,
        40,
        41,
        42,
        43
      ]
    }
  ],
  "nodes": [
    {
      "mesh": 0,
      "name": "ConstructionFloodlightLeg01",
      "rotation": [
        0.4564031958580017,
        -0.5111175775527954,
        0.6256468296051025,
        0.3728552758693695
      ],
      "translation": [
        -0.1895051896572113,
        0.07448820769786835,
        -0.06076769903302193
      ]
    },
    {
      "mesh": 1,
      "name": "ConstructionFloodlightFoot01",
      "rotation": [
        0.4564031660556793,
        -0.5111175179481506,
        0.6256468892097473,
        0.37285515666007996
      ],
      "translation": [
        -0.40000519156455994,
        0.029488202184438705,
        -0.12826770544052124
      ]
    },
    {
      "mesh": 2,
      "name": "ConstructionFloodlightBrace01",
      "rotation": [
        0.542393147945404,
        -0.31598684191703796,
        0.7435236573219299,
        0.23050937056541443
      ],
      "translation": [
        -0.12208999693393707,
        0.18639999628067017,
        -0.03914999961853027
      ]
    },
    {
      "mesh": 3,
      "name": "ConstructionFloodlightBraceJoint01",
      "rotation": [
        0.5,
        0.5,
        -0.5,
        0.5
      ],
      "translation": [
        -0.24417999386787415,
        0.06280000507831573,
        -0.07829999923706055
      ]
    },
    {
      "mesh": 4,
      "name": "ConstructionFloodlightLeg02",
      "rotation": [
        0.4564031958580017,
        0.5111175775527954,
        -0.6256468296051025,
        0.3728552758693695
      ],
      "translation": [
        0.1895051896572113,
        0.07448820769786835,
        -0.06076769903302193
      ]
    },
    {
      "mesh": 5,
      "name": "ConstructionFloodlightFoot02",
      "rotation": [
        0.4564031660556793,
        0.5111175179481506,
        -0.6256468892097473,
        0.37285515666007996
      ],
      "translation": [
        0.40000519156455994,
        0.029488202184438705,
        -0.12826770544052124
      ]
    },
    {
      "mesh": 6,
      "name": "ConstructionFloodlightBrace02",
      "rotation": [
        0.542393147945404,
        0.31598684191703796,
        -0.7435236573219299,
        0.23050937056541443
      ],
      "translation": [
        0.12208999693393707,
        0.18639999628067017,
        -0.03914999961853027
      ]
    },
    {
      "mesh": 7,
      "name": "ConstructionFloodlightBraceJoint02",
      "rotation": [
        0.5,
        0.5,
        -0.5,
        0.5
      ],
      "translation": [
        0.24417999386787415,
        0.06280000507831573,
        -0.07829999923706055
      ]
    },
    {
      "mesh": 8,
      "name": "ConstructionFloodlightLeg03",
      "rotation": [
        0.7792328000068665,
        0,
        0,
        0.6267346143722534
      ],
      "translation": [
        0,
        0.07482416927814484,
        0.18302324414253235
      ]
    },
    {
      "mesh": 9,
      "name": "ConstructionFloodlightFoot03",
      "rotation": [
        0.7792326807975769,
        0,
        0,
        0.626734733581543
      ],
      "translation": [
        0,
        0.029824163764715195,
        0.3880232572555542
      ]
    },
    {
      "mesh": 10,
      "name": "ConstructionFloodlightBrace03",
      "rotation": [
        0.927544116973877,
        0,
        0,
        0.37371373176574707
      ],
      "translation": [
        0,
        0.18639999628067017,
        0.11889999359846115
      ]
    },
    {
      "mesh": 11,
      "name": "ConstructionFloodlightBraceJoint03",
      "rotation": [
        0.5,
        0.5,
        -0.5,
        0.5
      ],
      "translation": [
        0,
        0.06280000507831573,
        0.2377999871969223
      ]
    },
    {
      "mesh": 12,
      "name": "ConstructionFloodlightLowerPole",
      "rotation": [
        0,
        -1,
        0,
        7.549790126404332e-08
      ],
      "translation": [
        0,
        0.49000000953674316,
        0
      ]
    },
    {
      "mesh": 13,
      "name": "ConstructionFloodlightMiddlePole",
      "rotation": [
        0,
        -1,
        0,
        7.549790126404332e-08
      ],
      "translation": [
        0,
        1.0799999237060547,
        0
      ]
    },
    {
      "mesh": 14,
      "name": "ConstructionFloodlightUpperPole",
      "rotation": [
        0,
        -1,
        0,
        7.549790126404332e-08
      ],
      "translation": [
        0,
        1.3650000095367432,
        0
      ]
    },
    {
      "mesh": 15,
      "name": "ConstructionFloodlightBaseCollar",
      "rotation": [
        0,
        -1,
        0,
        7.549790126404332e-08
      ],
      "translation": [
        0,
        0.11500000208616257,
        0
      ]
    },
    {
      "mesh": 16,
      "name": "ConstructionFloodlightLowerClamp",
      "rotation": [
        0,
        -1,
        0,
        7.549790126404332e-08
      ],
      "translation": [
        0,
        0.8600000143051147,
        0
      ]
    },
    {
      "mesh": 17,
      "name": "ConstructionFloodlightUpperClamp",
      "rotation": [
        0,
        -1,
        0,
        7.549790126404332e-08
      ],
      "translation": [
        0,
        1.2599999904632568,
        0
      ]
    },
    {
      "mesh": 18,
      "name": "ConstructionFloodlightCrossbar",
      "rotation": [
        0.5,
        0.5,
        -0.5,
        0.5
      ],
      "translation": [
        0,
        1.4700000286102295,
        -0.019999999552965164
      ]
    },
    {
      "mesh": 19,
      "name": "ConstructionFloodlightCrossbarMount",
      "rotation": [
        0,
        -1,
        0,
        7.549790126404332e-08
      ],
      "translation": [
        0,
        1.4649999141693115,
        -0.019999999552965164
      ]
    },
    {
      "mesh": 20,
      "name": "ConstructionFloodlightHousingLeft",
      "rotation": [
        0.2588190734386444,
        0,
        0,
        0.965925931930542
      ],
      "translation": [
        -0.20499999821186066,
        1.5740000009536743,
        0
      ]
    },
    {
      "mesh": 21,
      "name": "ConstructionFloodlightReflectorLeft",
      "rotation": [
        0.2588190734386444,
        0,
        0,
        0.965925931930542
      ],
      "translation": [
        -0.20499999821186066,
        1.5525000095367432,
        0.03723909333348274
      ]
    },
    {
      "mesh": 22,
      "name": "ConstructionFloodlightGlassLeft",
      "rotation": [
        0.2588190734386444,
        0,
        0,
        0.965925931930542
      ],
      "translation": [
        -0.20499999821186066,
        1.5490000247955322,
        0.04330126941204071
      ]
    },
    {
      "mesh": 23,
      "name": "ConstructionFloodlightEmissiveLeft",
      "rotation": [
        0.2588190734386444,
        0,
        0,
        0.965925931930542
      ],
      "translation": [
        -0.2750000059604645,
        1.569150686264038,
        0.058399345725774765
      ]
    },
    {
      "mesh": 24,
      "name": "ConstructionFloodlightBracketLeftLeft",
      "rotation": [
        0.9903851747512817,
        0,
        0,
        0.13833749294281006
      ],
      "translation": [
        -0.35899999737739563,
        1.5163445472717285,
        -0.03720448166131973
      ]
    },
    {
      "mesh": 25,
      "name": "ConstructionFloodlightBracketRightLeft",
      "rotation": [
        0.9903851747512817,
        0,
        0,
        0.13833749294281006
      ],
      "translation": [
        -0.050999999046325684,
        1.5163445472717285,
        -0.03720448166131973
      ]
    },
    {
      "mesh": 26,
      "name": "ConstructionFloodlightBracketBaseLeft",
      "rotation": [
        0.5,
        0.5,
        -0.5,
        0.5
      ],
      "translation": [
        -0.20499999821186066,
        1.4700000286102295,
        -0.024000000208616257
      ]
    },
    {
      "mesh": 27,
      "name": "ConstructionFloodlightTiltBoltLeftLeft",
      "rotation": [
        0,
        -0.7071068286895752,
        0.7071068286895752,
        5.338509012631221e-08
      ],
      "translation": [
        -0.3479999899864197,
        1.5740000009536743,
        0
      ]
    },
    {
      "mesh": 28,
      "name": "ConstructionFloodlightTiltBoltRightLeft",
      "rotation": [
        0,
        -0.7071068286895752,
        0.7071068286895752,
        5.338509012631221e-08
      ],
      "translation": [
        -0.06199999898672104,
        1.5740000009536743,
        0
      ]
    },
    {
      "mesh": 29,
      "name": "ConstructionFloodlightHousingRight",
      "rotation": [
        0.2588190734386444,
        0,
        0,
        0.965925931930542
      ],
      "translation": [
        0.20499999821186066,
        1.5740000009536743,
        0
      ]
    },
    {
      "mesh": 30,
      "name": "ConstructionFloodlightReflectorRight",
      "rotation": [
        0.2588190734386444,
        0,
        0,
        0.965925931930542
      ],
      "translation": [
        0.20499999821186066,
        1.5525000095367432,
        0.03723909333348274
      ]
    },
    {
      "mesh": 31,
      "name": "ConstructionFloodlightGlassRight",
      "rotation": [
        0.2588190734386444,
        0,
        0,
        0.965925931930542
      ],
      "translation": [
        0.20499999821186066,
        1.5490000247955322,
        0.04330126941204071
      ]
    },
    {
      "mesh": 32,
      "name": "ConstructionFloodlightEmissiveRight",
      "rotation": [
        0.2588190734386444,
        0,
        0,
        0.965925931930542
      ],
      "translation": [
        0.13500000536441803,
        1.569150686264038,
        0.058399345725774765
      ]
    },
    {
      "mesh": 33,
      "name": "ConstructionFloodlightBracketLeftRight",
      "rotation": [
        0.9903851747512817,
        0,
        0,
        0.13833749294281006
      ],
      "translation": [
        0.050999999046325684,
        1.5163445472717285,
        -0.03720448166131973
      ]
    },
    {
      "mesh": 34,
      "name": "ConstructionFloodlightBracketRightRight",
      "rotation": [
        0.9903851747512817,
        0,
        0,
        0.13833749294281006
      ],
      "translation": [
        0.35899999737739563,
        1.5163445472717285,
        -0.03720448166131973
      ]
    },
    {
      "mesh": 35,
      "name": "ConstructionFloodlightBracketBaseRight",
      "rotation": [
        0.5,
        0.5,
        -0.5,
        0.5
      ],
      "translation": [
        0.20499999821186066,
        1.4700000286102295,
        -0.024000000208616257
      ]
    },
    {
      "mesh": 36,
      "name": "ConstructionFloodlightTiltBoltLeftRight",
      "rotation": [
        0,
        -0.7071068286895752,
        0.7071068286895752,
        5.338509012631221e-08
      ],
      "translation": [
        0.06199999898672104,
        1.5740000009536743,
        0
      ]
    },
    {
      "mesh": 37,
      "name": "ConstructionFloodlightTiltBoltRightRight",
      "rotation": [
        0,
        -0.7071068286895752,
        0.7071068286895752,
        5.338509012631221e-08
      ],
      "translation": [
        0.3479999899864197,
        1.5740000009536743,
        0
      ]
    },
    {
      "mesh": 38,
      "name": "ConstructionFloodlightPowerCableLeft"
    },
    {
      "mesh": 39,
      "name": "ConstructionFloodlightPowerCableRight"
    },
    {
      "mesh": 40,
      "name": "ConstructionFloodlightSupplyCable"
    },
    {
      "mesh": 41,
      "name": "ConstructionFloodlightPlug",
      "rotation": [
        0,
        -0.2164396345615387,
        0,
        0.976296067237854
      ],
      "translation": [
        0.3199999928474426,
        0.054999999701976776,
        0.15000000596046448
      ]
    },
    {
      "name": "ConstructionFloodlightLightLeft",
      "translation": [
        -0.20499999821186066,
        1.5440000295639038,
        0.05196152254939079
      ],
      "rotation": [
        0.25881904510252074,
        0.0,
        0.0,
        0.9659258262890683
      ],
      "extensions": {
        "ASOBO_advanced_light": {
          "color": [
            0.82,
            0.91,
            1.0
          ],
          "intensity": 2200.0,
          "shape_type": 3,
          "source_radius": 0.11,
          "inner_cone_angle": 50.0,
          "outer_cone_angle": 70.0,
          "channel_exterior": true,
          "channel_interior": true,
          "flare_enabled": false
        }
      }
    },
    {
      "name": "ConstructionFloodlightLightRight",
      "translation": [
        0.20499999821186066,
        1.5440000295639038,
        0.05196152254939079
      ],
      "rotation": [
        0.25881904510252074,
        0.0,
        0.0,
        0.9659258262890683
      ],
      "extensions": {
        "ASOBO_advanced_light": {
          "color": [
            0.82,
            0.91,
            1.0
          ],
          "intensity": 2200.0,
          "shape_type": 3,
          "source_radius": 0.11,
          "inner_cone_angle": 50.0,
          "outer_cone_angle": 70.0,
          "channel_exterior": true,
          "channel_interior": true,
          "flare_enabled": false
        }
      }
    }
  ],
  "materials": [
    {
      "doubleSided": true,
      "name": "ConstructionFloodlightYellowMetal",
      "pbrMetallicRoughness": {
        "baseColorFactor": [
          0.9599999785423279,
          0.550000011920929,
          0.014999999664723873,
          1
        ],
        "metallicFactor": 0.7200000286102295,
        "roughnessFactor": 0.2199999988079071
      }
    },
    {
      "doubleSided": true,
      "name": "ConstructionFloodlightRubber",
      "pbrMetallicRoughness": {
        "baseColorFactor": [
          0.012000000104308128,
          0.014000000432133675,
          0.014999999664723873,
          1
        ],
        "metallicFactor": 0,
        "roughnessFactor": 0.7200000286102295
      }
    },
    {
      "doubleSided": true,
      "name": "ConstructionFloodlightBlackHousing",
      "pbrMetallicRoughness": {
        "baseColorFactor": [
          0.017999999225139618,
          0.02199999988079071,
          0.02500000037252903,
          1
        ],
        "metallicFactor": 0.5799999833106995,
        "roughnessFactor": 0.23999999463558197
      }
    },
    {
      "doubleSided": true,
      "name": "ConstructionFloodlightReflector",
      "pbrMetallicRoughness": {
        "baseColorFactor": [
          0.7799999713897705,
          0.8199999928474426,
          0.8399999737739563,
          1
        ],
        "metallicFactor": 0.699999988079071,
        "roughnessFactor": 0.15000000596046448
      }
    },
    {
      "alphaMode": "BLEND",
      "doubleSided": true,
      "name": "ConstructionFloodlightClearGlass",
      "pbrMetallicRoughness": {
        "baseColorFactor": [
          0.8199999928474426,
          0.9200000166893005,
          1,
          0.24
        ],
        "metallicFactor": 0,
        "roughnessFactor": 0.05000000074505806
      }
    },
    {
      "doubleSided": true,
      "emissiveFactor": [
        0.8199999928474426,
        0.9100000262260437,
        1
      ],
      "extensions": {
        "KHR_materials_emissive_strength": {
          "emissiveStrength": 7
        }
      },
      "name": "ConstructionFloodlightLED",
      "pbrMetallicRoughness": {
        "baseColorFactor": [
          0.8500000238418579,
          0.7300000190734863,
          0.2800000011920929,
          1
        ],
        "metallicFactor": 0.05000000074505806,
        "roughnessFactor": 0.25999999046325684
      }
    }
  ],
  "meshes": [
    {
      "name": "ConstructionFloodlightLeg01Mesh",
      "primitives": [
        {
          "attributes": {
            "POSITION": 0,
            "NORMAL": 1,
            "TEXCOORD_0": 2
          },
          "indices": 3,
          "material": 0
        }
      ]
    },
    {
      "name": "ConstructionFloodlightFoot01Mesh",
      "primitives": [
        {
          "attributes": {
            "POSITION": 4,
            "NORMAL": 5,
            "TEXCOORD_0": 6
          },
          "indices": 7,
          "material": 1
        }
      ]
    },
    {
      "name": "ConstructionFloodlightBrace01Mesh",
      "primitives": [
        {
          "attributes": {
            "POSITION": 8,
            "NORMAL": 9,
            "TEXCOORD_0": 10
          },
          "indices": 11,
          "material": 0
        }
      ]
    },
    {
      "name": "ConstructionFloodlightBraceJoint01Mesh",
      "primitives": [
        {
          "attributes": {
            "POSITION": 12,
            "NORMAL": 13,
            "TEXCOORD_0": 14
          },
          "indices": 11,
          "material": 2
        }
      ]
    },
    {
      "name": "ConstructionFloodlightLeg02Mesh",
      "primitives": [
        {
          "attributes": {
            "POSITION": 15,
            "NORMAL": 16,
            "TEXCOORD_0": 17
          },
          "indices": 3,
          "material": 0
        }
      ]
    },
    {
      "name": "ConstructionFloodlightFoot02Mesh",
      "primitives": [
        {
          "attributes": {
            "POSITION": 18,
            "NORMAL": 19,
            "TEXCOORD_0": 20
          },
          "indices": 7,
          "material": 1
        }
      ]
    },
    {
      "name": "ConstructionFloodlightBrace02Mesh",
      "primitives": [
        {
          "attributes": {
            "POSITION": 21,
            "NORMAL": 22,
            "TEXCOORD_0": 23
          },
          "indices": 11,
          "material": 0
        }
      ]
    },
    {
      "name": "ConstructionFloodlightBraceJoint02Mesh",
      "primitives": [
        {
          "attributes": {
            "POSITION": 24,
            "NORMAL": 25,
            "TEXCOORD_0": 26
          },
          "indices": 11,
          "material": 2
        }
      ]
    },
    {
      "name": "ConstructionFloodlightLeg03Mesh",
      "primitives": [
        {
          "attributes": {
            "POSITION": 27,
            "NORMAL": 28,
            "TEXCOORD_0": 29
          },
          "indices": 3,
          "material": 0
        }
      ]
    },
    {
      "name": "ConstructionFloodlightFoot03Mesh",
      "primitives": [
        {
          "attributes": {
            "POSITION": 30,
            "NORMAL": 31,
            "TEXCOORD_0": 32
          },
          "indices": 7,
          "material": 1
        }
      ]
    },
    {
      "name": "ConstructionFloodlightBrace03Mesh",
      "primitives": [
        {
          "attributes": {
            "POSITION": 33,
            "NORMAL": 34,
            "TEXCOORD_0": 35
          },
          "indices": 11,
          "material": 0
        }
      ]
    },
    {
      "name": "ConstructionFloodlightBraceJoint03Mesh",
      "primitives": [
        {
          "attributes": {
            "POSITION": 36,
            "NORMAL": 37,
            "TEXCOORD_0": 38
          },
          "indices": 11,
          "material": 2
        }
      ]
    },
    {
      "name": "ConstructionFloodlightLowerPoleMesh",
      "primitives": [
        {
          "attributes": {
            "POSITION": 39,
            "NORMAL": 40,
            "TEXCOORD_0": 41
          },
          "indices": 42,
          "material": 0
        }
      ]
    },
    {
      "name": "ConstructionFloodlightMiddlePoleMesh",
      "primitives": [
        {
          "attributes": {
            "POSITION": 43,
            "NORMAL": 44,
            "TEXCOORD_0": 45
          },
          "indices": 42,
          "material": 0
        }
      ]
    },
    {
      "name": "ConstructionFloodlightUpperPoleMesh",
      "primitives": [
        {
          "attributes": {
            "POSITION": 46,
            "NORMAL": 47,
            "TEXCOORD_0": 48
          },
          "indices": 42,
          "material": 0
        }
      ]
    },
    {
      "name": "ConstructionFloodlightBaseCollarMesh",
      "primitives": [
        {
          "attributes": {
            "POSITION": 49,
            "NORMAL": 50,
            "TEXCOORD_0": 51
          },
          "indices": 42,
          "material": 2
        }
      ]
    },
    {
      "name": "ConstructionFloodlightLowerClampMesh",
      "primitives": [
        {
          "attributes": {
            "POSITION": 52,
            "NORMAL": 53,
            "TEXCOORD_0": 54
          },
          "indices": 42,
          "material": 2
        }
      ]
    },
    {
      "name": "ConstructionFloodlightUpperClampMesh",
      "primitives": [
        {
          "attributes": {
            "POSITION": 55,
            "NORMAL": 56,
            "TEXCOORD_0": 57
          },
          "indices": 42,
          "material": 2
        }
      ]
    },
    {
      "name": "ConstructionFloodlightCrossbarMesh",
      "primitives": [
        {
          "attributes": {
            "POSITION": 58,
            "NORMAL": 59,
            "TEXCOORD_0": 60
          },
          "indices": 42,
          "material": 0
        }
      ]
    },
    {
      "name": "ConstructionFloodlightCrossbarMountMesh",
      "primitives": [
        {
          "attributes": {
            "POSITION": 61,
            "NORMAL": 62,
            "TEXCOORD_0": 63
          },
          "indices": 42,
          "material": 2
        }
      ]
    },
    {
      "name": "ConstructionFloodlightHousingLeftMesh",
      "primitives": [
        {
          "attributes": {
            "POSITION": 64,
            "NORMAL": 65,
            "TEXCOORD_0": 66
          },
          "indices": 67,
          "material": 2
        }
      ]
    },
    {
      "name": "ConstructionFloodlightReflectorLeftMesh",
      "primitives": [
        {
          "attributes": {
            "POSITION": 68,
            "NORMAL": 69,
            "TEXCOORD_0": 70
          },
          "indices": 67,
          "material": 3
        }
      ]
    },
    {
      "name": "ConstructionFloodlightGlassLeftMesh",
      "primitives": [
        {
          "attributes": {
            "POSITION": 71,
            "NORMAL": 72,
            "TEXCOORD_0": 73
          },
          "indices": 67,
          "material": 4
        }
      ]
    },
    {
      "name": "ConstructionFloodlightEmissiveLeftMesh",
      "primitives": [
        {
          "attributes": {
            "POSITION": 74,
            "NORMAL": 75,
            "TEXCOORD_0": 76
          },
          "indices": 77,
          "material": 5
        }
      ]
    },
    {
      "name": "ConstructionFloodlightBracketLeftLeftMesh",
      "primitives": [
        {
          "attributes": {
            "POSITION": 78,
            "NORMAL": 79,
            "TEXCOORD_0": 80
          },
          "indices": 11,
          "material": 2
        }
      ]
    },
    {
      "name": "ConstructionFloodlightBracketRightLeftMesh",
      "primitives": [
        {
          "attributes": {
            "POSITION": 81,
            "NORMAL": 82,
            "TEXCOORD_0": 83
          },
          "indices": 11,
          "material": 2
        }
      ]
    },
    {
      "name": "ConstructionFloodlightBracketBaseLeftMesh",
      "primitives": [
        {
          "attributes": {
            "POSITION": 84,
            "NORMAL": 85,
            "TEXCOORD_0": 86
          },
          "indices": 11,
          "material": 2
        }
      ]
    },
    {
      "name": "ConstructionFloodlightTiltBoltLeftLeftMesh",
      "primitives": [
        {
          "attributes": {
            "POSITION": 87,
            "NORMAL": 88,
            "TEXCOORD_0": 89
          },
          "indices": 7,
          "material": 1
        }
      ]
    },
    {
      "name": "ConstructionFloodlightTiltBoltRightLeftMesh",
      "primitives": [
        {
          "attributes": {
            "POSITION": 90,
            "NORMAL": 91,
            "TEXCOORD_0": 92
          },
          "indices": 7,
          "material": 1
        }
      ]
    },
    {
      "name": "ConstructionFloodlightHousingRightMesh",
      "primitives": [
        {
          "attributes": {
            "POSITION": 93,
            "NORMAL": 94,
            "TEXCOORD_0": 95
          },
          "indices": 67,
          "material": 2
        }
      ]
    },
    {
      "name": "ConstructionFloodlightReflectorRightMesh",
      "primitives": [
        {
          "attributes": {
            "POSITION": 96,
            "NORMAL": 97,
            "TEXCOORD_0": 98
          },
          "indices": 67,
          "material": 3
        }
      ]
    },
    {
      "name": "ConstructionFloodlightGlassRightMesh",
      "primitives": [
        {
          "attributes": {
            "POSITION": 99,
            "NORMAL": 100,
            "TEXCOORD_0": 101
          },
          "indices": 67,
          "material": 4
        }
      ]
    },
    {
      "name": "ConstructionFloodlightEmissiveRightMesh",
      "primitives": [
        {
          "attributes": {
            "POSITION": 102,
            "NORMAL": 103,
            "TEXCOORD_0": 104
          },
          "indices": 105,
          "material": 5
        }
      ]
    },
    {
      "name": "ConstructionFloodlightBracketLeftRightMesh",
      "primitives": [
        {
          "attributes": {
            "POSITION": 106,
            "NORMAL": 107,
            "TEXCOORD_0": 108
          },
          "indices": 11,
          "material": 2
        }
      ]
    },
    {
      "name": "ConstructionFloodlightBracketRightRightMesh",
      "primitives": [
        {
          "attributes": {
            "POSITION": 109,
            "NORMAL": 110,
            "TEXCOORD_0": 111
          },
          "indices": 11,
          "material": 2
        }
      ]
    },
    {
      "name": "ConstructionFloodlightBracketBaseRightMesh",
      "primitives": [
        {
          "attributes": {
            "POSITION": 112,
            "NORMAL": 113,
            "TEXCOORD_0": 114
          },
          "indices": 11,
          "material": 2
        }
      ]
    },
    {
      "name": "ConstructionFloodlightTiltBoltLeftRightMesh",
      "primitives": [
        {
          "attributes": {
            "POSITION": 115,
            "NORMAL": 116,
            "TEXCOORD_0": 117
          },
          "indices": 7,
          "material": 1
        }
      ]
    },
    {
      "name": "ConstructionFloodlightTiltBoltRightRightMesh",
      "primitives": [
        {
          "attributes": {
            "POSITION": 118,
            "NORMAL": 119,
            "TEXCOORD_0": 120
          },
          "indices": 7,
          "material": 1
        }
      ]
    },
    {
      "name": "ConstructionFloodlightPowerCableLeftCurve",
      "primitives": [
        {
          "attributes": {
            "POSITION": 121,
            "NORMAL": 122,
            "TEXCOORD_0": 123
          },
          "indices": 124,
          "material": 1
        }
      ]
    },
    {
      "name": "ConstructionFloodlightPowerCableRightCurve",
      "primitives": [
        {
          "attributes": {
            "POSITION": 125,
            "NORMAL": 126,
            "TEXCOORD_0": 127
          },
          "indices": 124,
          "material": 1
        }
      ]
    },
    {
      "name": "ConstructionFloodlightSupplyCableCurve",
      "primitives": [
        {
          "attributes": {
            "POSITION": 128,
            "NORMAL": 129,
            "TEXCOORD_0": 130
          },
          "indices": 131,
          "material": 1
        }
      ]
    },
    {
      "name": "ConstructionFloodlightPlugMesh",
      "primitives": [
        {
          "attributes": {
            "POSITION": 132,
            "NORMAL": 133,
            "TEXCOORD_0": 134
          },
          "indices": 67,
          "material": 1
        }
      ]
    }
  ],
  "accessors": [
    {
      "bufferView": 0,
      "componentType": 5126,
      "count": 164,
      "max": [
        0.017999999225139618,
        0.20309144258499146,
        0.017999999225139618
      ],
      "min": [
        -0.017999999225139618,
        -0.20309144258499146,
        -0.017999999225139618
      ],
      "type": "VEC3"
    },
    {
      "bufferView": 1,
      "componentType": 5126,
      "count": 164,
      "type": "VEC3"
    },
    {
      "bufferView": 2,
      "componentType": 5126,
      "count": 164,
      "type": "VEC2"
    },
    {
      "bufferView": 3,
      "componentType": 5123,
      "count": 708,
      "type": "SCALAR"
    },
    {
      "bufferView": 4,
      "componentType": 5126,
      "count": 82,
      "max": [
        0.02500000037252903,
        0.02250000089406967,
        0.02500000037252903
      ],
      "min": [
        -0.02500000037252903,
        -0.02250000089406967,
        -0.02500000037252903
      ],
      "type": "VEC3"
    },
    {
      "bufferView": 5,
      "componentType": 5126,
      "count": 82,
      "type": "VEC3"
    },
    {
      "bufferView": 6,
      "componentType": 5126,
      "count": 82,
      "type": "VEC2"
    },
    {
      "bufferView": 7,
      "componentType": 5123,
      "count": 228,
      "type": "SCALAR"
    },
    {
      "bufferView": 8,
      "componentType": 5126,
      "count": 66,
      "max": [
        0.00800000037997961,
        0.17808888852596283,
        0.00800000037997961
      ],
      "min": [
        -0.00800000037997961,
        -0.17808888852596283,
        -0.00800000037997961
      ],
      "type": "VEC3"
    },
    {
      "bufferView": 9,
      "componentType": 5126,
      "count": 66,
      "type": "VEC3"
    },
    {
      "bufferView": 10,
      "componentType": 5126,
      "count": 66,
      "type": "VEC2"
    },
    {
      "bufferView": 11,
      "componentType": 5123,
      "count": 180,
      "type": "SCALAR"
    },
    {
      "bufferView": 12,
      "componentType": 5126,
      "count": 66,
      "max": [
        0.009999999776482582,
        0.025000005960464478,
        0.009999999776482582
      ],
      "min": [
        -0.009999999776482582,
        -0.025000005960464478,
        -0.009999999776482582
      ],
      "type": "VEC3"
    },
    {
      "bufferView": 13,
      "componentType": 5126,
      "count": 66,
      "type": "VEC3"
    },
    {
      "bufferView": 14,
      "componentType": 5126,
      "count": 66,
      "type": "VEC2"
    },
    {
      "bufferView": 15,
      "componentType": 5126,
      "count": 164,
      "max": [
        0.017999999225139618,
        0.20309144258499146,
        0.017999999225139618
      ],
      "min": [
        -0.017999999225139618,
        -0.20309144258499146,
        -0.017999999225139618
      ],
      "type": "VEC3"
    },
    {
      "bufferView": 16,
      "componentType": 5126,
      "count": 164,
      "type": "VEC3"
    },
    {
      "bufferView": 17,
      "componentType": 5126,
      "count": 164,
      "type": "VEC2"
    },
    {
      "bufferView": 18,
      "componentType": 5126,
      "count": 82,
      "max": [
        0.02500000037252903,
        0.02250000089406967,
        0.02500000037252903
      ],
      "min": [
        -0.02500000037252903,
        -0.02250000089406967,
        -0.02500000037252903
      ],
      "type": "VEC3"
    },
    {
      "bufferView": 19,
      "componentType": 5126,
      "count": 82,
      "type": "VEC3"
    },
    {
      "bufferView": 20,
      "componentType": 5126,
      "count": 82,
      "type": "VEC2"
    },
    {
      "bufferView": 21,
      "componentType": 5126,
      "count": 66,
      "max": [
        0.00800000037997961,
        0.17808888852596283,
        0.00800000037997961
      ],
      "min": [
        -0.00800000037997961,
        -0.17808888852596283,
        -0.00800000037997961
      ],
      "type": "VEC3"
    },
    {
      "bufferView": 22,
      "componentType": 5126,
      "count": 66,
      "type": "VEC3"
    },
    {
      "bufferView": 23,
      "componentType": 5126,
      "count": 66,
      "type": "VEC2"
    },
    {
      "bufferView": 24,
      "componentType": 5126,
      "count": 66,
      "max": [
        0.009999999776482582,
        0.025000005960464478,
        0.009999999776482582
      ],
      "min": [
        -0.009999999776482582,
        -0.025000005960464478,
        -0.009999999776482582
      ],
      "type": "VEC3"
    },
    {
      "bufferView": 25,
      "componentType": 5126,
      "count": 66,
      "type": "VEC3"
    },
    {
      "bufferView": 26,
      "componentType": 5126,
      "count": 66,
      "type": "VEC2"
    },
    {
      "bufferView": 27,
      "componentType": 5126,
      "count": 164,
      "max": [
        0.017999999225139618,
        0.18738090991973877,
        0.017999999225139618
      ],
      "min": [
        -0.017999999225139618,
        -0.18738090991973877,
        -0.017999999225139618
      ],
      "type": "VEC3"
    },
    {
      "bufferView": 28,
      "componentType": 5126,
      "count": 164,
      "type": "VEC3"
    },
    {
      "bufferView": 29,
      "componentType": 5126,
      "count": 164,
      "type": "VEC2"
    },
    {
      "bufferView": 30,
      "componentType": 5126,
      "count": 82,
      "max": [
        0.02500000037252903,
        0.02250000648200512,
        0.02500000037252903
      ],
      "min": [
        -0.02500000037252903,
        -0.02250000648200512,
        -0.02500000037252903
      ],
      "type": "VEC3"
    },
    {
      "bufferView": 31,
      "componentType": 5126,
      "count": 82,
      "type": "VEC3"
    },
    {
      "bufferView": 32,
      "componentType": 5126,
      "count": 82,
      "type": "VEC2"
    },
    {
      "bufferView": 33,
      "componentType": 5126,
      "count": 66,
      "max": [
        0.00800000037997961,
        0.17150560021400452,
        0.00800000037997961
      ],
      "min": [
        -0.00800000037997961,
        -0.17150560021400452,
        -0.00800000037997961
      ],
      "type": "VEC3"
    },
    {
      "bufferView": 34,
      "componentType": 5126,
      "count": 66,
      "type": "VEC3"
    },
    {
      "bufferView": 35,
      "componentType": 5126,
      "count": 66,
      "type": "VEC2"
    },
    {
      "bufferView": 36,
      "componentType": 5126,
      "count": 66,
      "max": [
        0.009999999776482582,
        0.02500000037252903,
        0.009999999776482582
      ],
      "min": [
        -0.009999999776482582,
        -0.02500000037252903,
        -0.009999999776482582
      ],
      "type": "VEC3"
    },
    {
      "bufferView": 37,
      "componentType": 5126,
      "count": 66,
      "type": "VEC3"
    },
    {
      "bufferView": 38,
      "componentType": 5126,
      "count": 66,
      "type": "VEC2"
    },
    {
      "bufferView": 39,
      "componentType": 5126,
      "count": 98,
      "max": [
        0.020999999716877937,
        0.4300000071525574,
        0.020999999716877937
      ],
      "min": [
        -0.020999999716877937,
        -0.4300000071525574,
        -0.020999999716877937
      ],
      "type": "VEC3"
    },
    {
      "bufferView": 40,
      "componentType": 5126,
      "count": 98,
      "type": "VEC3"
    },
    {
      "bufferView": 41,
      "componentType": 5126,
      "count": 98,
      "type": "VEC2"
    },
    {
      "bufferView": 42,
      "componentType": 5123,
      "count": 276,
      "type": "SCALAR"
    },
    {
      "bufferView": 43,
      "componentType": 5126,
      "count": 98,
      "max": [
        0.017000000923871994,
        0.21999996900558472,
        0.017000000923871994
      ],
      "min": [
        -0.017000000923871994,
        -0.21999996900558472,
        -0.017000000923871994
      ],
      "type": "VEC3"
    },
    {
      "bufferView": 44,
      "componentType": 5126,
      "count": 98,
      "type": "VEC3"
    },
    {
      "bufferView": 45,
      "componentType": 5126,
      "count": 98,
      "type": "VEC2"
    },
    {
      "bufferView": 46,
      "componentType": 5126,
      "count": 98,
      "max": [
        0.013000000268220901,
        0.125,
        0.013000000268220901
      ],
      "min": [
        -0.013000000268220901,
        -0.125,
        -0.013000000268220901
      ],
      "type": "VEC3"
    },
    {
      "bufferView": 47,
      "componentType": 5126,
      "count": 98,
      "type": "VEC3"
    },
    {
      "bufferView": 48,
      "componentType": 5126,
      "count": 98,
      "type": "VEC2"
    },
    {
      "bufferView": 49,
      "componentType": 5126,
      "count": 98,
      "max": [
        0.03099999949336052,
        0.03999999910593033,
        0.03099999949336052
      ],
      "min": [
        -0.03099999949336052,
        -0.03999999910593033,
        -0.03099999949336052
      ],
      "type": "VEC3"
    },
    {
      "bufferView": 50,
      "componentType": 5126,
      "count": 98,
      "type": "VEC3"
    },
    {
      "bufferView": 51,
      "componentType": 5126,
      "count": 98,
      "type": "VEC2"
    },
    {
      "bufferView": 52,
      "componentType": 5126,
      "count": 98,
      "max": [
        0.029999999329447746,
        0.03999999165534973,
        0.029999999329447746
      ],
      "min": [
        -0.029999999329447746,
        -0.03999999165534973,
        -0.029999999329447746
      ],
      "type": "VEC3"
    },
    {
      "bufferView": 53,
      "componentType": 5126,
      "count": 98,
      "type": "VEC3"
    },
    {
      "bufferView": 54,
      "componentType": 5126,
      "count": 98,
      "type": "VEC2"
    },
    {
      "bufferView": 55,
      "componentType": 5126,
      "count": 98,
      "max": [
        0.026000000536441803,
        0.039999961853027344,
        0.026000000536441803
      ],
      "min": [
        -0.026000000536441803,
        -0.039999961853027344,
        -0.026000000536441803
      ],
      "type": "VEC3"
    },
    {
      "bufferView": 56,
      "componentType": 5126,
      "count": 98,
      "type": "VEC3"
    },
    {
      "bufferView": 57,
      "componentType": 5126,
      "count": 98,
      "type": "VEC2"
    },
    {
      "bufferView": 58,
      "componentType": 5126,
      "count": 98,
      "max": [
        0.014999999664723873,
        0.4300000071525574,
        0.014999999664723873
      ],
      "min": [
        -0.014999999664723873,
        -0.4300000071525574,
        -0.014999999664723873
      ],
      "type": "VEC3"
    },
    {
      "bufferView": 59,
      "componentType": 5126,
      "count": 98,
      "type": "VEC3"
    },
    {
      "bufferView": 60,
      "componentType": 5126,
      "count": 98,
      "type": "VEC2"
    },
    {
      "bufferView": 61,
      "componentType": 5126,
      "count": 98,
      "max": [
        0.02800000086426735,
        0.0350000262260437,
        0.02800000086426735
      ],
      "min": [
        -0.02800000086426735,
        -0.0350000262260437,
        -0.02800000086426735
      ],
      "type": "VEC3"
    },
    {
      "bufferView": 62,
      "componentType": 5126,
      "count": 98,
      "type": "VEC3"
    },
    {
      "bufferView": 63,
      "componentType": 5126,
      "count": 98,
      "type": "VEC2"
    },
    {
      "bufferView": 64,
      "componentType": 5126,
      "count": 216,
      "max": [
        0.1340000033378601,
        0.0949999988079071,
        0.03999999910593033
      ],
      "min": [
        -0.1340000033378601,
        -0.0949999988079071,
        -0.03999999910593033
      ],
      "type": "VEC3"
    },
    {
      "bufferView": 65,
      "componentType": 5126,
      "count": 216,
      "type": "VEC3"
    },
    {
      "bufferView": 66,
      "componentType": 5126,
      "count": 216,
      "type": "VEC2"
    },
    {
      "bufferView": 67,
      "componentType": 5123,
      "count": 324,
      "type": "SCALAR"
    },
    {
      "bufferView": 68,
      "componentType": 5126,
      "count": 216,
      "max": [
        0.11100000143051147,
        0.07100000232458115,
        0.004000000189989805
      ],
      "min": [
        -0.11100000143051147,
        -0.07100000232458115,
        -0.004000000189989805
      ],
      "type": "VEC3"
    },
    {
      "bufferView": 69,
      "componentType": 5126,
      "count": 216,
      "type": "VEC3"
    },
    {
      "bufferView": 70,
      "componentType": 5126,
      "count": 216,
      "type": "VEC2"
    },
    {
      "bufferView": 71,
      "componentType": 5126,
      "count": 216,
      "max": [
        0.11599999666213989,
        0.07599999755620956,
        0.0020000000949949026
      ],
      "min": [
        -0.11599999666213989,
        -0.07599999755620956,
        -0.0020000000949949026
      ],
      "type": "VEC3"
    },
    {
      "bufferView": 72,
      "componentType": 5126,
      "count": 216,
      "type": "VEC3"
    },
    {
      "bufferView": 73,
      "componentType": 5126,
      "count": 216,
      "type": "VEC2"
    },
    {
      "bufferView": 74,
      "componentType": 5126,
      "count": 3888,
      "max": [
        0.14800000190734863,
        0.004999999888241291,
        0.00150003912858665
      ],
      "min": [
        -0.00800000037997961,
        -0.055000189691782,
        -0.001500000013038516
      ],
      "type": "VEC3"
    },
    {
      "bufferView": 75,
      "componentType": 5126,
      "count": 3888,
      "type": "VEC3"
    },
    {
      "bufferView": 76,
      "componentType": 5126,
      "count": 3888,
      "type": "VEC2"
    },
    {
      "bufferView": 77,
      "componentType": 5123,
      "count": 5832,
      "type": "SCALAR"
    },
    {
      "bufferView": 78,
      "componentType": 5126,
      "count": 66,
      "max": [
        0.00800000037997961,
        0.04818892851471901,
        0.00800000037997961
      ],
      "min": [
        -0.00800000037997961,
        -0.04818892851471901,
        -0.00800000037997961
      ],
      "type": "VEC3"
    },
    {
      "bufferView": 79,
      "componentType": 5126,
      "count": 66,
      "type": "VEC3"
    },
    {
      "bufferView": 80,
      "componentType": 5126,
      "count": 66,
      "type": "VEC2"
    },
    {
      "bufferView": 81,
      "componentType": 5126,
      "count": 66,
      "max": [
        0.00800000037997961,
        0.04818892851471901,
        0.00800000037997961
      ],
      "min": [
        -0.00800000037997961,
        -0.04818892851471901,
        -0.00800000037997961
      ],
      "type": "VEC3"
    },
    {
      "bufferView": 82,
      "componentType": 5126,
      "count": 66,
      "type": "VEC3"
    },
    {
      "bufferView": 83,
      "componentType": 5126,
      "count": 66,
      "type": "VEC2"
    },
    {
      "bufferView": 84,
      "componentType": 5126,
      "count": 66,
      "max": [
        0.00800000037997961,
        0.15399999916553497,
        0.00800000037997961
      ],
      "min": [
        -0.00800000037997961,
        -0.15399999916553497,
        -0.00800000037997961
      ],
      "type": "VEC3"
    },
    {
      "bufferView": 85,
      "componentType": 5126,
      "count": 66,
      "type": "VEC3"
    },
    {
      "bufferView": 86,
      "componentType": 5126,
      "count": 66,
      "type": "VEC2"
    },
    {
      "bufferView": 87,
      "componentType": 5126,
      "count": 82,
      "max": [
        0.012000000104308128,
        0.04500000178813934,
        0.012000000104308128
      ],
      "min": [
        -0.012000000104308128,
        -0.04500000178813934,
        -0.012000000104308128
      ],
      "type": "VEC3"
    },
    {
      "bufferView": 88,
      "componentType": 5126,
      "count": 82,
      "type": "VEC3"
    },
    {
      "bufferView": 89,
      "componentType": 5126,
      "count": 82,
      "type": "VEC2"
    },
    {
      "bufferView": 90,
      "componentType": 5126,
      "count": 82,
      "max": [
        0.012000000104308128,
        0.04500000178813934,
        0.012000000104308128
      ],
      "min": [
        -0.012000000104308128,
        -0.04500000178813934,
        -0.012000000104308128
      ],
      "type": "VEC3"
    },
    {
      "bufferView": 91,
      "componentType": 5126,
      "count": 82,
      "type": "VEC3"
    },
    {
      "bufferView": 92,
      "componentType": 5126,
      "count": 82,
      "type": "VEC2"
    },
    {
      "bufferView": 93,
      "componentType": 5126,
      "count": 216,
      "max": [
        0.1340000033378601,
        0.0949999988079071,
        0.03999999910593033
      ],
      "min": [
        -0.1340000033378601,
        -0.0949999988079071,
        -0.03999999910593033
      ],
      "type": "VEC3"
    },
    {
      "bufferView": 94,
      "componentType": 5126,
      "count": 216,
      "type": "VEC3"
    },
    {
      "bufferView": 95,
      "componentType": 5126,
      "count": 216,
      "type": "VEC2"
    },
    {
      "bufferView": 96,
      "componentType": 5126,
      "count": 216,
      "max": [
        0.11100000143051147,
        0.07100000232458115,
        0.004000000189989805
      ],
      "min": [
        -0.11100000143051147,
        -0.07100000232458115,
        -0.004000000189989805
      ],
      "type": "VEC3"
    },
    {
      "bufferView": 97,
      "componentType": 5126,
      "count": 216,
      "type": "VEC3"
    },
    {
      "bufferView": 98,
      "componentType": 5126,
      "count": 216,
      "type": "VEC2"
    },
    {
      "bufferView": 99,
      "componentType": 5126,
      "count": 216,
      "max": [
        0.11599999666213989,
        0.07599999755620956,
        0.0020000000949949026
      ],
      "min": [
        -0.11599999666213989,
        -0.07599999755620956,
        -0.0020000000949949026
      ],
      "type": "VEC3"
    },
    {
      "bufferView": 100,
      "componentType": 5126,
      "count": 216,
      "type": "VEC3"
    },
    {
      "bufferView": 101,
      "componentType": 5126,
      "count": 216,
      "type": "VEC2"
    },
    {
      "bufferView": 102,
      "componentType": 5126,
      "count": 3888,
      "max": [
        0.14800000190734863,
        0.004999999888241291,
        0.00150003912858665
      ],
      "min": [
        -0.00800000037997961,
        -0.055000189691782,
        -0.001500000013038516
      ],
      "type": "VEC3"
    },
    {
      "bufferView": 103,
      "componentType": 5126,
      "count": 3888,
      "type": "VEC3"
    },
    {
      "bufferView": 104,
      "componentType": 5126,
      "count": 3888,
      "type": "VEC2"
    },
    {
      "bufferView": 105,
      "componentType": 5123,
      "count": 5832,
      "type": "SCALAR"
    },
    {
      "bufferView": 106,
      "componentType": 5126,
      "count": 66,
      "max": [
        0.00800000037997961,
        0.04818892851471901,
        0.00800000037997961
      ],
      "min": [
        -0.00800000037997961,
        -0.04818892851471901,
        -0.00800000037997961
      ],
      "type": "VEC3"
    },
    {
      "bufferView": 107,
      "componentType": 5126,
      "count": 66,
      "type": "VEC3"
    },
    {
      "bufferView": 108,
      "componentType": 5126,
      "count": 66,
      "type": "VEC2"
    },
    {
      "bufferView": 109,
      "componentType": 5126,
      "count": 66,
      "max": [
        0.00800000037997961,
        0.04818892851471901,
        0.00800000037997961
      ],
      "min": [
        -0.00800000037997961,
        -0.04818892851471901,
        -0.00800000037997961
      ],
      "type": "VEC3"
    },
    {
      "bufferView": 110,
      "componentType": 5126,
      "count": 66,
      "type": "VEC3"
    },
    {
      "bufferView": 111,
      "componentType": 5126,
      "count": 66,
      "type": "VEC2"
    },
    {
      "bufferView": 112,
      "componentType": 5126,
      "count": 66,
      "max": [
        0.00800000037997961,
        0.15399999916553497,
        0.00800000037997961
      ],
      "min": [
        -0.00800000037997961,
        -0.15399999916553497,
        -0.00800000037997961
      ],
      "type": "VEC3"
    },
    {
      "bufferView": 113,
      "componentType": 5126,
      "count": 66,
      "type": "VEC3"
    },
    {
      "bufferView": 114,
      "componentType": 5126,
      "count": 66,
      "type": "VEC2"
    },
    {
      "bufferView": 115,
      "componentType": 5126,
      "count": 82,
      "max": [
        0.012000000104308128,
        0.04500000178813934,
        0.012000000104308128
      ],
      "min": [
        -0.012000000104308128,
        -0.04500000178813934,
        -0.012000000104308128
      ],
      "type": "VEC3"
    },
    {
      "bufferView": 116,
      "componentType": 5126,
      "count": 82,
      "type": "VEC3"
    },
    {
      "bufferView": 117,
      "componentType": 5126,
      "count": 82,
      "type": "VEC2"
    },
    {
      "bufferView": 118,
      "componentType": 5126,
      "count": 82,
      "max": [
        0.012000000104308128,
        0.04500000178813934,
        0.012000000104308128
      ],
      "min": [
        -0.012000000104308128,
        -0.04500000178813934,
        -0.012000000104308128
      ],
      "type": "VEC3"
    },
    {
      "bufferView": 119,
      "componentType": 5126,
      "count": 82,
      "type": "VEC3"
    },
    {
      "bufferView": 120,
      "componentType": 5126,
      "count": 82,
      "type": "VEC2"
    },
    {
      "bufferView": 121,
      "componentType": 5126,
      "count": 63,
      "max": [
        0.0026679132133722305,
        1.551828145980835,
        -0.035175666213035583
      ],
      "min": [
        -0.20982688665390015,
        1.3857274055480957,
        -0.08495534956455231
      ],
      "type": "VEC3"
    },
    {
      "bufferView": 122,
      "componentType": 5126,
      "count": 63,
      "type": "VEC3"
    },
    {
      "bufferView": 123,
      "componentType": 5126,
      "count": 63,
      "type": "VEC2"
    },
    {
      "bufferView": 124,
      "componentType": 5123,
      "count": 288,
      "type": "SCALAR"
    },
    {
      "bufferView": 125,
      "componentType": 5126,
      "count": 63,
      "max": [
        0.20982688665390015,
        1.551828145980835,
        -0.035175666213035583
      ],
      "min": [
        -0.002667913679033518,
        1.3857274055480957,
        -0.08495534956455231
      ],
      "type": "VEC3"
    },
    {
      "bufferView": 126,
      "componentType": 5126,
      "count": 63,
      "type": "VEC3"
    },
    {
      "bufferView": 127,
      "componentType": 5126,
      "count": 63,
      "type": "VEC2"
    },
    {
      "bufferView": 128,
      "componentType": 5126,
      "count": 81,
      "max": [
        0.3041715621948242,
        1.3907678127288818,
        0.14478600025177002
      ],
      "min": [
        -0.005950666964054108,
        0.049828317016363144,
        -0.04660356417298317
      ],
      "type": "VEC3"
    },
    {
      "bufferView": 129,
      "componentType": 5126,
      "count": 81,
      "type": "VEC3"
    },
    {
      "bufferView": 130,
      "componentType": 5126,
      "count": 81,
      "type": "VEC2"
    },
    {
      "bufferView": 131,
      "componentType": 5123,
      "count": 384,
      "type": "SCALAR"
    },
    {
      "bufferView": 132,
      "componentType": 5126,
      "count": 216,
      "max": [
        0.032499998807907104,
        0.01600000075995922,
        0.017500000074505806
      ],
      "min": [
        -0.032499998807907104,
        -0.01600000075995922,
        -0.017500000074505806
      ],
      "type": "VEC3"
    },
    {
      "bufferView": 133,
      "componentType": 5126,
      "count": 216,
      "type": "VEC3"
    },
    {
      "bufferView": 134,
      "componentType": 5126,
      "count": 216,
      "type": "VEC2"
    }
  ],
  "bufferViews": [
    {
      "buffer": 0,
      "byteLength": 1968,
      "byteOffset": 0,
      "target": 34962
    },
    {
      "buffer": 0,
      "byteLength": 1968,
      "byteOffset": 1968,
      "target": 34962
    },
    {
      "buffer": 0,
      "byteLength": 1312,
      "byteOffset": 3936,
      "target": 34962
    },
    {
      "buffer": 0,
      "byteLength": 1416,
      "byteOffset": 5248,
      "target": 34963
    },
    {
      "buffer": 0,
      "byteLength": 984,
      "byteOffset": 6664,
      "target": 34962
    },
    {
      "buffer": 0,
      "byteLength": 984,
      "byteOffset": 7648,
      "target": 34962
    },
    {
      "buffer": 0,
      "byteLength": 656,
      "byteOffset": 8632,
      "target": 34962
    },
    {
      "buffer": 0,
      "byteLength": 456,
      "byteOffset": 9288,
      "target": 34963
    },
    {
      "buffer": 0,
      "byteLength": 792,
      "byteOffset": 9744,
      "target": 34962
    },
    {
      "buffer": 0,
      "byteLength": 792,
      "byteOffset": 10536,
      "target": 34962
    },
    {
      "buffer": 0,
      "byteLength": 528,
      "byteOffset": 11328,
      "target": 34962
    },
    {
      "buffer": 0,
      "byteLength": 360,
      "byteOffset": 11856,
      "target": 34963
    },
    {
      "buffer": 0,
      "byteLength": 792,
      "byteOffset": 12216,
      "target": 34962
    },
    {
      "buffer": 0,
      "byteLength": 792,
      "byteOffset": 13008,
      "target": 34962
    },
    {
      "buffer": 0,
      "byteLength": 528,
      "byteOffset": 13800,
      "target": 34962
    },
    {
      "buffer": 0,
      "byteLength": 1968,
      "byteOffset": 14328,
      "target": 34962
    },
    {
      "buffer": 0,
      "byteLength": 1968,
      "byteOffset": 16296,
      "target": 34962
    },
    {
      "buffer": 0,
      "byteLength": 1312,
      "byteOffset": 18264,
      "target": 34962
    },
    {
      "buffer": 0,
      "byteLength": 984,
      "byteOffset": 19576,
      "target": 34962
    },
    {
      "buffer": 0,
      "byteLength": 984,
      "byteOffset": 20560,
      "target": 34962
    },
    {
      "buffer": 0,
      "byteLength": 656,
      "byteOffset": 21544,
      "target": 34962
    },
    {
      "buffer": 0,
      "byteLength": 792,
      "byteOffset": 22200,
      "target": 34962
    },
    {
      "buffer": 0,
      "byteLength": 792,
      "byteOffset": 22992,
      "target": 34962
    },
    {
      "buffer": 0,
      "byteLength": 528,
      "byteOffset": 23784,
      "target": 34962
    },
    {
      "buffer": 0,
      "byteLength": 792,
      "byteOffset": 24312,
      "target": 34962
    },
    {
      "buffer": 0,
      "byteLength": 792,
      "byteOffset": 25104,
      "target": 34962
    },
    {
      "buffer": 0,
      "byteLength": 528,
      "byteOffset": 25896,
      "target": 34962
    },
    {
      "buffer": 0,
      "byteLength": 1968,
      "byteOffset": 26424,
      "target": 34962
    },
    {
      "buffer": 0,
      "byteLength": 1968,
      "byteOffset": 28392,
      "target": 34962
    },
    {
      "buffer": 0,
      "byteLength": 1312,
      "byteOffset": 30360,
      "target": 34962
    },
    {
      "buffer": 0,
      "byteLength": 984,
      "byteOffset": 31672,
      "target": 34962
    },
    {
      "buffer": 0,
      "byteLength": 984,
      "byteOffset": 32656,
      "target": 34962
    },
    {
      "buffer": 0,
      "byteLength": 656,
      "byteOffset": 33640,
      "target": 34962
    },
    {
      "buffer": 0,
      "byteLength": 792,
      "byteOffset": 34296,
      "target": 34962
    },
    {
      "buffer": 0,
      "byteLength": 792,
      "byteOffset": 35088,
      "target": 34962
    },
    {
      "buffer": 0,
      "byteLength": 528,
      "byteOffset": 35880,
      "target": 34962
    },
    {
      "buffer": 0,
      "byteLength": 792,
      "byteOffset": 36408,
      "target": 34962
    },
    {
      "buffer": 0,
      "byteLength": 792,
      "byteOffset": 37200,
      "target": 34962
    },
    {
      "buffer": 0,
      "byteLength": 528,
      "byteOffset": 37992,
      "target": 34962
    },
    {
      "buffer": 0,
      "byteLength": 1176,
      "byteOffset": 38520,
      "target": 34962
    },
    {
      "buffer": 0,
      "byteLength": 1176,
      "byteOffset": 39696,
      "target": 34962
    },
    {
      "buffer": 0,
      "byteLength": 784,
      "byteOffset": 40872,
      "target": 34962
    },
    {
      "buffer": 0,
      "byteLength": 552,
      "byteOffset": 41656,
      "target": 34963
    },
    {
      "buffer": 0,
      "byteLength": 1176,
      "byteOffset": 42208,
      "target": 34962
    },
    {
      "buffer": 0,
      "byteLength": 1176,
      "byteOffset": 43384,
      "target": 34962
    },
    {
      "buffer": 0,
      "byteLength": 784,
      "byteOffset": 44560,
      "target": 34962
    },
    {
      "buffer": 0,
      "byteLength": 1176,
      "byteOffset": 45344,
      "target": 34962
    },
    {
      "buffer": 0,
      "byteLength": 1176,
      "byteOffset": 46520,
      "target": 34962
    },
    {
      "buffer": 0,
      "byteLength": 784,
      "byteOffset": 47696,
      "target": 34962
    },
    {
      "buffer": 0,
      "byteLength": 1176,
      "byteOffset": 48480,
      "target": 34962
    },
    {
      "buffer": 0,
      "byteLength": 1176,
      "byteOffset": 49656,
      "target": 34962
    },
    {
      "buffer": 0,
      "byteLength": 784,
      "byteOffset": 50832,
      "target": 34962
    },
    {
      "buffer": 0,
      "byteLength": 1176,
      "byteOffset": 51616,
      "target": 34962
    },
    {
      "buffer": 0,
      "byteLength": 1176,
      "byteOffset": 52792,
      "target": 34962
    },
    {
      "buffer": 0,
      "byteLength": 784,
      "byteOffset": 53968,
      "target": 34962
    },
    {
      "buffer": 0,
      "byteLength": 1176,
      "byteOffset": 54752,
      "target": 34962
    },
    {
      "buffer": 0,
      "byteLength": 1176,
      "byteOffset": 55928,
      "target": 34962
    },
    {
      "buffer": 0,
      "byteLength": 784,
      "byteOffset": 57104,
      "target": 34962
    },
    {
      "buffer": 0,
      "byteLength": 1176,
      "byteOffset": 57888,
      "target": 34962
    },
    {
      "buffer": 0,
      "byteLength": 1176,
      "byteOffset": 59064,
      "target": 34962
    },
    {
      "buffer": 0,
      "byteLength": 784,
      "byteOffset": 60240,
      "target": 34962
    },
    {
      "buffer": 0,
      "byteLength": 1176,
      "byteOffset": 61024,
      "target": 34962
    },
    {
      "buffer": 0,
      "byteLength": 1176,
      "byteOffset": 62200,
      "target": 34962
    },
    {
      "buffer": 0,
      "byteLength": 784,
      "byteOffset": 63376,
      "target": 34962
    },
    {
      "buffer": 0,
      "byteLength": 2592,
      "byteOffset": 64160,
      "target": 34962
    },
    {
      "buffer": 0,
      "byteLength": 2592,
      "byteOffset": 66752,
      "target": 34962
    },
    {
      "buffer": 0,
      "byteLength": 1728,
      "byteOffset": 69344,
      "target": 34962
    },
    {
      "buffer": 0,
      "byteLength": 648,
      "byteOffset": 71072,
      "target": 34963
    },
    {
      "buffer": 0,
      "byteLength": 2592,
      "byteOffset": 71720,
      "target": 34962
    },
    {
      "buffer": 0,
      "byteLength": 2592,
      "byteOffset": 74312,
      "target": 34962
    },
    {
      "buffer": 0,
      "byteLength": 1728,
      "byteOffset": 76904,
      "target": 34962
    },
    {
      "buffer": 0,
      "byteLength": 2592,
      "byteOffset": 78632,
      "target": 34962
    },
    {
      "buffer": 0,
      "byteLength": 2592,
      "byteOffset": 81224,
      "target": 34962
    },
    {
      "buffer": 0,
      "byteLength": 1728,
      "byteOffset": 83816,
      "target": 34962
    },
    {
      "buffer": 0,
      "byteLength": 46656,
      "byteOffset": 85544,
      "target": 34962
    },
    {
      "buffer": 0,
      "byteLength": 46656,
      "byteOffset": 132200,
      "target": 34962
    },
    {
      "buffer": 0,
      "byteLength": 31104,
      "byteOffset": 178856,
      "target": 34962
    },
    {
      "buffer": 0,
      "byteLength": 11664,
      "byteOffset": 209960,
      "target": 34963
    },
    {
      "buffer": 0,
      "byteLength": 792,
      "byteOffset": 221624,
      "target": 34962
    },
    {
      "buffer": 0,
      "byteLength": 792,
      "byteOffset": 222416,
      "target": 34962
    },
    {
      "buffer": 0,
      "byteLength": 528,
      "byteOffset": 223208,
      "target": 34962
    },
    {
      "buffer": 0,
      "byteLength": 792,
      "byteOffset": 223736,
      "target": 34962
    },
    {
      "buffer": 0,
      "byteLength": 792,
      "byteOffset": 224528,
      "target": 34962
    },
    {
      "buffer": 0,
      "byteLength": 528,
      "byteOffset": 225320,
      "target": 34962
    },
    {
      "buffer": 0,
      "byteLength": 792,
      "byteOffset": 225848,
      "target": 34962
    },
    {
      "buffer": 0,
      "byteLength": 792,
      "byteOffset": 226640,
      "target": 34962
    },
    {
      "buffer": 0,
      "byteLength": 528,
      "byteOffset": 227432,
      "target": 34962
    },
    {
      "buffer": 0,
      "byteLength": 984,
      "byteOffset": 227960,
      "target": 34962
    },
    {
      "buffer": 0,
      "byteLength": 984,
      "byteOffset": 228944,
      "target": 34962
    },
    {
      "buffer": 0,
      "byteLength": 656,
      "byteOffset": 229928,
      "target": 34962
    },
    {
      "buffer": 0,
      "byteLength": 984,
      "byteOffset": 230584,
      "target": 34962
    },
    {
      "buffer": 0,
      "byteLength": 984,
      "byteOffset": 231568,
      "target": 34962
    },
    {
      "buffer": 0,
      "byteLength": 656,
      "byteOffset": 232552,
      "target": 34962
    },
    {
      "buffer": 0,
      "byteLength": 2592,
      "byteOffset": 233208,
      "target": 34962
    },
    {
      "buffer": 0,
      "byteLength": 2592,
      "byteOffset": 235800,
      "target": 34962
    },
    {
      "buffer": 0,
      "byteLength": 1728,
      "byteOffset": 238392,
      "target": 34962
    },
    {
      "buffer": 0,
      "byteLength": 2592,
      "byteOffset": 240120,
      "target": 34962
    },
    {
      "buffer": 0,
      "byteLength": 2592,
      "byteOffset": 242712,
      "target": 34962
    },
    {
      "buffer": 0,
      "byteLength": 1728,
      "byteOffset": 245304,
      "target": 34962
    },
    {
      "buffer": 0,
      "byteLength": 2592,
      "byteOffset": 247032,
      "target": 34962
    },
    {
      "buffer": 0,
      "byteLength": 2592,
      "byteOffset": 249624,
      "target": 34962
    },
    {
      "buffer": 0,
      "byteLength": 1728,
      "byteOffset": 252216,
      "target": 34962
    },
    {
      "buffer": 0,
      "byteLength": 46656,
      "byteOffset": 253944,
      "target": 34962
    },
    {
      "buffer": 0,
      "byteLength": 46656,
      "byteOffset": 300600,
      "target": 34962
    },
    {
      "buffer": 0,
      "byteLength": 31104,
      "byteOffset": 347256,
      "target": 34962
    },
    {
      "buffer": 0,
      "byteLength": 11664,
      "byteOffset": 378360,
      "target": 34963
    },
    {
      "buffer": 0,
      "byteLength": 792,
      "byteOffset": 390024,
      "target": 34962
    },
    {
      "buffer": 0,
      "byteLength": 792,
      "byteOffset": 390816,
      "target": 34962
    },
    {
      "buffer": 0,
      "byteLength": 528,
      "byteOffset": 391608,
      "target": 34962
    },
    {
      "buffer": 0,
      "byteLength": 792,
      "byteOffset": 392136,
      "target": 34962
    },
    {
      "buffer": 0,
      "byteLength": 792,
      "byteOffset": 392928,
      "target": 34962
    },
    {
      "buffer": 0,
      "byteLength": 528,
      "byteOffset": 393720,
      "target": 34962
    },
    {
      "buffer": 0,
      "byteLength": 792,
      "byteOffset": 394248,
      "target": 34962
    },
    {
      "buffer": 0,
      "byteLength": 792,
      "byteOffset": 395040,
      "target": 34962
    },
    {
      "buffer": 0,
      "byteLength": 528,
      "byteOffset": 395832,
      "target": 34962
    },
    {
      "buffer": 0,
      "byteLength": 984,
      "byteOffset": 396360,
      "target": 34962
    },
    {
      "buffer": 0,
      "byteLength": 984,
      "byteOffset": 397344,
      "target": 34962
    },
    {
      "buffer": 0,
      "byteLength": 656,
      "byteOffset": 398328,
      "target": 34962
    },
    {
      "buffer": 0,
      "byteLength": 984,
      "byteOffset": 398984,
      "target": 34962
    },
    {
      "buffer": 0,
      "byteLength": 984,
      "byteOffset": 399968,
      "target": 34962
    },
    {
      "buffer": 0,
      "byteLength": 656,
      "byteOffset": 400952,
      "target": 34962
    },
    {
      "buffer": 0,
      "byteLength": 756,
      "byteOffset": 401608,
      "target": 34962
    },
    {
      "buffer": 0,
      "byteLength": 756,
      "byteOffset": 402364,
      "target": 34962
    },
    {
      "buffer": 0,
      "byteLength": 504,
      "byteOffset": 403120,
      "target": 34962
    },
    {
      "buffer": 0,
      "byteLength": 576,
      "byteOffset": 403624,
      "target": 34963
    },
    {
      "buffer": 0,
      "byteLength": 756,
      "byteOffset": 404200,
      "target": 34962
    },
    {
      "buffer": 0,
      "byteLength": 756,
      "byteOffset": 404956,
      "target": 34962
    },
    {
      "buffer": 0,
      "byteLength": 504,
      "byteOffset": 405712,
      "target": 34962
    },
    {
      "buffer": 0,
      "byteLength": 972,
      "byteOffset": 406216,
      "target": 34962
    },
    {
      "buffer": 0,
      "byteLength": 972,
      "byteOffset": 407188,
      "target": 34962
    },
    {
      "buffer": 0,
      "byteLength": 648,
      "byteOffset": 408160,
      "target": 34962
    },
    {
      "buffer": 0,
      "byteLength": 768,
      "byteOffset": 408808,
      "target": 34963
    },
    {
      "buffer": 0,
      "byteLength": 2592,
      "byteOffset": 409576,
      "target": 34962
    },
    {
      "buffer": 0,
      "byteLength": 2592,
      "byteOffset": 412168,
      "target": 34962
    },
    {
      "buffer": 0,
      "byteLength": 1728,
      "byteOffset": 414760,
      "target": 34962
    }
  ],
  "buffers": [
    {
      "byteLength": 416488,
      "uri": "HomebaseConstructionFloodlightTripod_LOD00.bin"
    }
  ]
}
