{
  "asset": {
    "generator": "VFR Multitool office-container raw glTF exporter",
    "version": "2.0"
  },
  "extensionsUsed": [
    "ASOBO_advanced_light",
    "KHR_materials_emissive_strength"
  ],
  "scene": 0,
  "scenes": [
    {
      "name": "Scene",
      "nodes": [
        0,
        1,
        2,
        3,
        4,
        5,
        6,
        7,
        8,
        9,
        10,
        11,
        12,
        13,
        15,
        16,
        17
      ]
    }
  ],
  "nodes": [
    {
      "mesh": 0,
      "name": "OfficeContainerLOD01Floor",
      "translation": [
        0,
        0.07500000298023224,
        0
      ]
    },
    {
      "mesh": 1,
      "name": "OfficeContainerLOD01Roof",
      "translation": [
        0,
        2.509999990463257,
        0
      ]
    },
    {
      "mesh": 2,
      "name": "OfficeContainerLOD01Corner01",
      "translation": [
        -3.0299999713897705,
        1.2949999570846558,
        1.2200000286102295
      ]
    },
    {
      "mesh": 3,
      "name": "OfficeContainerLOD01Corner02",
      "translation": [
        -3.0299999713897705,
        1.2949999570846558,
        -1.2200000286102295
      ]
    },
    {
      "mesh": 4,
      "name": "OfficeContainerLOD01Corner03",
      "translation": [
        3.0299999713897705,
        1.2949999570846558,
        1.2200000286102295
      ]
    },
    {
      "mesh": 5,
      "name": "OfficeContainerLOD01Corner04",
      "translation": [
        3.0299999713897705,
        1.2949999570846558,
        -1.2200000286102295
      ]
    },
    {
      "mesh": 6,
      "name": "OfficeContainerLOD01FarWall",
      "translation": [
        0,
        1.3650000095367432,
        -1.1749999523162842
      ]
    },
    {
      "mesh": 7,
      "name": "OfficeContainerLOD01WindowWall",
      "translation": [
        0,
        1.3650000095367432,
        1.1749999523162842
      ]
    },
    {
      "mesh": 8,
      "name": "OfficeContainerLOD01Window01",
      "translation": [
        -1.2999999523162842,
        1.5,
        1.222000002861023
      ]
    },
    {
      "mesh": 9,
      "name": "OfficeContainerLOD01Window02",
      "translation": [
        0.550000011920929,
        1.5,
        1.222000002861023
      ]
    },
    {
      "mesh": 10,
      "name": "OfficeContainerLOD01DoorEndNear",
      "translation": [
        2.984999895095825,
        1.3650000095367432,
        0.8600000143051147
      ]
    },
    {
      "mesh": 11,
      "name": "OfficeContainerLOD01DoorEndFar",
      "translation": [
        2.984999895095825,
        1.3650000095367432,
        -0.8799999952316284
      ]
    },
    {
      "mesh": 12,
      "name": "OfficeContainerLOD01DoorHeader",
      "translation": [
        2.984999895095825,
        2.299999952316284,
        -0.019999999552965164
      ]
    },
    {
      "mesh": 13,
      "name": "OfficeContainerLOD01EntryStep",
      "translation": [
        3.369999885559082,
        0.05999999865889549,
        0
      ]
    },
    {
      "mesh": 14,
      "name": "OfficeContainerLOD01DoorPanel",
      "translation": [
        -0.015000015497207642,
        1.184999942779541,
        0.45999976992607117
      ]
    },
    {
      "children": [
        14
      ],
      "name": "OfficeContainerDoor",
      "rotation": [
        0,
        0.7933533787727356,
        0,
        0.6087614297866821
      ],
      "translation": [
        3.0999999046325684,
        0,
        -0.47999998927116394
      ]
    },
    {
      "mesh": 15,
      "name": "OfficeContainerCeilingLamp",
      "translation": [
        0.15000000596046448,
        2.3450000286102295,
        0
      ]
    },
    {
      "name": "OfficeContainerCeilingLight",
      "translation": [
        0.15000000596046448,
        2.309999942779541,
        -0.0
      ],
      "extensions": {
        "ASOBO_advanced_light": {
          "color": [
            1.0,
            0.8,
            0.58
          ],
          "intensity": 1450.0,
          "shape_type": 1,
          "source_radius": 0.65,
          "inner_cone_angle": 360.0,
          "outer_cone_angle": 360.0,
          "channel_exterior": true,
          "channel_interior": true,
          "flare_enabled": false
        }
      }
    }
  ],
  "animations": [
    {
      "channels": [
        {
          "sampler": 0,
          "target": {
            "node": 15,
            "path": "rotation"
          }
        }
      ],
      "name": "OfficeContainerDoor",
      "samplers": [
        {
          "input": 49,
          "interpolation": "LINEAR",
          "output": 50
        }
      ]
    }
  ],
  "materials": [
    {
      "doubleSided": true,
      "name": "OfficeContainerLOD01Interior",
      "pbrMetallicRoughness": {
        "baseColorFactor": [
          0.6800000071525574,
          0.699999988079071,
          0.699999988079071,
          1
        ],
        "metallicFactor": 0,
        "roughnessFactor": 0.7799999713897705
      }
    },
    {
      "doubleSided": true,
      "name": "OfficeContainerLOD01Blue",
      "pbrMetallicRoughness": {
        "baseColorFactor": [
          0.02500000037252903,
          0.1899999976158142,
          0.41999998688697815,
          1
        ],
        "metallicFactor": 0.18000000715255737,
        "roughnessFactor": 0.6200000047683716
      }
    },
    {
      "doubleSided": true,
      "name": "OfficeContainerLOD01Glass",
      "pbrMetallicRoughness": {
        "baseColorFactor": [
          0.05999999865889549,
          0.11999999731779099,
          0.1599999964237213,
          1
        ],
        "metallicFactor": 0.05000000074505806,
        "roughnessFactor": 0.3199999928474426
      }
    },
    {
      "doubleSided": true,
      "emissiveFactor": [
        1,
        0.6800000071525574,
        0.3199999928474426
      ],
      "extensions": {
        "KHR_materials_emissive_strength": {
          "emissiveStrength": 4
        }
      },
      "name": "OfficeContainerLOD01Lamp",
      "pbrMetallicRoughness": {
        "baseColorFactor": [
          1,
          0.6800000071525574,
          0.3199999928474426,
          1
        ],
        "metallicFactor": 0,
        "roughnessFactor": 0.25
      }
    }
  ],
  "meshes": [
    {
      "name": "W\u00fcrfel",
      "primitives": [
        {
          "attributes": {
            "POSITION": 0,
            "NORMAL": 1,
            "TEXCOORD_0": 2
          },
          "indices": 3,
          "material": 0
        }
      ]
    },
    {
      "name": "W\u00fcrfel.001",
      "primitives": [
        {
          "attributes": {
            "POSITION": 4,
            "NORMAL": 5,
            "TEXCOORD_0": 6
          },
          "indices": 3,
          "material": 1
        }
      ]
    },
    {
      "name": "W\u00fcrfel.002",
      "primitives": [
        {
          "attributes": {
            "POSITION": 7,
            "NORMAL": 8,
            "TEXCOORD_0": 9
          },
          "indices": 3,
          "material": 1
        }
      ]
    },
    {
      "name": "W\u00fcrfel.003",
      "primitives": [
        {
          "attributes": {
            "POSITION": 10,
            "NORMAL": 11,
            "TEXCOORD_0": 12
          },
          "indices": 3,
          "material": 1
        }
      ]
    },
    {
      "name": "W\u00fcrfel.004",
      "primitives": [
        {
          "attributes": {
            "POSITION": 13,
            "NORMAL": 14,
            "TEXCOORD_0": 15
          },
          "indices": 3,
          "material": 1
        }
      ]
    },
    {
      "name": "W\u00fcrfel.005",
      "primitives": [
        {
          "attributes": {
            "POSITION": 16,
            "NORMAL": 17,
            "TEXCOORD_0": 18
          },
          "indices": 3,
          "material": 1
        }
      ]
    },
    {
      "name": "W\u00fcrfel.006",
      "primitives": [
        {
          "attributes": {
            "POSITION": 19,
            "NORMAL": 20,
            "TEXCOORD_0": 21
          },
          "indices": 3,
          "material": 1
        }
      ]
    },
    {
      "name": "W\u00fcrfel.007",
      "primitives": [
        {
          "attributes": {
            "POSITION": 22,
            "NORMAL": 23,
            "TEXCOORD_0": 24
          },
          "indices": 3,
          "material": 1
        }
      ]
    },
    {
      "name": "W\u00fcrfel.008",
      "primitives": [
        {
          "attributes": {
            "POSITION": 25,
            "NORMAL": 26,
            "TEXCOORD_0": 27
          },
          "indices": 3,
          "material": 2
        }
      ]
    },
    {
      "name": "W\u00fcrfel.009",
      "primitives": [
        {
          "attributes": {
            "POSITION": 28,
            "NORMAL": 29,
            "TEXCOORD_0": 30
          },
          "indices": 3,
          "material": 2
        }
      ]
    },
    {
      "name": "W\u00fcrfel.010",
      "primitives": [
        {
          "attributes": {
            "POSITION": 31,
            "NORMAL": 32,
            "TEXCOORD_0": 33
          },
          "indices": 3,
          "material": 1
        }
      ]
    },
    {
      "name": "W\u00fcrfel.011",
      "primitives": [
        {
          "attributes": {
            "POSITION": 34,
            "NORMAL": 35,
            "TEXCOORD_0": 36
          },
          "indices": 3,
          "material": 1
        }
      ]
    },
    {
      "name": "W\u00fcrfel.012",
      "primitives": [
        {
          "attributes": {
            "POSITION": 37,
            "NORMAL": 38,
            "TEXCOORD_0": 39
          },
          "indices": 3,
          "material": 1
        }
      ]
    },
    {
      "name": "W\u00fcrfel.013",
      "primitives": [
        {
          "attributes": {
            "POSITION": 40,
            "NORMAL": 41,
            "TEXCOORD_0": 42
          },
          "indices": 3,
          "material": 0
        }
      ]
    },
    {
      "name": "W\u00fcrfel.014",
      "primitives": [
        {
          "attributes": {
            "POSITION": 43,
            "NORMAL": 44,
            "TEXCOORD_0": 45
          },
          "indices": 3,
          "material": 1
        }
      ]
    },
    {
      "name": "W\u00fcrfel.015",
      "primitives": [
        {
          "attributes": {
            "POSITION": 46,
            "NORMAL": 47,
            "TEXCOORD_0": 48
          },
          "indices": 3,
          "material": 3
        }
      ]
    }
  ],
  "accessors": [
    {
      "bufferView": 0,
      "componentType": 5126,
      "count": 24,
      "max": [
        3.0299999713897705,
        0.07500000298023224,
        1.2200000286102295
      ],
      "min": [
        -3.0299999713897705,
        -0.07500000298023224,
        -1.2200000286102295
      ],
      "type": "VEC3"
    },
    {
      "bufferView": 1,
      "componentType": 5126,
      "count": 24,
      "type": "VEC3"
    },
    {
      "bufferView": 2,
      "componentType": 5126,
      "count": 24,
      "type": "VEC2"
    },
    {
      "bufferView": 3,
      "componentType": 5123,
      "count": 36,
      "type": "SCALAR"
    },
    {
      "bufferView": 4,
      "componentType": 5126,
      "count": 24,
      "max": [
        3.0299999713897705,
        0.07999999821186066,
        1.2200000286102295
      ],
      "min": [
        -3.0299999713897705,
        -0.07999999821186066,
        -1.2200000286102295
      ],
      "type": "VEC3"
    },
    {
      "bufferView": 5,
      "componentType": 5126,
      "count": 24,
      "type": "VEC3"
    },
    {
      "bufferView": 6,
      "componentType": 5126,
      "count": 24,
      "type": "VEC2"
    },
    {
      "bufferView": 7,
      "componentType": 5126,
      "count": 24,
      "max": [
        0.07999999821186066,
        1.2949999570846558,
        0.07999999821186066
      ],
      "min": [
        -0.07999999821186066,
        -1.2949999570846558,
        -0.07999999821186066
      ],
      "type": "VEC3"
    },
    {
      "bufferView": 8,
      "componentType": 5126,
      "count": 24,
      "type": "VEC3"
    },
    {
      "bufferView": 9,
      "componentType": 5126,
      "count": 24,
      "type": "VEC2"
    },
    {
      "bufferView": 10,
      "componentType": 5126,
      "count": 24,
      "max": [
        0.07999999821186066,
        1.2949999570846558,
        0.07999999821186066
      ],
      "min": [
        -0.07999999821186066,
        -1.2949999570846558,
        -0.07999999821186066
      ],
      "type": "VEC3"
    },
    {
      "bufferView": 11,
      "componentType": 5126,
      "count": 24,
      "type": "VEC3"
    },
    {
      "bufferView": 12,
      "componentType": 5126,
      "count": 24,
      "type": "VEC2"
    },
    {
      "bufferView": 13,
      "componentType": 5126,
      "count": 24,
      "max": [
        0.07999999821186066,
        1.2949999570846558,
        0.07999999821186066
      ],
      "min": [
        -0.07999999821186066,
        -1.2949999570846558,
        -0.07999999821186066
      ],
      "type": "VEC3"
    },
    {
      "bufferView": 14,
      "componentType": 5126,
      "count": 24,
      "type": "VEC3"
    },
    {
      "bufferView": 15,
      "componentType": 5126,
      "count": 24,
      "type": "VEC2"
    },
    {
      "bufferView": 16,
      "componentType": 5126,
      "count": 24,
      "max": [
        0.07999999821186066,
        1.2949999570846558,
        0.07999999821186066
      ],
      "min": [
        -0.07999999821186066,
        -1.2949999570846558,
        -0.07999999821186066
      ],
      "type": "VEC3"
    },
    {
      "bufferView": 17,
      "componentType": 5126,
      "count": 24,
      "type": "VEC3"
    },
    {
      "bufferView": 18,
      "componentType": 5126,
      "count": 24,
      "type": "VEC2"
    },
    {
      "bufferView": 19,
      "componentType": 5126,
      "count": 24,
      "max": [
        2.9200000762939453,
        1.1399999856948853,
        0.032499998807907104
      ],
      "min": [
        -2.9200000762939453,
        -1.1399999856948853,
        -0.032499998807907104
      ],
      "type": "VEC3"
    },
    {
      "bufferView": 20,
      "componentType": 5126,
      "count": 24,
      "type": "VEC3"
    },
    {
      "bufferView": 21,
      "componentType": 5126,
      "count": 24,
      "type": "VEC2"
    },
    {
      "bufferView": 22,
      "componentType": 5126,
      "count": 24,
      "max": [
        2.9200000762939453,
        1.1399999856948853,
        0.032499998807907104
      ],
      "min": [
        -2.9200000762939453,
        -1.1399999856948853,
        -0.032499998807907104
      ],
      "type": "VEC3"
    },
    {
      "bufferView": 23,
      "componentType": 5126,
      "count": 24,
      "type": "VEC3"
    },
    {
      "bufferView": 24,
      "componentType": 5126,
      "count": 24,
      "type": "VEC2"
    },
    {
      "bufferView": 25,
      "componentType": 5126,
      "count": 24,
      "max": [
        0.5249999761581421,
        0.41999998688697815,
        0.012000000104308128
      ],
      "min": [
        -0.5249999761581421,
        -0.41999998688697815,
        -0.012000000104308128
      ],
      "type": "VEC3"
    },
    {
      "bufferView": 26,
      "componentType": 5126,
      "count": 24,
      "type": "VEC3"
    },
    {
      "bufferView": 27,
      "componentType": 5126,
      "count": 24,
      "type": "VEC2"
    },
    {
      "bufferView": 28,
      "componentType": 5126,
      "count": 24,
      "max": [
        0.5249999761581421,
        0.41999998688697815,
        0.012000000104308128
      ],
      "min": [
        -0.5249999761581421,
        -0.41999998688697815,
        -0.012000000104308128
      ],
      "type": "VEC3"
    },
    {
      "bufferView": 29,
      "componentType": 5126,
      "count": 24,
      "type": "VEC3"
    },
    {
      "bufferView": 30,
      "componentType": 5126,
      "count": 24,
      "type": "VEC2"
    },
    {
      "bufferView": 31,
      "componentType": 5126,
      "count": 24,
      "max": [
        0.032499998807907104,
        1.1399999856948853,
        0.3199999928474426
      ],
      "min": [
        -0.032499998807907104,
        -1.1399999856948853,
        -0.3199999928474426
      ],
      "type": "VEC3"
    },
    {
      "bufferView": 32,
      "componentType": 5126,
      "count": 24,
      "type": "VEC3"
    },
    {
      "bufferView": 33,
      "componentType": 5126,
      "count": 24,
      "type": "VEC2"
    },
    {
      "bufferView": 34,
      "componentType": 5126,
      "count": 24,
      "max": [
        0.032499998807907104,
        1.1399999856948853,
        0.3199999928474426
      ],
      "min": [
        -0.032499998807907104,
        -1.1399999856948853,
        -0.3199999928474426
      ],
      "type": "VEC3"
    },
    {
      "bufferView": 35,
      "componentType": 5126,
      "count": 24,
      "type": "VEC3"
    },
    {
      "bufferView": 36,
      "componentType": 5126,
      "count": 24,
      "type": "VEC2"
    },
    {
      "bufferView": 37,
      "componentType": 5126,
      "count": 24,
      "max": [
        0.032499998807907104,
        0.14000000059604645,
        0.550000011920929
      ],
      "min": [
        -0.032499998807907104,
        -0.14000000059604645,
        -0.550000011920929
      ],
      "type": "VEC3"
    },
    {
      "bufferView": 38,
      "componentType": 5126,
      "count": 24,
      "type": "VEC3"
    },
    {
      "bufferView": 39,
      "componentType": 5126,
      "count": 24,
      "type": "VEC2"
    },
    {
      "bufferView": 40,
      "componentType": 5126,
      "count": 24,
      "max": [
        0.23999999463558197,
        0.05999999865889549,
        0.550000011920929
      ],
      "min": [
        -0.23999999463558197,
        -0.05999999865889549,
        -0.550000011920929
      ],
      "type": "VEC3"
    },
    {
      "bufferView": 41,
      "componentType": 5126,
      "count": 24,
      "type": "VEC3"
    },
    {
      "bufferView": 42,
      "componentType": 5126,
      "count": 24,
      "type": "VEC2"
    },
    {
      "bufferView": 43,
      "componentType": 5126,
      "count": 24,
      "max": [
        0.032499998807907104,
        1.024999976158142,
        0.46000000834465027
      ],
      "min": [
        -0.032499998807907104,
        -1.024999976158142,
        -0.46000000834465027
      ],
      "type": "VEC3"
    },
    {
      "bufferView": 44,
      "componentType": 5126,
      "count": 24,
      "type": "VEC3"
    },
    {
      "bufferView": 45,
      "componentType": 5126,
      "count": 24,
      "type": "VEC2"
    },
    {
      "bufferView": 46,
      "componentType": 5126,
      "count": 24,
      "max": [
        0.5600000023841858,
        0.012500000186264515,
        0.10999999940395355
      ],
      "min": [
        -0.5600000023841858,
        -0.012500000186264515,
        -0.10999999940395355
      ],
      "type": "VEC3"
    },
    {
      "bufferView": 47,
      "componentType": 5126,
      "count": 24,
      "type": "VEC3"
    },
    {
      "bufferView": 48,
      "componentType": 5126,
      "count": 24,
      "type": "VEC2"
    },
    {
      "bufferView": 49,
      "componentType": 5126,
      "count": 101,
      "max": [
        4
      ],
      "min": [
        0
      ],
      "type": "SCALAR"
    },
    {
      "bufferView": 50,
      "componentType": 5126,
      "count": 101,
      "type": "VEC4"
    }
  ],
  "bufferViews": [
    {
      "buffer": 0,
      "byteLength": 288,
      "byteOffset": 0,
      "target": 34962
    },
    {
      "buffer": 0,
      "byteLength": 288,
      "byteOffset": 288,
      "target": 34962
    },
    {
      "buffer": 0,
      "byteLength": 192,
      "byteOffset": 576,
      "target": 34962
    },
    {
      "buffer": 0,
      "byteLength": 72,
      "byteOffset": 768,
      "target": 34963
    },
    {
      "buffer": 0,
      "byteLength": 288,
      "byteOffset": 840,
      "target": 34962
    },
    {
      "buffer": 0,
      "byteLength": 288,
      "byteOffset": 1128,
      "target": 34962
    },
    {
      "buffer": 0,
      "byteLength": 192,
      "byteOffset": 1416,
      "target": 34962
    },
    {
      "buffer": 0,
      "byteLength": 288,
      "byteOffset": 1608,
      "target": 34962
    },
    {
      "buffer": 0,
      "byteLength": 288,
      "byteOffset": 1896,
      "target": 34962
    },
    {
      "buffer": 0,
      "byteLength": 192,
      "byteOffset": 2184,
      "target": 34962
    },
    {
      "buffer": 0,
      "byteLength": 288,
      "byteOffset": 2376,
      "target": 34962
    },
    {
      "buffer": 0,
      "byteLength": 288,
      "byteOffset": 2664,
      "target": 34962
    },
    {
      "buffer": 0,
      "byteLength": 192,
      "byteOffset": 2952,
      "target": 34962
    },
    {
      "buffer": 0,
      "byteLength": 288,
      "byteOffset": 3144,
      "target": 34962
    },
    {
      "buffer": 0,
      "byteLength": 288,
      "byteOffset": 3432,
      "target": 34962
    },
    {
      "buffer": 0,
      "byteLength": 192,
      "byteOffset": 3720,
      "target": 34962
    },
    {
      "buffer": 0,
      "byteLength": 288,
      "byteOffset": 3912,
      "target": 34962
    },
    {
      "buffer": 0,
      "byteLength": 288,
      "byteOffset": 4200,
      "target": 34962
    },
    {
      "buffer": 0,
      "byteLength": 192,
      "byteOffset": 4488,
      "target": 34962
    },
    {
      "buffer": 0,
      "byteLength": 288,
      "byteOffset": 4680,
      "target": 34962
    },
    {
      "buffer": 0,
      "byteLength": 288,
      "byteOffset": 4968,
      "target": 34962
    },
    {
      "buffer": 0,
      "byteLength": 192,
      "byteOffset": 5256,
      "target": 34962
    },
    {
      "buffer": 0,
      "byteLength": 288,
      "byteOffset": 5448,
      "target": 34962
    },
    {
      "buffer": 0,
      "byteLength": 288,
      "byteOffset": 5736,
      "target": 34962
    },
    {
      "buffer": 0,
      "byteLength": 192,
      "byteOffset": 6024,
      "target": 34962
    },
    {
      "buffer": 0,
      "byteLength": 288,
      "byteOffset": 6216,
      "target": 34962
    },
    {
      "buffer": 0,
      "byteLength": 288,
      "byteOffset": 6504,
      "target": 34962
    },
    {
      "buffer": 0,
      "byteLength": 192,
      "byteOffset": 6792,
      "target": 34962
    },
    {
      "buffer": 0,
      "byteLength": 288,
      "byteOffset": 6984,
      "target": 34962
    },
    {
      "buffer": 0,
      "byteLength": 288,
      "byteOffset": 7272,
      "target": 34962
    },
    {
      "buffer": 0,
      "byteLength": 192,
      "byteOffset": 7560,
      "target": 34962
    },
    {
      "buffer": 0,
      "byteLength": 288,
      "byteOffset": 7752,
      "target": 34962
    },
    {
      "buffer": 0,
      "byteLength": 288,
      "byteOffset": 8040,
      "target": 34962
    },
    {
      "buffer": 0,
      "byteLength": 192,
      "byteOffset": 8328,
      "target": 34962
    },
    {
      "buffer": 0,
      "byteLength": 288,
      "byteOffset": 8520,
      "target": 34962
    },
    {
      "buffer": 0,
      "byteLength": 288,
      "byteOffset": 8808,
      "target": 34962
    },
    {
      "buffer": 0,
      "byteLength": 192,
      "byteOffset": 9096,
      "target": 34962
    },
    {
      "buffer": 0,
      "byteLength": 288,
      "byteOffset": 9288,
      "target": 34962
    },
    {
      "buffer": 0,
      "byteLength": 288,
      "byteOffset": 9576,
      "target": 34962
    },
    {
      "buffer": 0,
      "byteLength": 192,
      "byteOffset": 9864,
      "target": 34962
    },
    {
      "buffer": 0,
      "byteLength": 288,
      "byteOffset": 10056,
      "target": 34962
    },
    {
      "buffer": 0,
      "byteLength": 288,
      "byteOffset": 10344,
      "target": 34962
    },
    {
      "buffer": 0,
      "byteLength": 192,
      "byteOffset": 10632,
      "target": 34962
    },
    {
      "buffer": 0,
      "byteLength": 288,
      "byteOffset": 10824,
      "target": 34962
    },
    {
      "buffer": 0,
      "byteLength": 288,
      "byteOffset": 11112,
      "target": 34962
    },
    {
      "buffer": 0,
      "byteLength": 192,
      "byteOffset": 11400,
      "target": 34962
    },
    {
      "buffer": 0,
      "byteLength": 288,
      "byteOffset": 11592,
      "target": 34962
    },
    {
      "buffer": 0,
      "byteLength": 288,
      "byteOffset": 11880,
      "target": 34962
    },
    {
      "buffer": 0,
      "byteLength": 192,
      "byteOffset": 12168,
      "target": 34962
    },
    {
      "buffer": 0,
      "byteLength": 404,
      "byteOffset": 12360
    },
    {
      "buffer": 0,
      "byteLength": 1616,
      "byteOffset": 12764
    }
  ],
  "buffers": [
    {
      "byteLength": 14380,
      "uri": "HomebaseOfficeContainer_LOD01.bin"
    }
  ],
  "extras": {
    "homebaseLod": "LOD01"
  }
}
