{"accessors":[{"bufferView":0,"componentType":5126,"count":6564,"min":[-0.9300000071525574,0.0,-0.37400001287460329],"max":[0.9300000071525574,2.5799999237060549,0.3700000047683716],"type":"VEC3","name":"HomebaseAssetShelf_mesh_vertices#0_POSITION"},{"bufferView":0,"byteOffset":12,"componentType":5120,"count":6564,"type":"VEC4","name":"HomebaseAssetShelf_mesh_vertices#0_TANGENT"},{"bufferView":0,"byteOffset":16,"componentType":5120,"count":6564,"type":"VEC4","name":"HomebaseAssetShelf_mesh_vertices#0_NORMAL"},{"bufferView":0,"byteOffset":20,"componentType":5122,"count":6564,"type":"VEC2","name":"HomebaseAssetShelf_mesh_vertices#0_TEXCOORD_0"},{"bufferView":0,"byteOffset":24,"componentType":5122,"count":6564,"type":"VEC2","name":"HomebaseAssetShelf_mesh_vertices#0_TEXCOORD_1"},{"bufferView":0,"byteOffset":28,"componentType":5123,"count":6564,"type":"VEC4","name":"HomebaseAssetShelf_mesh_vertices#0_COLOR_0"},{"bufferView":1,"componentType":5123,"count":6564,"type":"SCALAR","name":"HomebaseAssetShelf_mesh_indices#18"}],"asset":{"generator":"VFR Multitool procedural asset generator","version":"2.0","extensions":{"ASOBO_asset_optimized":{"BoundingBoxMax":[0.9300000071525574,2.5799999237060549,0.3700000047683716],"BoundingBoxMin":[-0.9300000071525574,0.0,-0.37400001287460329],"MajorVersion":4,"MinorVersion":7,"UseCheckerboardMaterialForMissingTextures":true,"UseOnlyFilenameForImageURI":true}}},"bufferViews":[{"buffer":0,"byteLength":236304,"byteStride":36,"target":34962,"name":"BufferViewVertexND"},{"buffer":0,"byteLength":13128,"byteOffset":236304,"target":34963,"name":"BufferViewIndexU16"}],"materials":[{"name":"Regal_Rahmen_Anthrazit","doubleSided":true,"pbrMetallicRoughness":{"baseColorFactor":[0.045,0.06,0.065,1.0],"metallicFactor":0.8,"roughnessFactor":0.3}},{"name":"Regal_Bretter_Warmholz","doubleSided":true,"pbrMetallicRoughness":{"baseColorFactor":[0.3,0.15,0.055,1.0],"metallicFactor":0.04,"roughnessFactor":0.7}},{"name":"Regal_Kanten_Verzinkt","doubleSided":true,"pbrMetallicRoughness":{"baseColorFactor":[0.48,0.53,0.54,1.0],"metallicFactor":0.88,"roughnessFactor":0.24}},{"name":"Eimer_Blau","doubleSided":true,"pbrMetallicRoughness":{"baseColorFactor":[0.025,0.16,0.25,1.0],"metallicFactor":0.18,"roughnessFactor":0.48}},{"name":"Eimer_Gelb","doubleSided":true,"pbrMetallicRoughness":{"baseColorFactor":[0.78,0.42,0.025,1.0],"metallicFactor":0.12,"roughnessFactor":0.5}},{"name":"Eimer_Buegel","doubleSided":true,"pbrMetallicRoughness":{"baseColorFactor":[0.11,0.13,0.13,1.0],"metallicFactor":0.82,"roughnessFactor":0.28}},{"name":"Kartons_Hell","doubleSided":true,"pbrMetallicRoughness":{"baseColorFactor":[0.61,0.37,0.17,1.0],"metallicFactor":0.0,"roughnessFactor":0.84}},{"name":"Kartons_Dunkel","doubleSided":true,"pbrMetallicRoughness":{"baseColorFactor":[0.4,0.2,0.075,1.0],"metallicFactor":0.0,"roughnessFactor":0.86}},{"name":"Kartons_Klebeband","doubleSided":true,"pbrMetallicRoughness":{"baseColorFactor":[0.86,0.67,0.19,1.0],"metallicFactor":0.0,"roughnessFactor":0.62}},{"name":"Oelkanne_Rot","doubleSided":true,"pbrMetallicRoughness":{"baseColorFactor":[0.62,0.035,0.022,1.0],"metallicFactor":0.38,"roughnessFactor":0.42}},{"name":"Oelkanne_Metall","doubleSided":true,"pbrMetallicRoughness":{"baseColorFactor":[0.12,0.14,0.14,1.0],"metallicFactor":0.86,"roughnessFactor":0.24}},{"name":"Oelkanne_Etikett","doubleSided":true,"pbrMetallicRoughness":{"baseColorFactor":[0.92,0.76,0.17,1.0],"metallicFactor":0.05,"roughnessFactor":0.56}},{"name":"Regal_Schild","doubleSided":true,"pbrMetallicRoughness":{"baseColorFactor":[0.88,0.68,0.12,1.0],"metallicFactor":0.12,"roughnessFactor":0.48}},{"name":"Teilebox_Gruen","doubleSided":true,"pbrMetallicRoughness":{"baseColorFactor":[0.035,0.3,0.18,1.0],"metallicFactor":0.16,"roughnessFactor":0.5}},{"name":"Teilebox_Blau","doubleSided":true,"pbrMetallicRoughness":{"baseColorFactor":[0.025,0.12,0.32,1.0],"metallicFactor":0.2,"roughnessFactor":0.46}},{"name":"Werkzeugkoffer_Schwarz","doubleSided":true,"pbrMetallicRoughness":{"baseColorFactor":[0.025,0.03,0.032,1.0],"metallicFactor":0.3,"roughnessFactor":0.34}},{"name":"Werkzeugkoffer_Verschluss","doubleSided":true,"pbrMetallicRoughness":{"baseColorFactor":[0.72,0.74,0.69,1.0],"metallicFactor":0.85,"roughnessFactor":0.22}},{"name":"Spraydose_Silber","doubleSided":true,"pbrMetallicRoughness":{"baseColorFactor":[0.52,0.56,0.57,1.0],"metallicFactor":0.75,"roughnessFactor":0.25}},{"name":"Spraydose_Kappe_Rot","doubleSided":true,"pbrMetallicRoughness":{"baseColorFactor":[0.55,0.025,0.02,1.0],"metallicFactor":0.3,"roughnessFactor":0.38}}],"meshes":[{"primitives":[{"attributes":{"COLOR_0":5,"NORMAL":2,"POSITION":0,"TANGENT":1,"TEXCOORD_0":3,"TEXCOORD_1":4},"indices":6,"material":0,"mode":4,"extras":{"ASOBO_primitive":{"PrimitiveCount":120,"UV2Length":0.7071067690849304,"UVLength":0.7071067690849304,"VertexCount":360,"VertexType":"VTX","VertexVersion":2}}},{"attributes":{"COLOR_0":5,"NORMAL":2,"POSITION":0,"TANGENT":1,"TEXCOORD_0":3,"TEXCOORD_1":4},"indices":6,"material":2,"mode":4,"extras":{"ASOBO_primitive":{"BaseVertexIndex":360,"PrimitiveCount":280,"StartIndex":360,"UV2Length":0.7071067690849304,"UVLength":0.7071067690849304,"VertexCount":840,"VertexType":"VTX","VertexVersion":2}}},{"attributes":{"COLOR_0":5,"NORMAL":2,"POSITION":0,"TANGENT":1,"TEXCOORD_0":3,"TEXCOORD_1":4},"indices":6,"material":8,"mode":4,"extras":{"ASOBO_primitive":{"BaseVertexIndex":1200,"PrimitiveCount":108,"StartIndex":1200,"UV2Length":0.7071067690849304,"UVLength":0.7071067690849304,"VertexCount":324,"VertexType":"VTX","VertexVersion":2}}},{"attributes":{"COLOR_0":5,"NORMAL":2,"POSITION":0,"TANGENT":1,"TEXCOORD_0":3,"TEXCOORD_1":4},"indices":6,"material":1,"mode":4,"extras":{"ASOBO_primitive":{"BaseVertexIndex":1524,"PrimitiveCount":48,"StartIndex":1524,"UV2Length":0.7071067690849304,"UVLength":0.7071067690849304,"VertexCount":144,"VertexType":"VTX","VertexVersion":2}}},{"attributes":{"COLOR_0":5,"NORMAL":2,"POSITION":0,"TANGENT":1,"TEXCOORD_0":3,"TEXCOORD_1":4},"indices":6,"material":7,"mode":4,"extras":{"ASOBO_primitive":{"BaseVertexIndex":1668,"PrimitiveCount":12,"StartIndex":1668,"UV2Length":0.7071067690849304,"UVLength":0.7071067690849304,"VertexCount":36,"VertexType":"VTX","VertexVersion":2}}},{"attributes":{"COLOR_0":5,"NORMAL":2,"POSITION":0,"TANGENT":1,"TEXCOORD_0":3,"TEXCOORD_1":4},"indices":6,"material":12,"mode":4,"extras":{"ASOBO_primitive":{"BaseVertexIndex":1704,"PrimitiveCount":12,"StartIndex":1704,"UV2Length":0.7071067690849304,"UVLength":0.7071067690849304,"VertexCount":36,"VertexType":"VTX","VertexVersion":2}}},{"attributes":{"COLOR_0":5,"NORMAL":2,"POSITION":0,"TANGENT":1,"TEXCOORD_0":3,"TEXCOORD_1":4},"indices":6,"material":16,"mode":4,"extras":{"ASOBO_primitive":{"BaseVertexIndex":1740,"PrimitiveCount":120,"StartIndex":1740,"UV2Length":0.7071067690849304,"UVLength":0.7071067690849304,"VertexCount":360,"VertexType":"VTX","VertexVersion":2}}},{"attributes":{"COLOR_0":5,"NORMAL":2,"POSITION":0,"TANGENT":1,"TEXCOORD_0":3,"TEXCOORD_1":4},"indices":6,"material":17,"mode":4,"extras":{"ASOBO_primitive":{"BaseVertexIndex":2100,"PrimitiveCount":192,"StartIndex":2100,"UV2Length":0.7071067690849304,"UVLength":0.7071067690849304,"VertexCount":576,"VertexType":"VTX","VertexVersion":2}}},{"attributes":{"COLOR_0":5,"NORMAL":2,"POSITION":0,"TANGENT":1,"TEXCOORD_0":3,"TEXCOORD_1":4},"indices":6,"material":18,"mode":4,"extras":{"ASOBO_primitive":{"BaseVertexIndex":2676,"PrimitiveCount":96,"StartIndex":2676,"UV2Length":0.7071067690849304,"UVLength":0.7071067690849304,"VertexCount":288,"VertexType":"VTX","VertexVersion":2}}},{"attributes":{"COLOR_0":5,"NORMAL":2,"POSITION":0,"TANGENT":1,"TEXCOORD_0":3,"TEXCOORD_1":4},"indices":6,"material":6,"mode":4,"extras":{"ASOBO_primitive":{"BaseVertexIndex":2964,"PrimitiveCount":24,"StartIndex":2964,"UV2Length":0.7071067690849304,"UVLength":0.7071067690849304,"VertexCount":72,"VertexType":"VTX","VertexVersion":2}}},{"attributes":{"COLOR_0":5,"NORMAL":2,"POSITION":0,"TANGENT":1,"TEXCOORD_0":3,"TEXCOORD_1":4},"indices":6,"material":15,"mode":4,"extras":{"ASOBO_primitive":{"BaseVertexIndex":3036,"PrimitiveCount":12,"StartIndex":3036,"UV2Length":0.7071067690849304,"UVLength":0.7071067690849304,"VertexCount":36,"VertexType":"VTX","VertexVersion":2}}},{"attributes":{"COLOR_0":5,"NORMAL":2,"POSITION":0,"TANGENT":1,"TEXCOORD_0":3,"TEXCOORD_1":4},"indices":6,"material":14,"mode":4,"extras":{"ASOBO_primitive":{"BaseVertexIndex":3072,"PrimitiveCount":48,"StartIndex":3072,"UV2Length":0.7071067690849304,"UVLength":0.7071067690849304,"VertexCount":144,"VertexType":"VTX","VertexVersion":2}}},{"attributes":{"COLOR_0":5,"NORMAL":2,"POSITION":0,"TANGENT":1,"TEXCOORD_0":3,"TEXCOORD_1":4},"indices":6,"material":5,"mode":4,"extras":{"ASOBO_primitive":{"BaseVertexIndex":3216,"PrimitiveCount":656,"StartIndex":3216,"UV2Length":0.7071067690849304,"UVLength":0.7071067690849304,"VertexCount":1968,"VertexType":"VTX","VertexVersion":2}}},{"attributes":{"COLOR_0":5,"NORMAL":2,"POSITION":0,"TANGENT":1,"TEXCOORD_0":3,"TEXCOORD_1":4},"indices":6,"material":4,"mode":4,"extras":{"ASOBO_primitive":{"BaseVertexIndex":5184,"PrimitiveCount":56,"StartIndex":5184,"UV2Length":0.7071067690849304,"UVLength":0.7071067690849304,"VertexCount":168,"VertexType":"VTX","VertexVersion":2}}},{"attributes":{"COLOR_0":5,"NORMAL":2,"POSITION":0,"TANGENT":1,"TEXCOORD_0":3,"TEXCOORD_1":4},"indices":6,"material":13,"mode":4,"extras":{"ASOBO_primitive":{"BaseVertexIndex":5352,"PrimitiveCount":24,"StartIndex":5352,"UV2Length":0.7071067690849304,"UVLength":0.7071067690849304,"VertexCount":72,"VertexType":"VTX","VertexVersion":2}}},{"attributes":{"COLOR_0":5,"NORMAL":2,"POSITION":0,"TANGENT":1,"TEXCOORD_0":3,"TEXCOORD_1":4},"indices":6,"material":10,"mode":4,"extras":{"ASOBO_primitive":{"BaseVertexIndex":5424,"PrimitiveCount":256,"StartIndex":5424,"UV2Length":0.7071067690849304,"UVLength":0.7071067690849304,"VertexCount":768,"VertexType":"VTX","VertexVersion":2}}},{"attributes":{"COLOR_0":5,"NORMAL":2,"POSITION":0,"TANGENT":1,"TEXCOORD_0":3,"TEXCOORD_1":4},"indices":6,"material":9,"mode":4,"extras":{"ASOBO_primitive":{"BaseVertexIndex":6192,"PrimitiveCount":56,"StartIndex":6192,"UV2Length":0.7071067690849304,"UVLength":0.7071067690849304,"VertexCount":168,"VertexType":"VTX","VertexVersion":2}}},{"attributes":{"COLOR_0":5,"NORMAL":2,"POSITION":0,"TANGENT":1,"TEXCOORD_0":3,"TEXCOORD_1":4},"indices":6,"material":11,"mode":4,"extras":{"ASOBO_primitive":{"BaseVertexIndex":6360,"PrimitiveCount":12,"StartIndex":6360,"UV2Length":0.7071067690849304,"UVLength":0.7071067690849304,"VertexCount":36,"VertexType":"VTX","VertexVersion":2}}},{"attributes":{"COLOR_0":5,"NORMAL":2,"POSITION":0,"TANGENT":1,"TEXCOORD_0":3,"TEXCOORD_1":4},"indices":6,"material":3,"mode":4,"extras":{"ASOBO_primitive":{"BaseVertexIndex":6396,"PrimitiveCount":56,"StartIndex":6396,"UV2Length":0.7071067690849304,"UVLength":0.7071067690849304,"VertexCount":168,"VertexType":"VTX","VertexVersion":2}}}],"name":"HomebaseAssetShelf_mesh"}],"nodes":[{"mesh":0,"name":"HomebaseAssetShelf_node"}],"scene":0,"scenes":[{"nodes":[0]}],"extensionsUsed":["ASOBO_asset_optimized"],"buffers":[{"byteLength":249432,"uri":"HomebaseAssetShelf_LOD00.bin"}]}
