{"accessors":[{"bufferView":0,"componentType":5126,"count":1092,"min":[-0.1899999976158142,0.0,-0.1899999976158142],"max":[0.1899999976158142,0.5820000171661377,0.1899999976158142],"type":"VEC3","name":"HomebaseBackpack_mesh_vertices#0_POSITION"},{"bufferView":0,"byteOffset":12,"componentType":5120,"count":1092,"type":"VEC4","name":"HomebaseBackpack_mesh_vertices#0_TANGENT"},{"bufferView":0,"byteOffset":16,"componentType":5120,"count":1092,"type":"VEC4","name":"HomebaseBackpack_mesh_vertices#0_NORMAL"},{"bufferView":0,"byteOffset":20,"componentType":5122,"count":1092,"type":"VEC2","name":"HomebaseBackpack_mesh_vertices#0_TEXCOORD_0"},{"bufferView":0,"byteOffset":24,"componentType":5122,"count":1092,"type":"VEC2","name":"HomebaseBackpack_mesh_vertices#0_TEXCOORD_1"},{"bufferView":0,"byteOffset":28,"componentType":5123,"count":1092,"type":"VEC4","name":"HomebaseBackpack_mesh_vertices#0_COLOR_0"},{"bufferView":1,"componentType":5123,"count":1092,"type":"SCALAR","name":"HomebaseBackpack_mesh_indices#4"}],"asset":{"generator":"VFR Multitool procedural asset generator","version":"2.0","extensions":{"ASOBO_asset_optimized":{"BoundingBoxMax":[0.1899999976158142,0.5820000171661377,0.1899999976158142],"BoundingBoxMin":[-0.1899999976158142,0.0,-0.1899999976158142],"MajorVersion":4,"MinorVersion":7,"UseCheckerboardMaterialForMissingTextures":true,"UseOnlyFilenameForImageURI":true}}},"bufferViews":[{"buffer":0,"byteLength":39312,"byteStride":36,"target":34962,"name":"BufferViewVertexND"},{"buffer":0,"byteLength":2184,"byteOffset":39312,"target":34963,"name":"BufferViewIndexU16"}],"materials":[{"name":"Rucksack_Stoff_Blau","doubleSided":true,"pbrMetallicRoughness":{"baseColorFactor":[0.025,0.11,0.22,1.0],"metallicFactor":0.0,"roughnessFactor":0.82}},{"name":"Rucksack_Boden_Schwarz","doubleSided":true,"pbrMetallicRoughness":{"baseColorFactor":[0.014,0.018,0.02,1.0],"metallicFactor":0.02,"roughnessFactor":0.86}},{"name":"Rucksack_Gurte_Grau","doubleSided":true,"pbrMetallicRoughness":{"baseColorFactor":[0.12,0.14,0.14,1.0],"metallicFactor":0.12,"roughnessFactor":0.62}},{"name":"Rucksack_Schnallen","doubleSided":true,"pbrMetallicRoughness":{"baseColorFactor":[0.46,0.5,0.5,1.0],"metallicFactor":0.82,"roughnessFactor":0.23}},{"name":"Rucksack_Reflektor_Orange","doubleSided":true,"pbrMetallicRoughness":{"baseColorFactor":[0.86,0.22,0.025,1.0],"metallicFactor":0.12,"roughnessFactor":0.44}}],"meshes":[{"primitives":[{"attributes":{"COLOR_0":5,"NORMAL":2,"POSITION":0,"TANGENT":1,"TEXCOORD_0":3,"TEXCOORD_1":4},"indices":6,"material":2,"mode":4,"extras":{"ASOBO_primitive":{"PrimitiveCount":244,"UV2Length":0.7071067690849304,"UVLength":0.7071067690849304,"VertexCount":732,"VertexType":"VTX","VertexVersion":2}}},{"attributes":{"COLOR_0":5,"NORMAL":2,"POSITION":0,"TANGENT":1,"TEXCOORD_0":3,"TEXCOORD_1":4},"indices":6,"material":0,"mode":4,"extras":{"ASOBO_primitive":{"BaseVertexIndex":732,"PrimitiveCount":60,"StartIndex":732,"UV2Length":0.7071067690849304,"UVLength":0.7071067690849304,"VertexCount":180,"VertexType":"VTX","VertexVersion":2}}},{"attributes":{"COLOR_0":5,"NORMAL":2,"POSITION":0,"TANGENT":1,"TEXCOORD_0":3,"TEXCOORD_1":4},"indices":6,"material":4,"mode":4,"extras":{"ASOBO_primitive":{"BaseVertexIndex":912,"PrimitiveCount":12,"StartIndex":912,"UV2Length":0.7071067690849304,"UVLength":0.7071067690849304,"VertexCount":36,"VertexType":"VTX","VertexVersion":2}}},{"attributes":{"COLOR_0":5,"NORMAL":2,"POSITION":0,"TANGENT":1,"TEXCOORD_0":3,"TEXCOORD_1":4},"indices":6,"material":3,"mode":4,"extras":{"ASOBO_primitive":{"BaseVertexIndex":948,"PrimitiveCount":24,"StartIndex":948,"UV2Length":0.7071067690849304,"UVLength":0.7071067690849304,"VertexCount":72,"VertexType":"VTX","VertexVersion":2}}},{"attributes":{"COLOR_0":5,"NORMAL":2,"POSITION":0,"TANGENT":1,"TEXCOORD_0":3,"TEXCOORD_1":4},"indices":6,"material":1,"mode":4,"extras":{"ASOBO_primitive":{"BaseVertexIndex":1020,"PrimitiveCount":24,"StartIndex":1020,"UV2Length":0.7071067690849304,"UVLength":0.7071067690849304,"VertexCount":72,"VertexType":"VTX","VertexVersion":2}}}],"name":"HomebaseBackpack_mesh"}],"nodes":[{"mesh":0,"name":"HomebaseBackpack_node"}],"scene":0,"scenes":[{"nodes":[0]}],"extensionsUsed":["ASOBO_asset_optimized"],"buffers":[{"byteLength":41496,"uri":"HomebaseBackpack_LOD00.bin"}]}
