{"accessors":[{"bufferView":0,"componentType":5126,"count":912,"min":[-0.20999999344348908,0.0,-0.17000000178813935],"max":[0.24300000071525575,0.921999990940094,0.20000000298023225],"type":"VEC3","name":"HomebaseCabinTrolley_mesh_vertices#0_POSITION"},{"bufferView":0,"byteOffset":12,"componentType":5120,"count":912,"type":"VEC4","name":"HomebaseCabinTrolley_mesh_vertices#0_TANGENT"},{"bufferView":0,"byteOffset":16,"componentType":5120,"count":912,"type":"VEC4","name":"HomebaseCabinTrolley_mesh_vertices#0_NORMAL"},{"bufferView":0,"byteOffset":20,"componentType":5122,"count":912,"type":"VEC2","name":"HomebaseCabinTrolley_mesh_vertices#0_TEXCOORD_0"},{"bufferView":0,"byteOffset":24,"componentType":5122,"count":912,"type":"VEC2","name":"HomebaseCabinTrolley_mesh_vertices#0_TEXCOORD_1"},{"bufferView":0,"byteOffset":28,"componentType":5123,"count":912,"type":"VEC4","name":"HomebaseCabinTrolley_mesh_vertices#0_COLOR_0"},{"bufferView":1,"componentType":5123,"count":912,"type":"SCALAR","name":"HomebaseCabinTrolley_mesh_indices#4"}],"asset":{"generator":"VFR Multitool procedural asset generator","version":"2.0","extensions":{"ASOBO_asset_optimized":{"BoundingBoxMax":[0.24300000071525575,0.921999990940094,0.20000000298023225],"BoundingBoxMin":[-0.20999999344348908,0.0,-0.17000000178813935],"MajorVersion":4,"MinorVersion":7,"UseCheckerboardMaterialForMissingTextures":true,"UseOnlyFilenameForImageURI":true}}},"bufferViews":[{"buffer":0,"byteLength":32832,"byteStride":36,"target":34962,"name":"BufferViewVertexND"},{"buffer":0,"byteLength":1824,"byteOffset":32832,"target":34963,"name":"BufferViewIndexU16"}],"materials":[{"name":"Trolley_Schale_Blau","doubleSided":true,"pbrMetallicRoughness":{"baseColorFactor":[0.025,0.11,0.27,1.0],"metallicFactor":0.18,"roughnessFactor":0.38}},{"name":"Trolley_Kanten_Dunkel","doubleSided":true,"pbrMetallicRoughness":{"baseColorFactor":[0.035,0.045,0.052,1.0],"metallicFactor":0.5,"roughnessFactor":0.3}},{"name":"Trolley_Griff_Metall","doubleSided":true,"pbrMetallicRoughness":{"baseColorFactor":[0.55,0.59,0.59,1.0],"metallicFactor":0.9,"roughnessFactor":0.2}},{"name":"Trolley_Rollen","doubleSided":true,"pbrMetallicRoughness":{"baseColorFactor":[0.018,0.02,0.022,1.0],"metallicFactor":0.05,"roughnessFactor":0.78}},{"name":"Trolley_Etikett_Tuerkis","doubleSided":true,"pbrMetallicRoughness":{"baseColorFactor":[0.03,0.68,0.61,1.0],"metallicFactor":0.08,"roughnessFactor":0.42}}],"meshes":[{"primitives":[{"attributes":{"COLOR_0":5,"NORMAL":2,"POSITION":0,"TANGENT":1,"TEXCOORD_0":3,"TEXCOORD_1":4},"indices":6,"material":2,"mode":4,"extras":{"ASOBO_primitive":{"PrimitiveCount":128,"UV2Length":0.7071067690849304,"UVLength":0.7071067690849304,"VertexCount":384,"VertexType":"VTX","VertexVersion":2}}},{"attributes":{"COLOR_0":5,"NORMAL":2,"POSITION":0,"TANGENT":1,"TEXCOORD_0":3,"TEXCOORD_1":4},"indices":6,"material":0,"mode":4,"extras":{"ASOBO_primitive":{"BaseVertexIndex":384,"PrimitiveCount":12,"StartIndex":384,"UV2Length":0.7071067690849304,"UVLength":0.7071067690849304,"VertexCount":36,"VertexType":"VTX","VertexVersion":2}}},{"attributes":{"COLOR_0":5,"NORMAL":2,"POSITION":0,"TANGENT":1,"TEXCOORD_0":3,"TEXCOORD_1":4},"indices":6,"material":1,"mode":4,"extras":{"ASOBO_primitive":{"BaseVertexIndex":420,"PrimitiveCount":72,"StartIndex":420,"UV2Length":0.7071067690849304,"UVLength":0.7071067690849304,"VertexCount":216,"VertexType":"VTX","VertexVersion":2}}},{"attributes":{"COLOR_0":5,"NORMAL":2,"POSITION":0,"TANGENT":1,"TEXCOORD_0":3,"TEXCOORD_1":4},"indices":6,"material":4,"mode":4,"extras":{"ASOBO_primitive":{"BaseVertexIndex":636,"PrimitiveCount":12,"StartIndex":636,"UV2Length":0.7071067690849304,"UVLength":0.7071067690849304,"VertexCount":36,"VertexType":"VTX","VertexVersion":2}}},{"attributes":{"COLOR_0":5,"NORMAL":2,"POSITION":0,"TANGENT":1,"TEXCOORD_0":3,"TEXCOORD_1":4},"indices":6,"material":3,"mode":4,"extras":{"ASOBO_primitive":{"BaseVertexIndex":672,"PrimitiveCount":80,"StartIndex":672,"UV2Length":0.7071067690849304,"UVLength":0.7071067690849304,"VertexCount":240,"VertexType":"VTX","VertexVersion":2}}}],"name":"HomebaseCabinTrolley_mesh"}],"nodes":[{"mesh":0,"name":"HomebaseCabinTrolley_node"}],"scene":0,"scenes":[{"nodes":[0]}],"extensionsUsed":["ASOBO_asset_optimized"],"buffers":[{"byteLength":34656,"uri":"HomebaseCabinTrolley_LOD00.bin"}]}
