{
  "asset": {
    "version": "2.0",
    "generator": "VFR Multitool procedural asset generator"
  },
  "buffers": [
    {
      "byteLength": 32640,
      "uri": "HomebaseDaypack_LOD00.bin"
    }
  ],
  "bufferViews": [
    {
      "buffer": 0,
      "byteOffset": 0,
      "byteLength": 3456,
      "target": 34962
    },
    {
      "buffer": 0,
      "byteOffset": 3456,
      "byteLength": 3456,
      "target": 34962
    },
    {
      "buffer": 0,
      "byteOffset": 6912,
      "byteLength": 2304,
      "target": 34962
    },
    {
      "buffer": 0,
      "byteOffset": 9216,
      "byteLength": 576,
      "target": 34963
    },
    {
      "buffer": 0,
      "byteOffset": 9792,
      "byteLength": 864,
      "target": 34962
    },
    {
      "buffer": 0,
      "byteOffset": 10656,
      "byteLength": 864,
      "target": 34962
    },
    {
      "buffer": 0,
      "byteOffset": 11520,
      "byteLength": 576,
      "target": 34962
    },
    {
      "buffer": 0,
      "byteOffset": 12096,
      "byteLength": 144,
      "target": 34963
    },
    {
      "buffer": 0,
      "byteOffset": 12240,
      "byteLength": 432,
      "target": 34962
    },
    {
      "buffer": 0,
      "byteOffset": 12672,
      "byteLength": 432,
      "target": 34962
    },
    {
      "buffer": 0,
      "byteOffset": 13104,
      "byteLength": 288,
      "target": 34962
    },
    {
      "buffer": 0,
      "byteOffset": 13392,
      "byteLength": 72,
      "target": 34963
    },
    {
      "buffer": 0,
      "byteOffset": 13464,
      "byteLength": 5760,
      "target": 34962
    },
    {
      "buffer": 0,
      "byteOffset": 19224,
      "byteLength": 5760,
      "target": 34962
    },
    {
      "buffer": 0,
      "byteOffset": 24984,
      "byteLength": 3840,
      "target": 34962
    },
    {
      "buffer": 0,
      "byteOffset": 28824,
      "byteLength": 960,
      "target": 34963
    },
    {
      "buffer": 0,
      "byteOffset": 29784,
      "byteLength": 1008,
      "target": 34962
    },
    {
      "buffer": 0,
      "byteOffset": 30792,
      "byteLength": 1008,
      "target": 34962
    },
    {
      "buffer": 0,
      "byteOffset": 31800,
      "byteLength": 672,
      "target": 34962
    },
    {
      "buffer": 0,
      "byteOffset": 32472,
      "byteLength": 168,
      "target": 34963
    }
  ],
  "accessors": [
    {
      "bufferView": 0,
      "componentType": 5126,
      "count": 288,
      "min": [
        -0.17,
        0.03,
        -0.1275
      ],
      "max": [
        0.17,
        0.44,
        0.1
      ],
      "type": "VEC3"
    },
    {
      "bufferView": 1,
      "componentType": 5126,
      "count": 288,
      "type": "VEC3"
    },
    {
      "bufferView": 2,
      "componentType": 5126,
      "count": 288,
      "type": "VEC2"
    },
    {
      "bufferView": 3,
      "componentType": 5123,
      "count": 288,
      "type": "SCALAR"
    },
    {
      "bufferView": 4,
      "componentType": 5126,
      "count": 72,
      "min": [
        -0.175,
        0,
        -0.095
      ],
      "max": [
        0.175,
        0.11250000000000002,
        0.095
      ],
      "type": "VEC3"
    },
    {
      "bufferView": 5,
      "componentType": 5126,
      "count": 72,
      "type": "VEC3"
    },
    {
      "bufferView": 6,
      "componentType": 5126,
      "count": 72,
      "type": "VEC2"
    },
    {
      "bufferView": 7,
      "componentType": 5123,
      "count": 72,
      "type": "SCALAR"
    },
    {
      "bufferView": 8,
      "componentType": 5126,
      "count": 36,
      "min": [
        -0.055,
        0.19,
        -0.138
      ],
      "max": [
        0.055,
        0.3,
        -0.126
      ],
      "type": "VEC3"
    },
    {
      "bufferView": 9,
      "componentType": 5126,
      "count": 36,
      "type": "VEC3"
    },
    {
      "bufferView": 10,
      "componentType": 5126,
      "count": 36,
      "type": "VEC2"
    },
    {
      "bufferView": 11,
      "componentType": 5123,
      "count": 36,
      "type": "SCALAR"
    },
    {
      "bufferView": 12,
      "componentType": 5126,
      "count": 480,
      "min": [
        -0.108,
        0.0894003330558125,
        -0.02
      ],
      "max": [
        0.108,
        0.5,
        0.12299000832562478
      ],
      "type": "VEC3"
    },
    {
      "bufferView": 13,
      "componentType": 5126,
      "count": 480,
      "type": "VEC3"
    },
    {
      "bufferView": 14,
      "componentType": 5126,
      "count": 480,
      "type": "VEC2"
    },
    {
      "bufferView": 15,
      "componentType": 5123,
      "count": 480,
      "type": "SCALAR"
    },
    {
      "bufferView": 16,
      "componentType": 5126,
      "count": 84,
      "min": [
        -0.12,
        0.38927579296599996,
        -0.1119106575469266
      ],
      "max": [
        0.12,
        0.4107242070340001,
        -0.091
      ],
      "type": "VEC3"
    },
    {
      "bufferView": 17,
      "componentType": 5126,
      "count": 84,
      "type": "VEC3"
    },
    {
      "bufferView": 18,
      "componentType": 5126,
      "count": 84,
      "type": "VEC2"
    },
    {
      "bufferView": 19,
      "componentType": 5123,
      "count": 84,
      "type": "SCALAR"
    }
  ],
  "materials": [
    {
      "doubleSided": true,
      "name": "Daypack_Stoff_Grau",
      "pbrMetallicRoughness": {
        "baseColorFactor": [
          0.13,
          0.16,
          0.17,
          1
        ],
        "metallicFactor": 0,
        "roughnessFactor": 0.82
      }
    },
    {
      "doubleSided": true,
      "name": "Daypack_Boden_Dunkel",
      "pbrMetallicRoughness": {
        "baseColorFactor": [
          0.025,
          0.03,
          0.032,
          1
        ],
        "metallicFactor": 0.02,
        "roughnessFactor": 0.86
      }
    },
    {
      "doubleSided": true,
      "name": "Daypack_Akzent_Tuerkis",
      "pbrMetallicRoughness": {
        "baseColorFactor": [
          0.025,
          0.47,
          0.43,
          1
        ],
        "metallicFactor": 0.08,
        "roughnessFactor": 0.46
      }
    },
    {
      "doubleSided": true,
      "name": "Daypack_Gurte",
      "pbrMetallicRoughness": {
        "baseColorFactor": [
          0.08,
          0.1,
          0.1,
          1
        ],
        "metallicFactor": 0.18,
        "roughnessFactor": 0.64
      }
    },
    {
      "doubleSided": true,
      "name": "Daypack_Zipper",
      "pbrMetallicRoughness": {
        "baseColorFactor": [
          0.5,
          0.54,
          0.54,
          1
        ],
        "metallicFactor": 0.86,
        "roughnessFactor": 0.22
      }
    }
  ],
  "meshes": [
    {
      "name": "HomebaseDaypack_mesh",
      "primitives": [
        {
          "attributes": {
            "POSITION": 0,
            "NORMAL": 1,
            "TEXCOORD_0": 2
          },
          "indices": 3,
          "material": 0,
          "mode": 4
        },
        {
          "attributes": {
            "POSITION": 4,
            "NORMAL": 5,
            "TEXCOORD_0": 6
          },
          "indices": 7,
          "material": 1,
          "mode": 4
        },
        {
          "attributes": {
            "POSITION": 8,
            "NORMAL": 9,
            "TEXCOORD_0": 10
          },
          "indices": 11,
          "material": 2,
          "mode": 4
        },
        {
          "attributes": {
            "POSITION": 12,
            "NORMAL": 13,
            "TEXCOORD_0": 14
          },
          "indices": 15,
          "material": 3,
          "mode": 4
        },
        {
          "attributes": {
            "POSITION": 16,
            "NORMAL": 17,
            "TEXCOORD_0": 18
          },
          "indices": 19,
          "material": 4,
          "mode": 4
        }
      ]
    }
  ],
  "nodes": [
    {
      "mesh": 0,
      "name": "HomebaseDaypack_node"
    }
  ],
  "scenes": [
    {
      "nodes": [
        0
      ]
    }
  ],
  "scene": 0
}
