{
  "asset": {
    "generator": "Khronos glTF Blender I/O v4.5.48",
    "version": "2.0"
  },
  "scene": 0,
  "scenes": [
    {
      "name": "Scene",
      "nodes": [
        0,
        1,
        2,
        3,
        4,
        5,
        6
      ]
    }
  ],
  "nodes": [
    {
      "mesh": 0,
      "name": "RoundHangarWallCollider"
    },
    {
      "mesh": 1,
      "name": "RoundHangarColumnCollider_-60",
      "rotation": [
        0,
        0.5,
        0,
        0.8660253882408142
      ],
      "translation": [
        -10.26240062713623,
        2.575000047683716,
        5.925000190734863
      ]
    },
    {
      "mesh": 2,
      "name": "RoundHangarColumnCollider_60",
      "rotation": [
        0,
        -0.5,
        0,
        0.8660253882408142
      ],
      "translation": [
        10.26240062713623,
        2.575000047683716,
        5.925000190734863
      ]
    },
    {
      "mesh": 3,
      "name": "RoundHangarColumnCollider_120",
      "rotation": [
        0,
        -0.8660253882408142,
        0,
        0.4999999701976776
      ],
      "translation": [
        10.26240062713623,
        2.575000047683716,
        -5.925000190734863
      ]
    },
    {
      "mesh": 4,
      "name": "RoundHangarColumnCollider_180",
      "rotation": [
        0,
        1,
        0,
        4.371138828673793e-08
      ],
      "translation": [
        0,
        2.575000047683716,
        -11.850000381469727
      ]
    },
    {
      "mesh": 5,
      "name": "RoundHangarColumnCollider_240",
      "rotation": [
        0,
        0.8660253882408142,
        0,
        0.5
      ],
      "translation": [
        -10.26240062713623,
        2.575000047683716,
        -5.925000190734863
      ]
    },
    {
      "mesh": 6,
      "name": "RoundHangarColumnCollider_300",
      "rotation": [
        0,
        0.5,
        0,
        0.8660253882408142
      ],
      "translation": [
        -10.26240062713623,
        2.575000047683716,
        5.925000190734863
      ]
    }
  ],
  "materials": [
    {
      "doubleSided": true,
      "name": "Collision_Wall_Invisible",
      "pbrMetallicRoughness": {
        "baseColorFactor": [
          0.8500000238418579,
          0.11999999731779099,
          0.05000000074505806,
          1
        ],
        "metallicFactor": 0
      },
      "extensions": {
        "ASOBO_material_invisible": {
          "enabled": true
        },
        "ASOBO_tags": {
          "tags": [
            "Collision"
          ]
        }
      }
    }
  ],
  "meshes": [
    {
      "name": "RoundHangarWallCollider_mesh",
      "primitives": [
        {
          "attributes": {
            "POSITION": 0,
            "NORMAL": 1
          },
          "indices": 2,
          "material": 0
        }
      ]
    },
    {
      "name": "W\u00fcrfel.010",
      "primitives": [
        {
          "attributes": {
            "POSITION": 3,
            "NORMAL": 4,
            "TEXCOORD_0": 5
          },
          "indices": 6,
          "material": 0
        }
      ]
    },
    {
      "name": "W\u00fcrfel.011",
      "primitives": [
        {
          "attributes": {
            "POSITION": 7,
            "NORMAL": 8,
            "TEXCOORD_0": 9
          },
          "indices": 6,
          "material": 0
        }
      ]
    },
    {
      "name": "W\u00fcrfel.012",
      "primitives": [
        {
          "attributes": {
            "POSITION": 10,
            "NORMAL": 11,
            "TEXCOORD_0": 12
          },
          "indices": 6,
          "material": 0
        }
      ]
    },
    {
      "name": "W\u00fcrfel.013",
      "primitives": [
        {
          "attributes": {
            "POSITION": 13,
            "NORMAL": 14,
            "TEXCOORD_0": 15
          },
          "indices": 6,
          "material": 0
        }
      ]
    },
    {
      "name": "W\u00fcrfel.014",
      "primitives": [
        {
          "attributes": {
            "POSITION": 16,
            "NORMAL": 17,
            "TEXCOORD_0": 18
          },
          "indices": 6,
          "material": 0
        }
      ]
    },
    {
      "name": "W\u00fcrfel.015",
      "primitives": [
        {
          "attributes": {
            "POSITION": 19,
            "NORMAL": 20,
            "TEXCOORD_0": 21
          },
          "indices": 6,
          "material": 0
        }
      ]
    }
  ],
  "accessors": [
    {
      "bufferView": 0,
      "componentType": 5126,
      "count": 868,
      "max": [
        12.079999923706055,
        6.650000095367432,
        6.039999961853027
      ],
      "min": [
        -12.079999923706055,
        -1.5,
        -12.079999923706055
      ],
      "type": "VEC3"
    },
    {
      "bufferView": 1,
      "componentType": 5126,
      "count": 868,
      "type": "VEC3"
    },
    {
      "bufferView": 2,
      "componentType": 5123,
      "count": 1728,
      "type": "SCALAR"
    },
    {
      "bufferView": 3,
      "componentType": 5126,
      "count": 24,
      "max": [
        0.20000000298023224,
        4.074999809265137,
        0.20000000298023224
      ],
      "min": [
        -0.20000000298023224,
        -4.074999809265137,
        -0.20000000298023224
      ],
      "type": "VEC3"
    },
    {
      "bufferView": 4,
      "componentType": 5126,
      "count": 24,
      "type": "VEC3"
    },
    {
      "bufferView": 5,
      "componentType": 5126,
      "count": 24,
      "type": "VEC2"
    },
    {
      "bufferView": 6,
      "componentType": 5123,
      "count": 36,
      "type": "SCALAR"
    },
    {
      "bufferView": 7,
      "componentType": 5126,
      "count": 24,
      "max": [
        0.20000000298023224,
        4.074999809265137,
        0.20000000298023224
      ],
      "min": [
        -0.20000000298023224,
        -4.074999809265137,
        -0.20000000298023224
      ],
      "type": "VEC3"
    },
    {
      "bufferView": 8,
      "componentType": 5126,
      "count": 24,
      "type": "VEC3"
    },
    {
      "bufferView": 9,
      "componentType": 5126,
      "count": 24,
      "type": "VEC2"
    },
    {
      "bufferView": 10,
      "componentType": 5126,
      "count": 24,
      "max": [
        0.20000000298023224,
        4.074999809265137,
        0.20000000298023224
      ],
      "min": [
        -0.20000000298023224,
        -4.074999809265137,
        -0.20000000298023224
      ],
      "type": "VEC3"
    },
    {
      "bufferView": 11,
      "componentType": 5126,
      "count": 24,
      "type": "VEC3"
    },
    {
      "bufferView": 12,
      "componentType": 5126,
      "count": 24,
      "type": "VEC2"
    },
    {
      "bufferView": 13,
      "componentType": 5126,
      "count": 24,
      "max": [
        0.20000000298023224,
        4.074999809265137,
        0.20000000298023224
      ],
      "min": [
        -0.20000000298023224,
        -4.074999809265137,
        -0.20000000298023224
      ],
      "type": "VEC3"
    },
    {
      "bufferView": 14,
      "componentType": 5126,
      "count": 24,
      "type": "VEC3"
    },
    {
      "bufferView": 15,
      "componentType": 5126,
      "count": 24,
      "type": "VEC2"
    },
    {
      "bufferView": 16,
      "componentType": 5126,
      "count": 24,
      "max": [
        0.20000000298023224,
        4.074999809265137,
        0.20000000298023224
      ],
      "min": [
        -0.20000000298023224,
        -4.074999809265137,
        -0.20000000298023224
      ],
      "type": "VEC3"
    },
    {
      "bufferView": 17,
      "componentType": 5126,
      "count": 24,
      "type": "VEC3"
    },
    {
      "bufferView": 18,
      "componentType": 5126,
      "count": 24,
      "type": "VEC2"
    },
    {
      "bufferView": 19,
      "componentType": 5126,
      "count": 24,
      "max": [
        0.20000000298023224,
        4.074999809265137,
        0.20000000298023224
      ],
      "min": [
        -0.20000000298023224,
        -4.074999809265137,
        -0.20000000298023224
      ],
      "type": "VEC3"
    },
    {
      "bufferView": 20,
      "componentType": 5126,
      "count": 24,
      "type": "VEC3"
    },
    {
      "bufferView": 21,
      "componentType": 5126,
      "count": 24,
      "type": "VEC2"
    }
  ],
  "bufferViews": [
    {
      "buffer": 0,
      "byteLength": 10416,
      "byteOffset": 0,
      "target": 34962
    },
    {
      "buffer": 0,
      "byteLength": 10416,
      "byteOffset": 10416,
      "target": 34962
    },
    {
      "buffer": 0,
      "byteLength": 3456,
      "byteOffset": 20832,
      "target": 34963
    },
    {
      "buffer": 0,
      "byteLength": 288,
      "byteOffset": 24288,
      "target": 34962
    },
    {
      "buffer": 0,
      "byteLength": 288,
      "byteOffset": 24576,
      "target": 34962
    },
    {
      "buffer": 0,
      "byteLength": 192,
      "byteOffset": 24864,
      "target": 34962
    },
    {
      "buffer": 0,
      "byteLength": 72,
      "byteOffset": 25056,
      "target": 34963
    },
    {
      "buffer": 0,
      "byteLength": 288,
      "byteOffset": 25128,
      "target": 34962
    },
    {
      "buffer": 0,
      "byteLength": 288,
      "byteOffset": 25416,
      "target": 34962
    },
    {
      "buffer": 0,
      "byteLength": 192,
      "byteOffset": 25704,
      "target": 34962
    },
    {
      "buffer": 0,
      "byteLength": 288,
      "byteOffset": 25896,
      "target": 34962
    },
    {
      "buffer": 0,
      "byteLength": 288,
      "byteOffset": 26184,
      "target": 34962
    },
    {
      "buffer": 0,
      "byteLength": 192,
      "byteOffset": 26472,
      "target": 34962
    },
    {
      "buffer": 0,
      "byteLength": 288,
      "byteOffset": 26664,
      "target": 34962
    },
    {
      "buffer": 0,
      "byteLength": 288,
      "byteOffset": 26952,
      "target": 34962
    },
    {
      "buffer": 0,
      "byteLength": 192,
      "byteOffset": 27240,
      "target": 34962
    },
    {
      "buffer": 0,
      "byteLength": 288,
      "byteOffset": 27432,
      "target": 34962
    },
    {
      "buffer": 0,
      "byteLength": 288,
      "byteOffset": 27720,
      "target": 34962
    },
    {
      "buffer": 0,
      "byteLength": 192,
      "byteOffset": 28008,
      "target": 34962
    },
    {
      "buffer": 0,
      "byteLength": 288,
      "byteOffset": 28200,
      "target": 34962
    },
    {
      "buffer": 0,
      "byteLength": 288,
      "byteOffset": 28488,
      "target": 34962
    },
    {
      "buffer": 0,
      "byteLength": 192,
      "byteOffset": 28776,
      "target": 34962
    }
  ],
  "buffers": [
    {
      "byteLength": 28968,
      "uri": "HomebaseRoundHangarCollision_LOD00.bin"
    }
  ],
  "extensionsUsed": [
    "ASOBO_material_invisible",
    "ASOBO_tags"
  ]
}
