{"accessors":[{"bufferView":0,"componentType":5126,"count":101,"min":[0.0],"max":[5.0],"type":"SCALAR"},{"bufferView":1,"componentType":5126,"count":101,"type":"VEC3"},{"bufferView":2,"componentType":5126,"count":101,"type":"VEC4"},{"bufferView":3,"componentType":5126,"count":101,"type":"VEC3"},{"bufferView":4,"componentType":5126,"count":101,"type":"VEC4"},{"bufferView":5,"componentType":5126,"count":101,"type":"VEC3"},{"bufferView":6,"componentType":5126,"count":101,"type":"VEC4"},{"bufferView":7,"componentType":5126,"count":101,"type":"VEC3"},{"bufferView":8,"componentType":5126,"count":101,"type":"VEC4"},{"bufferView":9,"componentType":5126,"count":101,"type":"VEC3"},{"bufferView":10,"componentType":5126,"count":101,"type":"VEC4"},{"bufferView":11,"componentType":5126,"count":101,"type":"VEC3"},{"bufferView":12,"componentType":5126,"count":101,"type":"VEC4"},{"bufferView":13,"componentType":5126,"count":101,"type":"VEC3"},{"bufferView":14,"componentType":5126,"count":101,"type":"VEC4"},{"bufferView":15,"componentType":5126,"count":101,"type":"VEC3"},{"bufferView":16,"componentType":5126,"count":101,"type":"VEC4"},{"bufferView":17,"componentType":5126,"count":101,"type":"VEC3"},{"bufferView":18,"componentType":5126,"count":101,"type":"VEC4"},{"bufferView":19,"componentType":5126,"count":101,"type":"VEC3"},{"bufferView":20,"componentType":5126,"count":101,"type":"VEC4"},{"bufferView":21,"componentType":5126,"count":101,"type":"VEC3"},{"bufferView":22,"componentType":5126,"count":101,"type":"VEC4"},{"bufferView":23,"componentType":5126,"count":101,"type":"VEC3"},{"bufferView":24,"componentType":5126,"count":101,"type":"VEC4"},{"bufferView":25,"componentType":5126,"count":118,"min":[-9.0,-2.075000047683716,-11.0],"max":[9.0,7.0,11.119999885559082],"type":"VEC3","name":"HomebaseHangar_LOD01_mesh_vertices#0_POSITION"},{"bufferView":25,"byteOffset":12,"componentType":5120,"count":118,"type":"VEC4","name":"HomebaseHangar_LOD01_mesh_vertices#0_TANGENT"},{"bufferView":25,"byteOffset":16,"componentType":5120,"count":118,"type":"VEC4","name":"HomebaseHangar_LOD01_mesh_vertices#0_NORMAL"},{"bufferView":25,"byteOffset":20,"componentType":5122,"count":118,"type":"VEC2","name":"HomebaseHangar_LOD01_mesh_vertices#0_TEXCOORD_0"},{"bufferView":25,"byteOffset":24,"componentType":5122,"count":118,"type":"VEC2","name":"HomebaseHangar_LOD01_mesh_vertices#0_TEXCOORD_1"},{"bufferView":25,"byteOffset":28,"componentType":5123,"count":118,"type":"VEC4","name":"HomebaseHangar_LOD01_mesh_vertices#0_COLOR_0"},{"bufferView":26,"componentType":5123,"count":186,"type":"SCALAR","name":"HomebaseHangar_LOD01_mesh_indices#0"},{"bufferView":25,"byteOffset":4248,"componentType":5126,"count":4,"min":[-5.949999809265137,0.0,-0.0],"max":[5.949999809265137,0.4933333396911621,-0.0],"type":"VEC3","name":"HomebaseHangarDoorSlat01_LOD01_Source_mesh_vertices#0_POSITION"},{"bufferView":25,"byteOffset":4260,"componentType":5120,"count":4,"type":"VEC4","name":"HomebaseHangarDoorSlat01_LOD01_Source_mesh_vertices#0_TANGENT"},{"bufferView":25,"byteOffset":4264,"componentType":5120,"count":4,"type":"VEC4","name":"HomebaseHangarDoorSlat01_LOD01_Source_mesh_vertices#0_NORMAL"},{"bufferView":25,"byteOffset":4268,"componentType":5122,"count":4,"type":"VEC2","name":"HomebaseHangarDoorSlat01_LOD01_Source_mesh_vertices#0_TEXCOORD_0"},{"bufferView":25,"byteOffset":4272,"componentType":5122,"count":4,"type":"VEC2","name":"HomebaseHangarDoorSlat01_LOD01_Source_mesh_vertices#0_TEXCOORD_1"},{"bufferView":25,"byteOffset":4276,"componentType":5123,"count":4,"type":"VEC4","name":"HomebaseHangarDoorSlat01_LOD01_Source_mesh_vertices#0_COLOR_0"},{"bufferView":26,"byteOffset":372,"componentType":5123,"count":6,"type":"SCALAR","name":"HomebaseHangarDoorSlat01_LOD01_Source_mesh_indices#0"},{"bufferView":25,"byteOffset":4392,"componentType":5126,"count":4,"min":[-0.3199999928474426,6.480000019073486,-0.3199999928474426],"max":[0.3199999928474426,6.480000019073486,0.3199999928474426],"type":"VEC3","name":"HomebaseHangarLamp_LOD01_Source_mesh_vertices#0_POSITION"},{"bufferView":25,"byteOffset":4404,"componentType":5120,"count":4,"type":"VEC4","name":"HomebaseHangarLamp_LOD01_Source_mesh_vertices#0_TANGENT"},{"bufferView":25,"byteOffset":4408,"componentType":5120,"count":4,"type":"VEC4","name":"HomebaseHangarLamp_LOD01_Source_mesh_vertices#0_NORMAL"},{"bufferView":25,"byteOffset":4412,"componentType":5122,"count":4,"type":"VEC2","name":"HomebaseHangarLamp_LOD01_Source_mesh_vertices#0_TEXCOORD_0"},{"bufferView":25,"byteOffset":4416,"componentType":5122,"count":4,"type":"VEC2","name":"HomebaseHangarLamp_LOD01_Source_mesh_vertices#0_TEXCOORD_1"},{"bufferView":25,"byteOffset":4420,"componentType":5123,"count":4,"type":"VEC4","name":"HomebaseHangarLamp_LOD01_Source_mesh_vertices#0_COLOR_0"},{"bufferView":26,"byteOffset":384,"componentType":5123,"count":6,"type":"SCALAR","name":"HomebaseHangarLamp_LOD01_Source_mesh_indices#0"}],"animations":[{"name":"HomebaseHangarDoor","channels":[{"sampler":0,"target":{"node":1,"path":"translation"}},{"sampler":1,"target":{"node":1,"path":"rotation"}},{"sampler":2,"target":{"node":2,"path":"translation"}},{"sampler":3,"target":{"node":2,"path":"rotation"}},{"sampler":4,"target":{"node":3,"path":"translation"}},{"sampler":5,"target":{"node":3,"path":"rotation"}},{"sampler":6,"target":{"node":4,"path":"translation"}},{"sampler":7,"target":{"node":4,"path":"rotation"}},{"sampler":8,"target":{"node":5,"path":"translation"}},{"sampler":9,"target":{"node":5,"path":"rotation"}},{"sampler":10,"target":{"node":6,"path":"translation"}},{"sampler":11,"target":{"node":6,"path":"rotation"}},{"sampler":12,"target":{"node":7,"path":"translation"}},{"sampler":13,"target":{"node":7,"path":"rotation"}},{"sampler":14,"target":{"node":8,"path":"translation"}},{"sampler":15,"target":{"node":8,"path":"rotation"}},{"sampler":16,"target":{"node":9,"path":"translation"}},{"sampler":17,"target":{"node":9,"path":"rotation"}},{"sampler":18,"target":{"node":10,"path":"translation"}},{"sampler":19,"target":{"node":10,"path":"rotation"}},{"sampler":20,"target":{"node":11,"path":"translation"}},{"sampler":21,"target":{"node":11,"path":"rotation"}},{"sampler":22,"target":{"node":12,"path":"translation"}},{"sampler":23,"target":{"node":12,"path":"rotation"}}],"samplers":[{"input":0,"output":1,"interpolation":"LINEAR"},{"input":0,"output":2,"interpolation":"LINEAR"},{"input":0,"output":3,"interpolation":"LINEAR"},{"input":0,"output":4,"interpolation":"LINEAR"},{"input":0,"output":5,"interpolation":"LINEAR"},{"input":0,"output":6,"interpolation":"LINEAR"},{"input":0,"output":7,"interpolation":"LINEAR"},{"input":0,"output":8,"interpolation":"LINEAR"},{"input":0,"output":9,"interpolation":"LINEAR"},{"input":0,"output":10,"interpolation":"LINEAR"},{"input":0,"output":11,"interpolation":"LINEAR"},{"input":0,"output":12,"interpolation":"LINEAR"},{"input":0,"output":13,"interpolation":"LINEAR"},{"input":0,"output":14,"interpolation":"LINEAR"},{"input":0,"output":15,"interpolation":"LINEAR"},{"input":0,"output":16,"interpolation":"LINEAR"},{"input":0,"output":17,"interpolation":"LINEAR"},{"input":0,"output":18,"interpolation":"LINEAR"},{"input":0,"output":19,"interpolation":"LINEAR"},{"input":0,"output":20,"interpolation":"LINEAR"},{"input":0,"output":21,"interpolation":"LINEAR"},{"input":0,"output":22,"interpolation":"LINEAR"},{"input":0,"output":23,"interpolation":"LINEAR"},{"input":0,"output":24,"interpolation":"LINEAR"}]}],"asset":{"generator":"Khronos glTF Blender I/O v4.5.48","version":"2.0","extensions":{"ASOBO_asset_optimized":{"BoundingBoxMax":[9.0,7.0,11.119999885559082],"BoundingBoxMin":[-9.0,-2.075000047683716,-11.0],"MajorVersion":4,"MinorVersion":7,"UseCheckerboardMaterialForMissingTextures":true,"UseOnlyFilenameForImageURI":true}}},"bufferViews":[{"buffer":0,"byteLength":404},{"buffer":0,"byteLength":1212,"byteOffset":404},{"buffer":0,"byteLength":1616,"byteOffset":1616},{"buffer":0,"byteLength":1212,"byteOffset":3232},{"buffer":0,"byteLength":1616,"byteOffset":4444},{"buffer":0,"byteLength":1212,"byteOffset":6060},{"buffer":0,"byteLength":1616,"byteOffset":7272},{"buffer":0,"byteLength":1212,"byteOffset":8888},{"buffer":0,"byteLength":1616,"byteOffset":10100},{"buffer":0,"byteLength":1212,"byteOffset":11716},{"buffer":0,"byteLength":1616,"byteOffset":12928},{"buffer":0,"byteLength":1212,"byteOffset":14544},{"buffer":0,"byteLength":1616,"byteOffset":15756},{"buffer":0,"byteLength":1212,"byteOffset":17372},{"buffer":0,"byteLength":1616,"byteOffset":18584},{"buffer":0,"byteLength":1212,"byteOffset":20200},{"buffer":0,"byteLength":1616,"byteOffset":21412},{"buffer":0,"byteLength":1212,"byteOffset":23028},{"buffer":0,"byteLength":1616,"byteOffset":24240},{"buffer":0,"byteLength":1212,"byteOffset":25856},{"buffer":0,"byteLength":1616,"byteOffset":27068},{"buffer":0,"byteLength":1212,"byteOffset":28684},{"buffer":0,"byteLength":1616,"byteOffset":29896},{"buffer":0,"byteLength":1212,"byteOffset":31512},{"buffer":0,"byteLength":1616,"byteOffset":32724},{"buffer":0,"byteLength":4536,"byteStride":36,"byteOffset":34340,"target":34962,"name":"BufferViewVertexND"},{"buffer":0,"byteLength":396,"byteOffset":38876,"target":34963,"name":"BufferViewIndexU16"}],"materials":[{"name":"Hangarplane_Aussen_Dunkelgruen_LOD01","doubleSided":true,"pbrMetallicRoughness":{"baseColorFactor":[0.03500000014901161,0.1899999976158142,0.0949999988079071,1.0],"metallicFactor":0.0,"roughnessFactor":0.9200000166893004}},{"name":"HomebaseHangar_Door_Canvas_LOD01","doubleSided":true,"pbrMetallicRoughness":{"baseColorFactor":[0.10499999672174454,0.2849999964237213,0.17000000178813935,1.0],"metallicFactor":0.0,"roughnessFactor":0.7799999713897705}},{"name":"HomebaseHangar_Lamp_Emissive","doubleSided":true,"emissiveFactor":[1.0,0.6600000262260437,0.3199999928474426],"pbrMetallicRoughness":{"baseColorFactor":[0.9200000166893004,0.6899999976158142,0.41999998688697817,1.0],"metallicFactor":0.0,"roughnessFactor":0.30000001192092898}}],"meshes":[{"primitives":[{"attributes":{"COLOR_0":30,"NORMAL":27,"POSITION":25,"TANGENT":26,"TEXCOORD_0":28,"TEXCOORD_1":29},"indices":31,"material":0,"mode":4,"extras":{"ASOBO_primitive":{"PrimitiveCount":62,"UV2Length":0.5039566159248352,"UVLength":0.5039566159248352,"VertexCount":118,"VertexType":"VTX","VertexVersion":2}}}],"name":"HomebaseHangar_LOD01_mesh"},{"primitives":[{"attributes":{"COLOR_0":37,"NORMAL":34,"POSITION":32,"TANGENT":33,"TEXCOORD_0":35,"TEXCOORD_1":36},"indices":38,"material":1,"mode":4,"extras":{"ASOBO_primitive":{"PrimitiveCount":2,"UV2Length":0.29775553941726687,"UVLength":0.29775553941726687,"VertexCount":4,"VertexType":"VTX","VertexVersion":2}}}],"name":"HomebaseHangarDoorSlat01_LOD01_Source_mesh"},{"primitives":[{"attributes":{"COLOR_0":44,"NORMAL":41,"POSITION":39,"TANGENT":40,"TEXCOORD_0":42,"TEXCOORD_1":43},"indices":45,"material":2,"mode":4,"extras":{"ASOBO_primitive":{"PrimitiveCount":2,"UV2Length":0.015999987721443178,"UVLength":0.015999987721443178,"VertexCount":4,"VertexType":"VTX","VertexVersion":2}}}],"name":"HomebaseHangarLamp_LOD01_Source_mesh"}],"nodes":[{"mesh":0,"name":"HomebaseHangar_LOD01"},{"translation":[0.0,4.315666675567627,9.890000343322754],"rotation":[-0.7071068286895752,0.0,0.0,0.7071068286895752],"mesh":1,"name":"HomebaseHangarDoorSlat01"},{"translation":[0.0,4.315666675567627,9.396666526794434],"rotation":[-0.7071068286895752,0.0,0.0,0.7071068286895752],"mesh":1,"name":"HomebaseHangarDoorSlat02"},{"translation":[0.0,4.315666675567627,8.90333366394043],"rotation":[-0.7071068286895752,0.0,0.0,0.7071068286895752],"mesh":1,"name":"HomebaseHangarDoorSlat03"},{"translation":[0.0,4.315666675567627,8.40999984741211],"rotation":[-0.7071068286895752,0.0,0.0,0.7071068286895752],"mesh":1,"name":"HomebaseHangarDoorSlat04"},{"translation":[0.0,4.315666675567627,7.916666507720947],"rotation":[-0.7071068286895752,0.0,0.0,0.7071068286895752],"mesh":1,"name":"HomebaseHangarDoorSlat05"},{"translation":[0.0,4.315666675567627,7.423333168029785],"rotation":[-0.7071068286895752,0.0,0.0,0.7071068286895752],"mesh":1,"name":"HomebaseHangarDoorSlat06"},{"translation":[0.0,4.315666675567627,6.929999828338623],"rotation":[-0.7071068286895752,0.0,0.0,0.7071068286895752],"mesh":1,"name":"HomebaseHangarDoorSlat07"},{"translation":[0.0,4.315666675567627,6.436666488647461],"rotation":[-0.7071068286895752,0.0,0.0,0.7071068286895752],"mesh":1,"name":"HomebaseHangarDoorSlat08"},{"translation":[0.0,4.315666675567627,5.943333148956299],"rotation":[-0.7071068286895752,0.0,0.0,0.7071068286895752],"mesh":1,"name":"HomebaseHangarDoorSlat09"},{"translation":[0.0,4.315666675567627,5.449999809265137],"rotation":[-0.7071068286895752,0.0,0.0,0.7071068286895752],"mesh":1,"name":"HomebaseHangarDoorSlat10"},{"translation":[0.0,4.315666675567627,4.956666469573975],"rotation":[-0.7071068286895752,0.0,0.0,0.7071068286895752],"mesh":1,"name":"HomebaseHangarDoorSlat11"},{"translation":[0.0,4.315666675567627,4.4633331298828129],"rotation":[-0.7071068286895752,0.0,0.0,0.7071068286895752],"mesh":1,"name":"HomebaseHangarDoorSlat12"},{"name":"HomebaseHangarDoor","children":[1,2,3,4,5,6,7,8,9,10,11,12]},{"mesh":2,"name":"HomebaseHangarLamp"},{"translation":[0.0,6.18,0.0],"extensions":{"ASOBO_advanced_light":{"channel_exterior":true,"channel_interior":true,"color":[1.0,0.72,0.48],"flare_enabled":false,"inner_cone_angle":360.0,"intensity":8000.0,"outer_cone_angle":360.0,"shape_type":1,"source_radius":1.35}},"name":"HomebaseHangarLampLight"}],"scene":0,"scenes":[{"nodes":[0,13,14,15],"name":"Scene"}],"extensionsUsed":["ASOBO_advanced_light","ASOBO_asset_optimized"],"buffers":[{"byteLength":39272,"uri":"HomebaseHangar_LOD01.bin"}]}
