{"accessors":[{"bufferView":0,"componentType":5126,"count":101,"min":[0.0],"max":[5.0],"type":"SCALAR"},{"bufferView":1,"componentType":5126,"count":101,"type":"VEC3"},{"bufferView":2,"componentType":5126,"count":101,"type":"VEC4"},{"bufferView":3,"componentType":5126,"count":101,"type":"VEC3"},{"bufferView":4,"componentType":5126,"count":101,"type":"VEC4"},{"bufferView":5,"componentType":5126,"count":101,"type":"VEC3"},{"bufferView":6,"componentType":5126,"count":101,"type":"VEC4"},{"bufferView":7,"componentType":5126,"count":101,"type":"VEC3"},{"bufferView":8,"componentType":5126,"count":101,"type":"VEC4"},{"bufferView":9,"componentType":5126,"count":101,"type":"VEC3"},{"bufferView":10,"componentType":5126,"count":101,"type":"VEC4"},{"bufferView":11,"componentType":5126,"count":101,"type":"VEC3"},{"bufferView":12,"componentType":5126,"count":101,"type":"VEC4"},{"bufferView":13,"componentType":5126,"count":101,"type":"VEC3"},{"bufferView":14,"componentType":5126,"count":101,"type":"VEC4"},{"bufferView":15,"componentType":5126,"count":101,"type":"VEC3"},{"bufferView":16,"componentType":5126,"count":101,"type":"VEC4"},{"bufferView":17,"componentType":5126,"count":101,"type":"VEC3"},{"bufferView":18,"componentType":5126,"count":101,"type":"VEC4"},{"bufferView":19,"componentType":5126,"count":101,"type":"VEC3"},{"bufferView":20,"componentType":5126,"count":101,"type":"VEC4"},{"bufferView":21,"componentType":5126,"count":101,"type":"VEC3"},{"bufferView":22,"componentType":5126,"count":101,"type":"VEC4"},{"bufferView":23,"componentType":5126,"count":101,"type":"VEC3"},{"bufferView":24,"componentType":5126,"count":101,"type":"VEC4"},{"bufferView":25,"componentType":5126,"count":4410,"min":[-9.0,-2.075000047683716,-11.0],"max":[9.0,7.0,11.0],"type":"VEC3","name":"HomebaseHangarShell_RoundedRims_Mesh_vertices#0_POSITION"},{"bufferView":25,"byteOffset":12,"componentType":5120,"count":4410,"type":"VEC4","name":"HomebaseHangarShell_RoundedRims_Mesh_vertices#0_TANGENT"},{"bufferView":25,"byteOffset":16,"componentType":5120,"count":4410,"type":"VEC4","name":"HomebaseHangarShell_RoundedRims_Mesh_vertices#0_NORMAL"},{"bufferView":25,"byteOffset":20,"componentType":5122,"count":4410,"type":"VEC2","name":"HomebaseHangarShell_RoundedRims_Mesh_vertices#0_TEXCOORD_0"},{"bufferView":25,"byteOffset":24,"componentType":5122,"count":4410,"type":"VEC2","name":"HomebaseHangarShell_RoundedRims_Mesh_vertices#0_TEXCOORD_1"},{"bufferView":25,"byteOffset":28,"componentType":5123,"count":4410,"type":"VEC4","name":"HomebaseHangarShell_RoundedRims_Mesh_vertices#0_COLOR_0"},{"bufferView":26,"componentType":5123,"count":4410,"type":"SCALAR","name":"HomebaseHangarShell_RoundedRims_Mesh_indices#0"},{"bufferView":25,"byteOffset":158760,"componentType":5126,"count":432,"min":[-8.880000114440918,-1.9550000429153443,-10.920000076293946],"max":[8.880000114440918,6.880000114440918,10.920000076293946],"type":"VEC3","name":"HomebaseHangarInteriorLining_mesh_vertices#0_POSITION"},{"bufferView":25,"byteOffset":158772,"componentType":5120,"count":432,"type":"VEC4","name":"HomebaseHangarInteriorLining_mesh_vertices#0_TANGENT"},{"bufferView":25,"byteOffset":158776,"componentType":5120,"count":432,"type":"VEC4","name":"HomebaseHangarInteriorLining_mesh_vertices#0_NORMAL"},{"bufferView":25,"byteOffset":158780,"componentType":5122,"count":432,"type":"VEC2","name":"HomebaseHangarInteriorLining_mesh_vertices#0_TEXCOORD_0"},{"bufferView":25,"byteOffset":158784,"componentType":5122,"count":432,"type":"VEC2","name":"HomebaseHangarInteriorLining_mesh_vertices#0_TEXCOORD_1"},{"bufferView":25,"byteOffset":158788,"componentType":5123,"count":432,"type":"VEC4","name":"HomebaseHangarInteriorLining_mesh_vertices#0_COLOR_0"},{"bufferView":26,"byteOffset":8820,"componentType":5123,"count":432,"type":"SCALAR","name":"HomebaseHangarInteriorLining_mesh_indices#0"},{"bufferView":25,"byteOffset":174312,"componentType":5126,"count":6912,"min":[-8.975251197814942,-2.0502512454986574,-10.755000114440918],"max":[8.975251197814942,6.965000152587891,8.055000305175782],"type":"VEC3","name":"HomebaseHangarStructuralRibs_mesh_vertices#0_POSITION"},{"bufferView":25,"byteOffset":174324,"componentType":5120,"count":6912,"type":"VEC4","name":"HomebaseHangarStructuralRibs_mesh_vertices#0_TANGENT"},{"bufferView":25,"byteOffset":174328,"componentType":5120,"count":6912,"type":"VEC4","name":"HomebaseHangarStructuralRibs_mesh_vertices#0_NORMAL"},{"bufferView":25,"byteOffset":174332,"componentType":5122,"count":6912,"type":"VEC2","name":"HomebaseHangarStructuralRibs_mesh_vertices#0_TEXCOORD_0"},{"bufferView":25,"byteOffset":174336,"componentType":5122,"count":6912,"type":"VEC2","name":"HomebaseHangarStructuralRibs_mesh_vertices#0_TEXCOORD_1"},{"bufferView":25,"byteOffset":174340,"componentType":5123,"count":6912,"type":"VEC4","name":"HomebaseHangarStructuralRibs_mesh_vertices#0_COLOR_0"},{"bufferView":26,"byteOffset":9684,"componentType":5123,"count":6912,"type":"SCALAR","name":"HomebaseHangarStructuralRibs_mesh_indices#0"},{"bufferView":25,"byteOffset":423144,"componentType":5126,"count":576,"min":[-8.875244140625,-1.5,11.0],"max":[8.875244140625,6.880000114440918,11.0],"type":"VEC3","name":"HomebaseHangarFrontInfill_RoundedRim_Mesh_vertices#0_POSITION"},{"bufferView":25,"byteOffset":423156,"componentType":5120,"count":576,"type":"VEC4","name":"HomebaseHangarFrontInfill_RoundedRim_Mesh_vertices#0_TANGENT"},{"bufferView":25,"byteOffset":423160,"componentType":5120,"count":576,"type":"VEC4","name":"HomebaseHangarFrontInfill_RoundedRim_Mesh_vertices#0_NORMAL"},{"bufferView":25,"byteOffset":423164,"componentType":5122,"count":576,"type":"VEC2","name":"HomebaseHangarFrontInfill_RoundedRim_Mesh_vertices#0_TEXCOORD_0"},{"bufferView":25,"byteOffset":423168,"componentType":5122,"count":576,"type":"VEC2","name":"HomebaseHangarFrontInfill_RoundedRim_Mesh_vertices#0_TEXCOORD_1"},{"bufferView":25,"byteOffset":423172,"componentType":5123,"count":576,"type":"VEC4","name":"HomebaseHangarFrontInfill_RoundedRim_Mesh_vertices#0_COLOR_0"},{"bufferView":26,"byteOffset":23508,"componentType":5123,"count":576,"type":"SCALAR","name":"HomebaseHangarFrontInfill_RoundedRim_Mesh_indices#0"},{"bufferView":25,"byteOffset":443880,"componentType":5126,"count":132,"min":[-6.210000038146973,-1.5399999618530274,10.84000015258789],"max":[-5.989999771118164,4.539999961853027,11.119999885559082],"type":"VEC3","name":"HomebaseHangarPortalPostLeft_mesh_vertices#0_POSITION"},{"bufferView":25,"byteOffset":443892,"componentType":5120,"count":132,"type":"VEC4","name":"HomebaseHangarPortalPostLeft_mesh_vertices#0_TANGENT"},{"bufferView":25,"byteOffset":443896,"componentType":5120,"count":132,"type":"VEC4","name":"HomebaseHangarPortalPostLeft_mesh_vertices#0_NORMAL"},{"bufferView":25,"byteOffset":443900,"componentType":5122,"count":132,"type":"VEC2","name":"HomebaseHangarPortalPostLeft_mesh_vertices#0_TEXCOORD_0"},{"bufferView":25,"byteOffset":443904,"componentType":5122,"count":132,"type":"VEC2","name":"HomebaseHangarPortalPostLeft_mesh_vertices#0_TEXCOORD_1"},{"bufferView":25,"byteOffset":443908,"componentType":5123,"count":132,"type":"VEC4","name":"HomebaseHangarPortalPostLeft_mesh_vertices#0_COLOR_0"},{"bufferView":26,"byteOffset":24660,"componentType":5123,"count":132,"type":"SCALAR","name":"HomebaseHangarPortalPostLeft_mesh_indices#0"},{"bufferView":25,"byteOffset":448632,"componentType":5126,"count":132,"min":[5.989999771118164,-1.5399999618530274,10.84000015258789],"max":[6.210000038146973,4.539999961853027,11.119999885559082],"type":"VEC3","name":"HomebaseHangarPortalPostRight_mesh_vertices#0_POSITION"},{"bufferView":25,"byteOffset":448644,"componentType":5120,"count":132,"type":"VEC4","name":"HomebaseHangarPortalPostRight_mesh_vertices#0_TANGENT"},{"bufferView":25,"byteOffset":448648,"componentType":5120,"count":132,"type":"VEC4","name":"HomebaseHangarPortalPostRight_mesh_vertices#0_NORMAL"},{"bufferView":25,"byteOffset":448652,"componentType":5122,"count":132,"type":"VEC2","name":"HomebaseHangarPortalPostRight_mesh_vertices#0_TEXCOORD_0"},{"bufferView":25,"byteOffset":448656,"componentType":5122,"count":132,"type":"VEC2","name":"HomebaseHangarPortalPostRight_mesh_vertices#0_TEXCOORD_1"},{"bufferView":25,"byteOffset":448660,"componentType":5123,"count":132,"type":"VEC4","name":"HomebaseHangarPortalPostRight_mesh_vertices#0_COLOR_0"},{"bufferView":26,"byteOffset":24924,"componentType":5123,"count":132,"type":"SCALAR","name":"HomebaseHangarPortalPostRight_mesh_indices#0"},{"bufferView":25,"byteOffset":453384,"componentType":5126,"count":132,"min":[-6.210000038146973,4.46999979019165,10.84000015258789],"max":[6.210000038146973,4.690000057220459,11.119999885559082],"type":"VEC3","name":"HomebaseHangarPortalLintel_mesh_vertices#0_POSITION"},{"bufferView":25,"byteOffset":453396,"componentType":5120,"count":132,"type":"VEC4","name":"HomebaseHangarPortalLintel_mesh_vertices#0_TANGENT"},{"bufferView":25,"byteOffset":453400,"componentType":5120,"count":132,"type":"VEC4","name":"HomebaseHangarPortalLintel_mesh_vertices#0_NORMAL"},{"bufferView":25,"byteOffset":453404,"componentType":5122,"count":132,"type":"VEC2","name":"HomebaseHangarPortalLintel_mesh_vertices#0_TEXCOORD_0"},{"bufferView":25,"byteOffset":453408,"componentType":5122,"count":132,"type":"VEC2","name":"HomebaseHangarPortalLintel_mesh_vertices#0_TEXCOORD_1"},{"bufferView":25,"byteOffset":453412,"componentType":5123,"count":132,"type":"VEC4","name":"HomebaseHangarPortalLintel_mesh_vertices#0_COLOR_0"},{"bufferView":26,"byteOffset":25188,"componentType":5123,"count":132,"type":"SCALAR","name":"HomebaseHangarPortalLintel_mesh_indices#0"},{"bufferView":25,"byteOffset":458136,"componentType":5126,"count":132,"min":[-5.949999809265137,0.0,-0.05000000074505806],"max":[5.949999809265137,0.484333336353302,0.05000000074505806],"type":"VEC3","name":"HomebaseHangarDoorSlat01_mesh_vertices#0_POSITION"},{"bufferView":25,"byteOffset":458148,"componentType":5120,"count":132,"type":"VEC4","name":"HomebaseHangarDoorSlat01_mesh_vertices#0_TANGENT"},{"bufferView":25,"byteOffset":458152,"componentType":5120,"count":132,"type":"VEC4","name":"HomebaseHangarDoorSlat01_mesh_vertices#0_NORMAL"},{"bufferView":25,"byteOffset":458156,"componentType":5122,"count":132,"type":"VEC2","name":"HomebaseHangarDoorSlat01_mesh_vertices#0_TEXCOORD_0"},{"bufferView":25,"byteOffset":458160,"componentType":5122,"count":132,"type":"VEC2","name":"HomebaseHangarDoorSlat01_mesh_vertices#0_TEXCOORD_1"},{"bufferView":25,"byteOffset":458164,"componentType":5123,"count":132,"type":"VEC4","name":"HomebaseHangarDoorSlat01_mesh_vertices#0_COLOR_0"},{"bufferView":26,"byteOffset":25452,"componentType":5123,"count":132,"type":"SCALAR","name":"HomebaseHangarDoorSlat01_mesh_indices#0"},{"bufferView":25,"byteOffset":462888,"componentType":5126,"count":132,"min":[-5.949999809265137,0.0,-0.05000000074505806],"max":[5.949999809265137,0.4753333330154419,0.05000000074505806],"type":"VEC3","name":"HomebaseHangarDoorSlat02_mesh_vertices#0_POSITION"},{"bufferView":25,"byteOffset":462900,"componentType":5120,"count":132,"type":"VEC4","name":"HomebaseHangarDoorSlat02_mesh_vertices#0_TANGENT"},{"bufferView":25,"byteOffset":462904,"componentType":5120,"count":132,"type":"VEC4","name":"HomebaseHangarDoorSlat02_mesh_vertices#0_NORMAL"},{"bufferView":25,"byteOffset":462908,"componentType":5122,"count":132,"type":"VEC2","name":"HomebaseHangarDoorSlat02_mesh_vertices#0_TEXCOORD_0"},{"bufferView":25,"byteOffset":462912,"componentType":5122,"count":132,"type":"VEC2","name":"HomebaseHangarDoorSlat02_mesh_vertices#0_TEXCOORD_1"},{"bufferView":25,"byteOffset":462916,"componentType":5123,"count":132,"type":"VEC4","name":"HomebaseHangarDoorSlat02_mesh_vertices#0_COLOR_0"},{"bufferView":26,"byteOffset":25716,"componentType":5123,"count":132,"type":"SCALAR","name":"HomebaseHangarDoorSlat02_mesh_indices#0"},{"bufferView":25,"byteOffset":467640,"componentType":5126,"count":132,"min":[-5.949999809265137,0.0,-0.05000000074505806],"max":[5.949999809265137,0.4753333330154419,0.05000000074505806],"type":"VEC3","name":"HomebaseHangarDoorSlat03_mesh_vertices#0_POSITION"},{"bufferView":25,"byteOffset":467652,"componentType":5120,"count":132,"type":"VEC4","name":"HomebaseHangarDoorSlat03_mesh_vertices#0_TANGENT"},{"bufferView":25,"byteOffset":467656,"componentType":5120,"count":132,"type":"VEC4","name":"HomebaseHangarDoorSlat03_mesh_vertices#0_NORMAL"},{"bufferView":25,"byteOffset":467660,"componentType":5122,"count":132,"type":"VEC2","name":"HomebaseHangarDoorSlat03_mesh_vertices#0_TEXCOORD_0"},{"bufferView":25,"byteOffset":467664,"componentType":5122,"count":132,"type":"VEC2","name":"HomebaseHangarDoorSlat03_mesh_vertices#0_TEXCOORD_1"},{"bufferView":25,"byteOffset":467668,"componentType":5123,"count":132,"type":"VEC4","name":"HomebaseHangarDoorSlat03_mesh_vertices#0_COLOR_0"},{"bufferView":26,"byteOffset":25980,"componentType":5123,"count":132,"type":"SCALAR","name":"HomebaseHangarDoorSlat03_mesh_indices#0"},{"bufferView":25,"byteOffset":472392,"componentType":5126,"count":132,"min":[-5.949999809265137,0.0,-0.05000000074505806],"max":[5.949999809265137,0.4753333330154419,0.05000000074505806],"type":"VEC3","name":"HomebaseHangarDoorSlat04_mesh_vertices#0_POSITION"},{"bufferView":25,"byteOffset":472404,"componentType":5120,"count":132,"type":"VEC4","name":"HomebaseHangarDoorSlat04_mesh_vertices#0_TANGENT"},{"bufferView":25,"byteOffset":472408,"componentType":5120,"count":132,"type":"VEC4","name":"HomebaseHangarDoorSlat04_mesh_vertices#0_NORMAL"},{"bufferView":25,"byteOffset":472412,"componentType":5122,"count":132,"type":"VEC2","name":"HomebaseHangarDoorSlat04_mesh_vertices#0_TEXCOORD_0"},{"bufferView":25,"byteOffset":472416,"componentType":5122,"count":132,"type":"VEC2","name":"HomebaseHangarDoorSlat04_mesh_vertices#0_TEXCOORD_1"},{"bufferView":25,"byteOffset":472420,"componentType":5123,"count":132,"type":"VEC4","name":"HomebaseHangarDoorSlat04_mesh_vertices#0_COLOR_0"},{"bufferView":26,"byteOffset":26244,"componentType":5123,"count":132,"type":"SCALAR","name":"HomebaseHangarDoorSlat04_mesh_indices#0"},{"bufferView":25,"byteOffset":477144,"componentType":5126,"count":132,"min":[-5.949999809265137,0.0,-0.05000000074505806],"max":[5.949999809265137,0.4753333330154419,0.05000000074505806],"type":"VEC3","name":"HomebaseHangarDoorSlat05_mesh_vertices#0_POSITION"},{"bufferView":25,"byteOffset":477156,"componentType":5120,"count":132,"type":"VEC4","name":"HomebaseHangarDoorSlat05_mesh_vertices#0_TANGENT"},{"bufferView":25,"byteOffset":477160,"componentType":5120,"count":132,"type":"VEC4","name":"HomebaseHangarDoorSlat05_mesh_vertices#0_NORMAL"},{"bufferView":25,"byteOffset":477164,"componentType":5122,"count":132,"type":"VEC2","name":"HomebaseHangarDoorSlat05_mesh_vertices#0_TEXCOORD_0"},{"bufferView":25,"byteOffset":477168,"componentType":5122,"count":132,"type":"VEC2","name":"HomebaseHangarDoorSlat05_mesh_vertices#0_TEXCOORD_1"},{"bufferView":25,"byteOffset":477172,"componentType":5123,"count":132,"type":"VEC4","name":"HomebaseHangarDoorSlat05_mesh_vertices#0_COLOR_0"},{"bufferView":26,"byteOffset":26508,"componentType":5123,"count":132,"type":"SCALAR","name":"HomebaseHangarDoorSlat05_mesh_indices#0"},{"bufferView":25,"byteOffset":481896,"componentType":5126,"count":132,"min":[-5.949999809265137,0.0,-0.05000000074505806],"max":[5.949999809265137,0.4753333330154419,0.05000000074505806],"type":"VEC3","name":"HomebaseHangarDoorSlat06_mesh_vertices#0_POSITION"},{"bufferView":25,"byteOffset":481908,"componentType":5120,"count":132,"type":"VEC4","name":"HomebaseHangarDoorSlat06_mesh_vertices#0_TANGENT"},{"bufferView":25,"byteOffset":481912,"componentType":5120,"count":132,"type":"VEC4","name":"HomebaseHangarDoorSlat06_mesh_vertices#0_NORMAL"},{"bufferView":25,"byteOffset":481916,"componentType":5122,"count":132,"type":"VEC2","name":"HomebaseHangarDoorSlat06_mesh_vertices#0_TEXCOORD_0"},{"bufferView":25,"byteOffset":481920,"componentType":5122,"count":132,"type":"VEC2","name":"HomebaseHangarDoorSlat06_mesh_vertices#0_TEXCOORD_1"},{"bufferView":25,"byteOffset":481924,"componentType":5123,"count":132,"type":"VEC4","name":"HomebaseHangarDoorSlat06_mesh_vertices#0_COLOR_0"},{"bufferView":26,"byteOffset":26772,"componentType":5123,"count":132,"type":"SCALAR","name":"HomebaseHangarDoorSlat06_mesh_indices#0"},{"bufferView":25,"byteOffset":486648,"componentType":5126,"count":132,"min":[-5.949999809265137,0.0,-0.05000000074505806],"max":[5.949999809265137,0.4753333330154419,0.05000000074505806],"type":"VEC3","name":"HomebaseHangarDoorSlat07_mesh_vertices#0_POSITION"},{"bufferView":25,"byteOffset":486660,"componentType":5120,"count":132,"type":"VEC4","name":"HomebaseHangarDoorSlat07_mesh_vertices#0_TANGENT"},{"bufferView":25,"byteOffset":486664,"componentType":5120,"count":132,"type":"VEC4","name":"HomebaseHangarDoorSlat07_mesh_vertices#0_NORMAL"},{"bufferView":25,"byteOffset":486668,"componentType":5122,"count":132,"type":"VEC2","name":"HomebaseHangarDoorSlat07_mesh_vertices#0_TEXCOORD_0"},{"bufferView":25,"byteOffset":486672,"componentType":5122,"count":132,"type":"VEC2","name":"HomebaseHangarDoorSlat07_mesh_vertices#0_TEXCOORD_1"},{"bufferView":25,"byteOffset":486676,"componentType":5123,"count":132,"type":"VEC4","name":"HomebaseHangarDoorSlat07_mesh_vertices#0_COLOR_0"},{"bufferView":26,"byteOffset":27036,"componentType":5123,"count":132,"type":"SCALAR","name":"HomebaseHangarDoorSlat07_mesh_indices#0"},{"bufferView":25,"byteOffset":491400,"componentType":5126,"count":132,"min":[-5.949999809265137,0.0,-0.05000000074505806],"max":[5.949999809265137,0.4753333330154419,0.05000000074505806],"type":"VEC3","name":"HomebaseHangarDoorSlat08_mesh_vertices#0_POSITION"},{"bufferView":25,"byteOffset":491412,"componentType":5120,"count":132,"type":"VEC4","name":"HomebaseHangarDoorSlat08_mesh_vertices#0_TANGENT"},{"bufferView":25,"byteOffset":491416,"componentType":5120,"count":132,"type":"VEC4","name":"HomebaseHangarDoorSlat08_mesh_vertices#0_NORMAL"},{"bufferView":25,"byteOffset":491420,"componentType":5122,"count":132,"type":"VEC2","name":"HomebaseHangarDoorSlat08_mesh_vertices#0_TEXCOORD_0"},{"bufferView":25,"byteOffset":491424,"componentType":5122,"count":132,"type":"VEC2","name":"HomebaseHangarDoorSlat08_mesh_vertices#0_TEXCOORD_1"},{"bufferView":25,"byteOffset":491428,"componentType":5123,"count":132,"type":"VEC4","name":"HomebaseHangarDoorSlat08_mesh_vertices#0_COLOR_0"},{"bufferView":26,"byteOffset":27300,"componentType":5123,"count":132,"type":"SCALAR","name":"HomebaseHangarDoorSlat08_mesh_indices#0"},{"bufferView":25,"byteOffset":496152,"componentType":5126,"count":132,"min":[-5.949999809265137,0.0,-0.05000000074505806],"max":[5.949999809265137,0.4753333330154419,0.05000000074505806],"type":"VEC3","name":"HomebaseHangarDoorSlat09_mesh_vertices#0_POSITION"},{"bufferView":25,"byteOffset":496164,"componentType":5120,"count":132,"type":"VEC4","name":"HomebaseHangarDoorSlat09_mesh_vertices#0_TANGENT"},{"bufferView":25,"byteOffset":496168,"componentType":5120,"count":132,"type":"VEC4","name":"HomebaseHangarDoorSlat09_mesh_vertices#0_NORMAL"},{"bufferView":25,"byteOffset":496172,"componentType":5122,"count":132,"type":"VEC2","name":"HomebaseHangarDoorSlat09_mesh_vertices#0_TEXCOORD_0"},{"bufferView":25,"byteOffset":496176,"componentType":5122,"count":132,"type":"VEC2","name":"HomebaseHangarDoorSlat09_mesh_vertices#0_TEXCOORD_1"},{"bufferView":25,"byteOffset":496180,"componentType":5123,"count":132,"type":"VEC4","name":"HomebaseHangarDoorSlat09_mesh_vertices#0_COLOR_0"},{"bufferView":26,"byteOffset":27564,"componentType":5123,"count":132,"type":"SCALAR","name":"HomebaseHangarDoorSlat09_mesh_indices#0"},{"bufferView":25,"byteOffset":500904,"componentType":5126,"count":132,"min":[-5.949999809265137,0.0,-0.05000000074505806],"max":[5.949999809265137,0.4753333330154419,0.05000000074505806],"type":"VEC3","name":"HomebaseHangarDoorSlat10_mesh_vertices#0_POSITION"},{"bufferView":25,"byteOffset":500916,"componentType":5120,"count":132,"type":"VEC4","name":"HomebaseHangarDoorSlat10_mesh_vertices#0_TANGENT"},{"bufferView":25,"byteOffset":500920,"componentType":5120,"count":132,"type":"VEC4","name":"HomebaseHangarDoorSlat10_mesh_vertices#0_NORMAL"},{"bufferView":25,"byteOffset":500924,"componentType":5122,"count":132,"type":"VEC2","name":"HomebaseHangarDoorSlat10_mesh_vertices#0_TEXCOORD_0"},{"bufferView":25,"byteOffset":500928,"componentType":5122,"count":132,"type":"VEC2","name":"HomebaseHangarDoorSlat10_mesh_vertices#0_TEXCOORD_1"},{"bufferView":25,"byteOffset":500932,"componentType":5123,"count":132,"type":"VEC4","name":"HomebaseHangarDoorSlat10_mesh_vertices#0_COLOR_0"},{"bufferView":26,"byteOffset":27828,"componentType":5123,"count":132,"type":"SCALAR","name":"HomebaseHangarDoorSlat10_mesh_indices#0"},{"bufferView":25,"byteOffset":505656,"componentType":5126,"count":132,"min":[-5.949999809265137,0.0,-0.05000000074505806],"max":[5.949999809265137,0.4753333330154419,0.05000000074505806],"type":"VEC3","name":"HomebaseHangarDoorSlat11_mesh_vertices#0_POSITION"},{"bufferView":25,"byteOffset":505668,"componentType":5120,"count":132,"type":"VEC4","name":"HomebaseHangarDoorSlat11_mesh_vertices#0_TANGENT"},{"bufferView":25,"byteOffset":505672,"componentType":5120,"count":132,"type":"VEC4","name":"HomebaseHangarDoorSlat11_mesh_vertices#0_NORMAL"},{"bufferView":25,"byteOffset":505676,"componentType":5122,"count":132,"type":"VEC2","name":"HomebaseHangarDoorSlat11_mesh_vertices#0_TEXCOORD_0"},{"bufferView":25,"byteOffset":505680,"componentType":5122,"count":132,"type":"VEC2","name":"HomebaseHangarDoorSlat11_mesh_vertices#0_TEXCOORD_1"},{"bufferView":25,"byteOffset":505684,"componentType":5123,"count":132,"type":"VEC4","name":"HomebaseHangarDoorSlat11_mesh_vertices#0_COLOR_0"},{"bufferView":26,"byteOffset":28092,"componentType":5123,"count":132,"type":"SCALAR","name":"HomebaseHangarDoorSlat11_mesh_indices#0"},{"bufferView":25,"byteOffset":510408,"componentType":5126,"count":132,"min":[-5.949999809265137,0.0,-0.05000000074505806],"max":[5.949999809265137,0.484333336353302,0.05000000074505806],"type":"VEC3","name":"HomebaseHangarDoorSlat12_mesh_vertices#0_POSITION"},{"bufferView":25,"byteOffset":510420,"componentType":5120,"count":132,"type":"VEC4","name":"HomebaseHangarDoorSlat12_mesh_vertices#0_TANGENT"},{"bufferView":25,"byteOffset":510424,"componentType":5120,"count":132,"type":"VEC4","name":"HomebaseHangarDoorSlat12_mesh_vertices#0_NORMAL"},{"bufferView":25,"byteOffset":510428,"componentType":5122,"count":132,"type":"VEC2","name":"HomebaseHangarDoorSlat12_mesh_vertices#0_TEXCOORD_0"},{"bufferView":25,"byteOffset":510432,"componentType":5122,"count":132,"type":"VEC2","name":"HomebaseHangarDoorSlat12_mesh_vertices#0_TEXCOORD_1"},{"bufferView":25,"byteOffset":510436,"componentType":5123,"count":132,"type":"VEC4","name":"HomebaseHangarDoorSlat12_mesh_vertices#0_COLOR_0"},{"bufferView":26,"byteOffset":28356,"componentType":5123,"count":132,"type":"SCALAR","name":"HomebaseHangarDoorSlat12_mesh_indices#0"},{"bufferView":25,"byteOffset":515160,"componentType":5126,"count":132,"min":[-0.42500001192092898,6.579999923706055,-0.42500001192092898],"max":[0.42500001192092898,6.739999771118164,0.42500001192092898],"type":"VEC3","name":"HomebaseHangarLampHousing_mesh_vertices#0_POSITION"},{"bufferView":25,"byteOffset":515172,"componentType":5120,"count":132,"type":"VEC4","name":"HomebaseHangarLampHousing_mesh_vertices#0_TANGENT"},{"bufferView":25,"byteOffset":515176,"componentType":5120,"count":132,"type":"VEC4","name":"HomebaseHangarLampHousing_mesh_vertices#0_NORMAL"},{"bufferView":25,"byteOffset":515180,"componentType":5122,"count":132,"type":"VEC2","name":"HomebaseHangarLampHousing_mesh_vertices#0_TEXCOORD_0"},{"bufferView":25,"byteOffset":515184,"componentType":5122,"count":132,"type":"VEC2","name":"HomebaseHangarLampHousing_mesh_vertices#0_TEXCOORD_1"},{"bufferView":25,"byteOffset":515188,"componentType":5123,"count":132,"type":"VEC4","name":"HomebaseHangarLampHousing_mesh_vertices#0_COLOR_0"},{"bufferView":26,"byteOffset":28620,"componentType":5123,"count":132,"type":"SCALAR","name":"HomebaseHangarLampHousing_mesh_indices#0"},{"bufferView":25,"byteOffset":519912,"componentType":5126,"count":36,"min":[-0.3499999940395355,6.480000019073486,-0.3499999940395355],"max":[0.3499999940395355,6.579999923706055,0.3499999940395355],"type":"VEC3","name":"HomebaseHangarLamp_mesh_vertices#0_POSITION"},{"bufferView":25,"byteOffset":519924,"componentType":5120,"count":36,"type":"VEC4","name":"HomebaseHangarLamp_mesh_vertices#0_TANGENT"},{"bufferView":25,"byteOffset":519928,"componentType":5120,"count":36,"type":"VEC4","name":"HomebaseHangarLamp_mesh_vertices#0_NORMAL"},{"bufferView":25,"byteOffset":519932,"componentType":5122,"count":36,"type":"VEC2","name":"HomebaseHangarLamp_mesh_vertices#0_TEXCOORD_0"},{"bufferView":25,"byteOffset":519936,"componentType":5122,"count":36,"type":"VEC2","name":"HomebaseHangarLamp_mesh_vertices#0_TEXCOORD_1"},{"bufferView":25,"byteOffset":519940,"componentType":5123,"count":36,"type":"VEC4","name":"HomebaseHangarLamp_mesh_vertices#0_COLOR_0"},{"bufferView":26,"byteOffset":28884,"componentType":5123,"count":36,"type":"SCALAR","name":"HomebaseHangarLamp_mesh_indices#0"}],"animations":[{"name":"HomebaseHangarDoor","channels":[{"sampler":0,"target":{"node":7,"path":"translation"}},{"sampler":1,"target":{"node":7,"path":"rotation"}},{"sampler":2,"target":{"node":8,"path":"translation"}},{"sampler":3,"target":{"node":8,"path":"rotation"}},{"sampler":4,"target":{"node":9,"path":"translation"}},{"sampler":5,"target":{"node":9,"path":"rotation"}},{"sampler":6,"target":{"node":10,"path":"translation"}},{"sampler":7,"target":{"node":10,"path":"rotation"}},{"sampler":8,"target":{"node":11,"path":"translation"}},{"sampler":9,"target":{"node":11,"path":"rotation"}},{"sampler":10,"target":{"node":12,"path":"translation"}},{"sampler":11,"target":{"node":12,"path":"rotation"}},{"sampler":12,"target":{"node":13,"path":"translation"}},{"sampler":13,"target":{"node":13,"path":"rotation"}},{"sampler":14,"target":{"node":14,"path":"translation"}},{"sampler":15,"target":{"node":14,"path":"rotation"}},{"sampler":16,"target":{"node":15,"path":"translation"}},{"sampler":17,"target":{"node":15,"path":"rotation"}},{"sampler":18,"target":{"node":16,"path":"translation"}},{"sampler":19,"target":{"node":16,"path":"rotation"}},{"sampler":20,"target":{"node":17,"path":"translation"}},{"sampler":21,"target":{"node":17,"path":"rotation"}},{"sampler":22,"target":{"node":18,"path":"translation"}},{"sampler":23,"target":{"node":18,"path":"rotation"}}],"samplers":[{"input":0,"output":1,"interpolation":"LINEAR"},{"input":0,"output":2,"interpolation":"LINEAR"},{"input":0,"output":3,"interpolation":"LINEAR"},{"input":0,"output":4,"interpolation":"LINEAR"},{"input":0,"output":5,"interpolation":"LINEAR"},{"input":0,"output":6,"interpolation":"LINEAR"},{"input":0,"output":7,"interpolation":"LINEAR"},{"input":0,"output":8,"interpolation":"LINEAR"},{"input":0,"output":9,"interpolation":"LINEAR"},{"input":0,"output":10,"interpolation":"LINEAR"},{"input":0,"output":11,"interpolation":"LINEAR"},{"input":0,"output":12,"interpolation":"LINEAR"},{"input":0,"output":13,"interpolation":"LINEAR"},{"input":0,"output":14,"interpolation":"LINEAR"},{"input":0,"output":15,"interpolation":"LINEAR"},{"input":0,"output":16,"interpolation":"LINEAR"},{"input":0,"output":17,"interpolation":"LINEAR"},{"input":0,"output":18,"interpolation":"LINEAR"},{"input":0,"output":19,"interpolation":"LINEAR"},{"input":0,"output":20,"interpolation":"LINEAR"},{"input":0,"output":21,"interpolation":"LINEAR"},{"input":0,"output":22,"interpolation":"LINEAR"},{"input":0,"output":23,"interpolation":"LINEAR"},{"input":0,"output":24,"interpolation":"LINEAR"}]}],"asset":{"generator":"VFR Multitool MSFS raw glTF normalizer","version":"2.0","extensions":{"ASOBO_asset_optimized":{"BoundingBoxMax":[9.0,7.0,11.119999885559082],"BoundingBoxMin":[-9.0,-2.075000047683716,-11.0],"MajorVersion":4,"MinorVersion":7,"UseCheckerboardMaterialForMissingTextures":true,"UseOnlyFilenameForImageURI":true}}},"bufferViews":[{"buffer":0,"byteLength":404},{"buffer":0,"byteLength":1212,"byteOffset":404},{"buffer":0,"byteLength":1616,"byteOffset":1616},{"buffer":0,"byteLength":1212,"byteOffset":3232},{"buffer":0,"byteLength":1616,"byteOffset":4444},{"buffer":0,"byteLength":1212,"byteOffset":6060},{"buffer":0,"byteLength":1616,"byteOffset":7272},{"buffer":0,"byteLength":1212,"byteOffset":8888},{"buffer":0,"byteLength":1616,"byteOffset":10100},{"buffer":0,"byteLength":1212,"byteOffset":11716},{"buffer":0,"byteLength":1616,"byteOffset":12928},{"buffer":0,"byteLength":1212,"byteOffset":14544},{"buffer":0,"byteLength":1616,"byteOffset":15756},{"buffer":0,"byteLength":1212,"byteOffset":17372},{"buffer":0,"byteLength":1616,"byteOffset":18584},{"buffer":0,"byteLength":1212,"byteOffset":20200},{"buffer":0,"byteLength":1616,"byteOffset":21412},{"buffer":0,"byteLength":1212,"byteOffset":23028},{"buffer":0,"byteLength":1616,"byteOffset":24240},{"buffer":0,"byteLength":1212,"byteOffset":25856},{"buffer":0,"byteLength":1616,"byteOffset":27068},{"buffer":0,"byteLength":1212,"byteOffset":28684},{"buffer":0,"byteLength":1616,"byteOffset":29896},{"buffer":0,"byteLength":1212,"byteOffset":31512},{"buffer":0,"byteLength":1616,"byteOffset":32724},{"buffer":0,"byteLength":521208,"byteStride":36,"byteOffset":34340,"target":34962,"name":"BufferViewVertexND"},{"buffer":0,"byteLength":28956,"byteOffset":555548,"target":34963,"name":"BufferViewIndexU16"}],"extensionsRequired":["MSFT_texture_dds"],"materials":[{"name":"Hangarplane_Aussen_Dunkelgruen","doubleSided":true,"normalTexture":{"index":4},"pbrMetallicRoughness":{"metallicFactor":0.0,"roughnessFactor":0.92,"baseColorTexture":{"index":0}},"extensions":{"ASOBO_material_detail_map":{"UVScale":24.0,"detailColorTexture":{"index":5},"detailNormalTexture":{"index":6,"scale":0.42}}}},{"name":"Hangarplane_Innen_Hellgrau","doubleSided":true,"pbrMetallicRoughness":{"metallicFactor":0.0,"roughnessFactor":0.88,"baseColorTexture":{"index":3}},"extensions":{"ASOBO_material_detail_map":{"UVScale":24.0,"detailColorTexture":{"index":5},"detailNormalTexture":{"index":6,"scale":0.26}}}},{"name":"Rohrrahmen_Dunkelgrau","doubleSided":true,"pbrMetallicRoughness":{"baseColorFactor":[0.119999997317791,0.14000000059604646,0.14000000059604646,1.0],"metallicFactor":0.0,"roughnessFactor":0.3400000035762787}},{"name":"HomebaseHangar_Front_Canvas","doubleSided":true,"pbrMetallicRoughness":{"metallicFactor":0.0,"roughnessFactor":0.92,"baseColorTexture":{"index":1}},"extensions":{"ASOBO_material_detail_map":{"UVScale":20.0,"detailColorTexture":{"index":5},"detailNormalTexture":{"index":6,"scale":0.34}}}},{"name":"HomebaseHangar_Portal_Frame","doubleSided":true,"pbrMetallicRoughness":{"baseColorFactor":[0.04500000178813934,0.052000001072883609,0.054999999701976779,1.0],"metallicFactor":0.0,"roughnessFactor":0.7400000095367432}},{"name":"HomebaseHangar_Door_Canvas","doubleSided":true,"pbrMetallicRoughness":{"metallicFactor":0.0,"roughnessFactor":0.78,"baseColorTexture":{"index":2}},"extensions":{"ASOBO_material_detail_map":{"UVScale":16.0,"detailColorTexture":{"index":5},"detailNormalTexture":{"index":6,"scale":0.3}}}},{"name":"HomebaseHangar_Lamp_Housing","doubleSided":true,"pbrMetallicRoughness":{"baseColorFactor":[0.054999999701976779,0.05999999865889549,0.06499999761581421,1.0],"metallicFactor":0.0,"roughnessFactor":0.7200000286102295}},{"name":"HomebaseHangar_Lamp_Emissive","doubleSided":true,"emissiveFactor":[1.0,0.6600000262260437,0.3199999928474426],"pbrMetallicRoughness":{"baseColorFactor":[0.9200000166893004,0.6899999976158142,0.41999998688697817,1.0],"metallicFactor":0.0,"roughnessFactor":0.30000001192092898}}],"meshes":[{"primitives":[{"attributes":{"COLOR_0":30,"NORMAL":27,"POSITION":25,"TANGENT":26,"TEXCOORD_0":28,"TEXCOORD_1":29},"indices":31,"material":0,"mode":4,"extras":{"ASOBO_primitive":{"PrimitiveCount":1470,"UV2Length":0.7051913738250732,"UVLength":0.7071067690849304,"VertexCount":4410,"VertexType":"VTX","VertexVersion":2}}}],"name":"HomebaseHangarShell_RoundedRims_Mesh"},{"primitives":[{"attributes":{"COLOR_0":37,"NORMAL":34,"POSITION":32,"TANGENT":33,"TEXCOORD_0":35,"TEXCOORD_1":36},"indices":38,"material":1,"mode":4,"extras":{"ASOBO_primitive":{"PrimitiveCount":144,"UV2Length":0.7014942169189453,"UVLength":0.7014942169189453,"VertexCount":432,"VertexType":"VTX","VertexVersion":2}}}],"name":"HomebaseHangarInteriorLining_mesh"},{"primitives":[{"attributes":{"COLOR_0":44,"NORMAL":41,"POSITION":39,"TANGENT":40,"TEXCOORD_0":42,"TEXCOORD_1":43},"indices":45,"material":2,"mode":4,"extras":{"ASOBO_primitive":{"PrimitiveCount":2304,"UV2Length":0.5039566159248352,"UVLength":0.5039566159248352,"VertexCount":6912,"VertexType":"VTX","VertexVersion":2}}}],"name":"HomebaseHangarStructuralRibs_mesh"},{"primitives":[{"attributes":{"COLOR_0":51,"NORMAL":48,"POSITION":46,"TANGENT":47,"TEXCOORD_0":49,"TEXCOORD_1":50},"indices":52,"material":3,"mode":4,"extras":{"ASOBO_primitive":{"PrimitiveCount":192,"UV2Length":0.6754934787750244,"UVLength":0.6926980018615723,"VertexCount":576,"VertexType":"VTX","VertexVersion":2}}}],"name":"HomebaseHangarFrontInfill_RoundedRim_Mesh"},{"primitives":[{"attributes":{"COLOR_0":58,"NORMAL":55,"POSITION":53,"TANGENT":54,"TEXCOORD_0":56,"TEXCOORD_1":57},"indices":59,"material":4,"mode":4,"extras":{"ASOBO_primitive":{"PrimitiveCount":44,"UV2Length":0.15209950506687165,"UVLength":0.15209950506687165,"VertexCount":132,"VertexType":"VTX","VertexVersion":2}}}],"name":"HomebaseHangarPortalPostLeft_mesh"},{"primitives":[{"attributes":{"COLOR_0":65,"NORMAL":62,"POSITION":60,"TANGENT":61,"TEXCOORD_0":63,"TEXCOORD_1":64},"indices":66,"material":4,"mode":4,"extras":{"ASOBO_primitive":{"PrimitiveCount":44,"UV2Length":0.15209951996803285,"UVLength":0.15209951996803285,"VertexCount":132,"VertexType":"VTX","VertexVersion":2}}}],"name":"HomebaseHangarPortalPostRight_mesh"},{"primitives":[{"attributes":{"COLOR_0":72,"NORMAL":69,"POSITION":67,"TANGENT":68,"TEXCOORD_0":70,"TEXCOORD_1":71},"indices":73,"material":4,"mode":4,"extras":{"ASOBO_primitive":{"PrimitiveCount":44,"UV2Length":0.3105487823486328,"UVLength":0.3105487823486328,"VertexCount":132,"VertexType":"VTX","VertexVersion":2}}}],"name":"HomebaseHangarPortalLintel_mesh"},{"primitives":[{"attributes":{"COLOR_0":79,"NORMAL":76,"POSITION":74,"TANGENT":75,"TEXCOORD_0":77,"TEXCOORD_1":78},"indices":80,"material":5,"mode":4,"extras":{"ASOBO_primitive":{"PrimitiveCount":44,"UV2Length":0.5016705393791199,"UVLength":0.700686514377594,"VertexCount":132,"VertexType":"VTX","VertexVersion":2}}}],"name":"HomebaseHangarDoorSlat01_mesh"},{"primitives":[{"attributes":{"COLOR_0":86,"NORMAL":83,"POSITION":81,"TANGENT":82,"TEXCOORD_0":84,"TEXCOORD_1":85},"indices":87,"material":5,"mode":4,"extras":{"ASOBO_primitive":{"PrimitiveCount":44,"UV2Length":0.5016091465950012,"UVLength":0.6943268179893494,"VertexCount":132,"VertexType":"VTX","VertexVersion":2}}}],"name":"HomebaseHangarDoorSlat02_mesh"},{"primitives":[{"attributes":{"COLOR_0":93,"NORMAL":90,"POSITION":88,"TANGENT":89,"TEXCOORD_0":91,"TEXCOORD_1":92},"indices":94,"material":5,"mode":4,"extras":{"ASOBO_primitive":{"PrimitiveCount":44,"UV2Length":0.5016091465950012,"UVLength":0.6943268179893494,"VertexCount":132,"VertexType":"VTX","VertexVersion":2}}}],"name":"HomebaseHangarDoorSlat03_mesh"},{"primitives":[{"attributes":{"COLOR_0":100,"NORMAL":97,"POSITION":95,"TANGENT":96,"TEXCOORD_0":98,"TEXCOORD_1":99},"indices":101,"material":5,"mode":4,"extras":{"ASOBO_primitive":{"PrimitiveCount":44,"UV2Length":0.5016091465950012,"UVLength":0.6943268179893494,"VertexCount":132,"VertexType":"VTX","VertexVersion":2}}}],"name":"HomebaseHangarDoorSlat04_mesh"},{"primitives":[{"attributes":{"COLOR_0":107,"NORMAL":104,"POSITION":102,"TANGENT":103,"TEXCOORD_0":105,"TEXCOORD_1":106},"indices":108,"material":5,"mode":4,"extras":{"ASOBO_primitive":{"PrimitiveCount":44,"UV2Length":0.5016091465950012,"UVLength":0.6943268179893494,"VertexCount":132,"VertexType":"VTX","VertexVersion":2}}}],"name":"HomebaseHangarDoorSlat05_mesh"},{"primitives":[{"attributes":{"COLOR_0":114,"NORMAL":111,"POSITION":109,"TANGENT":110,"TEXCOORD_0":112,"TEXCOORD_1":113},"indices":115,"material":5,"mode":4,"extras":{"ASOBO_primitive":{"PrimitiveCount":44,"UV2Length":0.5016091465950012,"UVLength":0.6943268179893494,"VertexCount":132,"VertexType":"VTX","VertexVersion":2}}}],"name":"HomebaseHangarDoorSlat06_mesh"},{"primitives":[{"attributes":{"COLOR_0":121,"NORMAL":118,"POSITION":116,"TANGENT":117,"TEXCOORD_0":119,"TEXCOORD_1":120},"indices":122,"material":5,"mode":4,"extras":{"ASOBO_primitive":{"PrimitiveCount":44,"UV2Length":0.5016091465950012,"UVLength":0.6943268179893494,"VertexCount":132,"VertexType":"VTX","VertexVersion":2}}}],"name":"HomebaseHangarDoorSlat07_mesh"},{"primitives":[{"attributes":{"COLOR_0":128,"NORMAL":125,"POSITION":123,"TANGENT":124,"TEXCOORD_0":126,"TEXCOORD_1":127},"indices":129,"material":5,"mode":4,"extras":{"ASOBO_primitive":{"PrimitiveCount":44,"UV2Length":0.5016091465950012,"UVLength":0.6943268179893494,"VertexCount":132,"VertexType":"VTX","VertexVersion":2}}}],"name":"HomebaseHangarDoorSlat08_mesh"},{"primitives":[{"attributes":{"COLOR_0":135,"NORMAL":132,"POSITION":130,"TANGENT":131,"TEXCOORD_0":133,"TEXCOORD_1":134},"indices":136,"material":5,"mode":4,"extras":{"ASOBO_primitive":{"PrimitiveCount":44,"UV2Length":0.5016091465950012,"UVLength":0.6943268179893494,"VertexCount":132,"VertexType":"VTX","VertexVersion":2}}}],"name":"HomebaseHangarDoorSlat09_mesh"},{"primitives":[{"attributes":{"COLOR_0":142,"NORMAL":139,"POSITION":137,"TANGENT":138,"TEXCOORD_0":140,"TEXCOORD_1":141},"indices":143,"material":5,"mode":4,"extras":{"ASOBO_primitive":{"PrimitiveCount":44,"UV2Length":0.5016091465950012,"UVLength":0.6943268179893494,"VertexCount":132,"VertexType":"VTX","VertexVersion":2}}}],"name":"HomebaseHangarDoorSlat10_mesh"},{"primitives":[{"attributes":{"COLOR_0":149,"NORMAL":146,"POSITION":144,"TANGENT":145,"TEXCOORD_0":147,"TEXCOORD_1":148},"indices":150,"material":5,"mode":4,"extras":{"ASOBO_primitive":{"PrimitiveCount":44,"UV2Length":0.5016091465950012,"UVLength":0.6943268179893494,"VertexCount":132,"VertexType":"VTX","VertexVersion":2}}}],"name":"HomebaseHangarDoorSlat11_mesh"},{"primitives":[{"attributes":{"COLOR_0":156,"NORMAL":153,"POSITION":151,"TANGENT":152,"TEXCOORD_0":154,"TEXCOORD_1":155},"indices":157,"material":5,"mode":4,"extras":{"ASOBO_primitive":{"PrimitiveCount":44,"UV2Length":0.5016705393791199,"UVLength":0.700686514377594,"VertexCount":132,"VertexType":"VTX","VertexVersion":2}}}],"name":"HomebaseHangarDoorSlat12_mesh"},{"primitives":[{"attributes":{"COLOR_0":163,"NORMAL":160,"POSITION":158,"TANGENT":159,"TEXCOORD_0":161,"TEXCOORD_1":162},"indices":164,"material":6,"mode":4,"extras":{"ASOBO_primitive":{"PrimitiveCount":44,"UV2Length":0.02162320353090763,"UVLength":0.02162320353090763,"VertexCount":132,"VertexType":"VTX","VertexVersion":2}}}],"name":"HomebaseHangarLampHousing_mesh"},{"primitives":[{"attributes":{"COLOR_0":170,"NORMAL":167,"POSITION":165,"TANGENT":166,"TEXCOORD_0":168,"TEXCOORD_1":169},"indices":171,"material":7,"mode":4,"extras":{"ASOBO_primitive":{"PrimitiveCount":12,"UV2Length":0.0176776684820652,"UVLength":0.0176776684820652,"VertexCount":36,"VertexType":"VTX","VertexVersion":2}}}],"name":"HomebaseHangarLamp_mesh"}],"nodes":[{"mesh":0,"name":"HomebaseHangarShell"},{"mesh":1,"name":"HomebaseHangarInteriorLining"},{"mesh":2,"name":"HomebaseHangarStructuralRibs"},{"mesh":3,"name":"HomebaseHangarFrontInfill"},{"mesh":4,"name":"HomebaseHangarPortalPostLeft"},{"mesh":5,"name":"HomebaseHangarPortalPostRight"},{"mesh":6,"name":"HomebaseHangarPortalLintel"},{"translation":[0.0,4.315666675567627,9.890000343322754],"rotation":[-0.7071068286895752,0.0,0.0,0.7071068286895752],"mesh":7,"name":"HomebaseHangarDoorSlat01"},{"translation":[0.0,4.315666675567627,9.396666526794434],"rotation":[-0.7071068286895752,0.0,0.0,0.7071068286895752],"mesh":8,"name":"HomebaseHangarDoorSlat02"},{"translation":[0.0,4.315666675567627,8.90333366394043],"rotation":[-0.7071068286895752,0.0,0.0,0.7071068286895752],"mesh":9,"name":"HomebaseHangarDoorSlat03"},{"translation":[0.0,4.315666675567627,8.40999984741211],"rotation":[-0.7071068286895752,0.0,0.0,0.7071068286895752],"mesh":10,"name":"HomebaseHangarDoorSlat04"},{"translation":[0.0,4.315666675567627,7.916666507720947],"rotation":[-0.7071068286895752,0.0,0.0,0.7071068286895752],"mesh":11,"name":"HomebaseHangarDoorSlat05"},{"translation":[0.0,4.315666675567627,7.423333168029785],"rotation":[-0.7071068286895752,0.0,0.0,0.7071068286895752],"mesh":12,"name":"HomebaseHangarDoorSlat06"},{"translation":[0.0,4.315666675567627,6.929999828338623],"rotation":[-0.7071068286895752,0.0,0.0,0.7071068286895752],"mesh":13,"name":"HomebaseHangarDoorSlat07"},{"translation":[0.0,4.315666675567627,6.436666488647461],"rotation":[-0.7071068286895752,0.0,0.0,0.7071068286895752],"mesh":14,"name":"HomebaseHangarDoorSlat08"},{"translation":[0.0,4.315666675567627,5.943333148956299],"rotation":[-0.7071068286895752,0.0,0.0,0.7071068286895752],"mesh":15,"name":"HomebaseHangarDoorSlat09"},{"translation":[0.0,4.315666675567627,5.449999809265137],"rotation":[-0.7071068286895752,0.0,0.0,0.7071068286895752],"mesh":16,"name":"HomebaseHangarDoorSlat10"},{"translation":[0.0,4.315666675567627,4.956666469573975],"rotation":[-0.7071068286895752,0.0,0.0,0.7071068286895752],"mesh":17,"name":"HomebaseHangarDoorSlat11"},{"translation":[0.0,4.315666675567627,4.4633331298828129],"rotation":[-0.7071068286895752,0.0,0.0,0.7071068286895752],"mesh":18,"name":"HomebaseHangarDoorSlat12"},{"name":"HomebaseHangarDoor","children":[7,8,9,10,11,12,13,14,15,16,17,18]},{"mesh":19,"name":"HomebaseHangarLampHousing"},{"mesh":20,"name":"HomebaseHangarLamp"},{"translation":[0.0,6.18,0.0],"extensions":{"ASOBO_advanced_light":{"channel_exterior":true,"channel_interior":true,"color":[1,0.72,0.48],"flare_enabled":false,"inner_cone_angle":360,"intensity":8000,"outer_cone_angle":360,"shape_type":1,"source_radius":1.35}},"name":"HomebaseHangarLampLight"}],"scene":0,"scenes":[{"nodes":[0,1,2,3,4,5,6,19,20,21,22],"name":"Scene"}],"textures":[{"extensions":{"MSFT_texture_dds":{"source":0}}},{"extensions":{"MSFT_texture_dds":{"source":1}}},{"extensions":{"MSFT_texture_dds":{"source":2}}},{"extensions":{"MSFT_texture_dds":{"source":3}}},{"extensions":{"MSFT_texture_dds":{"source":4}}},{"extensions":{"MSFT_texture_dds":{"source":5}}},{"extensions":{"MSFT_texture_dds":{"source":6}}}],"samplers":[{"magFilter":9729,"minFilter":9987,"wrapS":10497,"wrapT":10497}],"extensionsUsed":["ASOBO_advanced_light","ASOBO_material_detail_map","MSFT_texture_dds","ASOBO_asset_optimized"],"buffers":[{"byteLength":584504,"uri":"HomebaseHangar_LOD00.bin"}],"images":[{"uri":"..\\TEXTURE\\HOMEBASEHANGAR_EXTERIOR_ALBEDO_V2.PNG.KTX2","name":"HomebaseHangar_Exterior_Albedo_v2","extras":"ASOBO_image_converted_meta"},{"uri":"..\\TEXTURE\\HOMEBASEHANGAR_FRONT_ALBEDO_V2.PNG.KTX2","name":"HomebaseHangar_Front_Albedo_v2","extras":"ASOBO_image_converted_meta"},{"uri":"..\\TEXTURE\\HOMEBASEHANGAR_DOOR_ALBEDO_V2.PNG.KTX2","name":"HomebaseHangar_Door_Albedo_v2","extras":"ASOBO_image_converted_meta"},{"uri":"..\\TEXTURE\\HOMEBASEHANGAR_INTERIOR_ALBEDO_V2.PNG.KTX2","name":"HomebaseHangar_Interior_Albedo_v2","extras":"ASOBO_image_converted_meta"},{"uri":"..\\TEXTURE\\HOMEBASEHANGAR_SHELL_NORMAL_DIRECTX_V2.PNG.KTX2","name":"HomebaseHangar_Shell_Normal_DirectX_v2","extras":"ASOBO_image_converted_meta"},{"uri":"..\\TEXTURE\\HOMEBASEHANGAR_FABRIC_DETAILCOLOR_V1.PNG.KTX2","name":"HomebaseHangar_Fabric_DetailColor_v1","extras":"ASOBO_image_converted_meta"},{"uri":"..\\TEXTURE\\HOMEBASEHANGAR_FABRIC_DETAILNORMAL_DIRECTX_V1.PNG.KTX2","name":"HomebaseHangar_Fabric_DetailNormal_DirectX_v1","extras":"ASOBO_image_converted_meta"}]}
