{
  "asset": {
    "generator": "Khronos glTF Blender I/O v4.5.48",
    "version": "2.0"
  },
  "scene": 0,
  "scenes": [
    {
      "name": "Scene",
      "nodes": [
        0,
        1,
        2,
        3,
        4,
        5,
        6,
        7,
        8,
        9,
        10,
        11,
        12,
        13,
        14,
        15,
        16,
        17,
        18,
        19
      ]
    }
  ],
  "nodes": [
    {
      "mesh": 0,
      "name": "RoundHangarFoundationSlab",
      "translation": [
        0,
        -0.20000000298023224,
        0
      ]
    },
    {
      "mesh": 1,
      "name": "RoundHangarApronRamp"
    },
    {
      "mesh": 2,
      "name": "RoundHangarWall"
    },
    {
      "mesh": 3,
      "name": "RoundHangarRoof"
    },
    {
      "mesh": 4,
      "name": "RoundHangarRoofLip"
    },
    {
      "mesh": 5,
      "name": "RoundHangarDoorRail"
    },
    {
      "mesh": 6,
      "name": "RoundHangarColumn_-60",
      "rotation": [
        0,
        0.5,
        0,
        0.8660253882408142
      ],
      "translation": [
        -10.26240062713623,
        3.325000047683716,
        5.925000190734863
      ]
    },
    {
      "mesh": 7,
      "name": "RoundHangarColumn_60",
      "rotation": [
        0,
        -0.5,
        0,
        0.8660253882408142
      ],
      "translation": [
        10.26240062713623,
        3.325000047683716,
        5.925000190734863
      ]
    },
    {
      "mesh": 8,
      "name": "RoundHangarColumn_120",
      "rotation": [
        0,
        -0.8660253882408142,
        0,
        0.4999999701976776
      ],
      "translation": [
        10.26240062713623,
        3.325000047683716,
        -5.925000190734863
      ]
    },
    {
      "mesh": 9,
      "name": "RoundHangarColumn_180",
      "rotation": [
        0,
        1,
        0,
        4.371138828673793e-08
      ],
      "translation": [
        0,
        3.325000047683716,
        -11.850000381469727
      ]
    },
    {
      "mesh": 10,
      "name": "RoundHangarColumn_240",
      "rotation": [
        0,
        0.8660253882408142,
        0,
        0.5
      ],
      "translation": [
        -10.26240062713623,
        3.325000047683716,
        -5.925000190734863
      ]
    },
    {
      "mesh": 11,
      "name": "RoundHangarColumn_300",
      "rotation": [
        0,
        0.5,
        0,
        0.8660253882408142
      ],
      "translation": [
        -10.26240062713623,
        3.325000047683716,
        5.925000190734863
      ]
    },
    {
      "mesh": 12,
      "name": "RoundHangarRoofBeam_105",
      "rotation": [
        0,
        -0.7933533787727356,
        0,
        0.6087614297866821
      ],
      "translation": [
        9.466073036193848,
        6.199999809265137,
        -2.536426544189453
      ]
    },
    {
      "mesh": 13,
      "name": "RoundHangarRoofBeam_150",
      "rotation": [
        0,
        -0.9659258127212524,
        0,
        0.2588190734386444
      ],
      "translation": [
        4.900000095367432,
        6.199999809265137,
        -8.487049102783203
      ]
    },
    {
      "mesh": 14,
      "name": "RoundHangarRoofBeam_210",
      "rotation": [
        0,
        0.965925931930542,
        0,
        0.258819043636322
      ],
      "translation": [
        -4.900000095367432,
        6.199999809265137,
        -8.487049102783203
      ]
    },
    {
      "mesh": 15,
      "name": "RoundHangarRoofBeam_255",
      "rotation": [
        0,
        0.7933533191680908,
        0,
        0.6087614297866821
      ],
      "translation": [
        -9.466073036193848,
        6.199999809265137,
        -2.536426544189453
      ]
    },
    {
      "mesh": 16,
      "name": "RoundHangarDoor",
      "rotation": [
        0,
        0.8660253882408142,
        0,
        0.4999999701976776
      ]
    },
    {
      "mesh": 17,
      "name": "RoundHangarLampHousing",
      "rotation": [
        0.7071068286895752,
        0,
        0,
        0.7071068286895752
      ],
      "translation": [
        0,
        6.239999771118164,
        -1
      ]
    },
    {
      "mesh": 18,
      "name": "RoundHangarLamp",
      "translation": [
        0,
        6.099999904632568,
        -1
      ]
    },
    {
      "name": "RoundHangarLampLight",
      "translation": [
        0.0,
        5.95,
        -1.0
      ],
      "rotation": [
        -0.7071068,
        0.0,
        0.0,
        0.7071068
      ],
      "extensions": {
        "ASOBO_advanced_light": {
          "color": [
            1.0,
            0.695,
            0.431
          ],
          "intensity": 2400.0,
          "shape_type": 3,
          "source_radius": 120.0,
          "inner_cone_angle": 75.0,
          "outer_cone_angle": 125.0,
          "channel_exterior": false,
          "channel_interior": true,
          "flare_enabled": false
        }
      }
    }
  ],
  "animations": [
    {
      "channels": [
        {
          "sampler": 0,
          "target": {
            "node": 16,
            "path": "rotation"
          }
        }
      ],
      "name": "RoundHangarDoor",
      "samplers": [
        {
          "input": 61,
          "interpolation": "LINEAR",
          "output": 62
        }
      ]
    }
  ],
  "materials": [
    {
      "doubleSided": true,
      "name": "Concrete",
      "pbrMetallicRoughness": {
        "baseColorFactor": [
          0.1899999976158142,
          0.20000000298023224,
          0.20000000298023224,
          1
        ],
        "metallicFactor": 0,
        "roughnessFactor": 0.8199999928474426
      }
    },
    {
      "doubleSided": true,
      "name": "Corrugated_Grey",
      "pbrMetallicRoughness": {
        "baseColorFactor": [
          0.3400000035762787,
          0.3700000047683716,
          0.4000000059604645,
          1
        ],
        "metallicFactor": 0.7200000286102295,
        "roughnessFactor": 0.4399999976158142
      }
    },
    {
      "doubleSided": true,
      "name": "Roof_Smooth_Grey",
      "pbrMetallicRoughness": {
        "baseColorFactor": [
          0.30000001192092896,
          0.33000001311302185,
          0.36000001430511475,
          1
        ],
        "metallicFactor": 0.6499999761581421,
        "roughnessFactor": 0.3799999952316284
      }
    },
    {
      "doubleSided": true,
      "name": "Door_Rail",
      "pbrMetallicRoughness": {
        "baseColorFactor": [
          0.10000000149011612,
          0.10999999940395355,
          0.11999999731779099,
          1
        ],
        "metallicFactor": 0.8600000143051147,
        "roughnessFactor": 0.3199999928474426
      }
    },
    {
      "doubleSided": true,
      "name": "Interior_Warm_Grey",
      "pbrMetallicRoughness": {
        "baseColorFactor": [
          0.1899999976158142,
          0.20999999344348907,
          0.23000000417232513,
          1
        ],
        "metallicFactor": 0.25,
        "roughnessFactor": 0.6800000071525574
      }
    },
    {
      "doubleSided": true,
      "emissiveFactor": [
        1,
        0.41999998688697815,
        0.07999999821186066
      ],
      "name": "Lights",
      "pbrMetallicRoughness": {
        "baseColorFactor": [
          1,
          0.6299999952316284,
          0.20000000298023224,
          1
        ],
        "metallicFactor": 0,
        "roughnessFactor": 0.25
      }
    }
  ],
  "meshes": [
    {
      "name": "Zylinder",
      "primitives": [
        {
          "attributes": {
            "POSITION": 0,
            "NORMAL": 1,
            "TEXCOORD_0": 2
          },
          "indices": 3,
          "material": 0
        }
      ]
    },
    {
      "name": "RoundHangarApronRamp_mesh",
      "primitives": [
        {
          "attributes": {
            "POSITION": 4,
            "NORMAL": 5
          },
          "indices": 6,
          "material": 0
        }
      ]
    },
    {
      "name": "RoundHangarWall_mesh",
      "primitives": [
        {
          "attributes": {
            "POSITION": 7,
            "NORMAL": 8
          },
          "indices": 9,
          "material": 1
        }
      ]
    },
    {
      "name": "RoundHangarRoof_mesh",
      "primitives": [
        {
          "attributes": {
            "POSITION": 10,
            "NORMAL": 11
          },
          "indices": 12,
          "material": 2
        }
      ]
    },
    {
      "name": "RoundHangarRoofLip_mesh",
      "primitives": [
        {
          "attributes": {
            "POSITION": 13,
            "NORMAL": 14
          },
          "indices": 15,
          "material": 2
        }
      ]
    },
    {
      "name": "RoundHangarDoorRail_mesh",
      "primitives": [
        {
          "attributes": {
            "POSITION": 16,
            "NORMAL": 17
          },
          "indices": 18,
          "material": 3
        }
      ]
    },
    {
      "name": "W\u00fcrfel",
      "primitives": [
        {
          "attributes": {
            "POSITION": 19,
            "NORMAL": 20,
            "TEXCOORD_0": 21
          },
          "indices": 22,
          "material": 3
        }
      ]
    },
    {
      "name": "W\u00fcrfel.001",
      "primitives": [
        {
          "attributes": {
            "POSITION": 23,
            "NORMAL": 24,
            "TEXCOORD_0": 25
          },
          "indices": 22,
          "material": 3
        }
      ]
    },
    {
      "name": "W\u00fcrfel.002",
      "primitives": [
        {
          "attributes": {
            "POSITION": 26,
            "NORMAL": 27,
            "TEXCOORD_0": 28
          },
          "indices": 22,
          "material": 3
        }
      ]
    },
    {
      "name": "W\u00fcrfel.003",
      "primitives": [
        {
          "attributes": {
            "POSITION": 29,
            "NORMAL": 30,
            "TEXCOORD_0": 31
          },
          "indices": 22,
          "material": 3
        }
      ]
    },
    {
      "name": "W\u00fcrfel.004",
      "primitives": [
        {
          "attributes": {
            "POSITION": 32,
            "NORMAL": 33,
            "TEXCOORD_0": 34
          },
          "indices": 22,
          "material": 3
        }
      ]
    },
    {
      "name": "W\u00fcrfel.005",
      "primitives": [
        {
          "attributes": {
            "POSITION": 35,
            "NORMAL": 36,
            "TEXCOORD_0": 37
          },
          "indices": 22,
          "material": 3
        }
      ]
    },
    {
      "name": "W\u00fcrfel.006",
      "primitives": [
        {
          "attributes": {
            "POSITION": 38,
            "NORMAL": 39,
            "TEXCOORD_0": 40
          },
          "indices": 22,
          "material": 4
        }
      ]
    },
    {
      "name": "W\u00fcrfel.007",
      "primitives": [
        {
          "attributes": {
            "POSITION": 41,
            "NORMAL": 42,
            "TEXCOORD_0": 43
          },
          "indices": 22,
          "material": 4
        }
      ]
    },
    {
      "name": "W\u00fcrfel.008",
      "primitives": [
        {
          "attributes": {
            "POSITION": 44,
            "NORMAL": 45,
            "TEXCOORD_0": 46
          },
          "indices": 22,
          "material": 4
        }
      ]
    },
    {
      "name": "W\u00fcrfel.009",
      "primitives": [
        {
          "attributes": {
            "POSITION": 47,
            "NORMAL": 48,
            "TEXCOORD_0": 49
          },
          "indices": 22,
          "material": 4
        }
      ]
    },
    {
      "name": "RoundHangarDoor_mesh",
      "primitives": [
        {
          "attributes": {
            "POSITION": 50,
            "NORMAL": 51
          },
          "indices": 52,
          "material": 1
        }
      ]
    },
    {
      "name": "Zylinder.001",
      "primitives": [
        {
          "attributes": {
            "POSITION": 53,
            "NORMAL": 54,
            "TEXCOORD_0": 55
          },
          "indices": 56,
          "material": 3
        }
      ]
    },
    {
      "name": "Kugel",
      "primitives": [
        {
          "attributes": {
            "POSITION": 57,
            "NORMAL": 58,
            "TEXCOORD_0": 59
          },
          "indices": 60,
          "material": 5
        }
      ]
    }
  ],
  "accessors": [
    {
      "bufferView": 0,
      "componentType": 5126,
      "count": 576,
      "max": [
        11.949999809265137,
        0.20000000298023224,
        11.949999809265137
      ],
      "min": [
        -11.949999809265137,
        -0.20000000298023224,
        -11.949999809265137
      ],
      "type": "VEC3"
    },
    {
      "bufferView": 1,
      "componentType": 5126,
      "count": 576,
      "type": "VEC3"
    },
    {
      "bufferView": 2,
      "componentType": 5126,
      "count": 576,
      "type": "VEC2"
    },
    {
      "bufferView": 3,
      "componentType": 5123,
      "count": 1140,
      "type": "SCALAR"
    },
    {
      "bufferView": 4,
      "componentType": 5126,
      "count": 2018,
      "max": [
        16.799999237060547,
        0,
        16.799999237060547
      ],
      "min": [
        -16.799999237060547,
        -0.4000000059604645,
        -16.799999237060547
      ],
      "type": "VEC3"
    },
    {
      "bufferView": 5,
      "componentType": 5126,
      "count": 2018,
      "type": "VEC3"
    },
    {
      "bufferView": 6,
      "componentType": 5123,
      "count": 3456,
      "type": "SCALAR"
    },
    {
      "bufferView": 7,
      "componentType": 5126,
      "count": 1732,
      "max": [
        12.055000305175781,
        6.650000095367432,
        6
      ],
      "min": [
        -12.033770561218262,
        0,
        -12.049691200256348
      ],
      "type": "VEC3"
    },
    {
      "bufferView": 8,
      "componentType": 5126,
      "count": 1732,
      "type": "VEC3"
    },
    {
      "bufferView": 9,
      "componentType": 5123,
      "count": 3456,
      "type": "SCALAR"
    },
    {
      "bufferView": 10,
      "componentType": 5126,
      "count": 1540,
      "max": [
        12.34000015258789,
        6.96999979019165,
        12.34000015258789
      ],
      "min": [
        -12.34000015258789,
        6.650000095367432,
        -12.34000015258789
      ],
      "type": "VEC3"
    },
    {
      "bufferView": 11,
      "componentType": 5126,
      "count": 1540,
      "type": "VEC3"
    },
    {
      "bufferView": 12,
      "componentType": 5123,
      "count": 3072,
      "type": "SCALAR"
    },
    {
      "bufferView": 13,
      "componentType": 5126,
      "count": 1540,
      "max": [
        12.5,
        7.099999904632568,
        12.5
      ],
      "min": [
        -12.5,
        6.630000114440918,
        -12.5
      ],
      "type": "VEC3"
    },
    {
      "bufferView": 14,
      "componentType": 5126,
      "count": 1540,
      "type": "VEC3"
    },
    {
      "bufferView": 15,
      "componentType": 5123,
      "count": 3072,
      "type": "SCALAR"
    },
    {
      "bufferView": 16,
      "componentType": 5126,
      "count": 1732,
      "max": [
        12.479996681213379,
        6.550000190734863,
        12.479524612426758
      ],
      "min": [
        -11.019186019897461,
        6.409999847412109,
        -12.479352951049805
      ],
      "type": "VEC3"
    },
    {
      "bufferView": 17,
      "componentType": 5126,
      "count": 1732,
      "type": "VEC3"
    },
    {
      "bufferView": 18,
      "componentType": 5123,
      "count": 3456,
      "type": "SCALAR"
    },
    {
      "bufferView": 19,
      "componentType": 5126,
      "count": 216,
      "max": [
        0.1599999964237213,
        3.325000047683716,
        0.1599999964237213
      ],
      "min": [
        -0.1599999964237213,
        -3.325000047683716,
        -0.1599999964237213
      ],
      "type": "VEC3"
    },
    {
      "bufferView": 20,
      "componentType": 5126,
      "count": 216,
      "type": "VEC3"
    },
    {
      "bufferView": 21,
      "componentType": 5126,
      "count": 216,
      "type": "VEC2"
    },
    {
      "bufferView": 22,
      "componentType": 5123,
      "count": 324,
      "type": "SCALAR"
    },
    {
      "bufferView": 23,
      "componentType": 5126,
      "count": 216,
      "max": [
        0.1599999964237213,
        3.325000047683716,
        0.1599999964237213
      ],
      "min": [
        -0.1599999964237213,
        -3.325000047683716,
        -0.1599999964237213
      ],
      "type": "VEC3"
    },
    {
      "bufferView": 24,
      "componentType": 5126,
      "count": 216,
      "type": "VEC3"
    },
    {
      "bufferView": 25,
      "componentType": 5126,
      "count": 216,
      "type": "VEC2"
    },
    {
      "bufferView": 26,
      "componentType": 5126,
      "count": 216,
      "max": [
        0.1599999964237213,
        3.325000047683716,
        0.1599999964237213
      ],
      "min": [
        -0.1599999964237213,
        -3.325000047683716,
        -0.1599999964237213
      ],
      "type": "VEC3"
    },
    {
      "bufferView": 27,
      "componentType": 5126,
      "count": 216,
      "type": "VEC3"
    },
    {
      "bufferView": 28,
      "componentType": 5126,
      "count": 216,
      "type": "VEC2"
    },
    {
      "bufferView": 29,
      "componentType": 5126,
      "count": 216,
      "max": [
        0.1599999964237213,
        3.325000047683716,
        0.1599999964237213
      ],
      "min": [
        -0.1599999964237213,
        -3.325000047683716,
        -0.1599999964237213
      ],
      "type": "VEC3"
    },
    {
      "bufferView": 30,
      "componentType": 5126,
      "count": 216,
      "type": "VEC3"
    },
    {
      "bufferView": 31,
      "componentType": 5126,
      "count": 216,
      "type": "VEC2"
    },
    {
      "bufferView": 32,
      "componentType": 5126,
      "count": 216,
      "max": [
        0.1599999964237213,
        3.325000047683716,
        0.1599999964237213
      ],
      "min": [
        -0.1599999964237213,
        -3.325000047683716,
        -0.1599999964237213
      ],
      "type": "VEC3"
    },
    {
      "bufferView": 33,
      "componentType": 5126,
      "count": 216,
      "type": "VEC3"
    },
    {
      "bufferView": 34,
      "componentType": 5126,
      "count": 216,
      "type": "VEC2"
    },
    {
      "bufferView": 35,
      "componentType": 5126,
      "count": 216,
      "max": [
        0.1599999964237213,
        3.325000047683716,
        0.1599999964237213
      ],
      "min": [
        -0.1599999964237213,
        -3.325000047683716,
        -0.1599999964237213
      ],
      "type": "VEC3"
    },
    {
      "bufferView": 36,
      "componentType": 5126,
      "count": 216,
      "type": "VEC3"
    },
    {
      "bufferView": 37,
      "componentType": 5126,
      "count": 216,
      "type": "VEC2"
    },
    {
      "bufferView": 38,
      "componentType": 5126,
      "count": 216,
      "max": [
        2.25,
        0.12999999523162842,
        0.12999999523162842
      ],
      "min": [
        -2.25,
        -0.12999999523162842,
        -0.12999999523162842
      ],
      "type": "VEC3"
    },
    {
      "bufferView": 39,
      "componentType": 5126,
      "count": 216,
      "type": "VEC3"
    },
    {
      "bufferView": 40,
      "componentType": 5126,
      "count": 216,
      "type": "VEC2"
    },
    {
      "bufferView": 41,
      "componentType": 5126,
      "count": 216,
      "max": [
        2.25,
        0.12999999523162842,
        0.12999999523162842
      ],
      "min": [
        -2.25,
        -0.12999999523162842,
        -0.12999999523162842
      ],
      "type": "VEC3"
    },
    {
      "bufferView": 42,
      "componentType": 5126,
      "count": 216,
      "type": "VEC3"
    },
    {
      "bufferView": 43,
      "componentType": 5126,
      "count": 216,
      "type": "VEC2"
    },
    {
      "bufferView": 44,
      "componentType": 5126,
      "count": 216,
      "max": [
        2.25,
        0.12999999523162842,
        0.12999999523162842
      ],
      "min": [
        -2.25,
        -0.12999999523162842,
        -0.12999999523162842
      ],
      "type": "VEC3"
    },
    {
      "bufferView": 45,
      "componentType": 5126,
      "count": 216,
      "type": "VEC3"
    },
    {
      "bufferView": 46,
      "componentType": 5126,
      "count": 216,
      "type": "VEC2"
    },
    {
      "bufferView": 47,
      "componentType": 5126,
      "count": 216,
      "max": [
        2.25,
        0.12999999523162842,
        0.12999999523162842
      ],
      "min": [
        -2.25,
        -0.12999999523162842,
        -0.12999999523162842
      ],
      "type": "VEC3"
    },
    {
      "bufferView": 48,
      "componentType": 5126,
      "count": 216,
      "type": "VEC3"
    },
    {
      "bufferView": 49,
      "componentType": 5126,
      "count": 216,
      "type": "VEC2"
    },
    {
      "bufferView": 50,
      "componentType": 5126,
      "count": 1156,
      "max": [
        10.686753273010254,
        6.369999885559082,
        12.391932487487793
      ],
      "min": [
        -10.686753273010254,
        0,
        6.099999904632568
      ],
      "type": "VEC3"
    },
    {
      "bufferView": 51,
      "componentType": 5126,
      "count": 1156,
      "type": "VEC3"
    },
    {
      "bufferView": 52,
      "componentType": 5123,
      "count": 2304,
      "type": "SCALAR"
    },
    {
      "bufferView": 53,
      "componentType": 5126,
      "count": 192,
      "max": [
        0.3100000023841858,
        0.07999999821186066,
        0.3100000023841858
      ],
      "min": [
        -0.3100000023841858,
        -0.07999999821186066,
        -0.3100000023841858
      ],
      "type": "VEC3"
    },
    {
      "bufferView": 54,
      "componentType": 5126,
      "count": 192,
      "type": "VEC3"
    },
    {
      "bufferView": 55,
      "componentType": 5126,
      "count": 192,
      "type": "VEC2"
    },
    {
      "bufferView": 56,
      "componentType": 5123,
      "count": 372,
      "type": "SCALAR"
    },
    {
      "bufferView": 57,
      "componentType": 5126,
      "count": 1984,
      "max": [
        0.239999920129776,
        0.12999999523162842,
        0.23999983072280884
      ],
      "min": [
        -0.23999977111816406,
        -0.12999999523162842,
        -0.23999999463558197
      ],
      "type": "VEC3"
    },
    {
      "bufferView": 58,
      "componentType": 5126,
      "count": 1984,
      "type": "VEC3"
    },
    {
      "bufferView": 59,
      "componentType": 5126,
      "count": 1984,
      "type": "VEC2"
    },
    {
      "bufferView": 60,
      "componentType": 5123,
      "count": 2880,
      "type": "SCALAR"
    },
    {
      "bufferView": 61,
      "componentType": 5126,
      "count": 101,
      "max": [
        5
      ],
      "min": [
        0
      ],
      "type": "SCALAR"
    },
    {
      "bufferView": 62,
      "componentType": 5126,
      "count": 101,
      "type": "VEC4"
    }
  ],
  "bufferViews": [
    {
      "buffer": 0,
      "byteLength": 6912,
      "byteOffset": 0,
      "target": 34962
    },
    {
      "buffer": 0,
      "byteLength": 6912,
      "byteOffset": 6912,
      "target": 34962
    },
    {
      "buffer": 0,
      "byteLength": 4608,
      "byteOffset": 13824,
      "target": 34962
    },
    {
      "buffer": 0,
      "byteLength": 2280,
      "byteOffset": 18432,
      "target": 34963
    },
    {
      "buffer": 0,
      "byteLength": 24216,
      "byteOffset": 20712,
      "target": 34962
    },
    {
      "buffer": 0,
      "byteLength": 24216,
      "byteOffset": 44928,
      "target": 34962
    },
    {
      "buffer": 0,
      "byteLength": 6912,
      "byteOffset": 69144,
      "target": 34963
    },
    {
      "buffer": 0,
      "byteLength": 20784,
      "byteOffset": 76056,
      "target": 34962
    },
    {
      "buffer": 0,
      "byteLength": 20784,
      "byteOffset": 96840,
      "target": 34962
    },
    {
      "buffer": 0,
      "byteLength": 6912,
      "byteOffset": 117624,
      "target": 34963
    },
    {
      "buffer": 0,
      "byteLength": 18480,
      "byteOffset": 124536,
      "target": 34962
    },
    {
      "buffer": 0,
      "byteLength": 18480,
      "byteOffset": 143016,
      "target": 34962
    },
    {
      "buffer": 0,
      "byteLength": 6144,
      "byteOffset": 161496,
      "target": 34963
    },
    {
      "buffer": 0,
      "byteLength": 18480,
      "byteOffset": 167640,
      "target": 34962
    },
    {
      "buffer": 0,
      "byteLength": 18480,
      "byteOffset": 186120,
      "target": 34962
    },
    {
      "buffer": 0,
      "byteLength": 6144,
      "byteOffset": 204600,
      "target": 34963
    },
    {
      "buffer": 0,
      "byteLength": 20784,
      "byteOffset": 210744,
      "target": 34962
    },
    {
      "buffer": 0,
      "byteLength": 20784,
      "byteOffset": 231528,
      "target": 34962
    },
    {
      "buffer": 0,
      "byteLength": 6912,
      "byteOffset": 252312,
      "target": 34963
    },
    {
      "buffer": 0,
      "byteLength": 2592,
      "byteOffset": 259224,
      "target": 34962
    },
    {
      "buffer": 0,
      "byteLength": 2592,
      "byteOffset": 261816,
      "target": 34962
    },
    {
      "buffer": 0,
      "byteLength": 1728,
      "byteOffset": 264408,
      "target": 34962
    },
    {
      "buffer": 0,
      "byteLength": 648,
      "byteOffset": 266136,
      "target": 34963
    },
    {
      "buffer": 0,
      "byteLength": 2592,
      "byteOffset": 266784,
      "target": 34962
    },
    {
      "buffer": 0,
      "byteLength": 2592,
      "byteOffset": 269376,
      "target": 34962
    },
    {
      "buffer": 0,
      "byteLength": 1728,
      "byteOffset": 271968,
      "target": 34962
    },
    {
      "buffer": 0,
      "byteLength": 2592,
      "byteOffset": 273696,
      "target": 34962
    },
    {
      "buffer": 0,
      "byteLength": 2592,
      "byteOffset": 276288,
      "target": 34962
    },
    {
      "buffer": 0,
      "byteLength": 1728,
      "byteOffset": 278880,
      "target": 34962
    },
    {
      "buffer": 0,
      "byteLength": 2592,
      "byteOffset": 280608,
      "target": 34962
    },
    {
      "buffer": 0,
      "byteLength": 2592,
      "byteOffset": 283200,
      "target": 34962
    },
    {
      "buffer": 0,
      "byteLength": 1728,
      "byteOffset": 285792,
      "target": 34962
    },
    {
      "buffer": 0,
      "byteLength": 2592,
      "byteOffset": 287520,
      "target": 34962
    },
    {
      "buffer": 0,
      "byteLength": 2592,
      "byteOffset": 290112,
      "target": 34962
    },
    {
      "buffer": 0,
      "byteLength": 1728,
      "byteOffset": 292704,
      "target": 34962
    },
    {
      "buffer": 0,
      "byteLength": 2592,
      "byteOffset": 294432,
      "target": 34962
    },
    {
      "buffer": 0,
      "byteLength": 2592,
      "byteOffset": 297024,
      "target": 34962
    },
    {
      "buffer": 0,
      "byteLength": 1728,
      "byteOffset": 299616,
      "target": 34962
    },
    {
      "buffer": 0,
      "byteLength": 2592,
      "byteOffset": 301344,
      "target": 34962
    },
    {
      "buffer": 0,
      "byteLength": 2592,
      "byteOffset": 303936,
      "target": 34962
    },
    {
      "buffer": 0,
      "byteLength": 1728,
      "byteOffset": 306528,
      "target": 34962
    },
    {
      "buffer": 0,
      "byteLength": 2592,
      "byteOffset": 308256,
      "target": 34962
    },
    {
      "buffer": 0,
      "byteLength": 2592,
      "byteOffset": 310848,
      "target": 34962
    },
    {
      "buffer": 0,
      "byteLength": 1728,
      "byteOffset": 313440,
      "target": 34962
    },
    {
      "buffer": 0,
      "byteLength": 2592,
      "byteOffset": 315168,
      "target": 34962
    },
    {
      "buffer": 0,
      "byteLength": 2592,
      "byteOffset": 317760,
      "target": 34962
    },
    {
      "buffer": 0,
      "byteLength": 1728,
      "byteOffset": 320352,
      "target": 34962
    },
    {
      "buffer": 0,
      "byteLength": 2592,
      "byteOffset": 322080,
      "target": 34962
    },
    {
      "buffer": 0,
      "byteLength": 2592,
      "byteOffset": 324672,
      "target": 34962
    },
    {
      "buffer": 0,
      "byteLength": 1728,
      "byteOffset": 327264,
      "target": 34962
    },
    {
      "buffer": 0,
      "byteLength": 13872,
      "byteOffset": 328992,
      "target": 34962
    },
    {
      "buffer": 0,
      "byteLength": 13872,
      "byteOffset": 342864,
      "target": 34962
    },
    {
      "buffer": 0,
      "byteLength": 4608,
      "byteOffset": 356736,
      "target": 34963
    },
    {
      "buffer": 0,
      "byteLength": 2304,
      "byteOffset": 361344,
      "target": 34962
    },
    {
      "buffer": 0,
      "byteLength": 2304,
      "byteOffset": 363648,
      "target": 34962
    },
    {
      "buffer": 0,
      "byteLength": 1536,
      "byteOffset": 365952,
      "target": 34962
    },
    {
      "buffer": 0,
      "byteLength": 744,
      "byteOffset": 367488,
      "target": 34963
    },
    {
      "buffer": 0,
      "byteLength": 23808,
      "byteOffset": 368232,
      "target": 34962
    },
    {
      "buffer": 0,
      "byteLength": 23808,
      "byteOffset": 392040,
      "target": 34962
    },
    {
      "buffer": 0,
      "byteLength": 15872,
      "byteOffset": 415848,
      "target": 34962
    },
    {
      "buffer": 0,
      "byteLength": 5760,
      "byteOffset": 431720,
      "target": 34963
    },
    {
      "buffer": 0,
      "byteLength": 404,
      "byteOffset": 437480
    },
    {
      "buffer": 0,
      "byteLength": 1616,
      "byteOffset": 437884
    }
  ],
  "buffers": [
    {
      "byteLength": 439500,
      "uri": "HomebaseRoundHangar_LOD00.bin"
    }
  ],
  "extensionsUsed": [
    "ASOBO_advanced_light"
  ]
}
