{
  "asset": {
    "generator": "VFR aircraftWheelChocks raw glTF exporter; source asset-tools/create-homebase-aircraft-wheel-chocks.py",
    "version": "2.0"
  },
  "scene": 0,
  "scenes": [
    {
      "extras": {
        "homebase_asset_key": "aircraftWheelChocks",
        "homebase_asset_version": "1.0.0",
        "homebase_asset_folder": "VFRHomebaseAircraftWheelChocks",
        "homebase_asset_title": "VFR Multitool Homebase Aircraft Wheel Chocks",
        "homebase_asset_purpose": "Homebase decoration and mission cargo",
        "homebase_reference_dimensions_m": "1.32 x 0.48 x 0.14",
        "homebase_source_generator": "asset-tools/create-homebase-aircraft-wheel-chocks.py",
        "homebase_sdk_build_performed": false
      },
      "name": "Scene",
      "nodes": [
        0
      ]
    }
  ],
  "nodes": [
    {
      "extras": {
        "homebase_asset_key": "aircraftWheelChocks",
        "homebase_asset_version": "1.0.0",
        "homebase_roles": "cargo,scene-prop",
        "homebase_placeable": true,
        "homebase_chock_count": 4,
        "homebase_pair_count": 2,
        "homebase_rope_count": 2,
        "homebase_rope_endpoint_attachment_count": 4,
        "homebase_no_floating_parts": true,
        "homebase_texture_contract": "UV BaseColor, normal and MTL_BITMAP_METAL_ROUGH_AO maps",
        "homebase_static_asset": true
      },
      "mesh": 0,
      "name": "AircraftWheelChocks"
    }
  ],
  "materials": [
    {
      "doubleSided": true,
      "name": "WheelChocks_BlackMoldedRubber",
      "normalTexture": {
        "index": 0,
        "scale": 0.6200000047683716
      },
      "pbrMetallicRoughness": {
        "baseColorTexture": {
          "index": 1
        },
        "metallicRoughnessTexture": {
          "index": 2,
          "texCoord": 0
        },
        "metallicFactor": 1.0,
        "roughnessFactor": 1.0
      },
      "occlusionTexture": {
        "index": 2,
        "texCoord": 0,
        "strength": 1.0
      }
    },
    {
      "doubleSided": true,
      "name": "WheelChocks_YellowSafetyStripe",
      "normalTexture": {
        "index": 3,
        "scale": 0.6200000047683716
      },
      "pbrMetallicRoughness": {
        "baseColorTexture": {
          "index": 4
        },
        "metallicRoughnessTexture": {
          "index": 5,
          "texCoord": 0
        },
        "metallicFactor": 1.0,
        "roughnessFactor": 1.0
      },
      "occlusionTexture": {
        "index": 5,
        "texCoord": 0,
        "strength": 1.0
      }
    },
    {
      "doubleSided": true,
      "name": "WheelChocks_EyeletShadow",
      "pbrMetallicRoughness": {
        "baseColorFactor": [
          0.006000000052154064,
          0.007000000216066837,
          0.007000000216066837,
          1
        ],
        "metallicFactor": 0,
        "roughnessFactor": 0.8999999761581421
      }
    },
    {
      "doubleSided": true,
      "name": "WheelChocks_DarkSteelGrommets",
      "pbrMetallicRoughness": {
        "baseColorFactor": [
          0.07500000298023224,
          0.07999999821186066,
          0.07800000160932541,
          1
        ],
        "metallicFactor": 0.7200000286102295,
        "roughnessFactor": 0.3400000035762787
      }
    },
    {
      "doubleSided": true,
      "name": "WheelChocks_YellowBlackRope",
      "normalTexture": {
        "index": 6,
        "scale": 0.6200000047683716
      },
      "pbrMetallicRoughness": {
        "baseColorTexture": {
          "index": 7
        },
        "metallicFactor": 0,
        "roughnessFactor": 0.7200000286102295
      }
    }
  ],
  "meshes": [
    {
      "name": "AircraftWheelChocksMesh",
      "primitives": [
        {
          "attributes": {
            "POSITION": 0,
            "NORMAL": 1,
            "TEXCOORD_0": 2,
            "TEXCOORD_1": 3
          },
          "indices": 4,
          "material": 0
        },
        {
          "attributes": {
            "POSITION": 5,
            "NORMAL": 6,
            "TEXCOORD_0": 7,
            "TEXCOORD_1": 8
          },
          "indices": 9,
          "material": 1
        },
        {
          "attributes": {
            "POSITION": 10,
            "NORMAL": 11,
            "TEXCOORD_0": 12,
            "TEXCOORD_1": 13
          },
          "indices": 14,
          "material": 2
        },
        {
          "attributes": {
            "POSITION": 15,
            "NORMAL": 16,
            "TEXCOORD_0": 17,
            "TEXCOORD_1": 18
          },
          "indices": 19,
          "material": 3
        },
        {
          "attributes": {
            "POSITION": 20,
            "NORMAL": 21,
            "TEXCOORD_0": 22,
            "TEXCOORD_1": 23
          },
          "indices": 24,
          "material": 4
        }
      ]
    }
  ],
  "textures": [
    {
      "sampler": 0,
      "source": 0
    },
    {
      "sampler": 0,
      "source": 1
    },
    {
      "sampler": 0,
      "source": 2
    },
    {
      "sampler": 0,
      "source": 0
    },
    {
      "sampler": 0,
      "source": 3
    },
    {
      "sampler": 0,
      "source": 4
    },
    {
      "sampler": 0,
      "source": 5
    },
    {
      "sampler": 0,
      "source": 6
    }
  ],
  "images": [
    {
      "mimeType": "image/png",
      "name": "HomebaseAircraftWheelChocks_Rubber_Normal",
      "uri": "../texture/HomebaseAircraftWheelChocks_Rubber_Normal.png"
    },
    {
      "mimeType": "image/png",
      "name": "HomebaseAircraftWheelChocks_Rubber_BaseColor",
      "uri": "../texture/HomebaseAircraftWheelChocks_Rubber_BaseColor.png"
    },
    {
      "mimeType": "image/png",
      "name": "HomebaseAircraftWheelChocks_Rubber_MetalRoughAO",
      "uri": "../texture/HomebaseAircraftWheelChocks_Rubber_MetalRoughAO.png"
    },
    {
      "mimeType": "image/png",
      "name": "HomebaseAircraftWheelChocks_SafetyStripe_BaseColor",
      "uri": "../texture/HomebaseAircraftWheelChocks_SafetyStripe_BaseColor.png"
    },
    {
      "mimeType": "image/png",
      "name": "HomebaseAircraftWheelChocks_SafetyStripe_MetalRoughAO",
      "uri": "../texture/HomebaseAircraftWheelChocks_SafetyStripe_MetalRoughAO.png"
    },
    {
      "mimeType": "image/png",
      "name": "HomebaseAircraftWheelChocks_Rope_Normal",
      "uri": "../texture/HomebaseAircraftWheelChocks_Rope_Normal.png"
    },
    {
      "mimeType": "image/png",
      "name": "HomebaseAircraftWheelChocks_Rope_BaseColor",
      "uri": "../texture/HomebaseAircraftWheelChocks_Rope_BaseColor.png"
    }
  ],
  "accessors": [
    {
      "bufferView": 0,
      "componentType": 5126,
      "count": 406,
      "max": [
        0.3850000202655792,
        0.13790054619312286,
        0.23499999940395355
      ],
      "min": [
        -0.38499999046325684,
        0,
        -0.23499999940395355
      ],
      "type": "VEC3"
    },
    {
      "bufferView": 1,
      "componentType": 5126,
      "count": 406,
      "type": "VEC3"
    },
    {
      "bufferView": 2,
      "componentType": 5126,
      "count": 406,
      "type": "VEC2"
    },
    {
      "bufferView": 3,
      "componentType": 5126,
      "count": 406,
      "type": "VEC2"
    },
    {
      "bufferView": 4,
      "componentType": 5123,
      "count": 1776,
      "type": "SCALAR"
    },
    {
      "bufferView": 5,
      "componentType": 5126,
      "count": 118,
      "max": [
        0.38419845700263977,
        0.13790054619312286,
        0.23449307680130005
      ],
      "min": [
        -0.3841984272003174,
        0.023518655449151993,
        -0.23449309170246124
      ],
      "type": "VEC3"
    },
    {
      "bufferView": 6,
      "componentType": 5126,
      "count": 118,
      "type": "VEC3"
    },
    {
      "bufferView": 7,
      "componentType": 5126,
      "count": 118,
      "type": "VEC2"
    },
    {
      "bufferView": 8,
      "componentType": 5126,
      "count": 118,
      "type": "VEC2"
    },
    {
      "bufferView": 9,
      "componentType": 5123,
      "count": 480,
      "type": "SCALAR"
    },
    {
      "bufferView": 10,
      "componentType": 5126,
      "count": 520,
      "max": [
        0.3879999816417694,
        0.051500000059604645,
        0.15349999070167542
      ],
      "min": [
        -0.3880000114440918,
        0.03450000286102295,
        -0.1535000056028366
      ],
      "type": "VEC3"
    },
    {
      "bufferView": 11,
      "componentType": 5126,
      "count": 520,
      "type": "VEC3"
    },
    {
      "bufferView": 12,
      "componentType": 5126,
      "count": 520,
      "type": "VEC2"
    },
    {
      "bufferView": 13,
      "componentType": 5126,
      "count": 520,
      "type": "VEC2"
    },
    {
      "bufferView": 14,
      "componentType": 5123,
      "count": 1488,
      "type": "SCALAR"
    },
    {
      "bufferView": 15,
      "componentType": 5126,
      "count": 1804,
      "max": [
        0.3906629979610443,
        0.0568000003695488,
        0.15879999101161957
      ],
      "min": [
        -0.3906629681587219,
        0.029200002551078796,
        -0.15879999101161957
      ],
      "type": "VEC3"
    },
    {
      "bufferView": 16,
      "componentType": 5126,
      "count": 1804,
      "type": "VEC3"
    },
    {
      "bufferView": 17,
      "componentType": 5126,
      "count": 1804,
      "type": "VEC2"
    },
    {
      "bufferView": 18,
      "componentType": 5126,
      "count": 1804,
      "type": "VEC2"
    },
    {
      "bufferView": 19,
      "componentType": 5123,
      "count": 9600,
      "type": "SCALAR"
    },
    {
      "bufferView": 20,
      "componentType": 5126,
      "count": 2106,
      "max": [
        0.6311999559402466,
        0.05047572776675224,
        0.1568220853805542
      ],
      "min": [
        -0.6312000155448914,
        0.0038160583935678005,
        -0.156822070479393
      ],
      "type": "VEC3"
    },
    {
      "bufferView": 21,
      "componentType": 5126,
      "count": 2106,
      "type": "VEC3"
    },
    {
      "bufferView": 22,
      "componentType": 5126,
      "count": 2106,
      "type": "VEC2"
    },
    {
      "bufferView": 23,
      "componentType": 5126,
      "count": 2106,
      "type": "VEC2"
    },
    {
      "bufferView": 24,
      "componentType": 5123,
      "count": 11520,
      "type": "SCALAR"
    }
  ],
  "bufferViews": [
    {
      "buffer": 0,
      "byteLength": 4872,
      "byteOffset": 0,
      "target": 34962
    },
    {
      "buffer": 0,
      "byteLength": 4872,
      "byteOffset": 4872,
      "target": 34962
    },
    {
      "buffer": 0,
      "byteLength": 3248,
      "byteOffset": 9744,
      "target": 34962
    },
    {
      "buffer": 0,
      "byteLength": 3248,
      "byteOffset": 12992,
      "target": 34962
    },
    {
      "buffer": 0,
      "byteLength": 3552,
      "byteOffset": 16240,
      "target": 34963
    },
    {
      "buffer": 0,
      "byteLength": 1416,
      "byteOffset": 19792,
      "target": 34962
    },
    {
      "buffer": 0,
      "byteLength": 1416,
      "byteOffset": 21208,
      "target": 34962
    },
    {
      "buffer": 0,
      "byteLength": 944,
      "byteOffset": 22624,
      "target": 34962
    },
    {
      "buffer": 0,
      "byteLength": 944,
      "byteOffset": 23568,
      "target": 34962
    },
    {
      "buffer": 0,
      "byteLength": 960,
      "byteOffset": 24512,
      "target": 34963
    },
    {
      "buffer": 0,
      "byteLength": 6240,
      "byteOffset": 25472,
      "target": 34962
    },
    {
      "buffer": 0,
      "byteLength": 6240,
      "byteOffset": 31712,
      "target": 34962
    },
    {
      "buffer": 0,
      "byteLength": 4160,
      "byteOffset": 37952,
      "target": 34962
    },
    {
      "buffer": 0,
      "byteLength": 4160,
      "byteOffset": 42112,
      "target": 34962
    },
    {
      "buffer": 0,
      "byteLength": 2976,
      "byteOffset": 46272,
      "target": 34963
    },
    {
      "buffer": 0,
      "byteLength": 21648,
      "byteOffset": 49248,
      "target": 34962
    },
    {
      "buffer": 0,
      "byteLength": 21648,
      "byteOffset": 70896,
      "target": 34962
    },
    {
      "buffer": 0,
      "byteLength": 14432,
      "byteOffset": 92544,
      "target": 34962
    },
    {
      "buffer": 0,
      "byteLength": 14432,
      "byteOffset": 106976,
      "target": 34962
    },
    {
      "buffer": 0,
      "byteLength": 19200,
      "byteOffset": 121408,
      "target": 34963
    },
    {
      "buffer": 0,
      "byteLength": 25272,
      "byteOffset": 140608,
      "target": 34962
    },
    {
      "buffer": 0,
      "byteLength": 25272,
      "byteOffset": 165880,
      "target": 34962
    },
    {
      "buffer": 0,
      "byteLength": 16848,
      "byteOffset": 191152,
      "target": 34962
    },
    {
      "buffer": 0,
      "byteLength": 16848,
      "byteOffset": 208000,
      "target": 34962
    },
    {
      "buffer": 0,
      "byteLength": 23040,
      "byteOffset": 224848,
      "target": 34963
    }
  ],
  "samplers": [
    {
      "magFilter": 9729,
      "minFilter": 9987
    }
  ],
  "buffers": [
    {
      "byteLength": 247888,
      "uri": "HomebaseAircraftWheelChocks_LOD00.bin"
    }
  ]
}
