{
  "asset": {
    "generator": "VFR Multitool mission camera-equipment cargo raw glTF exporter",
    "version": "2.0"
  },
  "scene": 0,
  "scenes": [
    {
      "name": "Scene",
      "nodes": [
        0,
        1,
        2,
        3,
        4,
        5,
        6
      ]
    }
  ],
  "nodes": [
    {
      "mesh": 0,
      "name": "CameraEquipmentCaseShell"
    },
    {
      "mesh": 1,
      "name": "CameraEquipmentCaseFoam"
    },
    {
      "mesh": 2,
      "name": "CameraEquipmentCaseHardware"
    },
    {
      "mesh": 3,
      "name": "CameraEquipmentDSLR"
    },
    {
      "mesh": 4,
      "name": "CameraEquipmentTelephotoLens"
    },
    {
      "mesh": 5,
      "name": "CameraEquipmentBatteries"
    },
    {
      "mesh": 6,
      "name": "CameraEquipmentTripod"
    }
  ],
  "materials": [
    {
      "doubleSided": true,
      "name": "CameraEquipmentHardcasePlastic",
      "normalTexture": {
        "index": 0,
        "scale": 0.30000001192092896
      },
      "pbrMetallicRoughness": {
        "baseColorTexture": {
          "index": 1
        },
        "metallicFactor": 0,
        "roughnessFactor": 0.4300000071525574
      }
    },
    {
      "doubleSided": true,
      "name": "CameraEquipmentGripRubber",
      "normalTexture": {
        "index": 2,
        "scale": 0.41999998688697815
      },
      "pbrMetallicRoughness": {
        "baseColorTexture": {
          "index": 3
        },
        "metallicFactor": 0,
        "roughnessFactor": 0.7799999713897705
      }
    },
    {
      "doubleSided": true,
      "name": "CameraEquipmentCustomFoam",
      "normalTexture": {
        "index": 4,
        "scale": 0.5799999833106995
      },
      "pbrMetallicRoughness": {
        "baseColorTexture": {
          "index": 5
        },
        "metallicFactor": 0,
        "roughnessFactor": 0.9300000071525574
      }
    },
    {
      "doubleSided": true,
      "name": "CameraEquipmentBlackAnodizedMetal",
      "normalTexture": {
        "index": 6,
        "scale": 0.20000000298023224
      },
      "pbrMetallicRoughness": {
        "baseColorTexture": {
          "index": 7
        },
        "metallicFactor": 0.7200000286102295,
        "roughnessFactor": 0.27000001072883606
      }
    },
    {
      "doubleSided": true,
      "name": "CameraEquipmentBrushedSilver",
      "pbrMetallicRoughness": {
        "baseColorFactor": [
          0.41999998688697815,
          0.46000000834465027,
          0.5,
          1
        ],
        "metallicFactor": 0.8600000143051147,
        "roughnessFactor": 0.2199999988079071
      }
    },
    {
      "doubleSided": true,
      "name": "CameraEquipmentCameraBody",
      "normalTexture": {
        "index": 8,
        "scale": 0.18000000715255737
      },
      "pbrMetallicRoughness": {
        "baseColorTexture": {
          "index": 9
        },
        "metallicFactor": 0.05000000074505806,
        "roughnessFactor": 0.5
      }
    },
    {
      "alphaMode": "BLEND",
      "doubleSided": true,
      "name": "CameraEquipmentOpticalGlass",
      "pbrMetallicRoughness": {
        "baseColorFactor": [
          0.054999999701976776,
          0.11999999731779099,
          0.1899999976158142,
          0.7200000286102295
        ],
        "metallicFactor": 0.18000000715255737,
        "roughnessFactor": 0.07999999821186066
      }
    },
    {
      "doubleSided": true,
      "emissiveFactor": [
        0.004799999785423281,
        0.023999999821186058,
        0.03359999939203262
      ],
      "name": "CameraEquipmentLCDScreen",
      "pbrMetallicRoughness": {
        "baseColorFactor": [
          0.017999999225139618,
          0.054999999701976776,
          0.07199999690055847,
          1
        ],
        "metallicFactor": 0.10000000149011612,
        "roughnessFactor": 0.18000000715255737
      }
    },
    {
      "doubleSided": true,
      "name": "CameraEquipmentIndexRed",
      "pbrMetallicRoughness": {
        "baseColorFactor": [
          0.5600000023841858,
          0.012000000104308128,
          0.00800000037997961,
          1
        ],
        "metallicFactor": 0.05000000074505806,
        "roughnessFactor": 0.30000001192092896
      }
    },
    {
      "doubleSided": true,
      "name": "CameraEquipmentMarkingWhite",
      "pbrMetallicRoughness": {
        "baseColorFactor": [
          0.8399999737739563,
          0.8600000143051147,
          0.8799999952316284,
          1
        ],
        "metallicFactor": 0.05000000074505806,
        "roughnessFactor": 0.4000000059604645
      }
    },
    {
      "doubleSided": true,
      "name": "CameraEquipmentBatteryShell",
      "normalTexture": {
        "index": 10,
        "scale": 0.15000000596046448
      },
      "pbrMetallicRoughness": {
        "baseColorTexture": {
          "index": 11
        },
        "metallicFactor": 0,
        "roughnessFactor": 0.550000011920929
      }
    },
    {
      "doubleSided": true,
      "name": "CameraEquipmentContactGold",
      "pbrMetallicRoughness": {
        "baseColorFactor": [
          0.6200000047683716,
          0.3400000035762787,
          0.04500000178813934,
          1
        ],
        "metallicFactor": 0.8799999952316284,
        "roughnessFactor": 0.18000000715255737
      }
    }
  ],
  "meshes": [
    {
      "name": "CameraEquipmentCaseShellMesh",
      "primitives": [
        {
          "attributes": {
            "POSITION": 0,
            "NORMAL": 1,
            "TEXCOORD_0": 2
          },
          "indices": 3,
          "material": 0
        },
        {
          "attributes": {
            "POSITION": 4,
            "NORMAL": 5,
            "TEXCOORD_0": 6
          },
          "indices": 7,
          "material": 1
        }
      ]
    },
    {
      "name": "CameraEquipmentCaseFoamMesh",
      "primitives": [
        {
          "attributes": {
            "POSITION": 8,
            "NORMAL": 9,
            "TEXCOORD_0": 10
          },
          "indices": 11,
          "material": 2
        }
      ]
    },
    {
      "name": "CameraEquipmentCaseHardwareMesh",
      "primitives": [
        {
          "attributes": {
            "POSITION": 12,
            "NORMAL": 13,
            "TEXCOORD_0": 14,
            "TEXCOORD_1": 15
          },
          "indices": 16,
          "material": 3
        },
        {
          "attributes": {
            "POSITION": 17,
            "NORMAL": 18,
            "TEXCOORD_0": 19,
            "TEXCOORD_1": 20
          },
          "indices": 21,
          "material": 4
        }
      ]
    },
    {
      "name": "CameraEquipmentDSLRMesh",
      "primitives": [
        {
          "attributes": {
            "POSITION": 22,
            "NORMAL": 23,
            "TEXCOORD_0": 24
          },
          "indices": 25,
          "material": 5
        },
        {
          "attributes": {
            "POSITION": 26,
            "NORMAL": 27,
            "TEXCOORD_0": 28
          },
          "indices": 29,
          "material": 1
        },
        {
          "attributes": {
            "POSITION": 30,
            "NORMAL": 31,
            "TEXCOORD_0": 32
          },
          "indices": 33,
          "material": 4
        },
        {
          "attributes": {
            "POSITION": 34,
            "NORMAL": 35,
            "TEXCOORD_0": 36
          },
          "indices": 37,
          "material": 6
        },
        {
          "attributes": {
            "POSITION": 38,
            "NORMAL": 39,
            "TEXCOORD_0": 40
          },
          "indices": 41,
          "material": 7
        },
        {
          "attributes": {
            "POSITION": 42,
            "NORMAL": 43,
            "TEXCOORD_0": 44
          },
          "indices": 45,
          "material": 3
        },
        {
          "attributes": {
            "POSITION": 46,
            "NORMAL": 47,
            "TEXCOORD_0": 48
          },
          "indices": 49,
          "material": 8
        },
        {
          "attributes": {
            "POSITION": 50,
            "NORMAL": 51,
            "TEXCOORD_0": 52
          },
          "indices": 53,
          "material": 9
        }
      ]
    },
    {
      "name": "CameraEquipmentTelephotoLensMesh",
      "primitives": [
        {
          "attributes": {
            "POSITION": 54,
            "NORMAL": 55,
            "TEXCOORD_0": 56,
            "TEXCOORD_1": 57
          },
          "indices": 58,
          "material": 3
        },
        {
          "attributes": {
            "POSITION": 59,
            "NORMAL": 60,
            "TEXCOORD_0": 61,
            "TEXCOORD_1": 62
          },
          "indices": 63,
          "material": 1
        },
        {
          "attributes": {
            "POSITION": 64,
            "NORMAL": 65,
            "TEXCOORD_0": 66,
            "TEXCOORD_1": 67
          },
          "indices": 68,
          "material": 8
        },
        {
          "attributes": {
            "POSITION": 69,
            "NORMAL": 70,
            "TEXCOORD_0": 71,
            "TEXCOORD_1": 72
          },
          "indices": 73,
          "material": 6
        },
        {
          "attributes": {
            "POSITION": 74,
            "NORMAL": 75,
            "TEXCOORD_0": 76,
            "TEXCOORD_1": 77
          },
          "indices": 68,
          "material": 4
        },
        {
          "attributes": {
            "POSITION": 78,
            "NORMAL": 79,
            "TEXCOORD_0": 80,
            "TEXCOORD_1": 81
          },
          "indices": 82,
          "material": 9
        },
        {
          "attributes": {
            "POSITION": 83,
            "NORMAL": 84,
            "TEXCOORD_0": 85,
            "TEXCOORD_1": 86
          },
          "indices": 87,
          "material": 2
        }
      ]
    },
    {
      "name": "CameraEquipmentBatteriesMesh",
      "primitives": [
        {
          "attributes": {
            "POSITION": 88,
            "NORMAL": 89,
            "TEXCOORD_0": 90
          },
          "indices": 91,
          "material": 10
        },
        {
          "attributes": {
            "POSITION": 92,
            "NORMAL": 93,
            "TEXCOORD_0": 94
          },
          "indices": 95,
          "material": 1
        },
        {
          "attributes": {
            "POSITION": 96,
            "NORMAL": 97,
            "TEXCOORD_0": 98
          },
          "indices": 99,
          "material": 11
        },
        {
          "attributes": {
            "POSITION": 100,
            "NORMAL": 101,
            "TEXCOORD_0": 102
          },
          "indices": 103,
          "material": 9
        }
      ]
    },
    {
      "name": "CameraEquipmentTripodMesh",
      "primitives": [
        {
          "attributes": {
            "POSITION": 104,
            "NORMAL": 105,
            "TEXCOORD_0": 106,
            "TEXCOORD_1": 107
          },
          "indices": 108,
          "material": 3
        },
        {
          "attributes": {
            "POSITION": 109,
            "NORMAL": 110,
            "TEXCOORD_0": 111,
            "TEXCOORD_1": 112
          },
          "indices": 113,
          "material": 1
        },
        {
          "attributes": {
            "POSITION": 114,
            "NORMAL": 115,
            "TEXCOORD_0": 116,
            "TEXCOORD_1": 117
          },
          "indices": 118,
          "material": 4
        },
        {
          "attributes": {
            "POSITION": 119,
            "NORMAL": 120,
            "TEXCOORD_0": 121,
            "TEXCOORD_1": 122
          },
          "indices": 123,
          "material": 8
        }
      ]
    }
  ],
  "textures": [
    {
      "sampler": 0,
      "source": 0
    },
    {
      "sampler": 0,
      "source": 1
    },
    {
      "sampler": 0,
      "source": 2
    },
    {
      "sampler": 0,
      "source": 3
    },
    {
      "sampler": 0,
      "source": 4
    },
    {
      "sampler": 0,
      "source": 5
    },
    {
      "sampler": 0,
      "source": 6
    },
    {
      "sampler": 0,
      "source": 7
    },
    {
      "sampler": 0,
      "source": 0
    },
    {
      "sampler": 0,
      "source": 1
    },
    {
      "sampler": 0,
      "source": 0
    },
    {
      "sampler": 0,
      "source": 1
    }
  ],
  "images": [
    {
      "mimeType": "image/png",
      "name": "CameraEquipmentCase_Normal",
      "uri": "../texture/CameraEquipmentCase_Normal.png"
    },
    {
      "mimeType": "image/png",
      "name": "CameraEquipmentCase_BaseColor",
      "uri": "../texture/CameraEquipmentCase_BaseColor.png"
    },
    {
      "mimeType": "image/png",
      "name": "CameraEquipmentRubber_Normal",
      "uri": "../texture/CameraEquipmentRubber_Normal.png"
    },
    {
      "mimeType": "image/png",
      "name": "CameraEquipmentRubber_BaseColor",
      "uri": "../texture/CameraEquipmentRubber_BaseColor.png"
    },
    {
      "mimeType": "image/png",
      "name": "CameraEquipmentFoam_Normal",
      "uri": "../texture/CameraEquipmentFoam_Normal.png"
    },
    {
      "mimeType": "image/png",
      "name": "CameraEquipmentFoam_BaseColor",
      "uri": "../texture/CameraEquipmentFoam_BaseColor.png"
    },
    {
      "mimeType": "image/png",
      "name": "CameraEquipmentMetal_Normal",
      "uri": "../texture/CameraEquipmentMetal_Normal.png"
    },
    {
      "mimeType": "image/png",
      "name": "CameraEquipmentMetal_BaseColor",
      "uri": "../texture/CameraEquipmentMetal_BaseColor.png"
    }
  ],
  "accessors": [
    {
      "bufferView": 0,
      "componentType": 5126,
      "count": 3428,
      "max": [
        -0.06000000238418579,
        0.5267332196235657,
        0.24399998784065247
      ],
      "min": [
        -0.6800000071525574,
        0,
        -0.30949968099594116
      ],
      "type": "VEC3"
    },
    {
      "bufferView": 1,
      "componentType": 5126,
      "count": 3428,
      "type": "VEC3"
    },
    {
      "bufferView": 2,
      "componentType": 5126,
      "count": 3428,
      "type": "VEC2"
    },
    {
      "bufferView": 3,
      "componentType": 5123,
      "count": 5076,
      "type": "SCALAR"
    },
    {
      "bufferView": 4,
      "componentType": 5126,
      "count": 1679,
      "max": [
        -0.057999998331069946,
        0.1679999977350235,
        0.31406402587890625
      ],
      "min": [
        -0.6820000410079956,
        0.00950980931520462,
        -0.20800000429153442
      ],
      "type": "VEC3"
    },
    {
      "bufferView": 5,
      "componentType": 5126,
      "count": 1679,
      "type": "VEC3"
    },
    {
      "bufferView": 6,
      "componentType": 5126,
      "count": 1679,
      "type": "VEC2"
    },
    {
      "bufferView": 7,
      "componentType": 5123,
      "count": 2976,
      "type": "SCALAR"
    },
    {
      "bufferView": 8,
      "componentType": 5126,
      "count": 3044,
      "max": [
        -0.09749999642372131,
        0.4894289970397949,
        0.17900000512599945
      ],
      "min": [
        -0.6425000429153442,
        0.11899999529123306,
        -0.25881803035736084
      ],
      "type": "VEC3"
    },
    {
      "bufferView": 9,
      "componentType": 5126,
      "count": 3044,
      "type": "VEC3"
    },
    {
      "bufferView": 10,
      "componentType": 5126,
      "count": 3044,
      "type": "VEC2"
    },
    {
      "bufferView": 11,
      "componentType": 5123,
      "count": 4512,
      "type": "SCALAR"
    },
    {
      "bufferView": 12,
      "componentType": 5126,
      "count": 1318,
      "max": [
        -0.125,
        0.13700000941753387,
        0.2669999599456787
      ],
      "min": [
        -0.6150000095367432,
        0.04899999499320984,
        -0.21700000762939453
      ],
      "type": "VEC3"
    },
    {
      "bufferView": 13,
      "componentType": 5126,
      "count": 1318,
      "type": "VEC3"
    },
    {
      "bufferView": 14,
      "componentType": 5126,
      "count": 1318,
      "type": "VEC2"
    },
    {
      "bufferView": 15,
      "componentType": 5126,
      "count": 1318,
      "type": "VEC2"
    },
    {
      "bufferView": 16,
      "componentType": 5123,
      "count": 3528,
      "type": "SCALAR"
    },
    {
      "bufferView": 17,
      "componentType": 5126,
      "count": 357,
      "max": [
        -0.16899996995925903,
        0.13099999725818634,
        0.27300000190734863
      ],
      "min": [
        -0.5709999203681946,
        0.043999992311000824,
        0.24799998104572296
      ],
      "type": "VEC3"
    },
    {
      "bufferView": 18,
      "componentType": 5126,
      "count": 357,
      "type": "VEC3"
    },
    {
      "bufferView": 19,
      "componentType": 5126,
      "count": 357,
      "type": "VEC2"
    },
    {
      "bufferView": 20,
      "componentType": 5126,
      "count": 357,
      "type": "VEC2"
    },
    {
      "bufferView": 21,
      "componentType": 5123,
      "count": 1512,
      "type": "SCALAR"
    },
    {
      "bufferView": 22,
      "componentType": 5126,
      "count": 898,
      "max": [
        -0.42019927501678467,
        0.31949999928474426,
        0.1040000170469284
      ],
      "min": [
        -0.5898007154464722,
        0.1784999966621399,
        -0.04400000721216202
      ],
      "type": "VEC3"
    },
    {
      "bufferView": 23,
      "componentType": 5126,
      "count": 898,
      "type": "VEC3"
    },
    {
      "bufferView": 24,
      "componentType": 5126,
      "count": 898,
      "type": "VEC2"
    },
    {
      "bufferView": 25,
      "componentType": 5123,
      "count": 2424,
      "type": "SCALAR"
    },
    {
      "bufferView": 26,
      "componentType": 5126,
      "count": 5376,
      "max": [
        -0.47349992394447327,
        0.328000009059906,
        0.0714917704463005
      ],
      "min": [
        -0.6042205691337585,
        0.17299999296665192,
        -0.04899999499320984
      ],
      "type": "VEC3"
    },
    {
      "bufferView": 27,
      "componentType": 5126,
      "count": 5376,
      "type": "VEC3"
    },
    {
      "bufferView": 28,
      "componentType": 5126,
      "count": 5376,
      "type": "VEC2"
    },
    {
      "bufferView": 29,
      "componentType": 5123,
      "count": 7896,
      "type": "SCALAR"
    },
    {
      "bufferView": 30,
      "componentType": 5126,
      "count": 840,
      "max": [
        -0.4509999752044678,
        0.32899999618530273,
        0.0910000205039978
      ],
      "min": [
        -0.5879999399185181,
        0.1860000044107437,
        -0.007999998517334461
      ],
      "type": "VEC3"
    },
    {
      "bufferView": 31,
      "componentType": 5126,
      "count": 840,
      "type": "VEC3"
    },
    {
      "bufferView": 32,
      "componentType": 5126,
      "count": 840,
      "type": "VEC2"
    },
    {
      "bufferView": 33,
      "componentType": 5123,
      "count": 2556,
      "type": "SCALAR"
    },
    {
      "bufferView": 34,
      "componentType": 5126,
      "count": 130,
      "max": [
        -0.4639999270439148,
        0.26100000739097595,
        0.10700001567602158
      ],
      "min": [
        -0.5259999632835388,
        0.19900000095367432,
        0.10399999469518661
      ],
      "type": "VEC3"
    },
    {
      "bufferView": 35,
      "componentType": 5126,
      "count": 130,
      "type": "VEC3"
    },
    {
      "bufferView": 36,
      "componentType": 5126,
      "count": 130,
      "type": "VEC2"
    },
    {
      "bufferView": 37,
      "componentType": 5123,
      "count": 372,
      "type": "SCALAR"
    },
    {
      "bufferView": 38,
      "componentType": 5126,
      "count": 356,
      "max": [
        -0.453499972820282,
        0.24799999594688416,
        -0.03349999338388443
      ],
      "min": [
        -0.5364999771118164,
        0.19600000977516174,
        -0.038499996066093445
      ],
      "type": "VEC3"
    },
    {
      "bufferView": 39,
      "componentType": 5126,
      "count": 356,
      "type": "VEC3"
    },
    {
      "bufferView": 40,
      "componentType": 5126,
      "count": 356,
      "type": "VEC2"
    },
    {
      "bufferView": 41,
      "componentType": 5123,
      "count": 564,
      "type": "SCALAR"
    },
    {
      "bufferView": 42,
      "componentType": 5126,
      "count": 196,
      "max": [
        -0.5249999165534973,
        0.3259999752044678,
        0.03500000387430191
      ],
      "min": [
        -0.5689999461174011,
        0.3140000104904175,
        -0.008999994955956936
      ],
      "type": "VEC3"
    },
    {
      "bufferView": 43,
      "componentType": 5126,
      "count": 196,
      "type": "VEC3"
    },
    {
      "bufferView": 44,
      "componentType": 5126,
      "count": 196,
      "type": "VEC2"
    },
    {
      "bufferView": 45,
      "componentType": 5123,
      "count": 852,
      "type": "SCALAR"
    },
    {
      "bufferView": 46,
      "componentType": 5126,
      "count": 66,
      "max": [
        -0.42899996042251587,
        0.2900000214576721,
        -0.037999995052814484
      ],
      "min": [
        -0.44099995493888855,
        0.27799999713897705,
        -0.04400000348687172
      ],
      "type": "VEC3"
    },
    {
      "bufferView": 47,
      "componentType": 5126,
      "count": 66,
      "type": "VEC3"
    },
    {
      "bufferView": 48,
      "componentType": 5126,
      "count": 66,
      "type": "VEC2"
    },
    {
      "bufferView": 49,
      "componentType": 5123,
      "count": 180,
      "type": "SCALAR"
    },
    {
      "bufferView": 50,
      "componentType": 5126,
      "count": 384,
      "max": [
        -0.5074999332427979,
        0.27799999713897705,
        0.11200001090765
      ],
      "min": [
        -0.5524999499320984,
        0.26999998092651367,
        0.10600000619888306
      ],
      "type": "VEC3"
    },
    {
      "bufferView": 51,
      "componentType": 5126,
      "count": 384,
      "type": "VEC3"
    },
    {
      "bufferView": 52,
      "componentType": 5126,
      "count": 384,
      "type": "VEC2"
    },
    {
      "bufferView": 53,
      "componentType": 5123,
      "count": 564,
      "type": "SCALAR"
    },
    {
      "bufferView": 54,
      "componentType": 5126,
      "count": 1296,
      "max": [
        -0.15399998426437378,
        0.29100000858306885,
        0.09000000357627869
      ],
      "min": [
        -0.29600000381469727,
        0.14899998903274536,
        -0.16500000655651093
      ],
      "type": "VEC3"
    },
    {
      "bufferView": 55,
      "componentType": 5126,
      "count": 1296,
      "type": "VEC3"
    },
    {
      "bufferView": 56,
      "componentType": 5126,
      "count": 1296,
      "type": "VEC2"
    },
    {
      "bufferView": 57,
      "componentType": 5126,
      "count": 1296,
      "type": "VEC2"
    },
    {
      "bufferView": 58,
      "componentType": 5123,
      "count": 5712,
      "type": "SCALAR"
    },
    {
      "bufferView": 59,
      "componentType": 5126,
      "count": 4216,
      "max": [
        -0.1614999920129776,
        0.28349998593330383,
        0.10400000214576721
      ],
      "min": [
        -0.28850001096725464,
        0.156499981880188,
        -0.11949999630451202
      ],
      "type": "VEC3"
    },
    {
      "bufferView": 60,
      "componentType": 5126,
      "count": 4216,
      "type": "VEC3"
    },
    {
      "bufferView": 61,
      "componentType": 5126,
      "count": 4216,
      "type": "VEC2"
    },
    {
      "bufferView": 62,
      "componentType": 5126,
      "count": 4216,
      "type": "VEC2"
    },
    {
      "bufferView": 63,
      "componentType": 5123,
      "count": 20928,
      "type": "SCALAR"
    },
    {
      "bufferView": 64,
      "componentType": 5126,
      "count": 369,
      "max": [
        -0.1671999990940094,
        0.2777999937534332,
        -0.06919999420642853
      ],
      "min": [
        -0.28279998898506165,
        0.1621999889612198,
        -0.07279999554157257
      ],
      "type": "VEC3"
    },
    {
      "bufferView": 65,
      "componentType": 5126,
      "count": 369,
      "type": "VEC3"
    },
    {
      "bufferView": 66,
      "componentType": 5126,
      "count": 369,
      "type": "VEC2"
    },
    {
      "bufferView": 67,
      "componentType": 5126,
      "count": 369,
      "type": "VEC2"
    },
    {
      "bufferView": 68,
      "componentType": 5123,
      "count": 1920,
      "type": "SCALAR"
    },
    {
      "bufferView": 69,
      "componentType": 5126,
      "count": 162,
      "max": [
        -0.16699999570846558,
        0.27799999713897705,
        -0.16500000655651093
      ],
      "min": [
        -0.28299999237060547,
        0.16199998557567596,
        -0.17000000178813934
      ],
      "type": "VEC3"
    },
    {
      "bufferView": 70,
      "componentType": 5126,
      "count": 162,
      "type": "VEC3"
    },
    {
      "bufferView": 71,
      "componentType": 5126,
      "count": 162,
      "type": "VEC2"
    },
    {
      "bufferView": 72,
      "componentType": 5126,
      "count": 162,
      "type": "VEC2"
    },
    {
      "bufferView": 73,
      "componentType": 5123,
      "count": 468,
      "type": "SCALAR"
    },
    {
      "bufferView": 74,
      "componentType": 5126,
      "count": 369,
      "max": [
        -0.1589999943971634,
        0.28599998354911804,
        -0.16599999368190765
      ],
      "min": [
        -0.29100000858306885,
        0.15399998426437378,
        -0.1720000058412552
      ],
      "type": "VEC3"
    },
    {
      "bufferView": 75,
      "componentType": 5126,
      "count": 369,
      "type": "VEC3"
    },
    {
      "bufferView": 76,
      "componentType": 5126,
      "count": 369,
      "type": "VEC2"
    },
    {
      "bufferView": 77,
      "componentType": 5126,
      "count": 369,
      "type": "VEC2"
    },
    {
      "bufferView": 78,
      "componentType": 5126,
      "count": 1536,
      "max": [
        -0.19750000536441803,
        0.2800000011920929,
        -0.13199999928474426
      ],
      "min": [
        -0.2485000044107437,
        0.26999998092651367,
        -0.14399999380111694
      ],
      "type": "VEC3"
    },
    {
      "bufferView": 79,
      "componentType": 5126,
      "count": 1536,
      "type": "VEC3"
    },
    {
      "bufferView": 80,
      "componentType": 5126,
      "count": 1536,
      "type": "VEC2"
    },
    {
      "bufferView": 81,
      "componentType": 5126,
      "count": 1536,
      "type": "VEC2"
    },
    {
      "bufferView": 82,
      "componentType": 5123,
      "count": 2256,
      "type": "SCALAR"
    },
    {
      "bufferView": 83,
      "componentType": 5126,
      "count": 768,
      "max": [
        -0.1525000035762787,
        0.18700000643730164,
        0.04200000315904617
      ],
      "min": [
        -0.29750001430511475,
        0.15699999034404755,
        -0.11599999666213989
      ],
      "type": "VEC3"
    },
    {
      "bufferView": 84,
      "componentType": 5126,
      "count": 768,
      "type": "VEC3"
    },
    {
      "bufferView": 85,
      "componentType": 5126,
      "count": 768,
      "type": "VEC2"
    },
    {
      "bufferView": 86,
      "componentType": 5126,
      "count": 768,
      "type": "VEC2"
    },
    {
      "bufferView": 87,
      "componentType": 5123,
      "count": 1128,
      "type": "SCALAR"
    },
    {
      "bufferView": 88,
      "componentType": 5126,
      "count": 1152,
      "max": [
        -0.12822628021240234,
        0.2475000023841858,
        0.15713471174240112
      ],
      "min": [
        -0.31177374720573425,
        0.18250000476837158,
        0.11286529898643494
      ],
      "type": "VEC3"
    },
    {
      "bufferView": 89,
      "componentType": 5126,
      "count": 1152,
      "type": "VEC3"
    },
    {
      "bufferView": 90,
      "componentType": 5126,
      "count": 1152,
      "type": "VEC2"
    },
    {
      "bufferView": 91,
      "componentType": 5123,
      "count": 1692,
      "type": "SCALAR"
    },
    {
      "bufferView": 92,
      "componentType": 5126,
      "count": 1152,
      "max": [
        -0.1340000182390213,
        0.2370000034570694,
        0.16499999165534973
      ],
      "min": [
        -0.3059999942779541,
        0.19300000369548798,
        0.1550000011920929
      ],
      "type": "VEC3"
    },
    {
      "bufferView": 93,
      "componentType": 5126,
      "count": 1152,
      "type": "VEC3"
    },
    {
      "bufferView": 94,
      "componentType": 5126,
      "count": 1152,
      "type": "VEC2"
    },
    {
      "bufferView": 95,
      "componentType": 5123,
      "count": 1692,
      "type": "SCALAR"
    },
    {
      "bufferView": 96,
      "componentType": 5126,
      "count": 3456,
      "max": [
        -0.13899999856948853,
        0.23849999904632568,
        0.11500000953674316
      ],
      "min": [
        -0.3009999692440033,
        0.2254999876022339,
        0.10899999737739563
      ],
      "type": "VEC3"
    },
    {
      "bufferView": 97,
      "componentType": 5126,
      "count": 3456,
      "type": "VEC3"
    },
    {
      "bufferView": 98,
      "componentType": 5126,
      "count": 3456,
      "type": "VEC2"
    },
    {
      "bufferView": 99,
      "componentType": 5123,
      "count": 5076,
      "type": "SCALAR"
    },
    {
      "bufferView": 100,
      "componentType": 5126,
      "count": 1152,
      "max": [
        -0.1420000046491623,
        0.23000000417232513,
        0.1679999977350235
      ],
      "min": [
        -0.2979999780654907,
        0.2239999920129776,
        0.1639999896287918
      ],
      "type": "VEC3"
    },
    {
      "bufferView": 101,
      "componentType": 5126,
      "count": 1152,
      "type": "VEC3"
    },
    {
      "bufferView": 102,
      "componentType": 5126,
      "count": 1152,
      "type": "VEC2"
    },
    {
      "bufferView": 103,
      "componentType": 5123,
      "count": 1692,
      "type": "SCALAR"
    },
    {
      "bufferView": 104,
      "componentType": 5126,
      "count": 2400,
      "max": [
        0.7803645133972168,
        1.2694998979568481,
        0.20686310529708862
      ],
      "min": [
        0.029567569494247437,
        0.016122102737426758,
        -0.49936002492904663
      ],
      "type": "VEC3"
    },
    {
      "bufferView": 105,
      "componentType": 5126,
      "count": 2400,
      "type": "VEC3"
    },
    {
      "bufferView": 106,
      "componentType": 5126,
      "count": 2400,
      "type": "VEC2"
    },
    {
      "bufferView": 107,
      "componentType": 5126,
      "count": 2400,
      "type": "VEC2"
    },
    {
      "bufferView": 108,
      "componentType": 5123,
      "count": 9300,
      "type": "SCALAR"
    },
    {
      "bufferView": 109,
      "componentType": 5126,
      "count": 4743,
      "max": [
        0.798279881477356,
        1.277999997138977,
        0.25850194692611694
      ],
      "min": [
        0.011720001697540283,
        -5.960464477539063e-08,
        -0.5110000371932983
      ],
      "type": "VEC3"
    },
    {
      "bufferView": 110,
      "componentType": 5126,
      "count": 4743,
      "type": "VEC3"
    },
    {
      "bufferView": 111,
      "componentType": 5126,
      "count": 4743,
      "type": "VEC2"
    },
    {
      "bufferView": 112,
      "componentType": 5126,
      "count": 4743,
      "type": "VEC2"
    },
    {
      "bufferView": 113,
      "componentType": 5123,
      "count": 18684,
      "type": "SCALAR"
    },
    {
      "bufferView": 114,
      "componentType": 5126,
      "count": 1052,
      "max": [
        0.5627526640892029,
        1.2944998741149902,
        0.12134180217981339
      ],
      "min": [
        0.20426355302333832,
        0.3845064640045166,
        -0.23623192310333252
      ],
      "type": "VEC3"
    },
    {
      "bufferView": 115,
      "componentType": 5126,
      "count": 1052,
      "type": "VEC3"
    },
    {
      "bufferView": 116,
      "componentType": 5126,
      "count": 1052,
      "type": "VEC2"
    },
    {
      "bufferView": 117,
      "componentType": 5126,
      "count": 1052,
      "type": "VEC2"
    },
    {
      "bufferView": 118,
      "componentType": 5123,
      "count": 4116,
      "type": "SCALAR"
    },
    {
      "bufferView": 119,
      "componentType": 5126,
      "count": 333,
      "max": [
        0.45100003480911255,
        1.1159999370574951,
        0.010999999940395355
      ],
      "min": [
        0.3490000069141388,
        1.1099998950958252,
        -0.09099999815225601
      ],
      "type": "VEC3"
    },
    {
      "bufferView": 120,
      "componentType": 5126,
      "count": 333,
      "type": "VEC3"
    },
    {
      "bufferView": 121,
      "componentType": 5126,
      "count": 333,
      "type": "VEC2"
    },
    {
      "bufferView": 122,
      "componentType": 5126,
      "count": 333,
      "type": "VEC2"
    },
    {
      "bufferView": 123,
      "componentType": 5123,
      "count": 1728,
      "type": "SCALAR"
    }
  ],
  "bufferViews": [
    {
      "buffer": 0,
      "byteLength": 41136,
      "byteOffset": 0,
      "target": 34962
    },
    {
      "buffer": 0,
      "byteLength": 41136,
      "byteOffset": 41136,
      "target": 34962
    },
    {
      "buffer": 0,
      "byteLength": 27424,
      "byteOffset": 82272,
      "target": 34962
    },
    {
      "buffer": 0,
      "byteLength": 10152,
      "byteOffset": 109696,
      "target": 34963
    },
    {
      "buffer": 0,
      "byteLength": 20148,
      "byteOffset": 119848,
      "target": 34962
    },
    {
      "buffer": 0,
      "byteLength": 20148,
      "byteOffset": 139996,
      "target": 34962
    },
    {
      "buffer": 0,
      "byteLength": 13432,
      "byteOffset": 160144,
      "target": 34962
    },
    {
      "buffer": 0,
      "byteLength": 5952,
      "byteOffset": 173576,
      "target": 34963
    },
    {
      "buffer": 0,
      "byteLength": 36528,
      "byteOffset": 179528,
      "target": 34962
    },
    {
      "buffer": 0,
      "byteLength": 36528,
      "byteOffset": 216056,
      "target": 34962
    },
    {
      "buffer": 0,
      "byteLength": 24352,
      "byteOffset": 252584,
      "target": 34962
    },
    {
      "buffer": 0,
      "byteLength": 9024,
      "byteOffset": 276936,
      "target": 34963
    },
    {
      "buffer": 0,
      "byteLength": 15816,
      "byteOffset": 285960,
      "target": 34962
    },
    {
      "buffer": 0,
      "byteLength": 15816,
      "byteOffset": 301776,
      "target": 34962
    },
    {
      "buffer": 0,
      "byteLength": 10544,
      "byteOffset": 317592,
      "target": 34962
    },
    {
      "buffer": 0,
      "byteLength": 10544,
      "byteOffset": 328136,
      "target": 34962
    },
    {
      "buffer": 0,
      "byteLength": 7056,
      "byteOffset": 338680,
      "target": 34963
    },
    {
      "buffer": 0,
      "byteLength": 4284,
      "byteOffset": 345736,
      "target": 34962
    },
    {
      "buffer": 0,
      "byteLength": 4284,
      "byteOffset": 350020,
      "target": 34962
    },
    {
      "buffer": 0,
      "byteLength": 2856,
      "byteOffset": 354304,
      "target": 34962
    },
    {
      "buffer": 0,
      "byteLength": 2856,
      "byteOffset": 357160,
      "target": 34962
    },
    {
      "buffer": 0,
      "byteLength": 3024,
      "byteOffset": 360016,
      "target": 34963
    },
    {
      "buffer": 0,
      "byteLength": 10776,
      "byteOffset": 363040,
      "target": 34962
    },
    {
      "buffer": 0,
      "byteLength": 10776,
      "byteOffset": 373816,
      "target": 34962
    },
    {
      "buffer": 0,
      "byteLength": 7184,
      "byteOffset": 384592,
      "target": 34962
    },
    {
      "buffer": 0,
      "byteLength": 4848,
      "byteOffset": 391776,
      "target": 34963
    },
    {
      "buffer": 0,
      "byteLength": 64512,
      "byteOffset": 396624,
      "target": 34962
    },
    {
      "buffer": 0,
      "byteLength": 64512,
      "byteOffset": 461136,
      "target": 34962
    },
    {
      "buffer": 0,
      "byteLength": 43008,
      "byteOffset": 525648,
      "target": 34962
    },
    {
      "buffer": 0,
      "byteLength": 15792,
      "byteOffset": 568656,
      "target": 34963
    },
    {
      "buffer": 0,
      "byteLength": 10080,
      "byteOffset": 584448,
      "target": 34962
    },
    {
      "buffer": 0,
      "byteLength": 10080,
      "byteOffset": 594528,
      "target": 34962
    },
    {
      "buffer": 0,
      "byteLength": 6720,
      "byteOffset": 604608,
      "target": 34962
    },
    {
      "buffer": 0,
      "byteLength": 5112,
      "byteOffset": 611328,
      "target": 34963
    },
    {
      "buffer": 0,
      "byteLength": 1560,
      "byteOffset": 616440,
      "target": 34962
    },
    {
      "buffer": 0,
      "byteLength": 1560,
      "byteOffset": 618000,
      "target": 34962
    },
    {
      "buffer": 0,
      "byteLength": 1040,
      "byteOffset": 619560,
      "target": 34962
    },
    {
      "buffer": 0,
      "byteLength": 744,
      "byteOffset": 620600,
      "target": 34963
    },
    {
      "buffer": 0,
      "byteLength": 4272,
      "byteOffset": 621344,
      "target": 34962
    },
    {
      "buffer": 0,
      "byteLength": 4272,
      "byteOffset": 625616,
      "target": 34962
    },
    {
      "buffer": 0,
      "byteLength": 2848,
      "byteOffset": 629888,
      "target": 34962
    },
    {
      "buffer": 0,
      "byteLength": 1128,
      "byteOffset": 632736,
      "target": 34963
    },
    {
      "buffer": 0,
      "byteLength": 2352,
      "byteOffset": 633864,
      "target": 34962
    },
    {
      "buffer": 0,
      "byteLength": 2352,
      "byteOffset": 636216,
      "target": 34962
    },
    {
      "buffer": 0,
      "byteLength": 1568,
      "byteOffset": 638568,
      "target": 34962
    },
    {
      "buffer": 0,
      "byteLength": 1704,
      "byteOffset": 640136,
      "target": 34963
    },
    {
      "buffer": 0,
      "byteLength": 792,
      "byteOffset": 641840,
      "target": 34962
    },
    {
      "buffer": 0,
      "byteLength": 792,
      "byteOffset": 642632,
      "target": 34962
    },
    {
      "buffer": 0,
      "byteLength": 528,
      "byteOffset": 643424,
      "target": 34962
    },
    {
      "buffer": 0,
      "byteLength": 360,
      "byteOffset": 643952,
      "target": 34963
    },
    {
      "buffer": 0,
      "byteLength": 4608,
      "byteOffset": 644312,
      "target": 34962
    },
    {
      "buffer": 0,
      "byteLength": 4608,
      "byteOffset": 648920,
      "target": 34962
    },
    {
      "buffer": 0,
      "byteLength": 3072,
      "byteOffset": 653528,
      "target": 34962
    },
    {
      "buffer": 0,
      "byteLength": 1128,
      "byteOffset": 656600,
      "target": 34963
    },
    {
      "buffer": 0,
      "byteLength": 15552,
      "byteOffset": 657728,
      "target": 34962
    },
    {
      "buffer": 0,
      "byteLength": 15552,
      "byteOffset": 673280,
      "target": 34962
    },
    {
      "buffer": 0,
      "byteLength": 10368,
      "byteOffset": 688832,
      "target": 34962
    },
    {
      "buffer": 0,
      "byteLength": 10368,
      "byteOffset": 699200,
      "target": 34962
    },
    {
      "buffer": 0,
      "byteLength": 11424,
      "byteOffset": 709568,
      "target": 34963
    },
    {
      "buffer": 0,
      "byteLength": 50592,
      "byteOffset": 720992,
      "target": 34962
    },
    {
      "buffer": 0,
      "byteLength": 50592,
      "byteOffset": 771584,
      "target": 34962
    },
    {
      "buffer": 0,
      "byteLength": 33728,
      "byteOffset": 822176,
      "target": 34962
    },
    {
      "buffer": 0,
      "byteLength": 33728,
      "byteOffset": 855904,
      "target": 34962
    },
    {
      "buffer": 0,
      "byteLength": 41856,
      "byteOffset": 889632,
      "target": 34963
    },
    {
      "buffer": 0,
      "byteLength": 4428,
      "byteOffset": 931488,
      "target": 34962
    },
    {
      "buffer": 0,
      "byteLength": 4428,
      "byteOffset": 935916,
      "target": 34962
    },
    {
      "buffer": 0,
      "byteLength": 2952,
      "byteOffset": 940344,
      "target": 34962
    },
    {
      "buffer": 0,
      "byteLength": 2952,
      "byteOffset": 943296,
      "target": 34962
    },
    {
      "buffer": 0,
      "byteLength": 3840,
      "byteOffset": 946248,
      "target": 34963
    },
    {
      "buffer": 0,
      "byteLength": 1944,
      "byteOffset": 950088,
      "target": 34962
    },
    {
      "buffer": 0,
      "byteLength": 1944,
      "byteOffset": 952032,
      "target": 34962
    },
    {
      "buffer": 0,
      "byteLength": 1296,
      "byteOffset": 953976,
      "target": 34962
    },
    {
      "buffer": 0,
      "byteLength": 1296,
      "byteOffset": 955272,
      "target": 34962
    },
    {
      "buffer": 0,
      "byteLength": 936,
      "byteOffset": 956568,
      "target": 34963
    },
    {
      "buffer": 0,
      "byteLength": 4428,
      "byteOffset": 957504,
      "target": 34962
    },
    {
      "buffer": 0,
      "byteLength": 4428,
      "byteOffset": 961932,
      "target": 34962
    },
    {
      "buffer": 0,
      "byteLength": 2952,
      "byteOffset": 966360,
      "target": 34962
    },
    {
      "buffer": 0,
      "byteLength": 2952,
      "byteOffset": 969312,
      "target": 34962
    },
    {
      "buffer": 0,
      "byteLength": 18432,
      "byteOffset": 972264,
      "target": 34962
    },
    {
      "buffer": 0,
      "byteLength": 18432,
      "byteOffset": 990696,
      "target": 34962
    },
    {
      "buffer": 0,
      "byteLength": 12288,
      "byteOffset": 1009128,
      "target": 34962
    },
    {
      "buffer": 0,
      "byteLength": 12288,
      "byteOffset": 1021416,
      "target": 34962
    },
    {
      "buffer": 0,
      "byteLength": 4512,
      "byteOffset": 1033704,
      "target": 34963
    },
    {
      "buffer": 0,
      "byteLength": 9216,
      "byteOffset": 1038216,
      "target": 34962
    },
    {
      "buffer": 0,
      "byteLength": 9216,
      "byteOffset": 1047432,
      "target": 34962
    },
    {
      "buffer": 0,
      "byteLength": 6144,
      "byteOffset": 1056648,
      "target": 34962
    },
    {
      "buffer": 0,
      "byteLength": 6144,
      "byteOffset": 1062792,
      "target": 34962
    },
    {
      "buffer": 0,
      "byteLength": 2256,
      "byteOffset": 1068936,
      "target": 34963
    },
    {
      "buffer": 0,
      "byteLength": 13824,
      "byteOffset": 1071192,
      "target": 34962
    },
    {
      "buffer": 0,
      "byteLength": 13824,
      "byteOffset": 1085016,
      "target": 34962
    },
    {
      "buffer": 0,
      "byteLength": 9216,
      "byteOffset": 1098840,
      "target": 34962
    },
    {
      "buffer": 0,
      "byteLength": 3384,
      "byteOffset": 1108056,
      "target": 34963
    },
    {
      "buffer": 0,
      "byteLength": 13824,
      "byteOffset": 1111440,
      "target": 34962
    },
    {
      "buffer": 0,
      "byteLength": 13824,
      "byteOffset": 1125264,
      "target": 34962
    },
    {
      "buffer": 0,
      "byteLength": 9216,
      "byteOffset": 1139088,
      "target": 34962
    },
    {
      "buffer": 0,
      "byteLength": 3384,
      "byteOffset": 1148304,
      "target": 34963
    },
    {
      "buffer": 0,
      "byteLength": 41472,
      "byteOffset": 1151688,
      "target": 34962
    },
    {
      "buffer": 0,
      "byteLength": 41472,
      "byteOffset": 1193160,
      "target": 34962
    },
    {
      "buffer": 0,
      "byteLength": 27648,
      "byteOffset": 1234632,
      "target": 34962
    },
    {
      "buffer": 0,
      "byteLength": 10152,
      "byteOffset": 1262280,
      "target": 34963
    },
    {
      "buffer": 0,
      "byteLength": 13824,
      "byteOffset": 1272432,
      "target": 34962
    },
    {
      "buffer": 0,
      "byteLength": 13824,
      "byteOffset": 1286256,
      "target": 34962
    },
    {
      "buffer": 0,
      "byteLength": 9216,
      "byteOffset": 1300080,
      "target": 34962
    },
    {
      "buffer": 0,
      "byteLength": 3384,
      "byteOffset": 1309296,
      "target": 34963
    },
    {
      "buffer": 0,
      "byteLength": 28800,
      "byteOffset": 1312680,
      "target": 34962
    },
    {
      "buffer": 0,
      "byteLength": 28800,
      "byteOffset": 1341480,
      "target": 34962
    },
    {
      "buffer": 0,
      "byteLength": 19200,
      "byteOffset": 1370280,
      "target": 34962
    },
    {
      "buffer": 0,
      "byteLength": 19200,
      "byteOffset": 1389480,
      "target": 34962
    },
    {
      "buffer": 0,
      "byteLength": 18600,
      "byteOffset": 1408680,
      "target": 34963
    },
    {
      "buffer": 0,
      "byteLength": 56916,
      "byteOffset": 1427280,
      "target": 34962
    },
    {
      "buffer": 0,
      "byteLength": 56916,
      "byteOffset": 1484196,
      "target": 34962
    },
    {
      "buffer": 0,
      "byteLength": 37944,
      "byteOffset": 1541112,
      "target": 34962
    },
    {
      "buffer": 0,
      "byteLength": 37944,
      "byteOffset": 1579056,
      "target": 34962
    },
    {
      "buffer": 0,
      "byteLength": 37368,
      "byteOffset": 1617000,
      "target": 34963
    },
    {
      "buffer": 0,
      "byteLength": 12624,
      "byteOffset": 1654368,
      "target": 34962
    },
    {
      "buffer": 0,
      "byteLength": 12624,
      "byteOffset": 1666992,
      "target": 34962
    },
    {
      "buffer": 0,
      "byteLength": 8416,
      "byteOffset": 1679616,
      "target": 34962
    },
    {
      "buffer": 0,
      "byteLength": 8416,
      "byteOffset": 1688032,
      "target": 34962
    },
    {
      "buffer": 0,
      "byteLength": 8232,
      "byteOffset": 1696448,
      "target": 34963
    },
    {
      "buffer": 0,
      "byteLength": 3996,
      "byteOffset": 1704680,
      "target": 34962
    },
    {
      "buffer": 0,
      "byteLength": 3996,
      "byteOffset": 1708676,
      "target": 34962
    },
    {
      "buffer": 0,
      "byteLength": 2664,
      "byteOffset": 1712672,
      "target": 34962
    },
    {
      "buffer": 0,
      "byteLength": 2664,
      "byteOffset": 1715336,
      "target": 34962
    },
    {
      "buffer": 0,
      "byteLength": 3456,
      "byteOffset": 1718000,
      "target": 34963
    }
  ],
  "samplers": [
    {
      "magFilter": 9729,
      "minFilter": 9987
    }
  ],
  "buffers": [
    {
      "byteLength": 1721456,
      "uri": "MissionCameraEquipmentCargo_LOD00.bin"
    }
  ]
}
