{"accessors":[{"bufferView":0,"componentType":5126,"count":984,"min":[-0.35749998688697817,0.0,-0.16599999368190766],"max":[0.35749998688697817,0.3619999885559082,0.15000000596046449],"type":"VEC3","name":"HomebaseDuffelBag_mesh_vertices#0_POSITION"},{"bufferView":0,"byteOffset":12,"componentType":5120,"count":984,"type":"VEC4","name":"HomebaseDuffelBag_mesh_vertices#0_TANGENT"},{"bufferView":0,"byteOffset":16,"componentType":5120,"count":984,"type":"VEC4","name":"HomebaseDuffelBag_mesh_vertices#0_NORMAL"},{"bufferView":0,"byteOffset":20,"componentType":5122,"count":984,"type":"VEC2","name":"HomebaseDuffelBag_mesh_vertices#0_TEXCOORD_0"},{"bufferView":0,"byteOffset":24,"componentType":5122,"count":984,"type":"VEC2","name":"HomebaseDuffelBag_mesh_vertices#0_TEXCOORD_1"},{"bufferView":0,"byteOffset":28,"componentType":5123,"count":984,"type":"VEC4","name":"HomebaseDuffelBag_mesh_vertices#0_COLOR_0"},{"bufferView":1,"componentType":5123,"count":984,"type":"SCALAR","name":"HomebaseDuffelBag_mesh_indices#4"}],"asset":{"generator":"VFR Multitool procedural asset generator","version":"2.0","extensions":{"ASOBO_asset_optimized":{"BoundingBoxMax":[0.35749998688697817,0.3619999885559082,0.15000000596046449],"BoundingBoxMin":[-0.35749998688697817,0.0,-0.16599999368190766],"MajorVersion":4,"MinorVersion":7,"UseCheckerboardMaterialForMissingTextures":true,"UseOnlyFilenameForImageURI":true}}},"bufferViews":[{"buffer":0,"byteLength":35424,"byteStride":36,"target":34962,"name":"BufferViewVertexND"},{"buffer":0,"byteLength":1968,"byteOffset":35424,"target":34963,"name":"BufferViewIndexU16"}],"materials":[{"name":"Duffel_Stoff_Blau","doubleSided":true,"pbrMetallicRoughness":{"baseColorFactor":[0.025,0.09,0.18,1.0],"metallicFactor":0.0,"roughnessFactor":0.84}},{"name":"Duffel_Enden_Dunkel","doubleSided":true,"pbrMetallicRoughness":{"baseColorFactor":[0.035,0.045,0.05,1.0],"metallicFactor":0.08,"roughnessFactor":0.7}},{"name":"Duffel_Gurte","doubleSided":true,"pbrMetallicRoughness":{"baseColorFactor":[0.09,0.11,0.11,1.0],"metallicFactor":0.22,"roughnessFactor":0.56}},{"name":"Duffel_Zipper","doubleSided":true,"pbrMetallicRoughness":{"baseColorFactor":[0.48,0.52,0.52,1.0],"metallicFactor":0.84,"roughnessFactor":0.2}},{"name":"Duffel_Etikett_Hell","doubleSided":true,"pbrMetallicRoughness":{"baseColorFactor":[0.72,0.73,0.66,1.0],"metallicFactor":0.04,"roughnessFactor":0.54}}],"meshes":[{"primitives":[{"attributes":{"COLOR_0":5,"NORMAL":2,"POSITION":0,"TANGENT":1,"TEXCOORD_0":3,"TEXCOORD_1":4},"indices":6,"material":2,"mode":4,"extras":{"ASOBO_primitive":{"PrimitiveCount":192,"UV2Length":0.7071067690849304,"UVLength":0.7071067690849304,"VertexCount":576,"VertexType":"VTX","VertexVersion":2}}},{"attributes":{"COLOR_0":5,"NORMAL":2,"POSITION":0,"TANGENT":1,"TEXCOORD_0":3,"TEXCOORD_1":4},"indices":6,"material":3,"mode":4,"extras":{"ASOBO_primitive":{"BaseVertexIndex":576,"PrimitiveCount":28,"StartIndex":576,"UV2Length":0.7071067690849304,"UVLength":0.7071067690849304,"VertexCount":84,"VertexType":"VTX","VertexVersion":2}}},{"attributes":{"COLOR_0":5,"NORMAL":2,"POSITION":0,"TANGENT":1,"TEXCOORD_0":3,"TEXCOORD_1":4},"indices":6,"material":1,"mode":4,"extras":{"ASOBO_primitive":{"BaseVertexIndex":660,"PrimitiveCount":36,"StartIndex":660,"UV2Length":0.7071067690849304,"UVLength":0.7071067690849304,"VertexCount":108,"VertexType":"VTX","VertexVersion":2}}},{"attributes":{"COLOR_0":5,"NORMAL":2,"POSITION":0,"TANGENT":1,"TEXCOORD_0":3,"TEXCOORD_1":4},"indices":6,"material":0,"mode":4,"extras":{"ASOBO_primitive":{"BaseVertexIndex":768,"PrimitiveCount":60,"StartIndex":768,"UV2Length":0.7071067690849304,"UVLength":0.7071067690849304,"VertexCount":180,"VertexType":"VTX","VertexVersion":2}}},{"attributes":{"COLOR_0":5,"NORMAL":2,"POSITION":0,"TANGENT":1,"TEXCOORD_0":3,"TEXCOORD_1":4},"indices":6,"material":4,"mode":4,"extras":{"ASOBO_primitive":{"BaseVertexIndex":948,"PrimitiveCount":12,"StartIndex":948,"UV2Length":0.7071067690849304,"UVLength":0.7071067690849304,"VertexCount":36,"VertexType":"VTX","VertexVersion":2}}}],"name":"HomebaseDuffelBag_mesh"}],"nodes":[{"mesh":0,"name":"HomebaseDuffelBag_node"}],"scene":0,"scenes":[{"nodes":[0]}],"extensionsUsed":["ASOBO_asset_optimized"],"buffers":[{"byteLength":37392,"uri":"HomebaseDuffelBag_LOD00.bin"}]}
