{
  "asset": {
    "generator": "VFR Multitool hardcaseYellowSmall raw glTF exporter",
    "version": "2.0"
  },
  "scene": 0,
  "scenes": [
    {
      "name": "Scene",
      "nodes": [
        0,
        1,
        2
      ]
    }
  ],
  "nodes": [
    {
      "mesh": 0,
      "name": "HardcaseYellowSmallShell"
    },
    {
      "mesh": 1,
      "name": "HardcaseYellowSmallHardware"
    },
    {
      "mesh": 2,
      "name": "HardcaseYellowSmallLabel"
    }
  ],
  "materials": [
    {
      "doubleSided": true,
      "name": "HomebaseHardcaseYellowSmallPrimaryShell",
      "normalTexture": {
        "index": 0,
        "scale": 0.11999999731779099
      },
      "pbrMetallicRoughness": {
        "baseColorTexture": {
          "index": 1
        },
        "metallicFactor": 0,
        "roughnessFactor": 0.46000000834465027
      }
    },
    {
      "doubleSided": true,
      "name": "HomebaseHardcaseYellowSmallGripRubber",
      "normalTexture": {
        "index": 2,
        "scale": 0.41999998688697815
      },
      "pbrMetallicRoughness": {
        "baseColorTexture": {
          "index": 3
        },
        "metallicFactor": 0,
        "roughnessFactor": 0.7799999713897705
      }
    },
    {
      "doubleSided": true,
      "name": "HomebaseHardcaseYellowSmallDarkHardware",
      "pbrMetallicRoughness": {
        "baseColorFactor": [
          0.03500000014901161,
          0.03999999910593033,
          0.04699999839067459,
          1
        ],
        "metallicFactor": 0.5199999809265137,
        "roughnessFactor": 0.30000001192092896
      }
    },
    {
      "doubleSided": true,
      "name": "HomebaseHardcaseYellowSmallBrushedAluminium",
      "normalTexture": {
        "index": 4,
        "scale": 0.20000000298023224
      },
      "pbrMetallicRoughness": {
        "baseColorTexture": {
          "index": 5
        },
        "metallicFactor": 0.8600000143051147,
        "roughnessFactor": 0.23999999463558197
      }
    },
    {
      "doubleSided": true,
      "name": "HomebaseHardcaseYellowSmallLabel",
      "pbrMetallicRoughness": {
        "baseColorFactor": [
          0.054999999701976776,
          0.05999999865889549,
          0.06700000166893005,
          1
        ],
        "metallicFactor": 0.03999999910593033,
        "roughnessFactor": 0.5199999809265137
      }
    },
    {
      "doubleSided": true,
      "name": "HomebaseHardcaseYellowSmallMarkingWhite",
      "pbrMetallicRoughness": {
        "baseColorFactor": [
          0.8399999737739563,
          0.8600000143051147,
          0.8799999952316284,
          1
        ],
        "metallicFactor": 0.05000000074505806,
        "roughnessFactor": 0.4000000059604645
      }
    }
  ],
  "meshes": [
    {
      "name": "HardcaseYellowSmallShellMesh",
      "primitives": [
        {
          "attributes": {
            "POSITION": 0,
            "NORMAL": 1,
            "TEXCOORD_0": 2
          },
          "indices": 3,
          "material": 0
        }
      ]
    },
    {
      "name": "HardcaseYellowSmallHardwareMesh",
      "primitives": [
        {
          "attributes": {
            "POSITION": 4,
            "NORMAL": 5,
            "TEXCOORD_0": 6
          },
          "indices": 7,
          "material": 1
        },
        {
          "attributes": {
            "POSITION": 8,
            "NORMAL": 9,
            "TEXCOORD_0": 10
          },
          "indices": 11,
          "material": 2
        },
        {
          "attributes": {
            "POSITION": 12,
            "NORMAL": 13,
            "TEXCOORD_0": 14
          },
          "indices": 15,
          "material": 3
        },
        {
          "attributes": {
            "POSITION": 16,
            "NORMAL": 17,
            "TEXCOORD_0": 18
          },
          "indices": 19,
          "material": 0
        }
      ]
    },
    {
      "name": "HardcaseYellowSmallLabelMesh",
      "primitives": [
        {
          "attributes": {
            "POSITION": 20,
            "NORMAL": 21,
            "TEXCOORD_0": 22
          },
          "indices": 23,
          "material": 4
        },
        {
          "attributes": {
            "POSITION": 24,
            "NORMAL": 25,
            "TEXCOORD_0": 26
          },
          "indices": 27,
          "material": 5
        }
      ]
    }
  ],
  "textures": [
    {
      "sampler": 0,
      "source": 0
    },
    {
      "sampler": 0,
      "source": 1
    },
    {
      "sampler": 0,
      "source": 2
    },
    {
      "sampler": 0,
      "source": 3
    },
    {
      "sampler": 0,
      "source": 4
    },
    {
      "sampler": 0,
      "source": 5
    }
  ],
  "images": [
    {
      "mimeType": "image/png",
      "name": "HomebaseHardcaseYellowSmall_Primary_Normal",
      "uri": "../texture/HomebaseHardcaseYellowSmall_Primary_Normal.png"
    },
    {
      "mimeType": "image/png",
      "name": "HomebaseHardcaseYellowSmall_Primary_BaseColor",
      "uri": "../texture/HomebaseHardcaseYellowSmall_Primary_BaseColor.png"
    },
    {
      "mimeType": "image/png",
      "name": "HomebaseHardcaseYellowSmall_Rubber_Normal",
      "uri": "../texture/HomebaseHardcaseYellowSmall_Rubber_Normal.png"
    },
    {
      "mimeType": "image/png",
      "name": "HomebaseHardcaseYellowSmall_Rubber_BaseColor",
      "uri": "../texture/HomebaseHardcaseYellowSmall_Rubber_BaseColor.png"
    },
    {
      "mimeType": "image/png",
      "name": "HomebaseHardcaseYellowSmall_Metal_Normal",
      "uri": "../texture/HomebaseHardcaseYellowSmall_Metal_Normal.png"
    },
    {
      "mimeType": "image/png",
      "name": "HomebaseHardcaseYellowSmall_Metal_BaseColor",
      "uri": "../texture/HomebaseHardcaseYellowSmall_Metal_BaseColor.png"
    }
  ],
  "accessors": [
    {
      "bufferView": 0,
      "componentType": 5126,
      "count": 6850,
      "max": [
        0.12049999833106995,
        0.18000000715255737,
        0.06700000166893005
      ],
      "min": [
        -0.12049999833106995,
        0,
        -0.04500000178813934
      ],
      "type": "VEC3"
    },
    {
      "bufferView": 1,
      "componentType": 5126,
      "count": 6850,
      "type": "VEC3"
    },
    {
      "bufferView": 2,
      "componentType": 5126,
      "count": 6850,
      "type": "VEC2"
    },
    {
      "bufferView": 3,
      "componentType": 5123,
      "count": 10152,
      "type": "SCALAR"
    },
    {
      "bufferView": 4,
      "componentType": 5126,
      "count": 1251,
      "max": [
        0.08900000154972076,
        0.251779705286026,
        0.06499999761581421
      ],
      "min": [
        -0.08900000154972076,
        0.14899998903274536,
        -0.011999998241662979
      ],
      "type": "VEC3"
    },
    {
      "bufferView": 5,
      "componentType": 5126,
      "count": 1251,
      "type": "VEC3"
    },
    {
      "bufferView": 6,
      "componentType": 5126,
      "count": 1251,
      "type": "VEC2"
    },
    {
      "bufferView": 7,
      "componentType": 5123,
      "count": 2172,
      "type": "SCALAR"
    },
    {
      "bufferView": 8,
      "componentType": 5126,
      "count": 932,
      "max": [
        0.08300000429153442,
        0.18799999356269836,
        0.07600000500679016
      ],
      "min": [
        -0.08300000429153442,
        0.1495000123977661,
        -0.007999997586011887
      ],
      "type": "VEC3"
    },
    {
      "bufferView": 9,
      "componentType": 5126,
      "count": 932,
      "type": "VEC3"
    },
    {
      "bufferView": 10,
      "componentType": 5126,
      "count": 932,
      "type": "VEC2"
    },
    {
      "bufferView": 11,
      "componentType": 5123,
      "count": 1836,
      "type": "SCALAR"
    },
    {
      "bufferView": 12,
      "componentType": 5126,
      "count": 3940,
      "max": [
        0.08300000429153442,
        0.18799999356269836,
        0.07850000262260437
      ],
      "min": [
        -0.08299999684095383,
        0.1704999953508377,
        -0.00737898051738739
      ],
      "type": "VEC3"
    },
    {
      "bufferView": 13,
      "componentType": 5126,
      "count": 3940,
      "type": "VEC3"
    },
    {
      "bufferView": 14,
      "componentType": 5126,
      "count": 3940,
      "type": "VEC2"
    },
    {
      "bufferView": 15,
      "componentType": 5123,
      "count": 5904,
      "type": "SCALAR"
    },
    {
      "bufferView": 16,
      "componentType": 5126,
      "count": 264,
      "max": [
        -0.11299999803304672,
        0.15299999713897705,
        0.010000001639127731
      ],
      "min": [
        -0.1290000081062317,
        0.031999990344047546,
        -0.024000000208616257
      ],
      "type": "VEC3"
    },
    {
      "bufferView": 17,
      "componentType": 5126,
      "count": 264,
      "type": "VEC3"
    },
    {
      "bufferView": 18,
      "componentType": 5126,
      "count": 264,
      "type": "VEC2"
    },
    {
      "bufferView": 19,
      "componentType": 5123,
      "count": 720,
      "type": "SCALAR"
    },
    {
      "bufferView": 20,
      "componentType": 5126,
      "count": 356,
      "max": [
        0.04699999839067459,
        0.11499999463558197,
        0.07000000029802322
      ],
      "min": [
        -0.04699999839067459,
        0.07500000298023224,
        0.06400000303983688
      ],
      "type": "VEC3"
    },
    {
      "bufferView": 21,
      "componentType": 5126,
      "count": 356,
      "type": "VEC3"
    },
    {
      "bufferView": 22,
      "componentType": 5126,
      "count": 356,
      "type": "VEC2"
    },
    {
      "bufferView": 23,
      "componentType": 5123,
      "count": 564,
      "type": "SCALAR"
    },
    {
      "bufferView": 24,
      "componentType": 5126,
      "count": 9475,
      "max": [
        0.042236246168613434,
        0.10426241159439087,
        0.07302399724721909
      ],
      "min": [
        -0.04274044930934906,
        0.09121358394622803,
        0.07097599655389786
      ],
      "type": "VEC3"
    },
    {
      "bufferView": 25,
      "componentType": 5126,
      "count": 9475,
      "type": "VEC3"
    },
    {
      "bufferView": 26,
      "componentType": 5126,
      "count": 9475,
      "type": "VEC2"
    },
    {
      "bufferView": 27,
      "componentType": 5123,
      "count": 45816,
      "type": "SCALAR"
    }
  ],
  "bufferViews": [
    {
      "buffer": 0,
      "byteLength": 82200,
      "byteOffset": 0,
      "target": 34962
    },
    {
      "buffer": 0,
      "byteLength": 82200,
      "byteOffset": 82200,
      "target": 34962
    },
    {
      "buffer": 0,
      "byteLength": 54800,
      "byteOffset": 164400,
      "target": 34962
    },
    {
      "buffer": 0,
      "byteLength": 20304,
      "byteOffset": 219200,
      "target": 34963
    },
    {
      "buffer": 0,
      "byteLength": 15012,
      "byteOffset": 239504,
      "target": 34962
    },
    {
      "buffer": 0,
      "byteLength": 15012,
      "byteOffset": 254516,
      "target": 34962
    },
    {
      "buffer": 0,
      "byteLength": 10008,
      "byteOffset": 269528,
      "target": 34962
    },
    {
      "buffer": 0,
      "byteLength": 4344,
      "byteOffset": 279536,
      "target": 34963
    },
    {
      "buffer": 0,
      "byteLength": 11184,
      "byteOffset": 283880,
      "target": 34962
    },
    {
      "buffer": 0,
      "byteLength": 11184,
      "byteOffset": 295064,
      "target": 34962
    },
    {
      "buffer": 0,
      "byteLength": 7456,
      "byteOffset": 306248,
      "target": 34962
    },
    {
      "buffer": 0,
      "byteLength": 3672,
      "byteOffset": 313704,
      "target": 34963
    },
    {
      "buffer": 0,
      "byteLength": 47280,
      "byteOffset": 317376,
      "target": 34962
    },
    {
      "buffer": 0,
      "byteLength": 47280,
      "byteOffset": 364656,
      "target": 34962
    },
    {
      "buffer": 0,
      "byteLength": 31520,
      "byteOffset": 411936,
      "target": 34962
    },
    {
      "buffer": 0,
      "byteLength": 11808,
      "byteOffset": 443456,
      "target": 34963
    },
    {
      "buffer": 0,
      "byteLength": 3168,
      "byteOffset": 455264,
      "target": 34962
    },
    {
      "buffer": 0,
      "byteLength": 3168,
      "byteOffset": 458432,
      "target": 34962
    },
    {
      "buffer": 0,
      "byteLength": 2112,
      "byteOffset": 461600,
      "target": 34962
    },
    {
      "buffer": 0,
      "byteLength": 1440,
      "byteOffset": 463712,
      "target": 34963
    },
    {
      "buffer": 0,
      "byteLength": 4272,
      "byteOffset": 465152,
      "target": 34962
    },
    {
      "buffer": 0,
      "byteLength": 4272,
      "byteOffset": 469424,
      "target": 34962
    },
    {
      "buffer": 0,
      "byteLength": 2848,
      "byteOffset": 473696,
      "target": 34962
    },
    {
      "buffer": 0,
      "byteLength": 1128,
      "byteOffset": 476544,
      "target": 34963
    },
    {
      "buffer": 0,
      "byteLength": 113700,
      "byteOffset": 477672,
      "target": 34962
    },
    {
      "buffer": 0,
      "byteLength": 113700,
      "byteOffset": 591372,
      "target": 34962
    },
    {
      "buffer": 0,
      "byteLength": 75800,
      "byteOffset": 705072,
      "target": 34962
    },
    {
      "buffer": 0,
      "byteLength": 91632,
      "byteOffset": 780872,
      "target": 34963
    }
  ],
  "samplers": [
    {
      "magFilter": 9729,
      "minFilter": 9987
    }
  ],
  "buffers": [
    {
      "byteLength": 872504,
      "uri": "HomebaseHardcaseYellowSmall_LOD00.bin"
    }
  ]
}
