{"accessors":[{"bufferView":0,"componentType":5126,"count":864,"min":[-0.6299999952316284,0.0,-0.46000000834465029],"max":[0.6299999952316284,0.7200000286102295,0.4399999976158142],"type":"VEC3","name":"HomebaseWoodCrateLarge_mesh_vertices#0_POSITION"},{"bufferView":0,"byteOffset":12,"componentType":5120,"count":864,"type":"VEC4","name":"HomebaseWoodCrateLarge_mesh_vertices#0_TANGENT"},{"bufferView":0,"byteOffset":16,"componentType":5120,"count":864,"type":"VEC4","name":"HomebaseWoodCrateLarge_mesh_vertices#0_NORMAL"},{"bufferView":0,"byteOffset":20,"componentType":5122,"count":864,"type":"VEC2","name":"HomebaseWoodCrateLarge_mesh_vertices#0_TEXCOORD_0"},{"bufferView":0,"byteOffset":24,"componentType":5122,"count":864,"type":"VEC2","name":"HomebaseWoodCrateLarge_mesh_vertices#0_TEXCOORD_1"},{"bufferView":0,"byteOffset":28,"componentType":5123,"count":864,"type":"VEC4","name":"HomebaseWoodCrateLarge_mesh_vertices#0_COLOR_0"},{"bufferView":1,"componentType":5123,"count":864,"type":"SCALAR","name":"HomebaseWoodCrateLarge_mesh_indices#3"}],"asset":{"generator":"VFR Multitool procedural asset generator","version":"2.0","extensions":{"ASOBO_asset_optimized":{"BoundingBoxMax":[0.6299999952316284,0.7200000286102295,0.4399999976158142],"BoundingBoxMin":[-0.6299999952316284,0.0,-0.46000000834465029],"MajorVersion":4,"MinorVersion":7,"UseCheckerboardMaterialForMissingTextures":true,"UseOnlyFilenameForImageURI":true}}},"bufferViews":[{"buffer":0,"byteLength":31104,"byteStride":36,"target":34962,"name":"BufferViewVertexND"},{"buffer":0,"byteLength":1728,"byteOffset":31104,"target":34963,"name":"BufferViewIndexU16"}],"materials":[{"name":"Holzkiste_Bretter","doubleSided":true,"pbrMetallicRoughness":{"baseColorFactor":[0.38,0.18,0.06,1.0],"metallicFactor":0.02,"roughnessFactor":0.86}},{"name":"Holzkiste_Boden_Dunkel","doubleSided":true,"pbrMetallicRoughness":{"baseColorFactor":[0.19,0.08,0.025,1.0],"metallicFactor":0.02,"roughnessFactor":0.9}},{"name":"Holzkiste_Markierung","doubleSided":true,"pbrMetallicRoughness":{"baseColorFactor":[0.78,0.52,0.08,1.0],"metallicFactor":0.05,"roughnessFactor":0.58}},{"name":"Holzkiste_Markierung_Dunkel","doubleSided":true,"pbrMetallicRoughness":{"baseColorFactor":[0.07,0.045,0.018,1.0],"metallicFactor":0.05,"roughnessFactor":0.72}}],"meshes":[{"primitives":[{"attributes":{"COLOR_0":5,"NORMAL":2,"POSITION":0,"TANGENT":1,"TEXCOORD_0":3,"TEXCOORD_1":4},"indices":6,"material":0,"mode":4,"extras":{"ASOBO_primitive":{"PrimitiveCount":240,"UV2Length":0.7071067690849304,"UVLength":0.7071067690849304,"VertexCount":720,"VertexType":"VTX","VertexVersion":2}}},{"attributes":{"COLOR_0":5,"NORMAL":2,"POSITION":0,"TANGENT":1,"TEXCOORD_0":3,"TEXCOORD_1":4},"indices":6,"material":1,"mode":4,"extras":{"ASOBO_primitive":{"BaseVertexIndex":720,"PrimitiveCount":24,"StartIndex":720,"UV2Length":0.7071067690849304,"UVLength":0.7071067690849304,"VertexCount":72,"VertexType":"VTX","VertexVersion":2}}},{"attributes":{"COLOR_0":5,"NORMAL":2,"POSITION":0,"TANGENT":1,"TEXCOORD_0":3,"TEXCOORD_1":4},"indices":6,"material":2,"mode":4,"extras":{"ASOBO_primitive":{"BaseVertexIndex":792,"PrimitiveCount":12,"StartIndex":792,"UV2Length":0.7071067690849304,"UVLength":0.7071067690849304,"VertexCount":36,"VertexType":"VTX","VertexVersion":2}}},{"attributes":{"COLOR_0":5,"NORMAL":2,"POSITION":0,"TANGENT":1,"TEXCOORD_0":3,"TEXCOORD_1":4},"indices":6,"material":3,"mode":4,"extras":{"ASOBO_primitive":{"BaseVertexIndex":828,"PrimitiveCount":12,"StartIndex":828,"UV2Length":0.7071067690849304,"UVLength":0.7071067690849304,"VertexCount":36,"VertexType":"VTX","VertexVersion":2}}}],"name":"HomebaseWoodCrateLarge_mesh"}],"nodes":[{"mesh":0,"name":"HomebaseWoodCrateLarge_node"}],"scene":0,"scenes":[{"nodes":[0]}],"extensionsUsed":["ASOBO_asset_optimized"],"buffers":[{"byteLength":32832,"uri":"HomebaseWoodCrateLarge_LOD00.bin"}]}
