{
  "asset": {
    "version": "2.0",
    "generator": "VFR Multitool procedural asset generator"
  },
  "buffers": [
    {
      "byteLength": 223176,
      "uri": "HomebaseAssetShelf_LOD00.bin"
    }
  ],
  "bufferViews": [
    {
      "buffer": 0,
      "byteOffset": 0,
      "byteLength": 4320,
      "target": 34962
    },
    {
      "buffer": 0,
      "byteOffset": 4320,
      "byteLength": 4320,
      "target": 34962
    },
    {
      "buffer": 0,
      "byteOffset": 8640,
      "byteLength": 2880,
      "target": 34962
    },
    {
      "buffer": 0,
      "byteOffset": 11520,
      "byteLength": 720,
      "target": 34963
    },
    {
      "buffer": 0,
      "byteOffset": 12240,
      "byteLength": 1728,
      "target": 34962
    },
    {
      "buffer": 0,
      "byteOffset": 13968,
      "byteLength": 1728,
      "target": 34962
    },
    {
      "buffer": 0,
      "byteOffset": 15696,
      "byteLength": 1152,
      "target": 34962
    },
    {
      "buffer": 0,
      "byteOffset": 16848,
      "byteLength": 288,
      "target": 34963
    },
    {
      "buffer": 0,
      "byteOffset": 17136,
      "byteLength": 10080,
      "target": 34962
    },
    {
      "buffer": 0,
      "byteOffset": 27216,
      "byteLength": 10080,
      "target": 34962
    },
    {
      "buffer": 0,
      "byteOffset": 37296,
      "byteLength": 6720,
      "target": 34962
    },
    {
      "buffer": 0,
      "byteOffset": 44016,
      "byteLength": 1680,
      "target": 34963
    },
    {
      "buffer": 0,
      "byteOffset": 45696,
      "byteLength": 2016,
      "target": 34962
    },
    {
      "buffer": 0,
      "byteOffset": 47712,
      "byteLength": 2016,
      "target": 34962
    },
    {
      "buffer": 0,
      "byteOffset": 49728,
      "byteLength": 1344,
      "target": 34962
    },
    {
      "buffer": 0,
      "byteOffset": 51072,
      "byteLength": 336,
      "target": 34963
    },
    {
      "buffer": 0,
      "byteOffset": 51408,
      "byteLength": 2016,
      "target": 34962
    },
    {
      "buffer": 0,
      "byteOffset": 53424,
      "byteLength": 2016,
      "target": 34962
    },
    {
      "buffer": 0,
      "byteOffset": 55440,
      "byteLength": 1344,
      "target": 34962
    },
    {
      "buffer": 0,
      "byteOffset": 56784,
      "byteLength": 336,
      "target": 34963
    },
    {
      "buffer": 0,
      "byteOffset": 57120,
      "byteLength": 23616,
      "target": 34962
    },
    {
      "buffer": 0,
      "byteOffset": 80736,
      "byteLength": 23616,
      "target": 34962
    },
    {
      "buffer": 0,
      "byteOffset": 104352,
      "byteLength": 15744,
      "target": 34962
    },
    {
      "buffer": 0,
      "byteOffset": 120096,
      "byteLength": 3936,
      "target": 34963
    },
    {
      "buffer": 0,
      "byteOffset": 124032,
      "byteLength": 864,
      "target": 34962
    },
    {
      "buffer": 0,
      "byteOffset": 124896,
      "byteLength": 864,
      "target": 34962
    },
    {
      "buffer": 0,
      "byteOffset": 125760,
      "byteLength": 576,
      "target": 34962
    },
    {
      "buffer": 0,
      "byteOffset": 126336,
      "byteLength": 144,
      "target": 34963
    },
    {
      "buffer": 0,
      "byteOffset": 126480,
      "byteLength": 432,
      "target": 34962
    },
    {
      "buffer": 0,
      "byteOffset": 126912,
      "byteLength": 432,
      "target": 34962
    },
    {
      "buffer": 0,
      "byteOffset": 127344,
      "byteLength": 288,
      "target": 34962
    },
    {
      "buffer": 0,
      "byteOffset": 127632,
      "byteLength": 72,
      "target": 34963
    },
    {
      "buffer": 0,
      "byteOffset": 127704,
      "byteLength": 3888,
      "target": 34962
    },
    {
      "buffer": 0,
      "byteOffset": 131592,
      "byteLength": 3888,
      "target": 34962
    },
    {
      "buffer": 0,
      "byteOffset": 135480,
      "byteLength": 2592,
      "target": 34962
    },
    {
      "buffer": 0,
      "byteOffset": 138072,
      "byteLength": 648,
      "target": 34963
    },
    {
      "buffer": 0,
      "byteOffset": 138720,
      "byteLength": 2016,
      "target": 34962
    },
    {
      "buffer": 0,
      "byteOffset": 140736,
      "byteLength": 2016,
      "target": 34962
    },
    {
      "buffer": 0,
      "byteOffset": 142752,
      "byteLength": 1344,
      "target": 34962
    },
    {
      "buffer": 0,
      "byteOffset": 144096,
      "byteLength": 336,
      "target": 34963
    },
    {
      "buffer": 0,
      "byteOffset": 144432,
      "byteLength": 9216,
      "target": 34962
    },
    {
      "buffer": 0,
      "byteOffset": 153648,
      "byteLength": 9216,
      "target": 34962
    },
    {
      "buffer": 0,
      "byteOffset": 162864,
      "byteLength": 6144,
      "target": 34962
    },
    {
      "buffer": 0,
      "byteOffset": 169008,
      "byteLength": 1536,
      "target": 34963
    },
    {
      "buffer": 0,
      "byteOffset": 170544,
      "byteLength": 432,
      "target": 34962
    },
    {
      "buffer": 0,
      "byteOffset": 170976,
      "byteLength": 432,
      "target": 34962
    },
    {
      "buffer": 0,
      "byteOffset": 171408,
      "byteLength": 288,
      "target": 34962
    },
    {
      "buffer": 0,
      "byteOffset": 171696,
      "byteLength": 72,
      "target": 34963
    },
    {
      "buffer": 0,
      "byteOffset": 171768,
      "byteLength": 432,
      "target": 34962
    },
    {
      "buffer": 0,
      "byteOffset": 172200,
      "byteLength": 432,
      "target": 34962
    },
    {
      "buffer": 0,
      "byteOffset": 172632,
      "byteLength": 288,
      "target": 34962
    },
    {
      "buffer": 0,
      "byteOffset": 172920,
      "byteLength": 72,
      "target": 34963
    },
    {
      "buffer": 0,
      "byteOffset": 172992,
      "byteLength": 864,
      "target": 34962
    },
    {
      "buffer": 0,
      "byteOffset": 173856,
      "byteLength": 864,
      "target": 34962
    },
    {
      "buffer": 0,
      "byteOffset": 174720,
      "byteLength": 576,
      "target": 34962
    },
    {
      "buffer": 0,
      "byteOffset": 175296,
      "byteLength": 144,
      "target": 34963
    },
    {
      "buffer": 0,
      "byteOffset": 175440,
      "byteLength": 1728,
      "target": 34962
    },
    {
      "buffer": 0,
      "byteOffset": 177168,
      "byteLength": 1728,
      "target": 34962
    },
    {
      "buffer": 0,
      "byteOffset": 178896,
      "byteLength": 1152,
      "target": 34962
    },
    {
      "buffer": 0,
      "byteOffset": 180048,
      "byteLength": 288,
      "target": 34963
    },
    {
      "buffer": 0,
      "byteOffset": 180336,
      "byteLength": 432,
      "target": 34962
    },
    {
      "buffer": 0,
      "byteOffset": 180768,
      "byteLength": 432,
      "target": 34962
    },
    {
      "buffer": 0,
      "byteOffset": 181200,
      "byteLength": 288,
      "target": 34962
    },
    {
      "buffer": 0,
      "byteOffset": 181488,
      "byteLength": 72,
      "target": 34963
    },
    {
      "buffer": 0,
      "byteOffset": 181560,
      "byteLength": 4320,
      "target": 34962
    },
    {
      "buffer": 0,
      "byteOffset": 185880,
      "byteLength": 4320,
      "target": 34962
    },
    {
      "buffer": 0,
      "byteOffset": 190200,
      "byteLength": 2880,
      "target": 34962
    },
    {
      "buffer": 0,
      "byteOffset": 193080,
      "byteLength": 720,
      "target": 34963
    },
    {
      "buffer": 0,
      "byteOffset": 193800,
      "byteLength": 6912,
      "target": 34962
    },
    {
      "buffer": 0,
      "byteOffset": 200712,
      "byteLength": 6912,
      "target": 34962
    },
    {
      "buffer": 0,
      "byteOffset": 207624,
      "byteLength": 4608,
      "target": 34962
    },
    {
      "buffer": 0,
      "byteOffset": 212232,
      "byteLength": 1152,
      "target": 34963
    },
    {
      "buffer": 0,
      "byteOffset": 213384,
      "byteLength": 3456,
      "target": 34962
    },
    {
      "buffer": 0,
      "byteOffset": 216840,
      "byteLength": 3456,
      "target": 34962
    },
    {
      "buffer": 0,
      "byteOffset": 220296,
      "byteLength": 2304,
      "target": 34962
    },
    {
      "buffer": 0,
      "byteOffset": 222600,
      "byteLength": 576,
      "target": 34963
    }
  ],
  "accessors": [
    {
      "bufferView": 0,
      "componentType": 5126,
      "count": 360,
      "min": [
        -0.91,
        0,
        -0.34
      ],
      "max": [
        0.91,
        2.24,
        0.34
      ],
      "type": "VEC3"
    },
    {
      "bufferView": 1,
      "componentType": 5126,
      "count": 360,
      "type": "VEC3"
    },
    {
      "bufferView": 2,
      "componentType": 5126,
      "count": 360,
      "type": "VEC2"
    },
    {
      "bufferView": 3,
      "componentType": 5123,
      "count": 360,
      "type": "SCALAR"
    },
    {
      "bufferView": 4,
      "componentType": 5126,
      "count": 144,
      "min": [
        -0.86,
        0.08499999999999999,
        -0.31
      ],
      "max": [
        0.86,
        2.2150000000000003,
        0.31
      ],
      "type": "VEC3"
    },
    {
      "bufferView": 5,
      "componentType": 5126,
      "count": 144,
      "type": "VEC3"
    },
    {
      "bufferView": 6,
      "componentType": 5126,
      "count": 144,
      "type": "VEC2"
    },
    {
      "bufferView": 7,
      "componentType": 5123,
      "count": 144,
      "type": "SCALAR"
    },
    {
      "bufferView": 8,
      "componentType": 5126,
      "count": 840,
      "min": [
        -0.9299999999999999,
        0,
        -0.374
      ],
      "max": [
        0.9299999999999999,
        2.257,
        0.37
      ],
      "type": "VEC3"
    },
    {
      "bufferView": 9,
      "componentType": 5126,
      "count": 840,
      "type": "VEC3"
    },
    {
      "bufferView": 10,
      "componentType": 5126,
      "count": 840,
      "type": "VEC2"
    },
    {
      "bufferView": 11,
      "componentType": 5123,
      "count": 840,
      "type": "SCALAR"
    },
    {
      "bufferView": 12,
      "componentType": 5126,
      "count": 168,
      "min": [
        -0.714734861558183,
        0.2,
        -0.28
      ],
      "max": [
        -0.305265138441817,
        0.56,
        0.13999999999999999
      ],
      "type": "VEC3"
    },
    {
      "bufferView": 13,
      "componentType": 5126,
      "count": 168,
      "type": "VEC3"
    },
    {
      "bufferView": 14,
      "componentType": 5126,
      "count": 168,
      "type": "VEC2"
    },
    {
      "bufferView": 15,
      "componentType": 5123,
      "count": 168,
      "type": "SCALAR"
    },
    {
      "bufferView": 16,
      "componentType": 5126,
      "count": 168,
      "min": [
        -0.714734861558183,
        0.9099999999999999,
        -0.27
      ],
      "max": [
        -0.305265138441817,
        1.27,
        0.15
      ],
      "type": "VEC3"
    },
    {
      "bufferView": 17,
      "componentType": 5126,
      "count": 168,
      "type": "VEC3"
    },
    {
      "bufferView": 18,
      "componentType": 5126,
      "count": 168,
      "type": "VEC2"
    },
    {
      "bufferView": 19,
      "componentType": 5123,
      "count": 168,
      "type": "SCALAR"
    },
    {
      "bufferView": 20,
      "componentType": 5126,
      "count": 1968,
      "min": [
        -0.767197440271817,
        0.21500000000000002,
        -0.29500000000000004
      ],
      "max": [
        -0.252802559728183,
        1.5522250301553675,
        0.165
      ],
      "type": "VEC3"
    },
    {
      "bufferView": 21,
      "componentType": 5126,
      "count": 1968,
      "type": "VEC3"
    },
    {
      "bufferView": 22,
      "componentType": 5126,
      "count": 1968,
      "type": "VEC2"
    },
    {
      "bufferView": 23,
      "componentType": 5123,
      "count": 1968,
      "type": "SCALAR"
    },
    {
      "bufferView": 24,
      "componentType": 5126,
      "count": 72,
      "min": [
        0,
        0.15999999999999998,
        -0.15
      ],
      "max": [
        0.6599999999999999,
        1.85,
        0.27
      ],
      "type": "VEC3"
    },
    {
      "bufferView": 25,
      "componentType": 5126,
      "count": 72,
      "type": "VEC3"
    },
    {
      "bufferView": 26,
      "componentType": 5126,
      "count": 72,
      "type": "VEC2"
    },
    {
      "bufferView": 27,
      "componentType": 5123,
      "count": 72,
      "type": "SCALAR"
    },
    {
      "bufferView": 28,
      "componentType": 5126,
      "count": 36,
      "min": [
        0.39999999999999997,
        1.58,
        -0.15000000000000002
      ],
      "max": [
        0.78,
        1.94,
        0.25
      ],
      "type": "VEC3"
    },
    {
      "bufferView": 29,
      "componentType": 5126,
      "count": 36,
      "type": "VEC3"
    },
    {
      "bufferView": 30,
      "componentType": 5126,
      "count": 36,
      "type": "VEC2"
    },
    {
      "bufferView": 31,
      "componentType": 5123,
      "count": 36,
      "type": "SCALAR"
    },
    {
      "bufferView": 32,
      "componentType": 5126,
      "count": 324,
      "min": [
        -0.58,
        0.52,
        -0.211
      ],
      "max": [
        0.7875,
        1.9549999999999998,
        0.27749999999999997
      ],
      "type": "VEC3"
    },
    {
      "bufferView": 33,
      "componentType": 5126,
      "count": 324,
      "type": "VEC3"
    },
    {
      "bufferView": 34,
      "componentType": 5126,
      "count": 324,
      "type": "VEC2"
    },
    {
      "bufferView": 35,
      "componentType": 5123,
      "count": 324,
      "type": "SCALAR"
    },
    {
      "bufferView": 36,
      "componentType": 5126,
      "count": 168,
      "min": [
        -0.19136454726636443,
        0.2,
        -0.265
      ],
      "max": [
        0.09136454726636441,
        0.48,
        0.024999999999999994
      ],
      "type": "VEC3"
    },
    {
      "bufferView": 37,
      "componentType": 5126,
      "count": 168,
      "type": "VEC3"
    },
    {
      "bufferView": 38,
      "componentType": 5126,
      "count": 168,
      "type": "VEC2"
    },
    {
      "bufferView": 39,
      "componentType": 5123,
      "count": 168,
      "type": "SCALAR"
    },
    {
      "bufferView": 40,
      "componentType": 5126,
      "count": 768,
      "min": [
        -0.2211973940118587,
        0.37579789688544607,
        -0.275
      ],
      "max": [
        0.48013663083952285,
        0.7183051064754326,
        0.041999999999999996
      ],
      "type": "VEC3"
    },
    {
      "bufferView": 41,
      "componentType": 5126,
      "count": 768,
      "type": "VEC3"
    },
    {
      "bufferView": 42,
      "componentType": 5126,
      "count": 768,
      "type": "VEC2"
    },
    {
      "bufferView": 43,
      "componentType": 5123,
      "count": 768,
      "type": "SCALAR"
    },
    {
      "bufferView": 44,
      "componentType": 5126,
      "count": 36,
      "min": [
        -0.135,
        0.27,
        -0.276
      ],
      "max": [
        0.035,
        0.39,
        -0.264
      ],
      "type": "VEC3"
    },
    {
      "bufferView": 45,
      "componentType": 5126,
      "count": 36,
      "type": "VEC3"
    },
    {
      "bufferView": 46,
      "componentType": 5126,
      "count": 36,
      "type": "VEC2"
    },
    {
      "bufferView": 47,
      "componentType": 5123,
      "count": 36,
      "type": "SCALAR"
    },
    {
      "bufferView": 48,
      "componentType": 5126,
      "count": 36,
      "min": [
        0.030000000000000027,
        1.8499999999999999,
        -0.3575
      ],
      "max": [
        0.53,
        1.99,
        -0.33249999999999996
      ],
      "type": "VEC3"
    },
    {
      "bufferView": 49,
      "componentType": 5126,
      "count": 36,
      "type": "VEC3"
    },
    {
      "bufferView": 50,
      "componentType": 5126,
      "count": 36,
      "type": "VEC2"
    },
    {
      "bufferView": 51,
      "componentType": 5123,
      "count": 36,
      "type": "SCALAR"
    },
    {
      "bufferView": 52,
      "componentType": 5126,
      "count": 72,
      "min": [
        -0.17,
        0.88,
        -0.21250000000000002
      ],
      "max": [
        0.17,
        1.155,
        0.13
      ],
      "type": "VEC3"
    },
    {
      "bufferView": 53,
      "componentType": 5126,
      "count": 72,
      "type": "VEC3"
    },
    {
      "bufferView": 54,
      "componentType": 5126,
      "count": 72,
      "type": "VEC2"
    },
    {
      "bufferView": 55,
      "componentType": 5123,
      "count": 72,
      "type": "SCALAR"
    },
    {
      "bufferView": 56,
      "componentType": 5126,
      "count": 144,
      "min": [
        -0.67,
        0.88,
        -0.21250000000000002
      ],
      "max": [
        0.59,
        1.8650000000000002,
        0.13
      ],
      "type": "VEC3"
    },
    {
      "bufferView": 57,
      "componentType": 5126,
      "count": 144,
      "type": "VEC3"
    },
    {
      "bufferView": 58,
      "componentType": 5126,
      "count": 144,
      "type": "VEC2"
    },
    {
      "bufferView": 59,
      "componentType": 5123,
      "count": 144,
      "type": "SCALAR"
    },
    {
      "bufferView": 60,
      "componentType": 5126,
      "count": 36,
      "min": [
        -0.19000000000000003,
        1.5699999999999998,
        -0.21
      ],
      "max": [
        0.37,
        1.85,
        0.17
      ],
      "type": "VEC3"
    },
    {
      "bufferView": 61,
      "componentType": 5126,
      "count": 36,
      "type": "VEC3"
    },
    {
      "bufferView": 62,
      "componentType": 5126,
      "count": 36,
      "type": "VEC2"
    },
    {
      "bufferView": 63,
      "componentType": 5123,
      "count": 36,
      "type": "SCALAR"
    },
    {
      "bufferView": 64,
      "componentType": 5126,
      "count": 360,
      "min": [
        -0.135,
        1.68,
        -0.23249999999999998
      ],
      "max": [
        0.31500000000000006,
        1.9975487024192728,
        0.038
      ],
      "type": "VEC3"
    },
    {
      "bufferView": 65,
      "componentType": 5126,
      "count": 360,
      "type": "VEC3"
    },
    {
      "bufferView": 66,
      "componentType": 5126,
      "count": 360,
      "type": "VEC2"
    },
    {
      "bufferView": 67,
      "componentType": 5123,
      "count": 360,
      "type": "SCALAR"
    },
    {
      "bufferView": 68,
      "componentType": 5126,
      "count": 576,
      "min": [
        -0.6150000000000001,
        2.22,
        -0.11499999999999999
      ],
      "max": [
        -0.165,
        2.58,
        -0.0049999999999999975
      ],
      "type": "VEC3"
    },
    {
      "bufferView": 69,
      "componentType": 5126,
      "count": 576,
      "type": "VEC3"
    },
    {
      "bufferView": 70,
      "componentType": 5126,
      "count": 576,
      "type": "VEC2"
    },
    {
      "bufferView": 71,
      "componentType": 5123,
      "count": 576,
      "type": "SCALAR"
    },
    {
      "bufferView": 72,
      "componentType": 5126,
      "count": 288,
      "min": [
        -0.6070000000000001,
        2.52,
        -0.107
      ],
      "max": [
        -0.343,
        2.58,
        -0.012999999999999998
      ],
      "type": "VEC3"
    },
    {
      "bufferView": 73,
      "componentType": 5126,
      "count": 288,
      "type": "VEC3"
    },
    {
      "bufferView": 74,
      "componentType": 5126,
      "count": 288,
      "type": "VEC2"
    },
    {
      "bufferView": 75,
      "componentType": 5123,
      "count": 288,
      "type": "SCALAR"
    }
  ],
  "materials": [
    {
      "doubleSided": true,
      "name": "Regal_Rahmen_Anthrazit",
      "pbrMetallicRoughness": {
        "baseColorFactor": [
          0.045,
          0.06,
          0.065,
          1
        ],
        "metallicFactor": 0.8,
        "roughnessFactor": 0.3
      }
    },
    {
      "doubleSided": true,
      "name": "Regal_Bretter_Warmholz",
      "pbrMetallicRoughness": {
        "baseColorFactor": [
          0.3,
          0.15,
          0.055,
          1
        ],
        "metallicFactor": 0.04,
        "roughnessFactor": 0.7
      }
    },
    {
      "doubleSided": true,
      "name": "Regal_Kanten_Verzinkt",
      "pbrMetallicRoughness": {
        "baseColorFactor": [
          0.48,
          0.53,
          0.54,
          1
        ],
        "metallicFactor": 0.88,
        "roughnessFactor": 0.24
      }
    },
    {
      "doubleSided": true,
      "name": "Eimer_Blau",
      "pbrMetallicRoughness": {
        "baseColorFactor": [
          0.025,
          0.16,
          0.25,
          1
        ],
        "metallicFactor": 0.18,
        "roughnessFactor": 0.48
      }
    },
    {
      "doubleSided": true,
      "name": "Eimer_Gelb",
      "pbrMetallicRoughness": {
        "baseColorFactor": [
          0.78,
          0.42,
          0.025,
          1
        ],
        "metallicFactor": 0.12,
        "roughnessFactor": 0.5
      }
    },
    {
      "doubleSided": true,
      "name": "Eimer_Buegel",
      "pbrMetallicRoughness": {
        "baseColorFactor": [
          0.11,
          0.13,
          0.13,
          1
        ],
        "metallicFactor": 0.82,
        "roughnessFactor": 0.28
      }
    },
    {
      "doubleSided": true,
      "name": "Kartons_Hell",
      "pbrMetallicRoughness": {
        "baseColorFactor": [
          0.61,
          0.37,
          0.17,
          1
        ],
        "metallicFactor": 0,
        "roughnessFactor": 0.84
      }
    },
    {
      "doubleSided": true,
      "name": "Kartons_Dunkel",
      "pbrMetallicRoughness": {
        "baseColorFactor": [
          0.4,
          0.2,
          0.075,
          1
        ],
        "metallicFactor": 0,
        "roughnessFactor": 0.86
      }
    },
    {
      "doubleSided": true,
      "name": "Kartons_Klebeband",
      "pbrMetallicRoughness": {
        "baseColorFactor": [
          0.86,
          0.67,
          0.19,
          1
        ],
        "metallicFactor": 0,
        "roughnessFactor": 0.62
      }
    },
    {
      "doubleSided": true,
      "name": "Oelkanne_Rot",
      "pbrMetallicRoughness": {
        "baseColorFactor": [
          0.62,
          0.035,
          0.022,
          1
        ],
        "metallicFactor": 0.38,
        "roughnessFactor": 0.42
      }
    },
    {
      "doubleSided": true,
      "name": "Oelkanne_Metall",
      "pbrMetallicRoughness": {
        "baseColorFactor": [
          0.12,
          0.14,
          0.14,
          1
        ],
        "metallicFactor": 0.86,
        "roughnessFactor": 0.24
      }
    },
    {
      "doubleSided": true,
      "name": "Oelkanne_Etikett",
      "pbrMetallicRoughness": {
        "baseColorFactor": [
          0.92,
          0.76,
          0.17,
          1
        ],
        "metallicFactor": 0.05,
        "roughnessFactor": 0.56
      }
    },
    {
      "doubleSided": true,
      "name": "Regal_Schild",
      "pbrMetallicRoughness": {
        "baseColorFactor": [
          0.88,
          0.68,
          0.12,
          1
        ],
        "metallicFactor": 0.12,
        "roughnessFactor": 0.48
      }
    },
    {
      "doubleSided": true,
      "name": "Teilebox_Gruen",
      "pbrMetallicRoughness": {
        "baseColorFactor": [
          0.035,
          0.3,
          0.18,
          1
        ],
        "metallicFactor": 0.16,
        "roughnessFactor": 0.5
      }
    },
    {
      "doubleSided": true,
      "name": "Teilebox_Blau",
      "pbrMetallicRoughness": {
        "baseColorFactor": [
          0.025,
          0.12,
          0.32,
          1
        ],
        "metallicFactor": 0.2,
        "roughnessFactor": 0.46
      }
    },
    {
      "doubleSided": true,
      "name": "Werkzeugkoffer_Schwarz",
      "pbrMetallicRoughness": {
        "baseColorFactor": [
          0.025,
          0.03,
          0.032,
          1
        ],
        "metallicFactor": 0.3,
        "roughnessFactor": 0.34
      }
    },
    {
      "doubleSided": true,
      "name": "Werkzeugkoffer_Verschluss",
      "pbrMetallicRoughness": {
        "baseColorFactor": [
          0.72,
          0.74,
          0.69,
          1
        ],
        "metallicFactor": 0.85,
        "roughnessFactor": 0.22
      }
    },
    {
      "doubleSided": true,
      "name": "Spraydose_Silber",
      "pbrMetallicRoughness": {
        "baseColorFactor": [
          0.52,
          0.56,
          0.57,
          1
        ],
        "metallicFactor": 0.75,
        "roughnessFactor": 0.25
      }
    },
    {
      "doubleSided": true,
      "name": "Spraydose_Kappe_Rot",
      "pbrMetallicRoughness": {
        "baseColorFactor": [
          0.55,
          0.025,
          0.02,
          1
        ],
        "metallicFactor": 0.3,
        "roughnessFactor": 0.38
      }
    }
  ],
  "meshes": [
    {
      "name": "HomebaseAssetShelf_mesh",
      "primitives": [
        {
          "attributes": {
            "POSITION": 0,
            "NORMAL": 1,
            "TEXCOORD_0": 2
          },
          "indices": 3,
          "material": 0,
          "mode": 4
        },
        {
          "attributes": {
            "POSITION": 4,
            "NORMAL": 5,
            "TEXCOORD_0": 6
          },
          "indices": 7,
          "material": 1,
          "mode": 4
        },
        {
          "attributes": {
            "POSITION": 8,
            "NORMAL": 9,
            "TEXCOORD_0": 10
          },
          "indices": 11,
          "material": 2,
          "mode": 4
        },
        {
          "attributes": {
            "POSITION": 12,
            "NORMAL": 13,
            "TEXCOORD_0": 14
          },
          "indices": 15,
          "material": 3,
          "mode": 4
        },
        {
          "attributes": {
            "POSITION": 16,
            "NORMAL": 17,
            "TEXCOORD_0": 18
          },
          "indices": 19,
          "material": 4,
          "mode": 4
        },
        {
          "attributes": {
            "POSITION": 20,
            "NORMAL": 21,
            "TEXCOORD_0": 22
          },
          "indices": 23,
          "material": 5,
          "mode": 4
        },
        {
          "attributes": {
            "POSITION": 24,
            "NORMAL": 25,
            "TEXCOORD_0": 26
          },
          "indices": 27,
          "material": 6,
          "mode": 4
        },
        {
          "attributes": {
            "POSITION": 28,
            "NORMAL": 29,
            "TEXCOORD_0": 30
          },
          "indices": 31,
          "material": 7,
          "mode": 4
        },
        {
          "attributes": {
            "POSITION": 32,
            "NORMAL": 33,
            "TEXCOORD_0": 34
          },
          "indices": 35,
          "material": 8,
          "mode": 4
        },
        {
          "attributes": {
            "POSITION": 36,
            "NORMAL": 37,
            "TEXCOORD_0": 38
          },
          "indices": 39,
          "material": 9,
          "mode": 4
        },
        {
          "attributes": {
            "POSITION": 40,
            "NORMAL": 41,
            "TEXCOORD_0": 42
          },
          "indices": 43,
          "material": 10,
          "mode": 4
        },
        {
          "attributes": {
            "POSITION": 44,
            "NORMAL": 45,
            "TEXCOORD_0": 46
          },
          "indices": 47,
          "material": 11,
          "mode": 4
        },
        {
          "attributes": {
            "POSITION": 48,
            "NORMAL": 49,
            "TEXCOORD_0": 50
          },
          "indices": 51,
          "material": 12,
          "mode": 4
        },
        {
          "attributes": {
            "POSITION": 52,
            "NORMAL": 53,
            "TEXCOORD_0": 54
          },
          "indices": 55,
          "material": 13,
          "mode": 4
        },
        {
          "attributes": {
            "POSITION": 56,
            "NORMAL": 57,
            "TEXCOORD_0": 58
          },
          "indices": 59,
          "material": 14,
          "mode": 4
        },
        {
          "attributes": {
            "POSITION": 60,
            "NORMAL": 61,
            "TEXCOORD_0": 62
          },
          "indices": 63,
          "material": 15,
          "mode": 4
        },
        {
          "attributes": {
            "POSITION": 64,
            "NORMAL": 65,
            "TEXCOORD_0": 66
          },
          "indices": 67,
          "material": 16,
          "mode": 4
        },
        {
          "attributes": {
            "POSITION": 68,
            "NORMAL": 69,
            "TEXCOORD_0": 70
          },
          "indices": 71,
          "material": 17,
          "mode": 4
        },
        {
          "attributes": {
            "POSITION": 72,
            "NORMAL": 73,
            "TEXCOORD_0": 74
          },
          "indices": 75,
          "material": 18,
          "mode": 4
        }
      ]
    }
  ],
  "nodes": [
    {
      "mesh": 0,
      "name": "HomebaseAssetShelf_node"
    }
  ],
  "scenes": [
    {
      "nodes": [
        0
      ]
    }
  ],
  "scene": 0
}
