{"accessors":[{"bufferView":0,"componentType":5126,"count":2760,"min":[-9.0,0.0,-11.0],"max":[9.0,2.5899999141693117,11.0],"type":"VEC3","name":"HomebaseOpenParking_mesh_vertices#0_POSITION"},{"bufferView":0,"byteOffset":12,"componentType":5120,"count":2760,"type":"VEC4","name":"HomebaseOpenParking_mesh_vertices#0_TANGENT"},{"bufferView":0,"byteOffset":16,"componentType":5120,"count":2760,"type":"VEC4","name":"HomebaseOpenParking_mesh_vertices#0_NORMAL"},{"bufferView":0,"byteOffset":20,"componentType":5122,"count":2760,"type":"VEC2","name":"HomebaseOpenParking_mesh_vertices#0_TEXCOORD_0"},{"bufferView":0,"byteOffset":24,"componentType":5122,"count":2760,"type":"VEC2","name":"HomebaseOpenParking_mesh_vertices#0_TEXCOORD_1"},{"bufferView":0,"byteOffset":28,"componentType":5123,"count":2760,"type":"VEC4","name":"HomebaseOpenParking_mesh_vertices#0_COLOR_0"},{"bufferView":1,"componentType":5123,"count":2760,"type":"SCALAR","name":"HomebaseOpenParking_mesh_indices#11"}],"asset":{"generator":"VFR Multitool procedural asset generator","version":"2.0","extensions":{"ASOBO_asset_optimized":{"BoundingBoxMax":[9.0,2.5899999141693117,11.0],"BoundingBoxMin":[-9.0,0.0,-11.0],"MajorVersion":4,"MinorVersion":7,"UseCheckerboardMaterialForMissingTextures":true,"UseOnlyFilenameForImageURI":true}}},"bufferViews":[{"buffer":0,"byteLength":99360,"byteStride":36,"target":34962,"name":"BufferViewVertexND"},{"buffer":0,"byteLength":5520,"byteOffset":99360,"target":34963,"name":"BufferViewIndexU16"}],"materials":[{"name":"Parkplatz_Leitkegel_Orange","doubleSided":true,"pbrMetallicRoughness":{"baseColorFactor":[0.92,0.18,0.015,1.0],"metallicFactor":0.0,"roughnessFactor":0.62}},{"name":"Parkplatz_Leitkegel_Weiss","doubleSided":true,"pbrMetallicRoughness":{"baseColorFactor":[0.9,0.9,0.84,1.0],"metallicFactor":0.05,"roughnessFactor":0.42}},{"name":"Parkplatz_Leitkegel_Fuss","doubleSided":true,"pbrMetallicRoughness":{"baseColorFactor":[0.035,0.04,0.04,1.0],"metallicFactor":0.05,"roughnessFactor":0.82}},{"name":"Absperrband_Rot","doubleSided":true,"pbrMetallicRoughness":{"baseColorFactor":[0.78,0.025,0.018,1.0],"metallicFactor":0.0,"roughnessFactor":0.58}},{"name":"Absperrband_Weiss","doubleSided":true,"pbrMetallicRoughness":{"baseColorFactor":[0.94,0.92,0.82,1.0],"metallicFactor":0.0,"roughnessFactor":0.58}},{"name":"Buerocontainer_Aussen_Blau","doubleSided":true,"pbrMetallicRoughness":{"baseColorFactor":[0.055,0.19,0.29,1.0],"metallicFactor":0.55,"roughnessFactor":0.42}},{"name":"Buerocontainer_Innen_Hellgrau","doubleSided":true,"pbrMetallicRoughness":{"baseColorFactor":[0.68,0.7,0.69,1.0],"metallicFactor":0.05,"roughnessFactor":0.76}},{"name":"Buerocontainer_Rahmen_Dunkel","doubleSided":true,"pbrMetallicRoughness":{"baseColorFactor":[0.08,0.095,0.105,1.0],"metallicFactor":0.72,"roughnessFactor":0.3}},{"name":"Buerocontainer_Fenster","doubleSided":true,"pbrMetallicRoughness":{"baseColorFactor":[0.16,0.39,0.5,1.0],"metallicFactor":0.08,"roughnessFactor":0.16}},{"name":"Buerocontainer_Boden","doubleSided":true,"pbrMetallicRoughness":{"baseColorFactor":[0.19,0.16,0.12,1.0],"metallicFactor":0.0,"roughnessFactor":0.68}},{"name":"Buerocontainer_Mobiliar","doubleSided":true,"pbrMetallicRoughness":{"baseColorFactor":[0.33,0.2,0.09,1.0],"metallicFactor":0.05,"roughnessFactor":0.7}},{"name":"LIGHTS_Buerocontainer_Deckenlampe","doubleSided":true,"emissiveFactor":[1.0,0.9399999976158142,0.7200000286102295],"pbrMetallicRoughness":{"baseColorFactor":[0.96,0.93,0.78,1.0],"metallicFactor":0.0,"roughnessFactor":0.18}}],"meshes":[{"primitives":[{"attributes":{"COLOR_0":5,"NORMAL":2,"POSITION":0,"TANGENT":1,"TEXCOORD_0":3,"TEXCOORD_1":4},"indices":6,"material":0,"mode":4,"extras":{"ASOBO_primitive":{"PrimitiveCount":256,"UV2Length":0.7071067690849304,"UVLength":0.7071067690849304,"VertexCount":768,"VertexType":"VTX","VertexVersion":2}}},{"attributes":{"COLOR_0":5,"NORMAL":2,"POSITION":0,"TANGENT":1,"TEXCOORD_0":3,"TEXCOORD_1":4},"indices":6,"material":1,"mode":4,"extras":{"ASOBO_primitive":{"BaseVertexIndex":768,"PrimitiveCount":128,"StartIndex":768,"UV2Length":0.7071067690849304,"UVLength":0.7071067690849304,"VertexCount":384,"VertexType":"VTX","VertexVersion":2}}},{"attributes":{"COLOR_0":5,"NORMAL":2,"POSITION":0,"TANGENT":1,"TEXCOORD_0":3,"TEXCOORD_1":4},"indices":6,"material":7,"mode":4,"extras":{"ASOBO_primitive":{"BaseVertexIndex":1152,"PrimitiveCount":216,"StartIndex":1152,"UV2Length":0.7071067690849304,"UVLength":0.7071067690849304,"VertexCount":648,"VertexType":"VTX","VertexVersion":2}}},{"attributes":{"COLOR_0":5,"NORMAL":2,"POSITION":0,"TANGENT":1,"TEXCOORD_0":3,"TEXCOORD_1":4},"indices":6,"material":2,"mode":4,"extras":{"ASOBO_primitive":{"BaseVertexIndex":1800,"PrimitiveCount":48,"StartIndex":1800,"UV2Length":0.7071067690849304,"UVLength":0.7071067690849304,"VertexCount":144,"VertexType":"VTX","VertexVersion":2}}},{"attributes":{"COLOR_0":5,"NORMAL":2,"POSITION":0,"TANGENT":1,"TEXCOORD_0":3,"TEXCOORD_1":4},"indices":6,"material":4,"mode":4,"extras":{"ASOBO_primitive":{"BaseVertexIndex":1944,"PrimitiveCount":62,"StartIndex":1944,"UV2Length":0.7071067690849304,"UVLength":0.7071067690849304,"VertexCount":186,"VertexType":"VTX","VertexVersion":2}}},{"attributes":{"COLOR_0":5,"NORMAL":2,"POSITION":0,"TANGENT":1,"TEXCOORD_0":3,"TEXCOORD_1":4},"indices":6,"material":3,"mode":4,"extras":{"ASOBO_primitive":{"BaseVertexIndex":2130,"PrimitiveCount":62,"StartIndex":2130,"UV2Length":0.7071067690849304,"UVLength":0.7071067690849304,"VertexCount":186,"VertexType":"VTX","VertexVersion":2}}},{"attributes":{"COLOR_0":5,"NORMAL":2,"POSITION":0,"TANGENT":1,"TEXCOORD_0":3,"TEXCOORD_1":4},"indices":6,"material":5,"mode":4,"extras":{"ASOBO_primitive":{"BaseVertexIndex":2316,"PrimitiveCount":96,"StartIndex":2316,"UV2Length":0.7071067690849304,"UVLength":0.7071067690849304,"VertexCount":288,"VertexType":"VTX","VertexVersion":2}}},{"attributes":{"COLOR_0":5,"NORMAL":2,"POSITION":0,"TANGENT":1,"TEXCOORD_0":3,"TEXCOORD_1":4},"indices":6,"material":6,"mode":4,"extras":{"ASOBO_primitive":{"BaseVertexIndex":2604,"PrimitiveCount":12,"StartIndex":2604,"UV2Length":0.7071067690849304,"UVLength":0.7071067690849304,"VertexCount":36,"VertexType":"VTX","VertexVersion":2}}},{"attributes":{"COLOR_0":5,"NORMAL":2,"POSITION":0,"TANGENT":1,"TEXCOORD_0":3,"TEXCOORD_1":4},"indices":6,"material":9,"mode":4,"extras":{"ASOBO_primitive":{"BaseVertexIndex":2640,"PrimitiveCount":12,"StartIndex":2640,"UV2Length":0.7071067690849304,"UVLength":0.7071067690849304,"VertexCount":36,"VertexType":"VTX","VertexVersion":2}}},{"attributes":{"COLOR_0":5,"NORMAL":2,"POSITION":0,"TANGENT":1,"TEXCOORD_0":3,"TEXCOORD_1":4},"indices":6,"material":10,"mode":4,"extras":{"ASOBO_primitive":{"BaseVertexIndex":2676,"PrimitiveCount":12,"StartIndex":2676,"UV2Length":0.7071067690849304,"UVLength":0.7071067690849304,"VertexCount":36,"VertexType":"VTX","VertexVersion":2}}},{"attributes":{"COLOR_0":5,"NORMAL":2,"POSITION":0,"TANGENT":1,"TEXCOORD_0":3,"TEXCOORD_1":4},"indices":6,"material":8,"mode":4,"extras":{"ASOBO_primitive":{"BaseVertexIndex":2712,"PrimitiveCount":4,"StartIndex":2712,"UV2Length":0.7071067690849304,"UVLength":0.7071067690849304,"VertexCount":12,"VertexType":"VTX","VertexVersion":2}}},{"attributes":{"COLOR_0":5,"NORMAL":2,"POSITION":0,"TANGENT":1,"TEXCOORD_0":3,"TEXCOORD_1":4},"indices":6,"material":11,"mode":4,"extras":{"ASOBO_primitive":{"BaseVertexIndex":2724,"PrimitiveCount":12,"StartIndex":2724,"UV2Length":0.7071067690849304,"UVLength":0.7071067690849304,"VertexCount":36,"VertexType":"VTX","VertexVersion":2}}}],"name":"HomebaseOpenParking_mesh"}],"nodes":[{"mesh":0,"name":"HomebaseOpenParking_node"}],"scene":0,"scenes":[{"nodes":[0]}],"extensionsUsed":["ASOBO_asset_optimized"],"buffers":[{"byteLength":104880,"uri":"HomebaseOpenParking_LOD00.bin"}]}
